{
  "accessors": [
    {
      "bufferView": 0,
      "componentType": 5125,
      "count": 160953,
      "type": "SCALAR"
    },
    {
      "bufferView": 1,
      "componentType": 5126,
      "count": 31292,
      "max": [
        1.0,
        0.503581047058105,
        0.492720276117325
      ],
      "min": [
        -1.0,
        -0.503581047058105,
        -0.492720276117325
      ],
      "type": "VEC3"
    },
    {
      "bufferView": 2,
      "componentType": 5126,
      "count": 31292,
      "type": "VEC3"
    },
    {
      "bufferView": 3,
      "componentType": 5126,
      "count": 31292,
      "type": "VEC2"
    }
  ],
  "asset": {
    "generator": "Substance Painter 2019.2.3",
    "version": "2.0"
  },
  "bufferViews": [
    {
      "buffer": 0,
      "byteLength": 643812,
      "target": 34963
    },
    {
      "buffer": 0,
      "byteLength": 375504,
      "byteOffset": 643812,
      "target": 34962
    },
    {
      "buffer": 0,
      "byteLength": 375504,
      "byteOffset": 1019316,
      "target": 34962
    },
    {
      "buffer": 0,
      "byteLength": 250336,
      "byteOffset": 1394820,
      "target": 34962
    }
  ],
  "buffers": [
    {
      "byteLength": 1645156,
      "uri": "fluid.bin"
    }
  ],
  "images": [
    {
      "uri": "T_fluid_baseColor.png"
    },
    {
      "uri": "T_fluid_occlusionRoughnessMetallic.png"
    },
    {
      "uri": "T_fluid_normal.png"
    }
  ],
  "materials": [
    {
      "alphaMode": "OPAQUE",
      "name": "T_fluid",
      "normalTexture": {
        "index": 2
      },
      "occlusionTexture": {
        "index": 1
      },
      "pbrMetallicRoughness": {
        "baseColorTexture": {
          "index": 0
        },
        "metallicRoughnessTexture": {
          "index": 1
        }
      }
    }
  ],
  "meshes": [
    {
      "name": "fluid",
      "primitives": [
        {
          "attributes": {
            "NORMAL": 2,
            "POSITION": 1,
            "TEXCOORD_0": 3
          },
          "indices": 0,
          "material": 0,
          "mode": 4
        }
      ]
    }
  ],
  "nodes": [
    {
      "children": [
        1
      ],
      "name": "root",
      "scale": [
        0.969926357269287,
        0.969926357269287,
        0.969926357269287
      ],
      "translation": [
        0.0,
        0.48843652009964,
        0.0
      ]
    },
    {
      "children": [
        2
      ],
      "name": "fluid"
    },
    {
      "mesh": 0,
      "name": "fluid"
    }
  ],
  "samplers": [
    {
      "magFilter": 9729,
      "minFilter": 9985,
      "wrapS": 10497,
      "wrapT": 10497
    }
  ],
  "scene": 0,
  "scenes": [
    {
      "name": "Scene",
      "nodes": [
        0
      ]
    }
  ],
  "textures": [
    {
      "sampler": 0,
      "source": 0
    },
    {
      "sampler": 0,
      "source": 1
    },
    {
      "sampler": 0,
      "source": 2
    }
  ]
}