{
  "accessors": [
    {
      "bufferView": 0,
      "componentType": 5125,
      "count": 382572,
      "type": "SCALAR"
    },
    {
      "bufferView": 1,
      "componentType": 5126,
      "count": 70910,
      "max": [
        1.06066989898682,
        0.913745880126953,
        0.524999976158142
      ],
      "min": [
        -1.0579389333725,
        2.98023223876953e-08,
        -0.525000035762787
      ],
      "type": "VEC3"
    },
    {
      "bufferView": 2,
      "componentType": 5126,
      "count": 70910,
      "type": "VEC3"
    },
    {
      "bufferView": 3,
      "componentType": 5126,
      "count": 70910,
      "type": "VEC2"
    }
  ],
  "asset": {
    "generator": "Substance Painter 6.1.2",
    "version": "2.0"
  },
  "bufferViews": [
    {
      "buffer": 0,
      "byteLength": 1530288,
      "target": 34963
    },
    {
      "buffer": 0,
      "byteLength": 850920,
      "byteOffset": 1530288,
      "target": 34962
    },
    {
      "buffer": 0,
      "byteLength": 850920,
      "byteOffset": 2381208,
      "target": 34962
    },
    {
      "buffer": 0,
      "byteLength": 567280,
      "byteOffset": 3232128,
      "target": 34962
    }
  ],
  "buffers": [
    {
      "byteLength": 3799408,
      "uri": "playground_sofa.bin"
    }
  ],
  "images": [
    {
      "uri": "T_playgrounds0fa_baseColor.png"
    },
    {
      "uri": "T_playgrounds0fa_occlusionRoughnessMetallic.png"
    },
    {
      "uri": "T_playgrounds0fa_normal.png"
    }
  ],
  "materials": [
    {
      "alphaMode": "OPAQUE",
      "name": "T_playgrounds0fa",
      "normalTexture": {
        "index": 2
      },
      "occlusionTexture": {
        "index": 1
      },
      "pbrMetallicRoughness": {
        "baseColorTexture": {
          "index": 0
        },
        "metallicRoughnessTexture": {
          "index": 1
        }
      }
    }
  ],
  "meshes": [
    {
      "name": "playgroundsofa2",
      "primitives": [
        {
          "attributes": {
            "NORMAL": 2,
            "POSITION": 1,
            "TEXCOORD_0": 3
          },
          "indices": 0,
          "material": 0,
          "mode": 4
        }
      ]
    }
  ],
  "nodes": [
    {
      "children": [
        1
      ],
      "name": "RootNode"
    },
    {
      "children": [
        2
      ],
      "name": "playgroundsofa2"
    },
    {
      "mesh": 0,
      "name": "playgroundsofa2"
    }
  ],
  "samplers": [
    {
      "magFilter": 9729,
      "minFilter": 9985,
      "wrapS": 10497,
      "wrapT": 10497
    }
  ],
  "scene": 0,
  "scenes": [
    {
      "name": "Scene",
      "nodes": [
        0
      ]
    }
  ],
  "textures": [
    {
      "sampler": 0,
      "source": 0
    },
    {
      "sampler": 0,
      "source": 1
    },
    {
      "sampler": 0,
      "source": 2
    }
  ]
}