{
  "accessors": [
    {
      "bufferView": 0,
      "componentType": 5125,
      "count": 341502,
      "type": "SCALAR"
    },
    {
      "bufferView": 1,
      "componentType": 5126,
      "count": 75318,
      "max": [
        0.901620924472809,
        0.649999976158142,
        0.210114374756813
      ],
      "min": [
        -0.901620924472809,
        -2.98023223876953e-08,
        -0.189999997615814
      ],
      "type": "VEC3"
    },
    {
      "bufferView": 2,
      "componentType": 5126,
      "count": 75318,
      "type": "VEC3"
    },
    {
      "bufferView": 3,
      "componentType": 5126,
      "count": 75318,
      "type": "VEC2"
    }
  ],
  "asset": {
    "generator": "Substance Painter 6.1.3",
    "version": "2.0"
  },
  "bufferViews": [
    {
      "buffer": 0,
      "byteLength": 1366008,
      "target": 34963
    },
    {
      "buffer": 0,
      "byteLength": 903816,
      "byteOffset": 1366008,
      "target": 34962
    },
    {
      "buffer": 0,
      "byteLength": 903816,
      "byteOffset": 2269824,
      "target": 34962
    },
    {
      "buffer": 0,
      "byteLength": 602544,
      "byteOffset": 3173640,
      "target": 34962
    }
  ],
  "buffers": [
    {
      "byteLength": 3776184,
      "uri": "tvconsole_lattice_grey.bin"
    }
  ],
  "images": [
    {
      "uri": "T_tvconsolelat_grey_baseColor.png"
    },
    {
      "uri": "T_tvconsolelat_grey_occlusionRoughnessMetallic.png"
    },
    {
      "uri": "T_tvconsolelat_grey_normal.png"
    }
  ],
  "materials": [
    {
      "alphaMode": "OPAQUE",
      "name": "T_tvconsolelat_grey",
      "normalTexture": {
        "index": 2
      },
      "occlusionTexture": {
        "index": 1
      },
      "pbrMetallicRoughness": {
        "baseColorTexture": {
          "index": 0
        },
        "metallicRoughnessTexture": {
          "index": 1
        }
      }
    }
  ],
  "meshes": [
    {
      "name": "export",
      "primitives": [
        {
          "attributes": {
            "NORMAL": 2,
            "POSITION": 1,
            "TEXCOORD_0": 3
          },
          "indices": 0,
          "material": 0,
          "mode": 4
        }
      ]
    }
  ],
  "nodes": [
    {
      "children": [
        1
      ],
      "name": "RootNode"
    },
    {
      "children": [
        2
      ],
      "name": "export"
    },
    {
      "mesh": 0,
      "name": "export"
    }
  ],
  "samplers": [
    {
      "magFilter": 9729,
      "minFilter": 9985,
      "wrapS": 10497,
      "wrapT": 10497
    }
  ],
  "scene": 0,
  "scenes": [
    {
      "name": "Scene",
      "nodes": [
        0
      ]
    }
  ],
  "textures": [
    {
      "sampler": 0,
      "source": 0
    },
    {
      "sampler": 0,
      "source": 1
    },
    {
      "sampler": 0,
      "source": 2
    }
  ]
}