{
  "accessors": [
    {
      "bufferView": 0,
      "componentType": 5125,
      "count": 28224,
      "type": "SCALAR"
    },
    {
      "bufferView": 1,
      "componentType": 5126,
      "count": 5016,
      "max": [
        0.878496766090393,
        0.198970913887024,
        0.878508746623993
      ],
      "min": [
        -0.869682133197784,
        -0.220973610877991,
        -0.869682252407074
      ],
      "type": "VEC3"
    },
    {
      "bufferView": 2,
      "componentType": 5126,
      "count": 5016,
      "type": "VEC3"
    },
    {
      "bufferView": 3,
      "componentType": 5126,
      "count": 5016,
      "type": "VEC2"
    },
    {
      "bufferView": 4,
      "componentType": 5125,
      "count": 1524,
      "type": "SCALAR"
    },
    {
      "bufferView": 5,
      "componentType": 5126,
      "count": 401,
      "max": [
        1.0,
        0.220973610877991,
        1.0
      ],
      "min": [
        -1.0,
        0.204306721687317,
        -1.0
      ],
      "type": "VEC3"
    },
    {
      "bufferView": 6,
      "componentType": 5126,
      "count": 401,
      "type": "VEC3"
    },
    {
      "bufferView": 7,
      "componentType": 5126,
      "count": 401,
      "type": "VEC2"
    }
  ],
  "asset": {
    "generator": "Substance Painter 2019.2.3",
    "version": "2.0"
  },
  "bufferViews": [
    {
      "buffer": 0,
      "byteLength": 112896,
      "target": 34963
    },
    {
      "buffer": 0,
      "byteLength": 60192,
      "byteOffset": 112896,
      "target": 34962
    },
    {
      "buffer": 0,
      "byteLength": 60192,
      "byteOffset": 173088,
      "target": 34962
    },
    {
      "buffer": 0,
      "byteLength": 40128,
      "byteOffset": 233280,
      "target": 34962
    },
    {
      "buffer": 0,
      "byteLength": 6096,
      "byteOffset": 273408,
      "target": 34963
    },
    {
      "buffer": 0,
      "byteLength": 4812,
      "byteOffset": 279504,
      "target": 34962
    },
    {
      "buffer": 0,
      "byteLength": 4812,
      "byteOffset": 284316,
      "target": 34962
    },
    {
      "buffer": 0,
      "byteLength": 3208,
      "byteOffset": 289128,
      "target": 34962
    }
  ],
  "buffers": [
    {
      "byteLength": 292336,
      "uri": "mobius.bin"
    }
  ],
  "images": [
    {
      "uri": "T_glasstop_baseColor.png"
    },
    {
      "uri": "T_glasstop_occlusionRoughnessMetallic.png"
    },
    {
      "uri": "T_glasstop_normal.png"
    },
    {
      "uri": "T_supportbase_baseColor.png"
    },
    {
      "uri": "T_supportbase_occlusionRoughnessMetallic.png"
    },
    {
      "uri": "T_supportbase_normal.png"
    }
  ],
  "materials": [
    {
      "alphaMode": "BLEND",
      "name": "T_glasstop",
      "normalTexture": {
        "index": 2
      },
      "occlusionTexture": {
        "index": 1
      },
      "pbrMetallicRoughness": {
        "baseColorTexture": {
          "index": 0
        },
        "metallicRoughnessTexture": {
          "index": 1
        }
      }
    },
    {
      "alphaMode": "OPAQUE",
      "name": "T_supportbase",
      "normalTexture": {
        "index": 5
      },
      "occlusionTexture": {
        "index": 4
      },
      "pbrMetallicRoughness": {
        "baseColorTexture": {
          "index": 3
        },
        "metallicRoughnessTexture": {
          "index": 4
        }
      }
    }
  ],
  "meshes": [
    {
      "name": "mobiusleg_low",
      "primitives": [
        {
          "attributes": {
            "NORMAL": 2,
            "POSITION": 1,
            "TEXCOORD_0": 3
          },
          "indices": 0,
          "material": 1,
          "mode": 4
        }
      ]
    },
    {
      "name": "mobiusglass_low",
      "primitives": [
        {
          "attributes": {
            "NORMAL": 6,
            "POSITION": 5,
            "TEXCOORD_0": 7
          },
          "indices": 4,
          "material": 0,
          "mode": 4
        }
      ]
    }
  ],
  "nodes": [
    {
      "children": [
        1,
        3
      ],
      "name": "root",
      "scale": [
        0.600000143051147,
        0.600000143051147,
        0.600000143051147
      ],
      "translation": [
        0.0,
        0.132629439234734,
        0.0
      ]
    },
    {
      "children": [
        2
      ],
      "name": "mobiusleg_low"
    },
    {
      "mesh": 0,
      "name": "mobiusleg_low"
    },
    {
      "children": [
        4
      ],
      "name": "mobiusglass_low"
    },
    {
      "mesh": 1,
      "name": "mobiusglass_low"
    }
  ],
  "samplers": [
    {
      "magFilter": 9729,
      "minFilter": 9985,
      "wrapS": 10497,
      "wrapT": 10497
    }
  ],
  "scene": 0,
  "scenes": [
    {
      "name": "Scene",
      "nodes": [
        0
      ]
    }
  ],
  "textures": [
    {
      "sampler": 0,
      "source": 0
    },
    {
      "sampler": 0,
      "source": 1
    },
    {
      "sampler": 0,
      "source": 2
    },
    {
      "sampler": 0,
      "source": 3
    },
    {
      "sampler": 0,
      "source": 4
    },
    {
      "sampler": 0,
      "source": 5
    }
  ]
}