{
  "accessors": [
    {
      "bufferView": 0,
      "componentType": 5125,
      "count": 148386,
      "type": "SCALAR"
    },
    {
      "bufferView": 1,
      "componentType": 5126,
      "count": 40854,
      "max": [
        1.18603301048279,
        0.822533369064331,
        0.455864191055298
      ],
      "min": [
        -1.18603301048279,
        9.64701175689697e-05,
        -0.455772995948792
      ],
      "type": "VEC3"
    },
    {
      "bufferView": 2,
      "componentType": 5126,
      "count": 40854,
      "type": "VEC3"
    },
    {
      "bufferView": 3,
      "componentType": 5126,
      "count": 40854,
      "type": "VEC2"
    }
  ],
  "asset": {
    "generator": "Substance Painter 6.1.1",
    "version": "2.0"
  },
  "bufferViews": [
    {
      "buffer": 0,
      "byteLength": 593544,
      "target": 34963
    },
    {
      "buffer": 0,
      "byteLength": 490248,
      "byteOffset": 593544,
      "target": 34962
    },
    {
      "buffer": 0,
      "byteLength": 490248,
      "byteOffset": 1083792,
      "target": 34962
    },
    {
      "buffer": 0,
      "byteLength": 326832,
      "byteOffset": 1574040,
      "target": 34962
    }
  ],
  "buffers": [
    {
      "byteLength": 1900872,
      "uri": "kailua.bin"
    }
  ],
  "images": [
    {
      "uri": "T_  kailua_baseColor.png"
    },
    {
      "uri": "T_  kailua_occlusionRoughnessMetallic.png"
    },
    {
      "uri": "T_  kailua_normal.png"
    }
  ],
  "materials": [
    {
      "alphaMode": "OPAQUE",
      "name": "T_  kailua",
      "normalTexture": {
        "index": 2
      },
      "occlusionTexture": {
        "index": 1
      },
      "pbrMetallicRoughness": {
        "baseColorTexture": {
          "index": 0
        },
        "metallicRoughnessTexture": {
          "index": 1
        }
      }
    }
  ],
  "meshes": [
    {
      "name": "Mesh",
      "primitives": [
        {
          "attributes": {
            "NORMAL": 2,
            "POSITION": 1,
            "TEXCOORD_0": 3
          },
          "indices": 0,
          "material": 0,
          "mode": 4
        }
      ]
    }
  ],
  "nodes": [
    {
      "children": [
        1
      ],
      "name": "RootNode"
    },
    {
      "children": [
        2
      ],
      "name": "Mesh"
    },
    {
      "mesh": 0,
      "name": "Mesh"
    }
  ],
  "samplers": [
    {
      "magFilter": 9729,
      "minFilter": 9985,
      "wrapS": 10497,
      "wrapT": 10497
    }
  ],
  "scene": 0,
  "scenes": [
    {
      "name": "Scene",
      "nodes": [
        0
      ]
    }
  ],
  "textures": [
    {
      "sampler": 0,
      "source": 0
    },
    {
      "sampler": 0,
      "source": 1
    },
    {
      "sampler": 0,
      "source": 2
    }
  ]
}