{
  "accessors": [
    {
      "bufferView": 0,
      "componentType": 5125,
      "count": 148146,
      "type": "SCALAR"
    },
    {
      "bufferView": 1,
      "componentType": 5126,
      "count": 49472,
      "max": [
        0.577578186988831,
        1.74730885028839,
        0.00809200014919043
      ],
      "min": [
        -0.576072335243225,
        0.0,
        -0.00809200014919043
      ],
      "type": "VEC3"
    },
    {
      "bufferView": 2,
      "componentType": 5126,
      "count": 49472,
      "type": "VEC3"
    },
    {
      "bufferView": 3,
      "componentType": 5126,
      "count": 49472,
      "type": "VEC2"
    }
  ],
  "asset": {
    "generator": "Substance Painter 6.2.1",
    "version": "2.0"
  },
  "bufferViews": [
    {
      "buffer": 0,
      "byteLength": 592584,
      "target": 34963
    },
    {
      "buffer": 0,
      "byteLength": 593664,
      "byteOffset": 592584,
      "target": 34962
    },
    {
      "buffer": 0,
      "byteLength": 593664,
      "byteOffset": 1186248,
      "target": 34962
    },
    {
      "buffer": 0,
      "byteLength": 395776,
      "byteOffset": 1779912,
      "target": 34962
    }
  ],
  "buffers": [
    {
      "byteLength": 2175688,
      "uri": "NDPStrongerTogetherWording.bin"
    }
  ],
  "images": [
    {
      "uri": "T_stword_baseColor.png"
    },
    {
      "uri": "T_stword_occlusionRoughnessMetallic.png"
    },
    {
      "uri": "T_stword_normal.png"
    }
  ],
  "materials": [
    {
      "alphaMode": "OPAQUE",
      "name": "T_stword",
      "normalTexture": {
        "index": 2
      },
      "occlusionTexture": {
        "index": 1
      },
      "pbrMetallicRoughness": {
        "baseColorTexture": {
          "index": 0
        },
        "metallicRoughnessTexture": {
          "index": 1
        }
      }
    }
  ],
  "meshes": [
    {
      "name": "stword",
      "primitives": [
        {
          "attributes": {
            "NORMAL": 2,
            "POSITION": 1,
            "TEXCOORD_0": 3
          },
          "indices": 0,
          "material": 0,
          "mode": 4
        }
      ]
    }
  ],
  "nodes": [
    {
      "children": [
        1
      ],
      "name": "RootNode"
    },
    {
      "children": [
        2
      ],
      "name": "stword"
    },
    {
      "mesh": 0,
      "name": "stword"
    }
  ],
  "samplers": [
    {
      "magFilter": 9729,
      "minFilter": 9985,
      "wrapS": 10497,
      "wrapT": 10497
    }
  ],
  "scene": 0,
  "scenes": [
    {
      "name": "Scene",
      "nodes": [
        0
      ]
    }
  ],
  "textures": [
    {
      "sampler": 0,
      "source": 0
    },
    {
      "sampler": 0,
      "source": 1
    },
    {
      "sampler": 0,
      "source": 2
    }
  ]
}