{
  "accessors": [
    {
      "bufferView": 0,
      "componentType": 5125,
      "count": 117864,
      "type": "SCALAR"
    },
    {
      "bufferView": 1,
      "componentType": 5126,
      "count": 20596,
      "max": [
        0.888153791427612,
        1.00000011920929,
        0.785855770111084
      ],
      "min": [
        -0.888153791427612,
        -0.96753603219986,
        -0.785855770111084
      ],
      "type": "VEC3"
    },
    {
      "bufferView": 2,
      "componentType": 5126,
      "count": 20596,
      "type": "VEC3"
    },
    {
      "bufferView": 3,
      "componentType": 5126,
      "count": 20596,
      "type": "VEC2"
    },
    {
      "bufferView": 4,
      "componentType": 5125,
      "count": 3432,
      "type": "SCALAR"
    },
    {
      "bufferView": 5,
      "componentType": 5126,
      "count": 800,
      "max": [
        0.547857522964478,
        -0.945327758789063,
        0.731861710548401
      ],
      "min": [
        -0.547857284545898,
        -1.0,
        -0.464986354112625
      ],
      "type": "VEC3"
    },
    {
      "bufferView": 6,
      "componentType": 5126,
      "count": 800,
      "type": "VEC3"
    },
    {
      "bufferView": 7,
      "componentType": 5126,
      "count": 800,
      "type": "VEC2"
    }
  ],
  "asset": {
    "generator": "Substance Painter 2019.2.3",
    "version": "2.0"
  },
  "bufferViews": [
    {
      "buffer": 0,
      "byteLength": 471456,
      "target": 34963
    },
    {
      "buffer": 0,
      "byteLength": 247152,
      "byteOffset": 471456,
      "target": 34962
    },
    {
      "buffer": 0,
      "byteLength": 247152,
      "byteOffset": 718608,
      "target": 34962
    },
    {
      "buffer": 0,
      "byteLength": 164768,
      "byteOffset": 965760,
      "target": 34962
    },
    {
      "buffer": 0,
      "byteLength": 13728,
      "byteOffset": 1130528,
      "target": 34963
    },
    {
      "buffer": 0,
      "byteLength": 9600,
      "byteOffset": 1144256,
      "target": 34962
    },
    {
      "buffer": 0,
      "byteLength": 9600,
      "byteOffset": 1153856,
      "target": 34962
    },
    {
      "buffer": 0,
      "byteLength": 6400,
      "byteOffset": 1163456,
      "target": 34962
    }
  ],
  "buffers": [
    {
      "byteLength": 1169856,
      "uri": "tembo.bin"
    }
  ],
  "images": [
    {
      "uri": "T_tembofabric_baseColor.png"
    },
    {
      "uri": "T_tembofabric_occlusionRoughnessMetallic.png"
    },
    {
      "uri": "T_tembofabric_normal.png"
    },
    {
      "uri": "T_tembolegcap_baseColor.png"
    },
    {
      "uri": "T_tembolegcap_occlusionRoughnessMetallic.png"
    },
    {
      "uri": "T_tembolegcap_normal.png"
    }
  ],
  "materials": [
    {
      "alphaMode": "OPAQUE",
      "name": "T_tembofabric",
      "normalTexture": {
        "index": 2
      },
      "occlusionTexture": {
        "index": 1
      },
      "pbrMetallicRoughness": {
        "baseColorTexture": {
          "index": 0
        },
        "metallicRoughnessTexture": {
          "index": 1
        }
      }
    },
    {
      "alphaMode": "OPAQUE",
      "name": "T_tembolegcap",
      "normalTexture": {
        "index": 5
      },
      "occlusionTexture": {
        "index": 4
      },
      "pbrMetallicRoughness": {
        "baseColorTexture": {
          "index": 3
        },
        "metallicRoughnessTexture": {
          "index": 4
        }
      }
    }
  ],
  "meshes": [
    {
      "name": "Newworks_Tembo_Chair_mat1",
      "primitives": [
        {
          "attributes": {
            "NORMAL": 2,
            "POSITION": 1,
            "TEXCOORD_0": 3
          },
          "indices": 0,
          "material": 0,
          "mode": 4
        }
      ]
    },
    {
      "name": "Newworks_Tembo_Chair_mat1",
      "primitives": [
        {
          "attributes": {
            "NORMAL": 6,
            "POSITION": 5,
            "TEXCOORD_0": 7
          },
          "indices": 4,
          "material": 1,
          "mode": 4
        }
      ]
    }
  ],
  "nodes": [
    {
      "children": [
        1,
        3
      ],
      "name": "root",
      "scale": [
        0.507344901561737,
        0.507344901561737,
        0.507344901561737
      ],
      "translation": [
        -2.98023223876953e-08,
        0.507344961166382,
        -0.00172638893127441
      ]
    },
    {
      "children": [
        2
      ],
      "name": "Newworks_Tembo_Chair_mat1"
    },
    {
      "mesh": 0,
      "name": "Newworks_Tembo_Chair_mat1"
    },
    {
      "children": [
        4
      ],
      "name": "Newworks_Tembo_Chair_mat1"
    },
    {
      "mesh": 1,
      "name": "Newworks_Tembo_Chair_mat1"
    }
  ],
  "samplers": [
    {
      "magFilter": 9729,
      "minFilter": 9985,
      "wrapS": 10497,
      "wrapT": 10497
    }
  ],
  "scene": 0,
  "scenes": [
    {
      "name": "Scene",
      "nodes": [
        0
      ]
    }
  ],
  "textures": [
    {
      "sampler": 0,
      "source": 0
    },
    {
      "sampler": 0,
      "source": 1
    },
    {
      "sampler": 0,
      "source": 2
    },
    {
      "sampler": 0,
      "source": 3
    },
    {
      "sampler": 0,
      "source": 4
    },
    {
      "sampler": 0,
      "source": 5
    }
  ]
}