{
  "accessors": [
    {
      "bufferView": 0,
      "componentType": 5125,
      "count": 50634,
      "type": "SCALAR"
    },
    {
      "bufferView": 1,
      "componentType": 5126,
      "count": 17748,
      "max": [
        0.303915172815323,
        1.70341813564301,
        0.0599999949336052
      ],
      "min": [
        -0.303921610116959,
        0.0,
        -0.0599999949336052
      ],
      "type": "VEC3"
    },
    {
      "bufferView": 2,
      "componentType": 5126,
      "count": 17748,
      "type": "VEC3"
    },
    {
      "bufferView": 3,
      "componentType": 5126,
      "count": 17748,
      "type": "VEC2"
    }
  ],
  "asset": {
    "generator": "Substance Painter 6.1.0",
    "version": "2.0"
  },
  "bufferViews": [
    {
      "buffer": 0,
      "byteLength": 202536,
      "target": 34963
    },
    {
      "buffer": 0,
      "byteLength": 212976,
      "byteOffset": 202536,
      "target": 34962
    },
    {
      "buffer": 0,
      "byteLength": 212976,
      "byteOffset": 415512,
      "target": 34962
    },
    {
      "buffer": 0,
      "byteLength": 141984,
      "byteOffset": 628488,
      "target": 34962
    }
  ],
  "buffers": [
    {
      "byteLength": 770472,
      "uri": "selamathariraya.bin"
    }
  ],
  "images": [
    {
      "uri": "T_selamat_baseColor.png"
    },
    {
      "uri": "T_selamat_occlusionRoughnessMetallic.png"
    },
    {
      "uri": "T_selamat_normal.png"
    }
  ],
  "materials": [
    {
      "alphaMode": "OPAQUE",
      "name": "T_selamat",
      "normalTexture": {
        "index": 2
      },
      "occlusionTexture": {
        "index": 1
      },
      "pbrMetallicRoughness": {
        "baseColorTexture": {
          "index": 0
        },
        "metallicRoughnessTexture": {
          "index": 1
        }
      }
    }
  ],
  "meshes": [
    {
      "name": "Plane",
      "primitives": [
        {
          "attributes": {
            "NORMAL": 2,
            "POSITION": 1,
            "TEXCOORD_0": 3
          },
          "indices": 0,
          "material": 0,
          "mode": 4
        }
      ]
    }
  ],
  "nodes": [
    {
      "children": [
        1
      ],
      "name": "RootNode"
    },
    {
      "children": [
        2
      ],
      "name": "Plane"
    },
    {
      "mesh": 0,
      "name": "Plane"
    }
  ],
  "samplers": [
    {
      "magFilter": 9729,
      "minFilter": 9985,
      "wrapS": 10497,
      "wrapT": 10497
    }
  ],
  "scene": 0,
  "scenes": [
    {
      "name": "Scene",
      "nodes": [
        0
      ]
    }
  ],
  "textures": [
    {
      "sampler": 0,
      "source": 0
    },
    {
      "sampler": 0,
      "source": 1
    },
    {
      "sampler": 0,
      "source": 2
    }
  ]
}