{
  "accessors": [
    {
      "bufferView": 0,
      "componentType": 5125,
      "count": 154392,
      "type": "SCALAR"
    },
    {
      "bufferView": 1,
      "componentType": 5126,
      "count": 63031,
      "max": [
        0.650156497955322,
        0.423601567745209,
        0.0753626376390457
      ],
      "min": [
        -0.666809380054474,
        -0.0492995381355286,
        -0.0753626376390457
      ],
      "type": "VEC3"
    },
    {
      "bufferView": 2,
      "componentType": 5126,
      "count": 63031,
      "type": "VEC3"
    },
    {
      "bufferView": 3,
      "componentType": 5126,
      "count": 63031,
      "type": "VEC2"
    }
  ],
  "asset": {
    "generator": "Substance Painter 6.1.0",
    "version": "2.0"
  },
  "bufferViews": [
    {
      "buffer": 0,
      "byteLength": 617568,
      "target": 34963
    },
    {
      "buffer": 0,
      "byteLength": 756372,
      "byteOffset": 617568,
      "target": 34962
    },
    {
      "buffer": 0,
      "byteLength": 756372,
      "byteOffset": 1373940,
      "target": 34962
    },
    {
      "buffer": 0,
      "byteLength": 504248,
      "byteOffset": 2130312,
      "target": 34962
    }
  ],
  "buffers": [
    {
      "byteLength": 2634560,
      "uri": "hariraya_box_deco.bin"
    }
  ],
  "images": [
    {
      "uri": "T_HYR_box_deco_baseColor.png"
    },
    {
      "uri": "T_HYR_box_deco_occlusionRoughnessMetallic.png"
    },
    {
      "uri": "T_HYR_box_deco_normal.png"
    }
  ],
  "materials": [
    {
      "alphaMode": "OPAQUE",
      "name": "T_HYR_box_deco",
      "normalTexture": {
        "index": 2
      },
      "occlusionTexture": {
        "index": 1
      },
      "pbrMetallicRoughness": {
        "baseColorTexture": {
          "index": 0
        },
        "metallicRoughnessTexture": {
          "index": 1
        }
      }
    }
  ],
  "meshes": [
    {
      "name": "Cube",
      "primitives": [
        {
          "attributes": {
            "NORMAL": 2,
            "POSITION": 1,
            "TEXCOORD_0": 3
          },
          "indices": 0,
          "material": 0,
          "mode": 4
        }
      ]
    }
  ],
  "nodes": [
    {
      "children": [
        1
      ],
      "name": "RootNode"
    },
    {
      "children": [
        2
      ],
      "name": "Cube",
      "translation": [
        1.25169750120335e-08,
        0.0492995344102383,
        0.0
      ]
    },
    {
      "mesh": 0,
      "name": "Cube"
    }
  ],
  "samplers": [
    {
      "magFilter": 9729,
      "minFilter": 9985,
      "wrapS": 10497,
      "wrapT": 10497
    }
  ],
  "scene": 0,
  "scenes": [
    {
      "name": "Scene",
      "nodes": [
        0
      ]
    }
  ],
  "textures": [
    {
      "sampler": 0,
      "source": 0
    },
    {
      "sampler": 0,
      "source": 1
    },
    {
      "sampler": 0,
      "source": 2
    }
  ]
}