{
  "accessors": [
    {
      "bufferView": 0,
      "componentType": 5125,
      "count": 33864,
      "type": "SCALAR"
    },
    {
      "bufferView": 1,
      "componentType": 5126,
      "count": 8669,
      "max": [
        0.160921186208725,
        1.0,
        0.143765598535538
      ],
      "min": [
        -0.160921186208725,
        -1.0,
        -0.186591669917107
      ],
      "type": "VEC3"
    },
    {
      "bufferView": 2,
      "componentType": 5126,
      "count": 8669,
      "type": "VEC3"
    },
    {
      "bufferView": 3,
      "componentType": 5126,
      "count": 8669,
      "type": "VEC2"
    },
    {
      "bufferView": 4,
      "componentType": 5125,
      "count": 11136,
      "type": "SCALAR"
    },
    {
      "bufferView": 5,
      "componentType": 5126,
      "count": 2040,
      "max": [
        0.0647456794977188,
        0.977866590023041,
        0.186591655015945
      ],
      "min": [
        -0.0647456720471382,
        0.849746406078339,
        0.0394582822918892
      ],
      "type": "VEC3"
    },
    {
      "bufferView": 6,
      "componentType": 5126,
      "count": 2040,
      "type": "VEC3"
    },
    {
      "bufferView": 7,
      "componentType": 5126,
      "count": 2040,
      "type": "VEC2"
    }
  ],
  "asset": {
    "generator": "Substance Painter 2019.2.3",
    "version": "2.0"
  },
  "bufferViews": [
    {
      "buffer": 0,
      "byteLength": 135456,
      "target": 34963
    },
    {
      "buffer": 0,
      "byteLength": 104028,
      "byteOffset": 135456,
      "target": 34962
    },
    {
      "buffer": 0,
      "byteLength": 104028,
      "byteOffset": 239484,
      "target": 34962
    },
    {
      "buffer": 0,
      "byteLength": 69352,
      "byteOffset": 343512,
      "target": 34962
    },
    {
      "buffer": 0,
      "byteLength": 44544,
      "byteOffset": 412864,
      "target": 34963
    },
    {
      "buffer": 0,
      "byteLength": 24480,
      "byteOffset": 457408,
      "target": 34962
    },
    {
      "buffer": 0,
      "byteLength": 24480,
      "byteOffset": 481888,
      "target": 34962
    },
    {
      "buffer": 0,
      "byteLength": 16320,
      "byteOffset": 506368,
      "target": 34962
    }
  ],
  "buffers": [
    {
      "byteLength": 522688,
      "uri": "fivefloorlamp.bin"
    }
  ],
  "images": [
    {
      "uri": "T_fivefl_baseColor.png"
    },
    {
      "uri": "T_fivefl_occlusionRoughnessMetallic.png"
    },
    {
      "uri": "T_fivefl_normal.png"
    },
    {
      "uri": "T_fivefl_emissive.png"
    },
    {
      "uri": "T_fiveflglass_baseColor.png"
    },
    {
      "uri": "T_fiveflglass_occlusionRoughnessMetallic.png"
    },
    {
      "uri": "T_fiveflglass_normal.png"
    },
    {
      "uri": "T_fiveflglass_emissive.png"
    }
  ],
  "materials": [
    {
      "alphaMode": "OPAQUE",
      "emissiveFactor": [
        1.0,
        1.0,
        1.0
      ],
      "emissiveTexture": {
        "index": 3
      },
      "name": "T_fivefl",
      "normalTexture": {
        "index": 2
      },
      "occlusionTexture": {
        "index": 1
      },
      "pbrMetallicRoughness": {
        "baseColorTexture": {
          "index": 0
        },
        "metallicRoughnessTexture": {
          "index": 1
        }
      }
    },
    {
      "alphaMode": "BLEND",
      "emissiveFactor": [
        1.0,
        1.0,
        1.0
      ],
      "emissiveTexture": {
        "index": 7
      },
      "name": "T_fiveflglass",
      "normalTexture": {
        "index": 6
      },
      "occlusionTexture": {
        "index": 5
      },
      "pbrMetallicRoughness": {
        "baseColorTexture": {
          "index": 4
        },
        "metallicRoughnessTexture": {
          "index": 5
        }
      }
    }
  ],
  "meshes": [
    {
      "name": "New_Works_Five_Floor_Lamp_rig_mat1_01",
      "primitives": [
        {
          "attributes": {
            "NORMAL": 2,
            "POSITION": 1,
            "TEXCOORD_0": 3
          },
          "indices": 0,
          "material": 0,
          "mode": 4
        }
      ]
    },
    {
      "name": "New_Works_Five_Floor_Lamp_rig_mat1_01",
      "primitives": [
        {
          "attributes": {
            "NORMAL": 6,
            "POSITION": 5,
            "TEXCOORD_0": 7
          },
          "indices": 4,
          "material": 1,
          "mode": 4
        }
      ]
    }
  ],
  "nodes": [
    {
      "children": [
        1,
        3
      ],
      "name": "root",
      "scale": [
        0.8699911236763,
        0.8699911236763,
        0.8699911236763
      ],
      "translation": [
        0.0,
        0.869989693164825,
        0.0149251967668533
      ]
    },
    {
      "children": [
        2
      ],
      "name": "New_Works_Five_Floor_Lamp_rig_mat1_01"
    },
    {
      "mesh": 0,
      "name": "New_Works_Five_Floor_Lamp_rig_mat1_01"
    },
    {
      "children": [
        4
      ],
      "name": "New_Works_Five_Floor_Lamp_rig_mat1_01"
    },
    {
      "mesh": 1,
      "name": "New_Works_Five_Floor_Lamp_rig_mat1_01"
    }
  ],
  "samplers": [
    {
      "magFilter": 9729,
      "minFilter": 9985,
      "wrapS": 10497,
      "wrapT": 10497
    }
  ],
  "scene": 0,
  "scenes": [
    {
      "name": "Scene",
      "nodes": [
        0
      ]
    }
  ],
  "textures": [
    {
      "sampler": 0,
      "source": 0
    },
    {
      "sampler": 0,
      "source": 1
    },
    {
      "sampler": 0,
      "source": 2
    },
    {
      "sampler": 0,
      "source": 3
    },
    {
      "sampler": 0,
      "source": 4
    },
    {
      "sampler": 0,
      "source": 5
    },
    {
      "sampler": 0,
      "source": 6
    },
    {
      "sampler": 0,
      "source": 7
    }
  ]
}