{
  "accessors": [
    {
      "bufferView": 0,
      "componentType": 5125,
      "count": 201264,
      "type": "SCALAR"
    },
    {
      "bufferView": 1,
      "componentType": 5126,
      "count": 37847,
      "max": [
        0.943108677864075,
        0.917104363441467,
        0.999999940395355
      ],
      "min": [
        -0.943108677864075,
        -0.933756291866302,
        -1.0
      ],
      "type": "VEC3"
    },
    {
      "bufferView": 2,
      "componentType": 5126,
      "count": 37847,
      "type": "VEC3"
    },
    {
      "bufferView": 3,
      "componentType": 5126,
      "count": 37847,
      "type": "VEC2"
    }
  ],
  "asset": {
    "generator": "Substance Painter 2019.3.3",
    "version": "2.0"
  },
  "bufferViews": [
    {
      "buffer": 0,
      "byteLength": 805056,
      "target": 34963
    },
    {
      "buffer": 0,
      "byteLength": 454164,
      "byteOffset": 805056,
      "target": 34962
    },
    {
      "buffer": 0,
      "byteLength": 454164,
      "byteOffset": 1259220,
      "target": 34962
    },
    {
      "buffer": 0,
      "byteLength": 302776,
      "byteOffset": 1713384,
      "target": 34962
    }
  ],
  "buffers": [
    {
      "byteLength": 2016160,
      "uri": "round_stool.bin"
    }
  ],
  "images": [
    {
      "uri": "grid_mat_baseColor.png"
    },
    {
      "uri": "grid_mat_occlusionRoughnessMetallic.png"
    },
    {
      "uri": "grid_mat_normal.png"
    }
  ],
  "materials": [
    {
      "alphaMode": "OPAQUE",
      "name": "grid_mat",
      "normalTexture": {
        "index": 2
      },
      "occlusionTexture": {
        "index": 1
      },
      "pbrMetallicRoughness": {
        "baseColorTexture": {
          "index": 0
        },
        "metallicRoughnessTexture": {
          "index": 1
        }
      }
    }
  ],
  "meshes": [
    {
      "name": "round_stool",
      "primitives": [
        {
          "attributes": {
            "NORMAL": 2,
            "POSITION": 1,
            "TEXCOORD_0": 3
          },
          "indices": 0,
          "material": 0,
          "mode": 4
        }
      ]
    }
  ],
  "nodes": [
    {
      "children": [
        1
      ],
      "name": "root",
      "scale": [
        0.180157989263535,
        0.180157989263535,
        0.180157989263535
      ],
      "translation": [
        0.0312305837869644,
        0.163993418216705,
        0.00185319781303406
      ]
    },
    {
      "children": [
        2
      ],
      "name": "round_stool"
    },
    {
      "mesh": 0,
      "name": "round_stool"
    }
  ],
  "samplers": [
    {
      "magFilter": 9729,
      "minFilter": 9985,
      "wrapS": 10497,
      "wrapT": 10497
    }
  ],
  "scene": 0,
  "scenes": [
    {
      "name": "Scene",
      "nodes": [
        0
      ]
    }
  ],
  "textures": [
    {
      "sampler": 0,
      "source": 0
    },
    {
      "sampler": 0,
      "source": 1
    },
    {
      "sampler": 0,
      "source": 2
    }
  ]
}