{
  "accessors": [
    {
      "bufferView": 0,
      "componentType": 5125,
      "count": 37725,
      "type": "SCALAR"
    },
    {
      "bufferView": 1,
      "componentType": 5126,
      "count": 12185,
      "max": [
        1.0,
        0.912568747997284,
        0.402574628591537
      ],
      "min": [
        -1.0,
        -0.912568747997284,
        -0.402574628591537
      ],
      "type": "VEC3"
    },
    {
      "bufferView": 2,
      "componentType": 5126,
      "count": 12185,
      "type": "VEC3"
    },
    {
      "bufferView": 3,
      "componentType": 5126,
      "count": 12185,
      "type": "VEC2"
    }
  ],
  "asset": {
    "generator": "Substance Painter 2019.2.3",
    "version": "2.0"
  },
  "bufferViews": [
    {
      "buffer": 0,
      "byteLength": 150900,
      "target": 34963
    },
    {
      "buffer": 0,
      "byteLength": 146220,
      "byteOffset": 150900,
      "target": 34962
    },
    {
      "buffer": 0,
      "byteLength": 146220,
      "byteOffset": 297120,
      "target": 34962
    },
    {
      "buffer": 0,
      "byteLength": 97480,
      "byteOffset": 443340,
      "target": 34962
    }
  ],
  "buffers": [
    {
      "byteLength": 540820,
      "uri": "sstv.bin"
    }
  ],
  "images": [
    {
      "uri": "T_sstv_baseColor.png"
    },
    {
      "uri": "T_sstv_occlusionRoughnessMetallic.png"
    },
    {
      "uri": "T_sstv_normal.png"
    },
    {
      "uri": "T_sstv_emissive.png"
    }
  ],
  "materials": [
    {
      "alphaMode": "OPAQUE",
      "emissiveFactor": [
        1.0,
        1.0,
        1.0
      ],
      "emissiveTexture": {
        "index": 3
      },
      "name": "T_sstv",
      "normalTexture": {
        "index": 2
      },
      "occlusionTexture": {
        "index": 1
      },
      "pbrMetallicRoughness": {
        "baseColorTexture": {
          "index": 0
        },
        "metallicRoughnessTexture": {
          "index": 1
        }
      }
    }
  ],
  "meshes": [
    {
      "name": "samsungtv",
      "primitives": [
        {
          "attributes": {
            "NORMAL": 2,
            "POSITION": 1,
            "TEXCOORD_0": 3
          },
          "indices": 0,
          "material": 0,
          "mode": 4
        }
      ]
    }
  ],
  "nodes": [
    {
      "children": [
        1
      ],
      "name": "root",
      "scale": [
        72.005485534668,
        72.005485534668,
        72.005485534668
      ],
      "translation": [
        0.0,
        65.7099533081055,
        0.0
      ]
    },
    {
      "children": [
        2
      ],
      "name": "samsungtv"
    },
    {
      "mesh": 0,
      "name": "samsungtv"
    }
  ],
  "samplers": [
    {
      "magFilter": 9729,
      "minFilter": 9985,
      "wrapS": 10497,
      "wrapT": 10497
    }
  ],
  "scene": 0,
  "scenes": [
    {
      "name": "Scene",
      "nodes": [
        0
      ]
    }
  ],
  "textures": [
    {
      "sampler": 0,
      "source": 0
    },
    {
      "sampler": 0,
      "source": 1
    },
    {
      "sampler": 0,
      "source": 2
    },
    {
      "sampler": 0,
      "source": 3
    }
  ]
}