{
  "accessors": [
    {
      "bufferView": 0,
      "componentType": 5125,
      "count": 78696,
      "type": "SCALAR"
    },
    {
      "bufferView": 1,
      "componentType": 5126,
      "count": 19659,
      "max": [
        0.278145909309387,
        0.7808837890625,
        0.275762438774109
      ],
      "min": [
        -0.278131484985352,
        -5.00679016113281e-06,
        -0.260509938001633
      ],
      "type": "VEC3"
    },
    {
      "bufferView": 2,
      "componentType": 5126,
      "count": 19659,
      "type": "VEC3"
    },
    {
      "bufferView": 3,
      "componentType": 5126,
      "count": 19659,
      "type": "VEC2"
    }
  ],
  "asset": {
    "generator": "Substance Painter 6.1.1",
    "version": "2.0"
  },
  "bufferViews": [
    {
      "buffer": 0,
      "byteLength": 314784,
      "target": 34963
    },
    {
      "buffer": 0,
      "byteLength": 235908,
      "byteOffset": 314784,
      "target": 34962
    },
    {
      "buffer": 0,
      "byteLength": 235908,
      "byteOffset": 550692,
      "target": 34962
    },
    {
      "buffer": 0,
      "byteLength": 157272,
      "byteOffset": 786600,
      "target": 34962
    }
  ],
  "buffers": [
    {
      "byteLength": 943872,
      "uri": "armetMet1.bin"
    }
  ],
  "images": [
    {
      "uri": "T_armetstrike_baseColor.png"
    },
    {
      "uri": "T_armetstrike_occlusionRoughnessMetallic.png"
    },
    {
      "uri": "T_armetstrike_normal.png"
    }
  ],
  "materials": [
    {
      "alphaMode": "OPAQUE",
      "name": "T_armetstrike",
      "normalTexture": {
        "index": 2
      },
      "occlusionTexture": {
        "index": 1
      },
      "pbrMetallicRoughness": {
        "baseColorTexture": {
          "index": 0
        },
        "metallicRoughnessTexture": {
          "index": 1
        }
      }
    }
  ],
  "meshes": [
    {
      "name": "Arrmet_Strike_mat1",
      "primitives": [
        {
          "attributes": {
            "NORMAL": 2,
            "POSITION": 1,
            "TEXCOORD_0": 3
          },
          "indices": 0,
          "material": 0,
          "mode": 4
        }
      ]
    }
  ],
  "nodes": [
    {
      "children": [
        1
      ],
      "name": "root"
    },
    {
      "children": [
        2
      ],
      "name": "Arrmet_Strike_mat1"
    },
    {
      "mesh": 0,
      "name": "Arrmet_Strike_mat1"
    }
  ],
  "samplers": [
    {
      "magFilter": 9729,
      "minFilter": 9985,
      "wrapS": 10497,
      "wrapT": 10497
    }
  ],
  "scene": 0,
  "scenes": [
    {
      "name": "Scene",
      "nodes": [
        0
      ]
    }
  ],
  "textures": [
    {
      "sampler": 0,
      "source": 0
    },
    {
      "sampler": 0,
      "source": 1
    },
    {
      "sampler": 0,
      "source": 2
    }
  ]
}