{
  "accessors": [
    {
      "bufferView": 0,
      "componentType": 5125,
      "count": 78696,
      "type": "SCALAR"
    },
    {
      "bufferView": 1,
      "componentType": 5126,
      "count": 19659,
      "max": [
        0.712364614009857,
        1.00000047683716,
        0.686744928359985
      ],
      "min": [
        -0.712363123893738,
        -1.0,
        -0.686746299266815
      ],
      "type": "VEC3"
    },
    {
      "bufferView": 2,
      "componentType": 5126,
      "count": 19659,
      "type": "VEC3"
    },
    {
      "bufferView": 3,
      "componentType": 5126,
      "count": 19659,
      "type": "VEC2"
    }
  ],
  "asset": {
    "generator": "Substance Painter 2019.2.3",
    "version": "2.0"
  },
  "bufferViews": [
    {
      "buffer": 0,
      "byteLength": 314784,
      "target": 34963
    },
    {
      "buffer": 0,
      "byteLength": 235908,
      "byteOffset": 314784,
      "target": 34962
    },
    {
      "buffer": 0,
      "byteLength": 235908,
      "byteOffset": 550692,
      "target": 34962
    },
    {
      "buffer": 0,
      "byteLength": 157272,
      "byteOffset": 786600,
      "target": 34962
    }
  ],
  "buffers": [
    {
      "byteLength": 943872,
      "uri": "strike.bin"
    }
  ],
  "images": [
    {
      "uri": "T_armetstrike_baseColor.png"
    },
    {
      "uri": "T_armetstrike_occlusionRoughnessMetallic.png"
    },
    {
      "uri": "T_armetstrike_normal.png"
    }
  ],
  "materials": [
    {
      "alphaMode": "OPAQUE",
      "name": "T_armetstrike",
      "normalTexture": {
        "index": 2
      },
      "occlusionTexture": {
        "index": 1
      },
      "pbrMetallicRoughness": {
        "baseColorTexture": {
          "index": 0
        },
        "metallicRoughnessTexture": {
          "index": 1
        }
      }
    }
  ],
  "meshes": [
    {
      "name": "strike",
      "primitives": [
        {
          "attributes": {
            "NORMAL": 2,
            "POSITION": 1,
            "TEXCOORD_0": 3
          },
          "indices": 0,
          "material": 0,
          "mode": 4
        }
      ]
    }
  ],
  "nodes": [
    {
      "children": [
        1
      ],
      "name": "strike.obj",
      "scale": [
        0.390444427728653,
        0.390444427728653,
        0.390444427728653
      ],
      "translation": [
        7.21216201782227e-06,
        0.390439420938492,
        0.00762626528739929
      ]
    },
    {
      "children": [
        2
      ],
      "name": "g strike"
    },
    {
      "mesh": 0,
      "name": "strike"
    }
  ],
  "samplers": [
    {
      "magFilter": 9729,
      "minFilter": 9985,
      "wrapS": 10497,
      "wrapT": 10497
    }
  ],
  "scene": 0,
  "scenes": [
    {
      "name": "Scene",
      "nodes": [
        0
      ]
    }
  ],
  "textures": [
    {
      "sampler": 0,
      "source": 0
    },
    {
      "sampler": 0,
      "source": 1
    },
    {
      "sampler": 0,
      "source": 2
    }
  ]
}