{
  "accessors": [
    {
      "bufferView": 0,
      "componentType": 5125,
      "count": 11556,
      "type": "SCALAR"
    },
    {
      "bufferView": 1,
      "componentType": 5126,
      "count": 3112,
      "max": [
        0.800000071525574,
        1.0,
        0.293333411216736
      ],
      "min": [
        -0.800000071525574,
        -1.0,
        -0.293333351612091
      ],
      "type": "VEC3"
    },
    {
      "bufferView": 2,
      "componentType": 5126,
      "count": 3112,
      "type": "VEC3"
    },
    {
      "bufferView": 3,
      "componentType": 5126,
      "count": 3112,
      "type": "VEC2"
    }
  ],
  "asset": {
    "generator": "Substance Painter 2019.3.3",
    "version": "2.0"
  },
  "bufferViews": [
    {
      "buffer": 0,
      "byteLength": 46224,
      "target": 34963
    },
    {
      "buffer": 0,
      "byteLength": 37344,
      "byteOffset": 46224,
      "target": 34962
    },
    {
      "buffer": 0,
      "byteLength": 37344,
      "byteOffset": 83568,
      "target": 34962
    },
    {
      "buffer": 0,
      "byteLength": 24896,
      "byteOffset": 120912,
      "target": 34962
    }
  ],
  "buffers": [
    {
      "byteLength": 145808,
      "uri": "play_shelf.bin"
    }
  ],
  "images": [
    {
      "uri": "T_playshelf_baseColor.png"
    },
    {
      "uri": "T_playshelf_occlusionRoughnessMetallic.png"
    },
    {
      "uri": "T_playshelf_normal.png"
    }
  ],
  "materials": [
    {
      "alphaMode": "OPAQUE",
      "name": "T_playshelf",
      "normalTexture": {
        "index": 2
      },
      "occlusionTexture": {
        "index": 1
      },
      "pbrMetallicRoughness": {
        "baseColorTexture": {
          "index": 0
        },
        "metallicRoughnessTexture": {
          "index": 1
        }
      }
    }
  ],
  "meshes": [
    {
      "name": "Cylinder",
      "primitives": [
        {
          "attributes": {
            "NORMAL": 2,
            "POSITION": 1,
            "TEXCOORD_0": 3
          },
          "indices": 0,
          "material": 0,
          "mode": 4
        }
      ]
    }
  ],
  "nodes": [
    {
      "children": [
        1
      ],
      "name": "root",
      "scale": [
        0.375,
        0.375,
        0.375
      ],
      "translation": [
        0.0,
        0.375,
        0.109999984502792
      ]
    },
    {
      "children": [
        2
      ],
      "name": "Cylinder"
    },
    {
      "mesh": 0,
      "name": "Cylinder"
    }
  ],
  "samplers": [
    {
      "magFilter": 9729,
      "minFilter": 9985,
      "wrapS": 10497,
      "wrapT": 10497
    }
  ],
  "scene": 0,
  "scenes": [
    {
      "name": "Scene",
      "nodes": [
        0
      ]
    }
  ],
  "textures": [
    {
      "sampler": 0,
      "source": 0
    },
    {
      "sampler": 0,
      "source": 1
    },
    {
      "sampler": 0,
      "source": 2
    }
  ]
}