{
  "accessors": [
    {
      "bufferView": 0,
      "componentType": 5125,
      "count": 262140,
      "type": "SCALAR"
    },
    {
      "bufferView": 1,
      "componentType": 5126,
      "count": 54630,
      "max": [
        0.475836098194122,
        1.75113499164581,
        0.280008405447006
      ],
      "min": [
        -0.475836098194122,
        0.0,
        -0.280511409044266
      ],
      "type": "VEC3"
    },
    {
      "bufferView": 2,
      "componentType": 5126,
      "count": 54630,
      "type": "VEC3"
    },
    {
      "bufferView": 3,
      "componentType": 5126,
      "count": 54630,
      "type": "VEC2"
    }
  ],
  "asset": {
    "generator": "Substance Painter 6.1.3",
    "version": "2.0"
  },
  "bufferViews": [
    {
      "buffer": 0,
      "byteLength": 1048560,
      "target": 34963
    },
    {
      "buffer": 0,
      "byteLength": 655560,
      "byteOffset": 1048560,
      "target": 34962
    },
    {
      "buffer": 0,
      "byteLength": 655560,
      "byteOffset": 1704120,
      "target": 34962
    },
    {
      "buffer": 0,
      "byteLength": 437040,
      "byteOffset": 2359680,
      "target": 34962
    }
  ],
  "buffers": [
    {
      "byteLength": 2796720,
      "uri": "wedding_cabinet_black.bin"
    }
  ],
  "images": [
    {
      "uri": "T_weddingcab_black_baseColor.png"
    },
    {
      "uri": "T_weddingcab_black_occlusionRoughnessMetallic.png"
    },
    {
      "uri": "T_weddingcab_black_normal.png"
    }
  ],
  "materials": [
    {
      "alphaMode": "OPAQUE",
      "name": "T_weddingcab_black",
      "normalTexture": {
        "index": 2
      },
      "occlusionTexture": {
        "index": 1
      },
      "pbrMetallicRoughness": {
        "baseColorTexture": {
          "index": 0
        },
        "metallicRoughnessTexture": {
          "index": 1
        }
      }
    }
  ],
  "meshes": [
    {
      "name": "export",
      "primitives": [
        {
          "attributes": {
            "NORMAL": 2,
            "POSITION": 1,
            "TEXCOORD_0": 3
          },
          "indices": 0,
          "material": 0,
          "mode": 4
        }
      ]
    }
  ],
  "nodes": [
    {
      "children": [
        1
      ],
      "name": "RootNode"
    },
    {
      "children": [
        2
      ],
      "name": "export",
      "scale": [
        1.04999995231628,
        1.04999995231628,
        1.0
      ]
    },
    {
      "mesh": 0,
      "name": "export"
    }
  ],
  "samplers": [
    {
      "magFilter": 9729,
      "minFilter": 9985,
      "wrapS": 10497,
      "wrapT": 10497
    }
  ],
  "scene": 0,
  "scenes": [
    {
      "name": "Scene",
      "nodes": [
        0
      ]
    }
  ],
  "textures": [
    {
      "sampler": 0,
      "source": 0
    },
    {
      "sampler": 0,
      "source": 1
    },
    {
      "sampler": 0,
      "source": 2
    }
  ]
}