{
  "accessors": [
    {
      "bufferView": 0,
      "componentType": 5125,
      "count": 2643,
      "type": "SCALAR"
    },
    {
      "bufferView": 1,
      "componentType": 5126,
      "count": 1311,
      "max": [
        1.0,
        0.54285717010498,
        0.28571429848671
      ],
      "min": [
        -1.0,
        -0.54285717010498,
        -0.28571429848671
      ],
      "type": "VEC3"
    },
    {
      "bufferView": 2,
      "componentType": 5126,
      "count": 1311,
      "type": "VEC3"
    },
    {
      "bufferView": 3,
      "componentType": 5126,
      "count": 1311,
      "type": "VEC2"
    }
  ],
  "asset": {
    "generator": "Substance Painter 2019.3.2",
    "version": "2.0"
  },
  "bufferViews": [
    {
      "buffer": 0,
      "byteLength": 10572,
      "target": 34963
    },
    {
      "buffer": 0,
      "byteLength": 15732,
      "byteOffset": 10572,
      "target": 34962
    },
    {
      "buffer": 0,
      "byteLength": 15732,
      "byteOffset": 26304,
      "target": 34962
    },
    {
      "buffer": 0,
      "byteLength": 10488,
      "byteOffset": 42036,
      "target": 34962
    }
  ],
  "buffers": [
    {
      "byteLength": 52524,
      "uri": "steel_frame_console.bin"
    }
  ],
  "images": [
    {
      "uri": "T_consoletable_baseColor.png"
    },
    {
      "uri": "T_consoletable_occlusionRoughnessMetallic.png"
    },
    {
      "uri": "T_consoletable_normal.png"
    }
  ],
  "materials": [
    {
      "alphaMode": "OPAQUE",
      "name": "T_consoletable",
      "normalTexture": {
        "index": 2
      },
      "occlusionTexture": {
        "index": 1
      },
      "pbrMetallicRoughness": {
        "baseColorTexture": {
          "index": 0
        },
        "metallicRoughnessTexture": {
          "index": 1
        }
      }
    }
  ],
  "meshes": [
    {
      "name": "console table",
      "primitives": [
        {
          "attributes": {
            "NORMAL": 2,
            "POSITION": 1,
            "TEXCOORD_0": 3
          },
          "indices": 0,
          "material": 0,
          "mode": 4
        }
      ]
    }
  ],
  "nodes": [
    {
      "children": [
        1
      ],
      "name": "root",
      "scale": [
        0.699999988079071,
        0.699999988079071,
        0.699999988079071
      ],
      "translation": [
        0.0,
        0.379999995231628,
        0.0
      ]
    },
    {
      "children": [
        2
      ],
      "name": "console table"
    },
    {
      "mesh": 0,
      "name": "console table"
    }
  ],
  "samplers": [
    {
      "magFilter": 9729,
      "minFilter": 9985,
      "wrapS": 10497,
      "wrapT": 10497
    }
  ],
  "scene": 0,
  "scenes": [
    {
      "name": "Scene",
      "nodes": [
        0
      ]
    }
  ],
  "textures": [
    {
      "sampler": 0,
      "source": 0
    },
    {
      "sampler": 0,
      "source": 1
    },
    {
      "sampler": 0,
      "source": 2
    }
  ]
}