{
  "accessors": [
    {
      "bufferView": 0,
      "componentType": 5125,
      "count": 43638,
      "type": "SCALAR"
    },
    {
      "bufferView": 1,
      "componentType": 5126,
      "count": 13845,
      "max": [
        0.553307890892029,
        0.00665950309485197,
        0.222975507378578
      ],
      "min": [
        -0.606642186641693,
        -0.00431613903492689,
        -0.269939005374908
      ],
      "type": "VEC3"
    },
    {
      "bufferView": 2,
      "componentType": 5126,
      "count": 13845,
      "type": "VEC3"
    },
    {
      "bufferView": 3,
      "componentType": 5126,
      "count": 13845,
      "type": "VEC2"
    }
  ],
  "asset": {
    "generator": "Substance Painter 2019.2.3",
    "version": "2.0"
  },
  "bufferViews": [
    {
      "buffer": 0,
      "byteLength": 174552,
      "target": 34963
    },
    {
      "buffer": 0,
      "byteLength": 166140,
      "byteOffset": 174552,
      "target": 34962
    },
    {
      "buffer": 0,
      "byteLength": 166140,
      "byteOffset": 340692,
      "target": 34962
    },
    {
      "buffer": 0,
      "byteLength": 110760,
      "byteOffset": 506832,
      "target": 34962
    }
  ],
  "buffers": [
    {
      "byteLength": 617592,
      "uri": "merrychristmaswalldeco.bin"
    }
  ],
  "images": [
    {
      "uri": "Default_baseColor.png"
    },
    {
      "uri": "Default_occlusionRoughnessMetallic.png"
    },
    {
      "uri": "Default_normal.png"
    }
  ],
  "materials": [
    {
      "alphaMode": "OPAQUE",
      "name": "Default",
      "normalTexture": {
        "index": 2
      },
      "occlusionTexture": {
        "index": 1
      },
      "pbrMetallicRoughness": {
        "baseColorTexture": {
          "index": 0
        },
        "metallicRoughnessTexture": {
          "index": 1
        }
      }
    }
  ],
  "meshes": [
    {
      "name": "merrychristmas",
      "primitives": [
        {
          "attributes": {
            "NORMAL": 2,
            "POSITION": 1,
            "TEXCOORD_0": 3
          },
          "indices": 0,
          "material": 0,
          "mode": 4
        }
      ]
    }
  ],
  "nodes": [
    {
      "children": [
        1
      ],
      "name": "root",
      "scale": [
        1.58994281291962,
        1.58994281291962,
        1.58994281291962
      ],
      "translation": [
        -0.0299999713897705,
        -0.0044352300465107,
        0.017462432384491
      ]
    },
    {
      "children": [
        2
      ],
      "name": "merrychristmas"
    },
    {
      "mesh": 0,
      "name": "merrychristmas"
    }
  ],
  "samplers": [
    {
      "magFilter": 9729,
      "minFilter": 9985,
      "wrapS": 10497,
      "wrapT": 10497
    }
  ],
  "scene": 0,
  "scenes": [
    {
      "name": "Scene",
      "nodes": [
        0
      ]
    }
  ],
  "textures": [
    {
      "sampler": 0,
      "source": 0
    },
    {
      "sampler": 0,
      "source": 1
    },
    {
      "sampler": 0,
      "source": 2
    }
  ]
}