{
  "accessors": [
    {
      "bufferView": 0,
      "componentType": 5125,
      "count": 66282,
      "type": "SCALAR"
    },
    {
      "bufferView": 1,
      "componentType": 5126,
      "count": 13310,
      "max": [
        1.0,
        0.940486490726471,
        0.857389032840729
      ],
      "min": [
        -1.0,
        -0.940486490726471,
        -0.857389032840729
      ],
      "type": "VEC3"
    },
    {
      "bufferView": 2,
      "componentType": 5126,
      "count": 13310,
      "type": "VEC3"
    },
    {
      "bufferView": 3,
      "componentType": 5126,
      "count": 13310,
      "type": "VEC2"
    }
  ],
  "asset": {
    "generator": "Substance Painter 2019.2.3",
    "version": "2.0"
  },
  "bufferViews": [
    {
      "buffer": 0,
      "byteLength": 265128,
      "target": 34963
    },
    {
      "buffer": 0,
      "byteLength": 159720,
      "byteOffset": 265128,
      "target": 34962
    },
    {
      "buffer": 0,
      "byteLength": 159720,
      "byteOffset": 424848,
      "target": 34962
    },
    {
      "buffer": 0,
      "byteLength": 106480,
      "byteOffset": 584568,
      "target": 34962
    }
  ],
  "buffers": [
    {
      "byteLength": 691048,
      "uri": "daytona.bin"
    }
  ],
  "images": [
    {
      "uri": "T_daytona_baseColor.png"
    },
    {
      "uri": "T_daytona_occlusionRoughnessMetallic.png"
    },
    {
      "uri": "T_daytona_normal.png"
    }
  ],
  "materials": [
    {
      "alphaMode": "OPAQUE",
      "name": "T_daytona",
      "normalTexture": {
        "index": 2
      },
      "occlusionTexture": {
        "index": 1
      },
      "pbrMetallicRoughness": {
        "baseColorTexture": {
          "index": 0
        },
        "metallicRoughnessTexture": {
          "index": 1
        }
      }
    }
  ],
  "meshes": [
    {
      "name": "daytona",
      "primitives": [
        {
          "attributes": {
            "NORMAL": 2,
            "POSITION": 1,
            "TEXCOORD_0": 3
          },
          "indices": 0,
          "material": 0,
          "mode": 4
        }
      ]
    }
  ],
  "nodes": [
    {
      "children": [
        1
      ],
      "name": "root",
      "scale": [
        0.402606010437012,
        0.402606010437012,
        0.402606010437012
      ],
      "translation": [
        -0.0174731016159058,
        0.378645539283752,
        0.0
      ]
    },
    {
      "children": [
        2
      ],
      "name": "daytona"
    },
    {
      "mesh": 0,
      "name": "daytona"
    }
  ],
  "samplers": [
    {
      "magFilter": 9729,
      "minFilter": 9985,
      "wrapS": 10497,
      "wrapT": 10497
    }
  ],
  "scene": 0,
  "scenes": [
    {
      "name": "Scene",
      "nodes": [
        0
      ]
    }
  ],
  "textures": [
    {
      "sampler": 0,
      "source": 0
    },
    {
      "sampler": 0,
      "source": 1
    },
    {
      "sampler": 0,
      "source": 2
    }
  ]
}