{
  "accessors": [
    {
      "bufferView": 0,
      "componentType": 5125,
      "count": 466404,
      "type": "SCALAR"
    },
    {
      "bufferView": 1,
      "componentType": 5126,
      "count": 95272,
      "max": [
        0.274203032255173,
        0.708809852600098,
        0.348163276910782
      ],
      "min": [
        -0.273362427949905,
        0.215935781598091,
        -0.344998687505722
      ],
      "type": "VEC3"
    },
    {
      "bufferView": 2,
      "componentType": 5126,
      "count": 95272,
      "type": "VEC3"
    },
    {
      "bufferView": 3,
      "componentType": 5126,
      "count": 95272,
      "type": "VEC2"
    },
    {
      "bufferView": 4,
      "componentType": 5125,
      "count": 319560,
      "type": "SCALAR"
    },
    {
      "bufferView": 5,
      "componentType": 5126,
      "count": 57354,
      "max": [
        0.306336283683777,
        0.722276329994202,
        0.365540593862534
      ],
      "min": [
        -0.306323647499084,
        -0.000158011913299561,
        -0.370739966630936
      ],
      "type": "VEC3"
    },
    {
      "bufferView": 6,
      "componentType": 5126,
      "count": 57354,
      "type": "VEC3"
    },
    {
      "bufferView": 7,
      "componentType": 5126,
      "count": 57354,
      "type": "VEC2"
    }
  ],
  "asset": {
    "generator": "Substance Painter 6.2.1",
    "version": "2.0"
  },
  "bufferViews": [
    {
      "buffer": 0,
      "byteLength": 1865616,
      "target": 34963
    },
    {
      "buffer": 0,
      "byteLength": 1143264,
      "byteOffset": 1865616,
      "target": 34962
    },
    {
      "buffer": 0,
      "byteLength": 1143264,
      "byteOffset": 3008880,
      "target": 34962
    },
    {
      "buffer": 0,
      "byteLength": 762176,
      "byteOffset": 4152144,
      "target": 34962
    },
    {
      "buffer": 0,
      "byteLength": 1278240,
      "byteOffset": 4914320,
      "target": 34963
    },
    {
      "buffer": 0,
      "byteLength": 688248,
      "byteOffset": 6192560,
      "target": 34962
    },
    {
      "buffer": 0,
      "byteLength": 688248,
      "byteOffset": 6880808,
      "target": 34962
    },
    {
      "buffer": 0,
      "byteLength": 458832,
      "byteOffset": 7569056,
      "target": 34962
    }
  ],
  "buffers": [
    {
      "byteLength": 8027888,
      "uri": "leather_weavechair.bin"
    }
  ],
  "images": [
    {
      "uri": "T_frame_baseColor.png"
    },
    {
      "uri": "T_frame_occlusionRoughnessMetallic.png"
    },
    {
      "uri": "T_frame_normal.png"
    },
    {
      "uri": "T_leather_baseColor.png"
    },
    {
      "uri": "T_leather_occlusionRoughnessMetallic.png"
    },
    {
      "uri": "T_leather_normal.png"
    }
  ],
  "materials": [
    {
      "alphaMode": "OPAQUE",
      "name": "T_frame",
      "normalTexture": {
        "index": 2
      },
      "occlusionTexture": {
        "index": 1
      },
      "pbrMetallicRoughness": {
        "baseColorTexture": {
          "index": 0
        },
        "metallicRoughnessTexture": {
          "index": 1
        }
      }
    },
    {
      "alphaMode": "OPAQUE",
      "name": "T_leather",
      "normalTexture": {
        "index": 5
      },
      "occlusionTexture": {
        "index": 4
      },
      "pbrMetallicRoughness": {
        "baseColorTexture": {
          "index": 3
        },
        "metallicRoughnessTexture": {
          "index": 4
        }
      }
    }
  ],
  "meshes": [
    {
      "name": "Mesh",
      "primitives": [
        {
          "attributes": {
            "NORMAL": 2,
            "POSITION": 1,
            "TEXCOORD_0": 3
          },
          "indices": 0,
          "material": 1,
          "mode": 4
        }
      ]
    },
    {
      "name": "Mesh",
      "primitives": [
        {
          "attributes": {
            "NORMAL": 6,
            "POSITION": 5,
            "TEXCOORD_0": 7
          },
          "indices": 4,
          "material": 0,
          "mode": 4
        }
      ]
    }
  ],
  "nodes": [
    {
      "children": [
        1
      ],
      "name": "RootNode"
    },
    {
      "children": [
        2,
        3
      ],
      "name": "Mesh"
    },
    {
      "mesh": 0,
      "name": "Mesh"
    },
    {
      "mesh": 1,
      "name": "Mesh"
    }
  ],
  "samplers": [
    {
      "magFilter": 9729,
      "minFilter": 9985,
      "wrapS": 10497,
      "wrapT": 10497
    }
  ],
  "scene": 0,
  "scenes": [
    {
      "name": "Scene",
      "nodes": [
        0
      ]
    }
  ],
  "textures": [
    {
      "sampler": 0,
      "source": 0
    },
    {
      "sampler": 0,
      "source": 1
    },
    {
      "sampler": 0,
      "source": 2
    },
    {
      "sampler": 0,
      "source": 3
    },
    {
      "sampler": 0,
      "source": 4
    },
    {
      "sampler": 0,
      "source": 5
    }
  ]
}