{
  "accessors": [
    {
      "bufferView": 0,
      "componentType": 5125,
      "count": 30120,
      "type": "SCALAR"
    },
    {
      "bufferView": 1,
      "componentType": 5126,
      "count": 10630,
      "max": [
        0.440043836832047,
        0.999999940395355,
        0.220021978020668
      ],
      "min": [
        -0.440043836832047,
        -0.999999940395355,
        -0.220021978020668
      ],
      "type": "VEC3"
    },
    {
      "bufferView": 2,
      "componentType": 5126,
      "count": 10630,
      "type": "VEC3"
    },
    {
      "bufferView": 3,
      "componentType": 5126,
      "count": 10630,
      "type": "VEC2"
    }
  ],
  "asset": {
    "generator": "Substance Painter 2019.3.3",
    "version": "2.0"
  },
  "bufferViews": [
    {
      "buffer": 0,
      "byteLength": 120480,
      "target": 34963
    },
    {
      "buffer": 0,
      "byteLength": 127560,
      "byteOffset": 120480,
      "target": 34962
    },
    {
      "buffer": 0,
      "byteLength": 127560,
      "byteOffset": 248040,
      "target": 34962
    },
    {
      "buffer": 0,
      "byteLength": 85040,
      "byteOffset": 375600,
      "target": 34962
    }
  ],
  "buffers": [
    {
      "byteLength": 460640,
      "uri": "eiffel_shelf.bin"
    }
  ],
  "images": [
    {
      "uri": "T_eiffelshelf_baseColor.png"
    },
    {
      "uri": "T_eiffelshelf_occlusionRoughnessMetallic.png"
    },
    {
      "uri": "T_eiffelshelf_normal.png"
    }
  ],
  "materials": [
    {
      "alphaMode": "OPAQUE",
      "name": "T_eiffelshelf",
      "normalTexture": {
        "index": 2
      },
      "occlusionTexture": {
        "index": 1
      },
      "pbrMetallicRoughness": {
        "baseColorTexture": {
          "index": 0
        },
        "metallicRoughnessTexture": {
          "index": 1
        }
      }
    }
  ],
  "meshes": [
    {
      "name": "Mesh",
      "primitives": [
        {
          "attributes": {
            "NORMAL": 2,
            "POSITION": 1,
            "TEXCOORD_0": 3
          },
          "indices": 0,
          "material": 0,
          "mode": 4
        }
      ]
    }
  ],
  "nodes": [
    {
      "children": [
        1
      ],
      "name": "root",
      "scale": [
        0.910000026226044,
        0.910000026226044,
        0.910000026226044
      ],
      "translation": [
        0.0,
        0.910000026226044,
        0.0
      ]
    },
    {
      "children": [
        2
      ],
      "name": "Mesh"
    },
    {
      "mesh": 0,
      "name": "Mesh"
    }
  ],
  "samplers": [
    {
      "magFilter": 9729,
      "minFilter": 9985,
      "wrapS": 10497,
      "wrapT": 10497
    }
  ],
  "scene": 0,
  "scenes": [
    {
      "name": "Scene",
      "nodes": [
        0
      ]
    }
  ],
  "textures": [
    {
      "sampler": 0,
      "source": 0
    },
    {
      "sampler": 0,
      "source": 1
    },
    {
      "sampler": 0,
      "source": 2
    }
  ]
}