{
  "accessors": [
    {
      "bufferView": 0,
      "componentType": 5125,
      "count": 95712,
      "type": "SCALAR"
    },
    {
      "bufferView": 1,
      "componentType": 5126,
      "count": 33383,
      "max": [
        0.348885655403137,
        1.0,
        0.770549595355988
      ],
      "min": [
        -0.348885655403137,
        -1.0,
        -0.770549595355988
      ],
      "type": "VEC3"
    },
    {
      "bufferView": 2,
      "componentType": 5126,
      "count": 33383,
      "type": "VEC3"
    },
    {
      "bufferView": 3,
      "componentType": 5126,
      "count": 33383,
      "type": "VEC2"
    }
  ],
  "asset": {
    "generator": "Substance Painter 2019.2.3",
    "version": "2.0"
  },
  "bufferViews": [
    {
      "buffer": 0,
      "byteLength": 382848,
      "target": 34963
    },
    {
      "buffer": 0,
      "byteLength": 400596,
      "byteOffset": 382848,
      "target": 34962
    },
    {
      "buffer": 0,
      "byteLength": 400596,
      "byteOffset": 783444,
      "target": 34962
    },
    {
      "buffer": 0,
      "byteLength": 267064,
      "byteOffset": 1184040,
      "target": 34962
    }
  ],
  "buffers": [
    {
      "byteLength": 1451104,
      "uri": "plant05.bin"
    }
  ],
  "images": [
    {
      "uri": "T_plant05_baseColor.png"
    },
    {
      "uri": "T_plant05_occlusionRoughnessMetallic.png"
    },
    {
      "uri": "T_plant05_normal.png"
    }
  ],
  "materials": [
    {
      "alphaMode": "OPAQUE",
      "name": "T_plant05",
      "normalTexture": {
        "index": 2
      },
      "occlusionTexture": {
        "index": 1
      },
      "pbrMetallicRoughness": {
        "baseColorTexture": {
          "index": 0
        },
        "metallicRoughnessTexture": {
          "index": 1
        }
      }
    }
  ],
  "meshes": [
    {
      "name": "5",
      "primitives": [
        {
          "attributes": {
            "NORMAL": 2,
            "POSITION": 1,
            "TEXCOORD_0": 3
          },
          "indices": 0,
          "material": 0,
          "mode": 4
        }
      ]
    }
  ],
  "nodes": [
    {
      "children": [
        1
      ],
      "name": "plant05.obj",
      "scale": [
        0.22987100481987,
        0.22987100481987,
        0.22987100481987
      ],
      "translation": [
        0.0,
        0.22987100481987,
        0.0300000011920929
      ]
    },
    {
      "children": [
        2
      ],
      "name": "g 5"
    },
    {
      "mesh": 0,
      "name": "5"
    }
  ],
  "samplers": [
    {
      "magFilter": 9729,
      "minFilter": 9985,
      "wrapS": 10497,
      "wrapT": 10497
    }
  ],
  "scene": 0,
  "scenes": [
    {
      "name": "Scene",
      "nodes": [
        0
      ]
    }
  ],
  "textures": [
    {
      "sampler": 0,
      "source": 0
    },
    {
      "sampler": 0,
      "source": 1
    },
    {
      "sampler": 0,
      "source": 2
    }
  ]
}