{
  "accessors": [
    {
      "bufferView": 0,
      "componentType": 5125,
      "count": 3042,
      "type": "SCALAR"
    },
    {
      "bufferView": 1,
      "componentType": 5126,
      "count": 1236,
      "max": [
        0.920585572719574,
        1.0,
        0.755723297595978
      ],
      "min": [
        -0.920585572719574,
        -1.0,
        -0.755723297595978
      ],
      "type": "VEC3"
    },
    {
      "bufferView": 2,
      "componentType": 5126,
      "count": 1236,
      "type": "VEC3"
    },
    {
      "bufferView": 3,
      "componentType": 5126,
      "count": 1236,
      "type": "VEC2"
    }
  ],
  "asset": {
    "generator": "Substance Painter 2019.3.3",
    "version": "2.0"
  },
  "bufferViews": [
    {
      "buffer": 0,
      "byteLength": 12168,
      "target": 34963
    },
    {
      "buffer": 0,
      "byteLength": 14832,
      "byteOffset": 12168,
      "target": 34962
    },
    {
      "buffer": 0,
      "byteLength": 14832,
      "byteOffset": 27000,
      "target": 34962
    },
    {
      "buffer": 0,
      "byteLength": 9888,
      "byteOffset": 41832,
      "target": 34962
    }
  ],
  "buffers": [
    {
      "byteLength": 51720,
      "uri": "wood_end_table.bin"
    }
  ],
  "images": [
    {
      "uri": "T_woodend_baseColor.png"
    },
    {
      "uri": "T_woodend_occlusionRoughnessMetallic.png"
    },
    {
      "uri": "T_woodend_normal.png"
    }
  ],
  "materials": [
    {
      "alphaMode": "OPAQUE",
      "name": "T_woodend",
      "normalTexture": {
        "index": 2
      },
      "occlusionTexture": {
        "index": 1
      },
      "pbrMetallicRoughness": {
        "baseColorTexture": {
          "index": 0
        },
        "metallicRoughnessTexture": {
          "index": 1
        }
      }
    }
  ],
  "meshes": [
    {
      "name": "Mesh",
      "primitives": [
        {
          "attributes": {
            "NORMAL": 2,
            "POSITION": 1,
            "TEXCOORD_0": 3
          },
          "indices": 0,
          "material": 0,
          "mode": 4
        }
      ]
    }
  ],
  "nodes": [
    {
      "children": [
        1
      ],
      "name": "root",
      "scale": [
        0.304154247045517,
        0.304154247045517,
        0.304154247045517
      ],
      "translation": [
        0.0,
        0.304154247045517,
        0.0
      ]
    },
    {
      "children": [
        2
      ],
      "name": "Mesh"
    },
    {
      "mesh": 0,
      "name": "Mesh"
    }
  ],
  "samplers": [
    {
      "magFilter": 9729,
      "minFilter": 9985,
      "wrapS": 10497,
      "wrapT": 10497
    }
  ],
  "scene": 0,
  "scenes": [
    {
      "name": "Scene",
      "nodes": [
        0
      ]
    }
  ],
  "textures": [
    {
      "sampler": 0,
      "source": 0
    },
    {
      "sampler": 0,
      "source": 1
    },
    {
      "sampler": 0,
      "source": 2
    }
  ]
}