{
  "accessors": [
    {
      "bufferView": 0,
      "componentType": 5125,
      "count": 42354,
      "type": "SCALAR"
    },
    {
      "bufferView": 1,
      "componentType": 5126,
      "count": 12124,
      "max": [
        0.378293633460999,
        1.0,
        0.190087839961052
      ],
      "min": [
        -0.378293633460999,
        -1.0,
        -0.190087839961052
      ],
      "type": "VEC3"
    },
    {
      "bufferView": 2,
      "componentType": 5126,
      "count": 12124,
      "type": "VEC3"
    },
    {
      "bufferView": 3,
      "componentType": 5126,
      "count": 12124,
      "type": "VEC2"
    }
  ],
  "asset": {
    "generator": "Substance Painter 2019.2.3",
    "version": "2.0"
  },
  "bufferViews": [
    {
      "buffer": 0,
      "byteLength": 169416,
      "target": 34963
    },
    {
      "buffer": 0,
      "byteLength": 145488,
      "byteOffset": 169416,
      "target": 34962
    },
    {
      "buffer": 0,
      "byteLength": 145488,
      "byteOffset": 314904,
      "target": 34962
    },
    {
      "buffer": 0,
      "byteLength": 96992,
      "byteOffset": 460392,
      "target": 34962
    }
  ],
  "buffers": [
    {
      "byteLength": 557384,
      "uri": "dauphine.bin"
    }
  ],
  "images": [
    {
      "uri": "T_dauphine_baseColor.png"
    },
    {
      "uri": "T_dauphine_occlusionRoughnessMetallic.png"
    },
    {
      "uri": "T_dauphine_normal.png"
    }
  ],
  "materials": [
    {
      "alphaMode": "OPAQUE",
      "name": "T_dauphine",
      "normalTexture": {
        "index": 2
      },
      "occlusionTexture": {
        "index": 1
      },
      "pbrMetallicRoughness": {
        "baseColorTexture": {
          "index": 0
        },
        "metallicRoughnessTexture": {
          "index": 1
        }
      }
    }
  ],
  "meshes": [
    {
      "name": "CB2_Dauphine_Floor_Lamp",
      "primitives": [
        {
          "attributes": {
            "NORMAL": 2,
            "POSITION": 1,
            "TEXCOORD_0": 3
          },
          "indices": 0,
          "material": 0,
          "mode": 4
        }
      ]
    }
  ],
  "nodes": [
    {
      "children": [
        1
      ],
      "name": "root",
      "scale": [
        0.796999990940094,
        0.796999990940094,
        0.796999990940094
      ],
      "translation": [
        0.0,
        0.796999990940094,
        -0.00149999558925629
      ]
    },
    {
      "children": [
        2
      ],
      "name": "CB2_Dauphine_Floor_Lamp"
    },
    {
      "mesh": 0,
      "name": "CB2_Dauphine_Floor_Lamp"
    }
  ],
  "samplers": [
    {
      "magFilter": 9729,
      "minFilter": 9985,
      "wrapS": 10497,
      "wrapT": 10497
    }
  ],
  "scene": 0,
  "scenes": [
    {
      "name": "Scene",
      "nodes": [
        0
      ]
    }
  ],
  "textures": [
    {
      "sampler": 0,
      "source": 0
    },
    {
      "sampler": 0,
      "source": 1
    },
    {
      "sampler": 0,
      "source": 2
    }
  ]
}