{
  "accessors": [
    {
      "bufferView": 0,
      "componentType": 5125,
      "count": 47205,
      "type": "SCALAR"
    },
    {
      "bufferView": 1,
      "componentType": 5126,
      "count": 14806,
      "max": [
        0.99944680929184,
        0.378763437271118,
        0.99999988079071
      ],
      "min": [
        -0.999446928501129,
        -0.378763467073441,
        -1.0
      ],
      "type": "VEC3"
    },
    {
      "bufferView": 2,
      "componentType": 5126,
      "count": 14806,
      "type": "VEC3"
    },
    {
      "bufferView": 3,
      "componentType": 5126,
      "count": 14806,
      "type": "VEC2"
    }
  ],
  "asset": {
    "generator": "Substance Painter 2019.1.3",
    "version": "2.0"
  },
  "bufferViews": [
    {
      "buffer": 0,
      "byteLength": 188820,
      "target": 34963
    },
    {
      "buffer": 0,
      "byteLength": 177672,
      "byteOffset": 188820,
      "target": 34962
    },
    {
      "buffer": 0,
      "byteLength": 177672,
      "byteOffset": 366492,
      "target": 34962
    },
    {
      "buffer": 0,
      "byteLength": 118448,
      "byteOffset": 544164,
      "target": 34962
    }
  ],
  "buffers": [
    {
      "byteLength": 662612,
      "uri": "clarke.bin"
    }
  ],
  "images": [
    {
      "uri": "T_carke_baseColor.png"
    },
    {
      "uri": "T_carke_occlusionRoughnessMetallic.png"
    },
    {
      "uri": "T_carke_normal.png"
    }
  ],
  "materials": [
    {
      "alphaMode": "OPAQUE",
      "name": "T_carke",
      "normalTexture": {
        "index": 2
      },
      "occlusionTexture": {
        "index": 1
      },
      "pbrMetallicRoughness": {
        "baseColorTexture": {
          "index": 0
        },
        "metallicRoughnessTexture": {
          "index": 1
        }
      }
    }
  ],
  "meshes": [
    {
      "name": "clarke_100",
      "primitives": [
        {
          "attributes": {
            "NORMAL": 2,
            "POSITION": 1,
            "TEXCOORD_0": 3
          },
          "indices": 0,
          "material": 0,
          "mode": 4
        }
      ]
    }
  ],
  "nodes": [
    {
      "children": [
        1
      ],
      "name": "root",
      "scale": [
        0.501138925552368,
        0.501138925552368,
        0.501138925552368
      ],
      "translation": [
        -0.000106453895568848,
        0.19030287861824,
        0.000440895557403564
      ]
    },
    {
      "children": [
        2
      ],
      "name": "clarke_100"
    },
    {
      "mesh": 0,
      "name": "clarke_100"
    }
  ],
  "samplers": [
    {
      "magFilter": 9729,
      "minFilter": 9985,
      "wrapS": 10497,
      "wrapT": 10497
    }
  ],
  "scene": 0,
  "scenes": [
    {
      "name": "Scene",
      "nodes": [
        0
      ]
    }
  ],
  "textures": [
    {
      "sampler": 0,
      "source": 0
    },
    {
      "sampler": 0,
      "source": 1
    },
    {
      "sampler": 0,
      "source": 2
    }
  ]
}