{
  "accessors": [
    {
      "bufferView": 0,
      "componentType": 5125,
      "count": 7356,
      "type": "SCALAR"
    },
    {
      "bufferView": 1,
      "componentType": 5126,
      "count": 2762,
      "max": [
        1.0,
        0.874995052814484,
        0.895833432674408
      ],
      "min": [
        -1.0,
        -0.874995052814484,
        -0.895833432674408
      ],
      "type": "VEC3"
    },
    {
      "bufferView": 2,
      "componentType": 5126,
      "count": 2762,
      "type": "VEC3"
    },
    {
      "bufferView": 3,
      "componentType": 5126,
      "count": 2762,
      "type": "VEC2"
    }
  ],
  "asset": {
    "generator": "Substance Painter 2019.2.3",
    "version": "2.0"
  },
  "bufferViews": [
    {
      "buffer": 0,
      "byteLength": 29424,
      "target": 34963
    },
    {
      "buffer": 0,
      "byteLength": 33144,
      "byteOffset": 29424,
      "target": 34962
    },
    {
      "buffer": 0,
      "byteLength": 33144,
      "byteOffset": 62568,
      "target": 34962
    },
    {
      "buffer": 0,
      "byteLength": 22096,
      "byteOffset": 95712,
      "target": 34962
    }
  ],
  "buffers": [
    {
      "byteLength": 117808,
      "uri": "oda_pedestal_table.bin"
    }
  ],
  "images": [
    {
      "uri": "T_roset_baseColor.png"
    },
    {
      "uri": "T_roset_occlusionRoughnessMetallic.png"
    },
    {
      "uri": "T_roset_normal.png"
    }
  ],
  "materials": [
    {
      "alphaMode": "OPAQUE",
      "name": "T_roset",
      "normalTexture": {
        "index": 2
      },
      "occlusionTexture": {
        "index": 1
      },
      "pbrMetallicRoughness": {
        "baseColorTexture": {
          "index": 0
        },
        "metallicRoughnessTexture": {
          "index": 1
        }
      }
    }
  ],
  "meshes": [
    {
      "name": "Ligne_Roset_Oda_mat1",
      "primitives": [
        {
          "attributes": {
            "NORMAL": 2,
            "POSITION": 1,
            "TEXCOORD_0": 3
          },
          "indices": 0,
          "material": 0,
          "mode": 4
        }
      ]
    }
  ],
  "nodes": [
    {
      "children": [
        1
      ],
      "name": "root",
      "scale": [
        0.239999994635582,
        0.239999994635582,
        0.239999994635582
      ],
      "translation": [
        0.0,
        0.209998801350594,
        0.0
      ]
    },
    {
      "children": [
        2
      ],
      "name": "Ligne_Roset_Oda_mat1"
    },
    {
      "mesh": 0,
      "name": "Ligne_Roset_Oda_mat1"
    }
  ],
  "samplers": [
    {
      "magFilter": 9729,
      "minFilter": 9985,
      "wrapS": 10497,
      "wrapT": 10497
    }
  ],
  "scene": 0,
  "scenes": [
    {
      "name": "Scene",
      "nodes": [
        0
      ]
    }
  ],
  "textures": [
    {
      "sampler": 0,
      "source": 0
    },
    {
      "sampler": 0,
      "source": 1
    },
    {
      "sampler": 0,
      "source": 2
    }
  ]
}