{
  "accessors": [
    {
      "bufferView": 0,
      "componentType": 5125,
      "count": 30498,
      "type": "SCALAR"
    },
    {
      "bufferView": 1,
      "componentType": 5126,
      "count": 7642,
      "max": [
        0.99943745136261,
        1.0,
        0.66405576467514
      ],
      "min": [
        -0.99943745136261,
        -0.999999940395355,
        -0.66405576467514
      ],
      "type": "VEC3"
    },
    {
      "bufferView": 2,
      "componentType": 5126,
      "count": 7642,
      "type": "VEC3"
    },
    {
      "bufferView": 3,
      "componentType": 5126,
      "count": 7642,
      "type": "VEC2"
    }
  ],
  "asset": {
    "generator": "Substance Painter 2019.3.3",
    "version": "2.0"
  },
  "bufferViews": [
    {
      "buffer": 0,
      "byteLength": 121992,
      "target": 34963
    },
    {
      "buffer": 0,
      "byteLength": 91704,
      "byteOffset": 121992,
      "target": 34962
    },
    {
      "buffer": 0,
      "byteLength": 91704,
      "byteOffset": 213696,
      "target": 34962
    },
    {
      "buffer": 0,
      "byteLength": 61136,
      "byteOffset": 305400,
      "target": 34962
    }
  ],
  "buffers": [
    {
      "byteLength": 366536,
      "uri": "housebed.bin"
    }
  ],
  "images": [
    {
      "uri": "T_bedhouseframe_baseColor.png"
    },
    {
      "uri": "T_bedhouseframe_occlusionRoughnessMetallic.png"
    },
    {
      "uri": "T_bedhouseframe_normal.png"
    }
  ],
  "materials": [
    {
      "alphaMode": "OPAQUE",
      "name": "T_bedhouseframe",
      "normalTexture": {
        "index": 2
      },
      "occlusionTexture": {
        "index": 1
      },
      "pbrMetallicRoughness": {
        "baseColorTexture": {
          "index": 0
        },
        "metallicRoughnessTexture": {
          "index": 1
        }
      }
    }
  ],
  "meshes": [
    {
      "name": "Mesh2",
      "primitives": [
        {
          "attributes": {
            "NORMAL": 2,
            "POSITION": 1,
            "TEXCOORD_0": 3
          },
          "indices": 0,
          "material": 0,
          "mode": 4
        }
      ]
    }
  ],
  "nodes": [
    {
      "children": [
        1
      ],
      "name": "root",
      "scale": [
        0.745419323444366,
        0.745419323444366,
        0.745419323444366
      ],
      "translation": [
        0.0,
        0.743412971496582,
        0.0
      ]
    },
    {
      "children": [
        2
      ],
      "name": "Mesh2"
    },
    {
      "mesh": 0,
      "name": "Mesh2"
    }
  ],
  "samplers": [
    {
      "magFilter": 9729,
      "minFilter": 9985,
      "wrapS": 10497,
      "wrapT": 10497
    }
  ],
  "scene": 0,
  "scenes": [
    {
      "name": "Scene",
      "nodes": [
        0
      ]
    }
  ],
  "textures": [
    {
      "sampler": 0,
      "source": 0
    },
    {
      "sampler": 0,
      "source": 1
    },
    {
      "sampler": 0,
      "source": 2
    }
  ]
}