{
  "accessors": [
    {
      "bufferView": 0,
      "componentType": 5125,
      "count": 4800,
      "type": "SCALAR"
    },
    {
      "bufferView": 1,
      "componentType": 5126,
      "count": 1075,
      "max": [
        0.355384081602097,
        0.999999940395355,
        0.111050486564636
      ],
      "min": [
        -0.355384081602097,
        -1.0,
        -0.111050486564636
      ],
      "type": "VEC3"
    },
    {
      "bufferView": 2,
      "componentType": 5126,
      "count": 1075,
      "type": "VEC3"
    },
    {
      "bufferView": 3,
      "componentType": 5126,
      "count": 1075,
      "type": "VEC2"
    }
  ],
  "asset": {
    "generator": "Substance Painter 2019.3.2",
    "version": "2.0"
  },
  "bufferViews": [
    {
      "buffer": 0,
      "byteLength": 19200,
      "target": 34963
    },
    {
      "buffer": 0,
      "byteLength": 12900,
      "byteOffset": 19200,
      "target": 34962
    },
    {
      "buffer": 0,
      "byteLength": 12900,
      "byteOffset": 32100,
      "target": 34962
    },
    {
      "buffer": 0,
      "byteLength": 8600,
      "byteOffset": 45000,
      "target": 34962
    }
  ],
  "buffers": [
    {
      "byteLength": 53600,
      "uri": "ladder.bin"
    }
  ],
  "images": [
    {
      "uri": "T_ladder_baseColor.png"
    },
    {
      "uri": "T_ladder_occlusionRoughnessMetallic.png"
    },
    {
      "uri": "T_ladder_normal.png"
    }
  ],
  "materials": [
    {
      "alphaMode": "OPAQUE",
      "name": "T_ladder",
      "normalTexture": {
        "index": 2
      },
      "occlusionTexture": {
        "index": 1
      },
      "pbrMetallicRoughness": {
        "baseColorTexture": {
          "index": 0
        },
        "metallicRoughnessTexture": {
          "index": 1
        }
      }
    }
  ],
  "meshes": [
    {
      "name": "ladder",
      "primitives": [
        {
          "attributes": {
            "NORMAL": 2,
            "POSITION": 1,
            "TEXCOORD_0": 3
          },
          "indices": 0,
          "material": 0,
          "mode": 4
        }
      ]
    }
  ],
  "nodes": [
    {
      "children": [
        1
      ],
      "name": "root",
      "scale": [
        0.778424561023712,
        0.778424561023712,
        0.778424561023712
      ],
      "translation": [
        0.0,
        0.777066349983215,
        -0.0680122822523117
      ]
    },
    {
      "children": [
        2
      ],
      "name": "ladder"
    },
    {
      "mesh": 0,
      "name": "ladder"
    }
  ],
  "samplers": [
    {
      "magFilter": 9729,
      "minFilter": 9985,
      "wrapS": 10497,
      "wrapT": 10497
    }
  ],
  "scene": 0,
  "scenes": [
    {
      "name": "Scene",
      "nodes": [
        0
      ]
    }
  ],
  "textures": [
    {
      "sampler": 0,
      "source": 0
    },
    {
      "sampler": 0,
      "source": 1
    },
    {
      "sampler": 0,
      "source": 2
    }
  ]
}