{
    "asset": {
        "generator": "Modov11.2",
        "version": "2.0"
    },
    "scene": 0,
    "scenes": [
        {
            "nodes": [
                0,
                1,
                2
            ]
        }
    ],
    "nodes": [
        {
            "name": "vic",
            "matrix": [
                10.0,
                8.965039418554225e-23,
                2.4492935992912174e-15,
                0.0,
                2.4492935992912174e-15,
                -7.32051034901815e-7,
                -10.0,
                0.0,
                8.965039418554225e-23,
                10.0,
                -7.32051034901815e-7,
                0.0,
                0.0,
                0.0,
                0.0,
                1.0
            ],
            "mesh": 0
        },
        {
            "name": "Camera",
            "matrix": [
                1.0,
                0.0,
                0.0,
                0.0,
                0.0,
                0.9961947202682495,
                -0.08715574443340302,
                0.0,
                0.0,
                0.08715574443340302,
                0.9961947202682495,
                0.0,
                0.0,
                0.75,
                4.0,
                1.0
            ],
            "camera": 0
        },
        {
            "name": "Texture Group"
        }
    ],
    "meshes": [
        {
            "primitives": [
                {
                    "indices": 1,
                    "mode": 4,
                    "material": 1,
                    "attributes": {
                        "POSITION": 0,
                        "NORMAL": 2,
                        "TEXCOORD_0": 3
                    }
                }
            ]
        }
    ],
    "buffers": [
        {
            "byteLength": 74792,
            "uri": "vic55.bin"
        }
    ],
    "bufferViews": [
        {
            "buffer": 0,
            "byteLength": 21180
        },
        {
            "buffer": 0,
            "byteLength": 18312,
            "byteOffset": 21180
        },
        {
            "buffer": 0,
            "byteLength": 21180,
            "byteOffset": 39492
        },
        {
            "buffer": 0,
            "byteLength": 14120,
            "byteOffset": 60672
        }
    ],
    "accessors": [
        {
            "bufferView": 0,
            "type": "VEC3",
            "componentType": 5126,
            "count": 1765,
            "min": [
                -0.019999999552965165,
                -0.019999999552965165,
                -3.469446951953614e-18
            ],
            "max": [
                0.019999999552965165,
                0.019999999552965165,
                0.0565899983048439
            ]
        },
        {
            "bufferView": 1,
            "type": "SCALAR",
            "componentType": 5125,
            "count": 4578
        },
        {
            "bufferView": 2,
            "type": "VEC3",
            "componentType": 5126,
            "count": 1765
        },
        {
            "bufferView": 3,
            "type": "VEC2",
            "componentType": 5126,
            "count": 1765
        }
    ],
    "materials": [
        {
            "pbrMetallicRoughness": {
                "metallicFactor": 0.5,
                "roughnessFactor": 0.5
            }
        },
        {
            "name": "default",
            "emissiveFactor": [
                0.0,
                0.0,
                0.0
            ],
            "alphaMode": "OPAQUE",
            "doubleSided": false,
            "pbrMetallicRoughness": {
                "baseColorFactor": [
                    1.0,
                    1.0,
                    1.0,
                    1.0
                ],
                "metallicFactor": 1.0,
                "roughnessFactor": 1.0,
                "baseColorTexture": {
                    "index": 0,
                    "texCoord": 0
                }
            }
        }
    ],
    "textures": [
        {
            "name": "T_vic_color ",
            "sampler": 0,
            "source": 0
        }
    ],
    "images": [
        {
            "mimeType": "image/png",
            "uri": "T_vic_color.png"
        }
    ],
    "samplers": [
        {
            "wrapS": 10497,
            "wrapT": 10497
        }
    ],
    "cameras": [
        {
            "name": "Camera",
            "type": "perspective",
            "perspective": {
                "znear": 0.01,
                "yfov": 0.8726
            }
        }
    ]
}