{
  "accessors": [
    {
      "bufferView": 0,
      "componentType": 5125,
      "count": 15621,
      "type": "SCALAR"
    },
    {
      "bufferView": 1,
      "componentType": 5126,
      "count": 4558,
      "max": [
        1.0,
        0.826200664043427,
        0.541896760463715
      ],
      "min": [
        -1.0,
        -0.826200664043427,
        -0.54189670085907
      ],
      "type": "VEC3"
    },
    {
      "bufferView": 2,
      "componentType": 5126,
      "count": 4558,
      "type": "VEC3"
    },
    {
      "bufferView": 3,
      "componentType": 5126,
      "count": 4558,
      "type": "VEC2"
    }
  ],
  "asset": {
    "generator": "Substance Painter 2019.3.3",
    "version": "2.0"
  },
  "bufferViews": [
    {
      "buffer": 0,
      "byteLength": 62484,
      "target": 34963
    },
    {
      "buffer": 0,
      "byteLength": 54696,
      "byteOffset": 62484,
      "target": 34962
    },
    {
      "buffer": 0,
      "byteLength": 54696,
      "byteOffset": 117180,
      "target": 34962
    },
    {
      "buffer": 0,
      "byteLength": 36464,
      "byteOffset": 171876,
      "target": 34962
    }
  ],
  "buffers": [
    {
      "byteLength": 208340,
      "uri": "c_feltshelf.bin"
    }
  ],
  "images": [
    {
      "uri": "T_cfeltshelf_baseColor.png"
    },
    {
      "uri": "T_cfeltshelf_occlusionRoughnessMetallic.png"
    },
    {
      "uri": "T_cfeltshelf_normal.png"
    }
  ],
  "materials": [
    {
      "alphaMode": "OPAQUE",
      "name": "T_cfeltshelf",
      "normalTexture": {
        "index": 2
      },
      "occlusionTexture": {
        "index": 1
      },
      "pbrMetallicRoughness": {
        "baseColorTexture": {
          "index": 0
        },
        "metallicRoughnessTexture": {
          "index": 1
        }
      }
    }
  ],
  "meshes": [
    {
      "name": "c_feltshelf",
      "primitives": [
        {
          "attributes": {
            "NORMAL": 2,
            "POSITION": 1,
            "TEXCOORD_0": 3
          },
          "indices": 0,
          "material": 0,
          "mode": 4
        }
      ]
    }
  ],
  "nodes": [
    {
      "children": [
        1
      ],
      "name": "root",
      "scale": [
        0.300433963537216,
        0.300433963537216,
        0.300433963537216
      ],
      "translation": [
        0.000433951616287231,
        0.24821874499321,
        -0.00280420482158661
      ]
    },
    {
      "children": [
        2
      ],
      "name": "c_feltshelf"
    },
    {
      "mesh": 0,
      "name": "c_feltshelf"
    }
  ],
  "samplers": [
    {
      "magFilter": 9729,
      "minFilter": 9985,
      "wrapS": 10497,
      "wrapT": 10497
    }
  ],
  "scene": 0,
  "scenes": [
    {
      "name": "Scene",
      "nodes": [
        0
      ]
    }
  ],
  "textures": [
    {
      "sampler": 0,
      "source": 0
    },
    {
      "sampler": 0,
      "source": 1
    },
    {
      "sampler": 0,
      "source": 2
    }
  ]
}