{
  "accessors": [
    {
      "bufferView": 0,
      "componentType": 5125,
      "count": 40104,
      "type": "SCALAR"
    },
    {
      "bufferView": 1,
      "componentType": 5126,
      "count": 8280,
      "max": [
        1.0,
        0.712666690349579,
        0.233333334326744
      ],
      "min": [
        -1.0,
        -0.712666690349579,
        -0.233333334326744
      ],
      "type": "VEC3"
    },
    {
      "bufferView": 2,
      "componentType": 5126,
      "count": 8280,
      "type": "VEC3"
    },
    {
      "bufferView": 3,
      "componentType": 5126,
      "count": 8280,
      "type": "VEC2"
    }
  ],
  "asset": {
    "generator": "Substance Painter 2019.3.3",
    "version": "2.0"
  },
  "bufferViews": [
    {
      "buffer": 0,
      "byteLength": 160416,
      "target": 34963
    },
    {
      "buffer": 0,
      "byteLength": 99360,
      "byteOffset": 160416,
      "target": 34962
    },
    {
      "buffer": 0,
      "byteLength": 99360,
      "byteOffset": 259776,
      "target": 34962
    },
    {
      "buffer": 0,
      "byteLength": 66240,
      "byteOffset": 359136,
      "target": 34962
    }
  ],
  "buffers": [
    {
      "byteLength": 425376,
      "uri": "shelf_bookcase.bin"
    }
  ],
  "images": [
    {
      "uri": "T_shelfbookcase_baseColor.png"
    },
    {
      "uri": "T_shelfbookcase_occlusionRoughnessMetallic.png"
    },
    {
      "uri": "T_shelfbookcase_normal.png"
    }
  ],
  "materials": [
    {
      "alphaMode": "OPAQUE",
      "name": "T_shelfbookcase",
      "normalTexture": {
        "index": 2
      },
      "occlusionTexture": {
        "index": 1
      },
      "pbrMetallicRoughness": {
        "baseColorTexture": {
          "index": 0
        },
        "metallicRoughnessTexture": {
          "index": 1
        }
      }
    }
  ],
  "meshes": [
    {
      "name": "Cube",
      "primitives": [
        {
          "attributes": {
            "NORMAL": 2,
            "POSITION": 1,
            "TEXCOORD_0": 3
          },
          "indices": 0,
          "material": 0,
          "mode": 4
        }
      ]
    }
  ],
  "nodes": [
    {
      "children": [
        1
      ],
      "name": "root",
      "scale": [
        0.75,
        0.75,
        0.75
      ],
      "translation": [
        0.0,
        0.534500002861023,
        0.0
      ]
    },
    {
      "children": [
        2
      ],
      "name": "Cube"
    },
    {
      "mesh": 0,
      "name": "Cube"
    }
  ],
  "samplers": [
    {
      "magFilter": 9729,
      "minFilter": 9985,
      "wrapS": 10497,
      "wrapT": 10497
    }
  ],
  "scene": 0,
  "scenes": [
    {
      "name": "Scene",
      "nodes": [
        0
      ]
    }
  ],
  "textures": [
    {
      "sampler": 0,
      "source": 0
    },
    {
      "sampler": 0,
      "source": 1
    },
    {
      "sampler": 0,
      "source": 2
    }
  ]
}