{
  "accessors": [
    {
      "bufferView": 0,
      "componentType": 5125,
      "count": 79344,
      "type": "SCALAR"
    },
    {
      "bufferView": 1,
      "componentType": 5126,
      "count": 23186,
      "max": [
        0.129999995231628,
        2.10999989509583,
        0.129999995231628
      ],
      "min": [
        -0.129999995231628,
        0.366312026977539,
        -0.129999995231628
      ],
      "type": "VEC3"
    },
    {
      "bufferView": 2,
      "componentType": 5126,
      "count": 23186,
      "type": "VEC3"
    },
    {
      "bufferView": 3,
      "componentType": 5126,
      "count": 23186,
      "type": "VEC2"
    },
    {
      "bufferView": 4,
      "componentType": 5125,
      "count": 39762,
      "type": "SCALAR"
    },
    {
      "bufferView": 5,
      "componentType": 5126,
      "count": 12607,
      "max": [
        0.185000002384186,
        1.47000002861023,
        0.185000002384186
      ],
      "min": [
        -0.185000002384186,
        1.19209289550781e-07,
        -0.185000002384186
      ],
      "type": "VEC3"
    },
    {
      "bufferView": 6,
      "componentType": 5126,
      "count": 12607,
      "type": "VEC3"
    },
    {
      "bufferView": 7,
      "componentType": 5126,
      "count": 12607,
      "type": "VEC2"
    }
  ],
  "asset": {
    "generator": "Substance Painter 6.1.1",
    "version": "2.0"
  },
  "bufferViews": [
    {
      "buffer": 0,
      "byteLength": 317376,
      "target": 34963
    },
    {
      "buffer": 0,
      "byteLength": 278232,
      "byteOffset": 317376,
      "target": 34962
    },
    {
      "buffer": 0,
      "byteLength": 278232,
      "byteOffset": 595608,
      "target": 34962
    },
    {
      "buffer": 0,
      "byteLength": 185488,
      "byteOffset": 873840,
      "target": 34962
    },
    {
      "buffer": 0,
      "byteLength": 159048,
      "byteOffset": 1059328,
      "target": 34963
    },
    {
      "buffer": 0,
      "byteLength": 151284,
      "byteOffset": 1218376,
      "target": 34962
    },
    {
      "buffer": 0,
      "byteLength": 151284,
      "byteOffset": 1369660,
      "target": 34962
    },
    {
      "buffer": 0,
      "byteLength": 100856,
      "byteOffset": 1520944,
      "target": 34962
    }
  ],
  "buffers": [
    {
      "byteLength": 1621800,
      "uri": "paolo_castelli.bin"
    }
  ],
  "images": [
    {
      "uri": "T_frame_baseColor.png"
    },
    {
      "uri": "T_frame_occlusionRoughnessMetallic.png"
    },
    {
      "uri": "T_frame_normal.png"
    },
    {
      "uri": "T_glass_baseColor.png"
    },
    {
      "uri": "T_glass_occlusionRoughnessMetallic.png"
    },
    {
      "uri": "T_glass_normal.png"
    }
  ],
  "materials": [
    {
      "alphaMode": "OPAQUE",
      "name": "T_frame",
      "normalTexture": {
        "index": 2
      },
      "occlusionTexture": {
        "index": 1
      },
      "pbrMetallicRoughness": {
        "baseColorTexture": {
          "index": 0
        },
        "metallicRoughnessTexture": {
          "index": 1
        }
      }
    },
    {
      "alphaMode": "OPAQUE",
      "name": "T_glass",
      "normalTexture": {
        "index": 5
      },
      "occlusionTexture": {
        "index": 4
      },
      "pbrMetallicRoughness": {
        "baseColorTexture": {
          "index": 3
        },
        "metallicRoughnessTexture": {
          "index": 4
        }
      }
    }
  ],
  "meshes": [
    {
      "name": "Paolo_Castelli_My_Lamp_Floor_mat2",
      "primitives": [
        {
          "attributes": {
            "NORMAL": 2,
            "POSITION": 1,
            "TEXCOORD_0": 3
          },
          "indices": 0,
          "material": 1,
          "mode": 4
        }
      ]
    },
    {
      "name": "Paolo_Castelli_My_Lamp_Floor_mat2",
      "primitives": [
        {
          "attributes": {
            "NORMAL": 6,
            "POSITION": 5,
            "TEXCOORD_0": 7
          },
          "indices": 4,
          "material": 0,
          "mode": 4
        }
      ]
    }
  ],
  "nodes": [
    {
      "children": [
        1
      ],
      "name": "paolo.obj"
    },
    {
      "children": [
        2,
        3
      ],
      "name": "g Paolo_Castelli_My_Lamp_Floor_mat2"
    },
    {
      "mesh": 0,
      "name": "Paolo_Castelli_My_Lamp_Floor_mat2"
    },
    {
      "mesh": 1,
      "name": "Paolo_Castelli_My_Lamp_Floor_mat2"
    }
  ],
  "samplers": [
    {
      "magFilter": 9729,
      "minFilter": 9985,
      "wrapS": 10497,
      "wrapT": 10497
    }
  ],
  "scene": 0,
  "scenes": [
    {
      "name": "Scene",
      "nodes": [
        0
      ]
    }
  ],
  "textures": [
    {
      "sampler": 0,
      "source": 0
    },
    {
      "sampler": 0,
      "source": 1
    },
    {
      "sampler": 0,
      "source": 2
    },
    {
      "sampler": 0,
      "source": 3
    },
    {
      "sampler": 0,
      "source": 4
    },
    {
      "sampler": 0,
      "source": 5
    }
  ]
}