{
  "accessors": [
    {
      "bufferView": 0,
      "componentType": 5125,
      "count": 325983,
      "type": "SCALAR"
    },
    {
      "bufferView": 1,
      "componentType": 5126,
      "count": 68075,
      "max": [
        0.264273315668106,
        0.934020757675171,
        0.328906953334808
      ],
      "min": [
        -0.267745047807693,
        0.0029735267162323,
        -0.21893621981144
      ],
      "type": "VEC3"
    },
    {
      "bufferView": 2,
      "componentType": 5126,
      "count": 68075,
      "type": "VEC3"
    },
    {
      "bufferView": 3,
      "componentType": 5126,
      "count": 68075,
      "type": "VEC2"
    }
  ],
  "asset": {
    "generator": "Substance Painter 6.1.2",
    "version": "2.0"
  },
  "bufferViews": [
    {
      "buffer": 0,
      "byteLength": 1303932,
      "target": 34963
    },
    {
      "buffer": 0,
      "byteLength": 816900,
      "byteOffset": 1303932,
      "target": 34962
    },
    {
      "buffer": 0,
      "byteLength": 816900,
      "byteOffset": 2120832,
      "target": 34962
    },
    {
      "buffer": 0,
      "byteLength": 544600,
      "byteOffset": 2937732,
      "target": 34962
    }
  ],
  "buffers": [
    {
      "byteLength": 3482332,
      "uri": "beetlechairV3.bin"
    }
  ],
  "images": [
    {
      "uri": "T_bettlechairv3_baseColor.png"
    },
    {
      "uri": "T_bettlechairv3_occlusionRoughnessMetallic.png"
    },
    {
      "uri": "T_bettlechairv3_normal.png"
    }
  ],
  "materials": [
    {
      "alphaMode": "OPAQUE",
      "name": "T_bettlechairv3",
      "normalTexture": {
        "index": 2
      },
      "occlusionTexture": {
        "index": 1
      },
      "pbrMetallicRoughness": {
        "baseColorTexture": {
          "index": 0
        },
        "metallicRoughnessTexture": {
          "index": 1
        }
      }
    }
  ],
  "meshes": [
    {
      "name": "Mesh",
      "primitives": [
        {
          "attributes": {
            "NORMAL": 2,
            "POSITION": 1,
            "TEXCOORD_0": 3
          },
          "indices": 0,
          "material": 0,
          "mode": 4
        }
      ]
    }
  ],
  "nodes": [
    {
      "children": [
        1
      ],
      "name": "RootNode"
    },
    {
      "children": [
        2
      ],
      "name": "Mesh",
      "scale": [
        1.0,
        0.920000016689301,
        1.0
      ]
    },
    {
      "mesh": 0,
      "name": "Mesh"
    }
  ],
  "samplers": [
    {
      "magFilter": 9729,
      "minFilter": 9985,
      "wrapS": 10497,
      "wrapT": 10497
    }
  ],
  "scene": 0,
  "scenes": [
    {
      "name": "Scene",
      "nodes": [
        0
      ]
    }
  ],
  "textures": [
    {
      "sampler": 0,
      "source": 0
    },
    {
      "sampler": 0,
      "source": 1
    },
    {
      "sampler": 0,
      "source": 2
    }
  ]
}