{
	"asset":{
		"version":"2.0",
		"generator":"Houdini GLTF 2.0 Exporter"
	},
	"accessors":[
		{
			"bufferView":0,
			"componentType":5125,
			"count":465000,
			"type":"SCALAR",
			"min":[0
			],
			"max":[464999
			]
		},
		{
			"bufferView":1,
			"componentType":5126,
			"count":465000,
			"type":"VEC3",
			"min":[-0.975270271,-0.332914591,-0.413689673
			],
			"max":[0.989485443,0.551722705,0.428713769
			]
		},
		{
			"bufferView":2,
			"componentType":5126,
			"count":465000,
			"type":"VEC2",
			"min":[0.039799992,0.0205609202
			],
			"max":[1.00020003,0.980207682
			]
		},
		{
			"bufferView":3,
			"componentType":5126,
			"count":465000,
			"type":"VEC3",
			"min":[-0.999999166,-1,-0.999996364
			],
			"max":[0.999999225,0.999996662,0.999999583
			]
		},
		{
			"bufferView":4,
			"componentType":5125,
			"count":48324,
			"type":"SCALAR",
			"min":[0
			],
			"max":[48323
			]
		},
		{
			"bufferView":5,
			"componentType":5126,
			"count":48324,
			"type":"VEC3",
			"min":[-1,-0.551722705,-0.428713709
			],
			"max":[1.00000024,0.308846056,0.421126813
			]
		},
		{
			"bufferView":6,
			"componentType":5126,
			"count":48324,
			"type":"VEC2",
			"min":[0.00999999978,0.00999999046
			],
			"max":[0.988260329,0.99000001
			]
		},
		{
			"bufferView":7,
			"componentType":5126,
			"count":48324,
			"type":"VEC3",
			"min":[-1,-1,-0.999999642
			],
			"max":[1,1,1
			]
		}
	],
	"buffers":[
		{
			"uri":"flysofa_data.bin",
			"byteLength":18479664,
			"name":"main_buffer"
		}
	],
	"bufferViews":[
		{
			"buffer":0,
			"byteLength":1860000,
			"target":34963
		},
		{
			"buffer":0,
			"byteOffset":1860000,
			"byteLength":5580000,
			"target":34962
		},
		{
			"buffer":0,
			"byteOffset":7440000,
			"byteLength":3720000,
			"target":34962
		},
		{
			"buffer":0,
			"byteOffset":11160000,
			"byteLength":5580000,
			"target":34962
		},
		{
			"buffer":0,
			"byteOffset":16740000,
			"byteLength":193296,
			"target":34963
		},
		{
			"buffer":0,
			"byteOffset":16933296,
			"byteLength":579888,
			"target":34962
		},
		{
			"buffer":0,
			"byteOffset":17513184,
			"byteLength":386592,
			"target":34962
		},
		{
			"buffer":0,
			"byteOffset":17899776,
			"byteLength":579888,
			"target":34962
		}
	],
	"nodes":[
		{
			"children":[1
			],
			"name":"Root"
		},
		{
			"children":[2
			],
			"name":"flysofa"
		},
		{
			"children":[3
			],
			"name":"Root"
		},
		{
			"children":[4
			],
			"name":"flysofa"
		},
		{
			"children":[5,7
			],
			"matrix":[0.808565855,0,0,0,0,0.808565855,0,0,0,0,0.808565855,0,0,0.44610402,0.00306046009,1
			],
			"name":"root"
		},
		{
			"children":[6
			],
			"name":"Mesh7"
		},
		{
			"name":"Mesh8",
			"mesh":0
		},
		{
			"children":[8
			],
			"name":"Mesh9"
		},
		{
			"name":"Mesh10",
			"mesh":1
		}
	],
	"meshes":[
		{
			"primitives":[
				{
					"attributes":{
						"NORMAL":3,
						"TEXCOORD_0":2,
						"POSITION":1
					},
					"indices":0,
					"material":0
				}
			]
		},
		{
			"primitives":[
				{
					"attributes":{
						"NORMAL":7,
						"TEXCOORD_0":6,
						"POSITION":5
					},
					"indices":4,
					"material":1
				}
			]
		}
	],
	"materials":[
		{
			"name":"T_sofacushion",
			"pbrMetallicRoughness":{
				"baseColorTexture":{
					"index":0
				},
				"metallicRoughnessTexture":{
					"index":1
				}
			},
			"normalTexture":{
				"index":2
			}
		},
		{
			"name":"T_sofaframe",
			"pbrMetallicRoughness":{
				"baseColorTexture":{
					"index":3
				},
				"metallicRoughnessTexture":{
					"index":4
				}
			},
			"normalTexture":{
				"index":5
			}
		}
	],
	"scenes":[
		{
			"nodes":[0
			]
		}
	],
	"textures":[
		{
			"source":0
		},
		{
			"source":1
		},
		{
			"source":2
		},
		{
			"source":3
		},
		{
			"source":4
		},
		{
			"source":5
		}
	],
	"images":[
		{
			"uri":"T_sofacushion_baseColor.png",
			"mimeType":"image/png"
		},
		{
			"uri":"T_sofacushion_occlusionRoughnessMetallic.png",
			"mimeType":"image/png"
		},
		{
			"uri":"T_sofacushion_normal.png",
			"mimeType":"image/png"
		},
		{
			"uri":"T_sofaframe_baseColor.png",
			"mimeType":"image/png"
		},
		{
			"uri":"T_sofaframe_occlusionRoughnessMetallic.png",
			"mimeType":"image/png"
		},
		{
			"uri":"T_sofaframe_normal.png",
			"mimeType":"image/png"
		}
	],
	"scene":0
}
