{
  "accessors": [
    {
      "bufferView": 0,
      "componentType": 5125,
      "count": 22506,
      "type": "SCALAR"
    },
    {
      "bufferView": 1,
      "componentType": 5126,
      "count": 4067,
      "max": [
        0.999996185302734,
        0.00724547589197755,
        0.755049884319305
      ],
      "min": [
        -0.999998867511749,
        -0.00724546564742923,
        -0.755050122737885
      ],
      "type": "VEC3"
    },
    {
      "bufferView": 2,
      "componentType": 5126,
      "count": 4067,
      "type": "VEC3"
    },
    {
      "bufferView": 3,
      "componentType": 5126,
      "count": 4067,
      "type": "VEC2"
    }
  ],
  "asset": {
    "generator": "Substance Painter 2019.2.3",
    "version": "2.0"
  },
  "bufferViews": [
    {
      "buffer": 0,
      "byteLength": 90024,
      "target": 34963
    },
    {
      "buffer": 0,
      "byteLength": 48804,
      "byteOffset": 90024,
      "target": 34962
    },
    {
      "buffer": 0,
      "byteLength": 48804,
      "byteOffset": 138828,
      "target": 34962
    },
    {
      "buffer": 0,
      "byteLength": 32536,
      "byteOffset": 187632,
      "target": 34962
    }
  ],
  "buffers": [
    {
      "byteLength": 220168,
      "uri": "zenobia.bin"
    }
  ],
  "images": [
    {
      "uri": "T_zenobia_baseColor.png"
    },
    {
      "uri": "T_zenobia_occlusionRoughnessMetallic.png"
    },
    {
      "uri": "T_zenobia_normal.png"
    }
  ],
  "materials": [
    {
      "alphaMode": "OPAQUE",
      "name": "T_zenobia",
      "normalTexture": {
        "index": 2
      },
      "occlusionTexture": {
        "index": 1
      },
      "pbrMetallicRoughness": {
        "baseColorTexture": {
          "index": 0
        },
        "metallicRoughnessTexture": {
          "index": 1
        }
      }
    }
  ],
  "meshes": [
    {
      "name": "zenobia",
      "primitives": [
        {
          "attributes": {
            "NORMAL": 2,
            "POSITION": 1,
            "TEXCOORD_0": 3
          },
          "indices": 0,
          "material": 0,
          "mode": 4
        }
      ]
    }
  ],
  "nodes": [
    {
      "children": [
        1
      ],
      "name": "zenobia.obj",
      "scale": [
        1.208163022995,
        1.208163022995,
        1.208163022995
      ],
      "translation": [
        0.00295162200927734,
        0.00717318383976817,
        4.56571578979492e-05
      ]
    },
    {
      "children": [
        2
      ],
      "name": "g zenobia"
    },
    {
      "mesh": 0,
      "name": "zenobia"
    }
  ],
  "samplers": [
    {
      "magFilter": 9729,
      "minFilter": 9985,
      "wrapS": 10497,
      "wrapT": 10497
    }
  ],
  "scene": 0,
  "scenes": [
    {
      "name": "Scene",
      "nodes": [
        0
      ]
    }
  ],
  "textures": [
    {
      "sampler": 0,
      "source": 0
    },
    {
      "sampler": 0,
      "source": 1
    },
    {
      "sampler": 0,
      "source": 2
    }
  ]
}