{
  "accessors": [
    {
      "bufferView": 0,
      "componentType": 5125,
      "count": 4482,
      "type": "SCALAR"
    },
    {
      "bufferView": 1,
      "componentType": 5126,
      "count": 1986,
      "max": [
        0.800000011920929,
        1.0,
        0.376000016927719
      ],
      "min": [
        -0.800000011920929,
        -1.0,
        -0.376000016927719
      ],
      "type": "VEC3"
    },
    {
      "bufferView": 2,
      "componentType": 5126,
      "count": 1986,
      "type": "VEC3"
    },
    {
      "bufferView": 3,
      "componentType": 5126,
      "count": 1986,
      "type": "VEC2"
    }
  ],
  "asset": {
    "generator": "Substance Painter 2019.3.3",
    "version": "2.0"
  },
  "bufferViews": [
    {
      "buffer": 0,
      "byteLength": 17928,
      "target": 34963
    },
    {
      "buffer": 0,
      "byteLength": 23832,
      "byteOffset": 17928,
      "target": 34962
    },
    {
      "buffer": 0,
      "byteLength": 23832,
      "byteOffset": 41760,
      "target": 34962
    },
    {
      "buffer": 0,
      "byteLength": 15888,
      "byteOffset": 65592,
      "target": 34962
    }
  ],
  "buffers": [
    {
      "byteLength": 81480,
      "uri": "square_consoletable.bin"
    }
  ],
  "images": [
    {
      "uri": "T_squareconsoletable_baseColor.png"
    },
    {
      "uri": "T_squareconsoletable_occlusionRoughnessMetallic.png"
    },
    {
      "uri": "T_squareconsoletable_normal.png"
    }
  ],
  "materials": [
    {
      "alphaMode": "OPAQUE",
      "name": "T_squareconsoletable",
      "normalTexture": {
        "index": 2
      },
      "occlusionTexture": {
        "index": 1
      },
      "pbrMetallicRoughness": {
        "baseColorTexture": {
          "index": 0
        },
        "metallicRoughnessTexture": {
          "index": 1
        }
      }
    }
  ],
  "meshes": [
    {
      "name": "Mesh",
      "primitives": [
        {
          "attributes": {
            "NORMAL": 2,
            "POSITION": 1,
            "TEXCOORD_0": 3
          },
          "indices": 0,
          "material": 0,
          "mode": 4
        }
      ]
    }
  ],
  "nodes": [
    {
      "children": [
        1
      ],
      "name": "root",
      "scale": [
        0.625,
        0.625,
        0.625
      ],
      "translation": [
        0.0,
        0.625,
        0.0
      ]
    },
    {
      "children": [
        2
      ],
      "name": "Mesh"
    },
    {
      "mesh": 0,
      "name": "Mesh"
    }
  ],
  "samplers": [
    {
      "magFilter": 9729,
      "minFilter": 9985,
      "wrapS": 10497,
      "wrapT": 10497
    }
  ],
  "scene": 0,
  "scenes": [
    {
      "name": "Scene",
      "nodes": [
        0
      ]
    }
  ],
  "textures": [
    {
      "sampler": 0,
      "source": 0
    },
    {
      "sampler": 0,
      "source": 1
    },
    {
      "sampler": 0,
      "source": 2
    }
  ]
}