{
  "accessors": [
    {
      "bufferView": 0,
      "componentType": 5125,
      "count": 27540,
      "type": "SCALAR"
    },
    {
      "bufferView": 1,
      "componentType": 5126,
      "count": 7536,
      "max": [
        1.0,
        0.801292538642883,
        0.833864748477936
      ],
      "min": [
        -1.0,
        -0.801292538642883,
        -0.833864748477936
      ],
      "type": "VEC3"
    },
    {
      "bufferView": 2,
      "componentType": 5126,
      "count": 7536,
      "type": "VEC3"
    },
    {
      "bufferView": 3,
      "componentType": 5126,
      "count": 7536,
      "type": "VEC2"
    }
  ],
  "asset": {
    "generator": "Substance Painter 2019.2.3",
    "version": "2.0"
  },
  "bufferViews": [
    {
      "buffer": 0,
      "byteLength": 110160,
      "target": 34963
    },
    {
      "buffer": 0,
      "byteLength": 90432,
      "byteOffset": 110160,
      "target": 34962
    },
    {
      "buffer": 0,
      "byteLength": 90432,
      "byteOffset": 200592,
      "target": 34962
    },
    {
      "buffer": 0,
      "byteLength": 60288,
      "byteOffset": 291024,
      "target": 34962
    }
  ],
  "buffers": [
    {
      "byteLength": 351312,
      "uri": "plant02.bin"
    }
  ],
  "images": [
    {
      "uri": "T_plant02_baseColor.png"
    },
    {
      "uri": "T_plant02_occlusionRoughnessMetallic.png"
    },
    {
      "uri": "T_plant02_normal.png"
    }
  ],
  "materials": [
    {
      "alphaMode": "OPAQUE",
      "name": "T_plant02",
      "normalTexture": {
        "index": 2
      },
      "occlusionTexture": {
        "index": 1
      },
      "pbrMetallicRoughness": {
        "baseColorTexture": {
          "index": 0
        },
        "metallicRoughnessTexture": {
          "index": 1
        }
      }
    }
  ],
  "meshes": [
    {
      "name": "2",
      "primitives": [
        {
          "attributes": {
            "NORMAL": 2,
            "POSITION": 1,
            "TEXCOORD_0": 3
          },
          "indices": 0,
          "material": 0,
          "mode": 4
        }
      ]
    }
  ],
  "nodes": [
    {
      "children": [
        1
      ],
      "name": "root",
      "scale": [
        0.487217783927917,
        0.487217783927917,
        0.487217783927917
      ],
      "translation": [
        -0.050000011920929,
        0.390403985977173,
        0.0349999964237213
      ]
    },
    {
      "children": [
        2
      ],
      "name": "2"
    },
    {
      "mesh": 0,
      "name": "2"
    }
  ],
  "samplers": [
    {
      "magFilter": 9729,
      "minFilter": 9985,
      "wrapS": 10497,
      "wrapT": 10497
    }
  ],
  "scene": 0,
  "scenes": [
    {
      "name": "Scene",
      "nodes": [
        0
      ]
    }
  ],
  "textures": [
    {
      "sampler": 0,
      "source": 0
    },
    {
      "sampler": 0,
      "source": 1
    },
    {
      "sampler": 0,
      "source": 2
    }
  ]
}