{
  "accessors": [
    {
      "bufferView": 0,
      "componentType": 5125,
      "count": 68646,
      "type": "SCALAR"
    },
    {
      "bufferView": 1,
      "componentType": 5126,
      "count": 11900,
      "max": [
        1.0,
        0.94049745798111,
        0.515688121318817
      ],
      "min": [
        -1.0,
        -0.94049745798111,
        -0.515688121318817
      ],
      "type": "VEC3"
    },
    {
      "bufferView": 2,
      "componentType": 5126,
      "count": 11900,
      "type": "VEC3"
    },
    {
      "bufferView": 3,
      "componentType": 5126,
      "count": 11900,
      "type": "VEC2"
    }
  ],
  "asset": {
    "generator": "Substance Painter 2019.3.3",
    "version": "2.0"
  },
  "bufferViews": [
    {
      "buffer": 0,
      "byteLength": 274584,
      "target": 34963
    },
    {
      "buffer": 0,
      "byteLength": 142800,
      "byteOffset": 274584,
      "target": 34962
    },
    {
      "buffer": 0,
      "byteLength": 142800,
      "byteOffset": 417384,
      "target": 34962
    },
    {
      "buffer": 0,
      "byteLength": 95200,
      "byteOffset": 560184,
      "target": 34962
    }
  ],
  "buffers": [
    {
      "byteLength": 655384,
      "uri": "bardot.bin"
    }
  ],
  "images": [
    {
      "uri": "FABRIC 1_FRONT_128122_baseColor.png"
    },
    {
      "uri": "FABRIC 1_FRONT_128122_occlusionRoughnessMetallic.png"
    },
    {
      "uri": "FABRIC 1_FRONT_128122_normal.png"
    }
  ],
  "materials": [
    {
      "alphaMode": "OPAQUE",
      "name": "FABRIC 1_FRONT_128122",
      "normalTexture": {
        "index": 2
      },
      "occlusionTexture": {
        "index": 1
      },
      "pbrMetallicRoughness": {
        "baseColorTexture": {
          "index": 0
        },
        "metallicRoughnessTexture": {
          "index": 1
        }
      }
    }
  ],
  "meshes": [
    {
      "name": "Mesh2",
      "primitives": [
        {
          "attributes": {
            "NORMAL": 2,
            "POSITION": 1,
            "TEXCOORD_0": 3
          },
          "indices": 0,
          "material": 0,
          "mode": 4
        }
      ]
    }
  ],
  "nodes": [
    {
      "children": [
        1
      ],
      "name": "root",
      "scale": [
        0.241398125886917,
        0.241398125886917,
        0.241398125886917
      ],
      "translation": [
        0.0,
        0.227034315466881,
        0.0
      ]
    },
    {
      "children": [
        2
      ],
      "name": "Mesh2"
    },
    {
      "mesh": 0,
      "name": "Mesh2"
    }
  ],
  "samplers": [
    {
      "magFilter": 9729,
      "minFilter": 9985,
      "wrapS": 10497,
      "wrapT": 10497
    }
  ],
  "scene": 0,
  "scenes": [
    {
      "name": "Scene",
      "nodes": [
        0
      ]
    }
  ],
  "textures": [
    {
      "sampler": 0,
      "source": 0
    },
    {
      "sampler": 0,
      "source": 1
    },
    {
      "sampler": 0,
      "source": 2
    }
  ]
}