{
  "accessors": [
    {
      "bufferView": 0,
      "componentType": 5125,
      "count": 252522,
      "type": "SCALAR"
    },
    {
      "bufferView": 1,
      "componentType": 5126,
      "count": 45659,
      "max": [
        0.970128953456879,
        0.765789389610291,
        1.00000011920929
      ],
      "min": [
        -0.970128953456879,
        -0.765789389610291,
        -1.0
      ],
      "type": "VEC3"
    },
    {
      "bufferView": 2,
      "componentType": 5126,
      "count": 45659,
      "type": "VEC3"
    },
    {
      "bufferView": 3,
      "componentType": 5126,
      "count": 45659,
      "type": "VEC2"
    }
  ],
  "asset": {
    "generator": "Substance Painter 2019.2.3",
    "version": "2.0"
  },
  "bufferViews": [
    {
      "buffer": 0,
      "byteLength": 1010088,
      "target": 34963
    },
    {
      "buffer": 0,
      "byteLength": 547908,
      "byteOffset": 1010088,
      "target": 34962
    },
    {
      "buffer": 0,
      "byteLength": 547908,
      "byteOffset": 1557996,
      "target": 34962
    },
    {
      "buffer": 0,
      "byteLength": 365272,
      "byteOffset": 2105904,
      "target": 34962
    }
  ],
  "buffers": [
    {
      "byteLength": 2471176,
      "uri": "aero.bin"
    }
  ],
  "images": [
    {
      "uri": "T_aero_baseColor.png"
    },
    {
      "uri": "T_aero_occlusionRoughnessMetallic.png"
    },
    {
      "uri": "T_aero_normal.png"
    }
  ],
  "materials": [
    {
      "alphaMode": "OPAQUE",
      "name": "T_aero",
      "normalTexture": {
        "index": 2
      },
      "occlusionTexture": {
        "index": 1
      },
      "pbrMetallicRoughness": {
        "baseColorTexture": {
          "index": 0
        },
        "metallicRoughnessTexture": {
          "index": 1
        }
      }
    }
  ],
  "meshes": [
    {
      "name": "aero_high",
      "primitives": [
        {
          "attributes": {
            "NORMAL": 2,
            "POSITION": 1,
            "TEXCOORD_0": 3
          },
          "indices": 0,
          "material": 0,
          "mode": 4
        }
      ]
    }
  ],
  "nodes": [
    {
      "children": [
        1
      ],
      "name": "aero.obj",
      "scale": [
        0.502810478210449,
        0.502810478210449,
        0.502810478210449
      ],
      "translation": [
        -1.99675559997559e-06,
        0.384988099336624,
        0.00153148174285889
      ]
    },
    {
      "children": [
        2
      ],
      "name": "g aero_high"
    },
    {
      "mesh": 0,
      "name": "aero_high"
    }
  ],
  "samplers": [
    {
      "magFilter": 9729,
      "minFilter": 9985,
      "wrapS": 10497,
      "wrapT": 10497
    }
  ],
  "scene": 0,
  "scenes": [
    {
      "name": "Scene",
      "nodes": [
        0
      ]
    }
  ],
  "textures": [
    {
      "sampler": 0,
      "source": 0
    },
    {
      "sampler": 0,
      "source": 1
    },
    {
      "sampler": 0,
      "source": 2
    }
  ]
}