{
  "accessors": [
    {
      "bufferView": 0,
      "componentType": 5125,
      "count": 192018,
      "type": "SCALAR"
    },
    {
      "bufferView": 1,
      "componentType": 5126,
      "count": 41765,
      "max": [
        0.736136615276337,
        0.95153534412384,
        1.0
      ],
      "min": [
        -0.736136615276337,
        -0.95153546333313,
        -1.0
      ],
      "type": "VEC3"
    },
    {
      "bufferView": 2,
      "componentType": 5126,
      "count": 41765,
      "type": "VEC3"
    },
    {
      "bufferView": 3,
      "componentType": 5126,
      "count": 41765,
      "type": "VEC2"
    }
  ],
  "asset": {
    "generator": "Substance Painter 2019.2.3",
    "version": "2.0"
  },
  "bufferViews": [
    {
      "buffer": 0,
      "byteLength": 768072,
      "target": 34963
    },
    {
      "buffer": 0,
      "byteLength": 501180,
      "byteOffset": 768072,
      "target": 34962
    },
    {
      "buffer": 0,
      "byteLength": 501180,
      "byteOffset": 1269252,
      "target": 34962
    },
    {
      "buffer": 0,
      "byteLength": 334120,
      "byteOffset": 1770432,
      "target": 34962
    }
  ],
  "buffers": [
    {
      "byteLength": 2104552,
      "uri": "elephant_rocking_chair.bin"
    }
  ],
  "images": [
    {
      "uri": "T_elephantrocking_baseColor.png"
    },
    {
      "uri": "T_elephantrocking_occlusionRoughnessMetallic.png"
    },
    {
      "uri": "T_elephantrocking_normal.png"
    }
  ],
  "materials": [
    {
      "alphaMode": "OPAQUE",
      "name": "T_elephantrocking",
      "normalTexture": {
        "index": 2
      },
      "occlusionTexture": {
        "index": 1
      },
      "pbrMetallicRoughness": {
        "baseColorTexture": {
          "index": 0
        },
        "metallicRoughnessTexture": {
          "index": 1
        }
      }
    }
  ],
  "meshes": [
    {
      "name": "Mesh",
      "primitives": [
        {
          "attributes": {
            "NORMAL": 2,
            "POSITION": 1,
            "TEXCOORD_0": 3
          },
          "indices": 0,
          "material": 0,
          "mode": 4
        }
      ]
    }
  ],
  "nodes": [
    {
      "children": [
        1
      ],
      "name": "root",
      "scale": [
        0.421525001525879,
        0.421525001525879,
        0.421525001525879
      ],
      "translation": [
        0.0,
        0.401095986366272,
        0.0
      ]
    },
    {
      "children": [
        2
      ],
      "name": "Mesh"
    },
    {
      "mesh": 0,
      "name": "Mesh"
    }
  ],
  "samplers": [
    {
      "magFilter": 9729,
      "minFilter": 9985,
      "wrapS": 10497,
      "wrapT": 10497
    }
  ],
  "scene": 0,
  "scenes": [
    {
      "name": "Scene",
      "nodes": [
        0
      ]
    }
  ],
  "textures": [
    {
      "sampler": 0,
      "source": 0
    },
    {
      "sampler": 0,
      "source": 1
    },
    {
      "sampler": 0,
      "source": 2
    }
  ]
}