{
  "accessors": [
    {
      "bufferView": 0,
      "componentType": 5125,
      "count": 103266,
      "type": "SCALAR"
    },
    {
      "bufferView": 1,
      "componentType": 5126,
      "count": 22133,
      "max": [
        0.621990859508514,
        2.48358607292175,
        0.0459168180823326
      ],
      "min": [
        -0.628448247909546,
        0.0,
        -0.0428260751068592
      ],
      "type": "VEC3"
    },
    {
      "bufferView": 2,
      "componentType": 5126,
      "count": 22133,
      "type": "VEC3"
    },
    {
      "bufferView": 3,
      "componentType": 5126,
      "count": 22133,
      "type": "VEC2"
    }
  ],
  "asset": {
    "generator": "Substance Painter 6.1.2",
    "version": "2.0"
  },
  "bufferViews": [
    {
      "buffer": 0,
      "byteLength": 413064,
      "target": 34963
    },
    {
      "buffer": 0,
      "byteLength": 265596,
      "byteOffset": 413064,
      "target": 34962
    },
    {
      "buffer": 0,
      "byteLength": 265596,
      "byteOffset": 678660,
      "target": 34962
    },
    {
      "buffer": 0,
      "byteLength": 177064,
      "byteOffset": 944256,
      "target": 34962
    }
  ],
  "buffers": [
    {
      "byteLength": 1121320,
      "uri": "leaves_pendant.bin"
    }
  ],
  "images": [
    {
      "uri": "T_leavespendant_baseColor.png"
    },
    {
      "uri": "T_leavespendant_occlusionRoughnessMetallic.png"
    },
    {
      "uri": "T_leavespendant_normal.png"
    }
  ],
  "materials": [
    {
      "alphaMode": "OPAQUE",
      "name": "T_leavespendant",
      "normalTexture": {
        "index": 2
      },
      "occlusionTexture": {
        "index": 1
      },
      "pbrMetallicRoughness": {
        "baseColorTexture": {
          "index": 0
        },
        "metallicRoughnessTexture": {
          "index": 1
        }
      }
    }
  ],
  "meshes": [
    {
      "name": "leaves",
      "primitives": [
        {
          "attributes": {
            "NORMAL": 2,
            "POSITION": 1,
            "TEXCOORD_0": 3
          },
          "indices": 0,
          "material": 0,
          "mode": 4
        }
      ]
    }
  ],
  "nodes": [
    {
      "children": [
        1
      ],
      "name": "RootNode"
    },
    {
      "children": [
        2
      ],
      "name": "leaves"
    },
    {
      "mesh": 0,
      "name": "leaves"
    }
  ],
  "samplers": [
    {
      "magFilter": 9729,
      "minFilter": 9985,
      "wrapS": 10497,
      "wrapT": 10497
    }
  ],
  "scene": 0,
  "scenes": [
    {
      "name": "Scene",
      "nodes": [
        0
      ]
    }
  ],
  "textures": [
    {
      "sampler": 0,
      "source": 0
    },
    {
      "sampler": 0,
      "source": 1
    },
    {
      "sampler": 0,
      "source": 2
    }
  ]
}