{
  "accessors": [
    {
      "bufferView": 0,
      "componentType": 5125,
      "count": 894,
      "type": "SCALAR"
    },
    {
      "bufferView": 1,
      "componentType": 5126,
      "count": 388,
      "max": [
        1.0,
        0.0275096166878939,
        0.762998759746552
      ],
      "min": [
        -1.0,
        -0.0275096166878939,
        -0.762998878955841
      ],
      "type": "VEC3"
    },
    {
      "bufferView": 2,
      "componentType": 5126,
      "count": 388,
      "type": "VEC3"
    },
    {
      "bufferView": 3,
      "componentType": 5126,
      "count": 388,
      "type": "VEC2"
    },
    {
      "bufferView": 4,
      "componentType": 5125,
      "count": 30,
      "type": "SCALAR"
    },
    {
      "bufferView": 5,
      "componentType": 5126,
      "count": 12,
      "max": [
        0.904880225658417,
        -0.00550166657194495,
        0.674705803394318
      ],
      "min": [
        -0.904880225658417,
        -0.00550208752974868,
        -0.674705922603607
      ],
      "type": "VEC3"
    },
    {
      "bufferView": 6,
      "componentType": 5126,
      "count": 12,
      "type": "VEC3"
    },
    {
      "bufferView": 7,
      "componentType": 5126,
      "count": 12,
      "type": "VEC2"
    }
  ],
  "asset": {
    "generator": "Substance Painter 2019.2.3",
    "version": "2.0"
  },
  "bufferViews": [
    {
      "buffer": 0,
      "byteLength": 3576,
      "target": 34963
    },
    {
      "buffer": 0,
      "byteLength": 4656,
      "byteOffset": 3576,
      "target": 34962
    },
    {
      "buffer": 0,
      "byteLength": 4656,
      "byteOffset": 8232,
      "target": 34962
    },
    {
      "buffer": 0,
      "byteLength": 3104,
      "byteOffset": 12888,
      "target": 34962
    },
    {
      "buffer": 0,
      "byteLength": 120,
      "byteOffset": 15992,
      "target": 34963
    },
    {
      "buffer": 0,
      "byteLength": 144,
      "byteOffset": 16112,
      "target": 34962
    },
    {
      "buffer": 0,
      "byteLength": 144,
      "byteOffset": 16256,
      "target": 34962
    },
    {
      "buffer": 0,
      "byteLength": 96,
      "byteOffset": 16400,
      "target": 34962
    }
  ],
  "buffers": [
    {
      "byteLength": 16496,
      "uri": "painting_02.bin"
    }
  ],
  "images": [
    {
      "uri": "frame_baseColor.png"
    },
    {
      "uri": "frame_occlusionRoughnessMetallic.png"
    },
    {
      "uri": "frame_normal.png"
    },
    {
      "uri": "painting_baseColor.png"
    },
    {
      "uri": "painting_occlusionRoughnessMetallic.png"
    },
    {
      "uri": "painting_normal.png"
    }
  ],
  "materials": [
    {
      "alphaMode": "OPAQUE",
      "name": "frame",
      "normalTexture": {
        "index": 2
      },
      "occlusionTexture": {
        "index": 1
      },
      "pbrMetallicRoughness": {
        "baseColorTexture": {
          "index": 0
        },
        "metallicRoughnessTexture": {
          "index": 1
        }
      }
    },
    {
      "alphaMode": "OPAQUE",
      "name": "painting",
      "normalTexture": {
        "index": 5
      },
      "occlusionTexture": {
        "index": 4
      },
      "pbrMetallicRoughness": {
        "baseColorTexture": {
          "index": 3
        },
        "metallicRoughnessTexture": {
          "index": 4
        }
      }
    }
  ],
  "meshes": [
    {
      "name": "Painting_01",
      "primitives": [
        {
          "attributes": {
            "NORMAL": 2,
            "POSITION": 1,
            "TEXCOORD_0": 3
          },
          "indices": 0,
          "material": 0,
          "mode": 4
        }
      ]
    },
    {
      "name": "Painting_01",
      "primitives": [
        {
          "attributes": {
            "NORMAL": 6,
            "POSITION": 5,
            "TEXCOORD_0": 7
          },
          "indices": 4,
          "material": 1,
          "mode": 4
        }
      ]
    }
  ],
  "nodes": [
    {
      "children": [
        1,
        3
      ],
      "name": "root",
      "scale": [
        0.739093065261841,
        0.739093065261841,
        0.739093065261841
      ],
      "translation": [
        0.0174999833106995,
        0.0203321669250727,
        -0.059999942779541
      ]
    },
    {
      "children": [
        2
      ],
      "name": "Painting_01"
    },
    {
      "mesh": 0,
      "name": "Painting_01"
    },
    {
      "children": [
        4
      ],
      "name": "Painting_01"
    },
    {
      "mesh": 1,
      "name": "Painting_01"
    }
  ],
  "samplers": [
    {
      "magFilter": 9729,
      "minFilter": 9985,
      "wrapS": 10497,
      "wrapT": 10497
    }
  ],
  "scene": 0,
  "scenes": [
    {
      "name": "Scene",
      "nodes": [
        0
      ]
    }
  ],
  "textures": [
    {
      "sampler": 0,
      "source": 0
    },
    {
      "sampler": 0,
      "source": 1
    },
    {
      "sampler": 0,
      "source": 2
    },
    {
      "sampler": 0,
      "source": 3
    },
    {
      "sampler": 0,
      "source": 4
    },
    {
      "sampler": 0,
      "source": 5
    }
  ]
}