{
  "accessors": [
    {
      "bufferView": 0,
      "componentType": 5125,
      "count": 113556,
      "type": "SCALAR"
    },
    {
      "bufferView": 1,
      "componentType": 5126,
      "count": 20765,
      "max": [
        0.725237548351288,
        1.00000011920929,
        0.738951742649078
      ],
      "min": [
        -0.725237667560577,
        -1.0,
        -0.738951683044434
      ],
      "type": "VEC3"
    },
    {
      "bufferView": 2,
      "componentType": 5126,
      "count": 20765,
      "type": "VEC3"
    },
    {
      "bufferView": 3,
      "componentType": 5126,
      "count": 20765,
      "type": "VEC2"
    },
    {
      "bufferView": 4,
      "componentType": 5125,
      "count": 891792,
      "type": "SCALAR"
    },
    {
      "bufferView": 5,
      "componentType": 5126,
      "count": 559991,
      "max": [
        0.673263132572174,
        0.190631255507469,
        0.725029170513153
      ],
      "min": [
        -0.672333538532257,
        0.0532535724341869,
        -0.468709409236908
      ],
      "type": "VEC3"
    },
    {
      "bufferView": 6,
      "componentType": 5126,
      "count": 559991,
      "type": "VEC3"
    },
    {
      "bufferView": 7,
      "componentType": 5126,
      "count": 559991,
      "type": "VEC2"
    }
  ],
  "asset": {
    "generator": "Substance Painter 2019.2.3",
    "version": "2.0"
  },
  "bufferViews": [
    {
      "buffer": 0,
      "byteLength": 454224,
      "target": 34963
    },
    {
      "buffer": 0,
      "byteLength": 249180,
      "byteOffset": 454224,
      "target": 34962
    },
    {
      "buffer": 0,
      "byteLength": 249180,
      "byteOffset": 703404,
      "target": 34962
    },
    {
      "buffer": 0,
      "byteLength": 166120,
      "byteOffset": 952584,
      "target": 34962
    },
    {
      "buffer": 0,
      "byteLength": 3567168,
      "byteOffset": 1118704,
      "target": 34963
    },
    {
      "buffer": 0,
      "byteLength": 6719892,
      "byteOffset": 4685872,
      "target": 34962
    },
    {
      "buffer": 0,
      "byteLength": 6719892,
      "byteOffset": 11405764,
      "target": 34962
    },
    {
      "buffer": 0,
      "byteLength": 4479928,
      "byteOffset": 18125656,
      "target": 34962
    }
  ],
  "buffers": [
    {
      "byteLength": 22605584,
      "uri": "wishbone.bin"
    }
  ],
  "images": [
    {
      "uri": "T_frame_baseColor.png"
    },
    {
      "uri": "T_frame_occlusionRoughnessMetallic.png"
    },
    {
      "uri": "T_frame_normal.png"
    },
    {
      "uri": "T_seat_baseColor.png"
    },
    {
      "uri": "T_seat_occlusionRoughnessMetallic.png"
    },
    {
      "uri": "T_seat_normal.png"
    }
  ],
  "materials": [
    {
      "alphaMode": "OPAQUE",
      "name": "T_frame",
      "normalTexture": {
        "index": 2
      },
      "occlusionTexture": {
        "index": 1
      },
      "pbrMetallicRoughness": {
        "baseColorTexture": {
          "index": 0
        },
        "metallicRoughnessTexture": {
          "index": 1
        }
      }
    },
    {
      "alphaMode": "OPAQUE",
      "name": "T_seat",
      "normalTexture": {
        "index": 5
      },
      "occlusionTexture": {
        "index": 4
      },
      "pbrMetallicRoughness": {
        "baseColorTexture": {
          "index": 3
        },
        "metallicRoughnessTexture": {
          "index": 4
        }
      }
    }
  ],
  "meshes": [
    {
      "name": "Plane012",
      "primitives": [
        {
          "attributes": {
            "NORMAL": 2,
            "POSITION": 1,
            "TEXCOORD_0": 3
          },
          "indices": 0,
          "material": 0,
          "mode": 4
        }
      ]
    },
    {
      "name": "Plane012",
      "primitives": [
        {
          "attributes": {
            "NORMAL": 6,
            "POSITION": 5,
            "TEXCOORD_0": 7
          },
          "indices": 4,
          "material": 1,
          "mode": 4
        }
      ]
    }
  ],
  "nodes": [
    {
      "children": [
        1,
        3
      ],
      "name": "root",
      "scale": [
        0.354962974786758,
        0.354962974786758,
        0.354962974786758
      ],
      "translation": [
        2.98023223876953e-08,
        0.357374310493469,
        0.0
      ]
    },
    {
      "children": [
        2
      ],
      "name": "Plane012"
    },
    {
      "mesh": 0,
      "name": "Plane012"
    },
    {
      "children": [
        4
      ],
      "name": "Plane012"
    },
    {
      "mesh": 1,
      "name": "Plane012"
    }
  ],
  "samplers": [
    {
      "magFilter": 9729,
      "minFilter": 9985,
      "wrapS": 10497,
      "wrapT": 10497
    }
  ],
  "scene": 0,
  "scenes": [
    {
      "name": "Scene",
      "nodes": [
        0
      ]
    }
  ],
  "textures": [
    {
      "sampler": 0,
      "source": 0
    },
    {
      "sampler": 0,
      "source": 1
    },
    {
      "sampler": 0,
      "source": 2
    },
    {
      "sampler": 0,
      "source": 3
    },
    {
      "sampler": 0,
      "source": 4
    },
    {
      "sampler": 0,
      "source": 5
    }
  ]
}