{
  "accessors": [
    {
      "bufferView": 0,
      "componentType": 5125,
      "count": 2388,
      "type": "SCALAR"
    },
    {
      "bufferView": 1,
      "componentType": 5126,
      "count": 777,
      "max": [
        0.999999940395355,
        0.307906299829483,
        0.415800392627716
      ],
      "min": [
        -1.0,
        -0.307906538248062,
        -0.415800392627716
      ],
      "type": "VEC3"
    },
    {
      "bufferView": 2,
      "componentType": 5126,
      "count": 777,
      "type": "VEC3"
    },
    {
      "bufferView": 3,
      "componentType": 5126,
      "count": 777,
      "type": "VEC2"
    }
  ],
  "asset": {
    "generator": "Substance Painter 2019.2.3",
    "version": "2.0"
  },
  "bufferViews": [
    {
      "buffer": 0,
      "byteLength": 9552,
      "target": 34963
    },
    {
      "buffer": 0,
      "byteLength": 9324,
      "byteOffset": 9552,
      "target": 34962
    },
    {
      "buffer": 0,
      "byteLength": 9324,
      "byteOffset": 18876,
      "target": 34962
    },
    {
      "buffer": 0,
      "byteLength": 6216,
      "byteOffset": 28200,
      "target": 34962
    }
  ],
  "buffers": [
    {
      "byteLength": 34416,
      "uri": "arki.bin"
    }
  ],
  "images": [
    {
      "uri": "T_arki_baseColor.png"
    },
    {
      "uri": "T_arki_occlusionRoughnessMetallic.png"
    },
    {
      "uri": "T_arki_normal.png"
    }
  ],
  "materials": [
    {
      "alphaMode": "OPAQUE",
      "name": "T_arki",
      "normalTexture": {
        "index": 2
      },
      "occlusionTexture": {
        "index": 1
      },
      "pbrMetallicRoughness": {
        "baseColorTexture": {
          "index": 0
        },
        "metallicRoughnessTexture": {
          "index": 1
        }
      }
    }
  ],
  "meshes": [
    {
      "name": "ARK_5",
      "primitives": [
        {
          "attributes": {
            "NORMAL": 2,
            "POSITION": 1,
            "TEXCOORD_0": 3
          },
          "indices": 0,
          "material": 0,
          "mode": 4
        }
      ]
    }
  ],
  "nodes": [
    {
      "children": [
        1
      ],
      "name": "unnamed",
      "scale": [
        1.20250010490417,
        1.20250010490417,
        1.20250010490417
      ],
      "translation": [
        -0.00249993801116943,
        0.370257616043091,
        0.0
      ]
    },
    {
      "children": [
        2
      ],
      "name": "ARK_5"
    },
    {
      "mesh": 0,
      "name": "ARK_5"
    }
  ],
  "samplers": [
    {
      "magFilter": 9729,
      "minFilter": 9985,
      "wrapS": 10497,
      "wrapT": 10497
    }
  ],
  "scene": 0,
  "scenes": [
    {
      "name": "Scene",
      "nodes": [
        0
      ]
    }
  ],
  "textures": [
    {
      "sampler": 0,
      "source": 0
    },
    {
      "sampler": 0,
      "source": 1
    },
    {
      "sampler": 0,
      "source": 2
    }
  ]
}