{
  "accessors": [
    {
      "bufferView": 0,
      "componentType": 5125,
      "count": 107814,
      "type": "SCALAR"
    },
    {
      "bufferView": 1,
      "componentType": 5126,
      "count": 20865,
      "max": [
        0.136565536260605,
        0.428872525691986,
        0.18149022758007
      ],
      "min": [
        -0.134078562259674,
        2.10106372833252e-06,
        -0.181044772267342
      ],
      "type": "VEC3"
    },
    {
      "bufferView": 2,
      "componentType": 5126,
      "count": 20865,
      "type": "VEC3"
    },
    {
      "bufferView": 3,
      "componentType": 5126,
      "count": 20865,
      "type": "VEC2"
    }
  ],
  "asset": {
    "generator": "Substance Painter 6.1.3",
    "version": "2.0"
  },
  "bufferViews": [
    {
      "buffer": 0,
      "byteLength": 431256,
      "target": 34963
    },
    {
      "buffer": 0,
      "byteLength": 250380,
      "byteOffset": 431256,
      "target": 34962
    },
    {
      "buffer": 0,
      "byteLength": 250380,
      "byteOffset": 681636,
      "target": 34962
    },
    {
      "buffer": 0,
      "byteLength": 166920,
      "byteOffset": 932016,
      "target": 34962
    }
  ],
  "buffers": [
    {
      "byteLength": 1098936,
      "uri": "stool_liang.bin"
    }
  ],
  "images": [
    {
      "uri": "T_stoolliang_baseColor.png"
    },
    {
      "uri": "T_stoolliang_occlusionRoughnessMetallic.png"
    },
    {
      "uri": "T_stoolliang_normal.png"
    }
  ],
  "materials": [
    {
      "alphaMode": "OPAQUE",
      "name": "T_stoolliang",
      "normalTexture": {
        "index": 2
      },
      "occlusionTexture": {
        "index": 1
      },
      "pbrMetallicRoughness": {
        "baseColorTexture": {
          "index": 0
        },
        "metallicRoughnessTexture": {
          "index": 1
        }
      }
    }
  ],
  "meshes": [
    {
      "name": "Mesh32",
      "primitives": [
        {
          "attributes": {
            "NORMAL": 2,
            "POSITION": 1,
            "TEXCOORD_0": 3
          },
          "indices": 0,
          "material": 0,
          "mode": 4
        }
      ]
    }
  ],
  "nodes": [
    {
      "children": [
        1
      ],
      "name": "RootNode"
    },
    {
      "children": [
        2
      ],
      "name": "Mesh32",
      "scale": [
        1.0,
        1.0,
        0.944999992847443
      ]
    },
    {
      "mesh": 0,
      "name": "Mesh32"
    }
  ],
  "samplers": [
    {
      "magFilter": 9729,
      "minFilter": 9985,
      "wrapS": 10497,
      "wrapT": 10497
    }
  ],
  "scene": 0,
  "scenes": [
    {
      "name": "Scene",
      "nodes": [
        0
      ]
    }
  ],
  "textures": [
    {
      "sampler": 0,
      "source": 0
    },
    {
      "sampler": 0,
      "source": 1
    },
    {
      "sampler": 0,
      "source": 2
    }
  ]
}