{
  "accessors": [
    {
      "bufferView": 0,
      "componentType": 5125,
      "count": 15456,
      "type": "SCALAR"
    },
    {
      "bufferView": 1,
      "componentType": 5126,
      "count": 3416,
      "max": [
        0.366414755582809,
        0.199129715561867,
        1.02309894561768
      ],
      "min": [
        -0.478229343891144,
        -0.0561812072992325,
        -1.01846945285797
      ],
      "type": "VEC3"
    },
    {
      "bufferView": 2,
      "componentType": 5126,
      "count": 3416,
      "type": "VEC3"
    },
    {
      "bufferView": 3,
      "componentType": 5126,
      "count": 3416,
      "type": "VEC2"
    },
    {
      "bufferView": 4,
      "componentType": 5125,
      "count": 88392,
      "type": "SCALAR"
    },
    {
      "bufferView": 5,
      "componentType": 5126,
      "count": 18646,
      "max": [
        0.462346106767654,
        0.14769172668457,
        -0.451037108898163
      ],
      "min": [
        -0.0204561725258827,
        0.0118517056107521,
        -0.900687277317047
      ],
      "type": "VEC3"
    },
    {
      "bufferView": 6,
      "componentType": 5126,
      "count": 18646,
      "type": "VEC3"
    },
    {
      "bufferView": 7,
      "componentType": 5126,
      "count": 18646,
      "type": "VEC2"
    }
  ],
  "asset": {
    "generator": "Substance Painter 2019.2.3",
    "version": "2.0"
  },
  "bufferViews": [
    {
      "buffer": 0,
      "byteLength": 61824,
      "target": 34963
    },
    {
      "buffer": 0,
      "byteLength": 40992,
      "byteOffset": 61824,
      "target": 34962
    },
    {
      "buffer": 0,
      "byteLength": 40992,
      "byteOffset": 102816,
      "target": 34962
    },
    {
      "buffer": 0,
      "byteLength": 27328,
      "byteOffset": 143808,
      "target": 34962
    },
    {
      "buffer": 0,
      "byteLength": 353568,
      "byteOffset": 171136,
      "target": 34963
    },
    {
      "buffer": 0,
      "byteLength": 223752,
      "byteOffset": 524704,
      "target": 34962
    },
    {
      "buffer": 0,
      "byteLength": 223752,
      "byteOffset": 748456,
      "target": 34962
    },
    {
      "buffer": 0,
      "byteLength": 149168,
      "byteOffset": 972208,
      "target": 34962
    }
  ],
  "buffers": [
    {
      "byteLength": 1121376,
      "uri": "checker_stocking.bin"
    }
  ],
  "images": [
    {
      "uri": "presents_baseColor.png"
    },
    {
      "uri": "presents_occlusionRoughnessMetallic.png"
    },
    {
      "uri": "presents_normal.png"
    },
    {
      "uri": "wool_baseColor.png"
    },
    {
      "uri": "wool_occlusionRoughnessMetallic.png"
    },
    {
      "uri": "wool_normal.png"
    }
  ],
  "materials": [
    {
      "alphaMode": "OPAQUE",
      "name": "presents",
      "normalTexture": {
        "index": 2
      },
      "occlusionTexture": {
        "index": 1
      },
      "pbrMetallicRoughness": {
        "baseColorTexture": {
          "index": 0
        },
        "metallicRoughnessTexture": {
          "index": 1
        }
      }
    },
    {
      "alphaMode": "OPAQUE",
      "name": "wool",
      "normalTexture": {
        "index": 5
      },
      "occlusionTexture": {
        "index": 4
      },
      "pbrMetallicRoughness": {
        "baseColorTexture": {
          "index": 3
        },
        "metallicRoughnessTexture": {
          "index": 4
        }
      }
    }
  ],
  "meshes": [
    {
      "name": "sock03",
      "primitives": [
        {
          "attributes": {
            "NORMAL": 2,
            "POSITION": 1,
            "TEXCOORD_0": 3
          },
          "indices": 0,
          "material": 1,
          "mode": 4
        }
      ]
    },
    {
      "name": "sock03",
      "primitives": [
        {
          "attributes": {
            "NORMAL": 6,
            "POSITION": 5,
            "TEXCOORD_0": 7
          },
          "indices": 4,
          "material": 0,
          "mode": 4
        }
      ]
    }
  ],
  "nodes": [
    {
      "children": [
        1,
        3
      ],
      "name": "root",
      "scale": [
        0.251839011907578,
        0.251839011907578,
        0.251839011907578
      ],
      "translation": [
        0.0199999883770943,
        0.0100000016391277,
        0.234999999403954
      ]
    },
    {
      "children": [
        2
      ],
      "name": "sock03"
    },
    {
      "mesh": 0,
      "name": "sock03"
    },
    {
      "children": [
        4
      ],
      "name": "sock03"
    },
    {
      "mesh": 1,
      "name": "sock03"
    }
  ],
  "samplers": [
    {
      "magFilter": 9729,
      "minFilter": 9985,
      "wrapS": 10497,
      "wrapT": 10497
    }
  ],
  "scene": 0,
  "scenes": [
    {
      "name": "Scene",
      "nodes": [
        0
      ]
    }
  ],
  "textures": [
    {
      "sampler": 0,
      "source": 0
    },
    {
      "sampler": 0,
      "source": 1
    },
    {
      "sampler": 0,
      "source": 2
    },
    {
      "sampler": 0,
      "source": 3
    },
    {
      "sampler": 0,
      "source": 4
    },
    {
      "sampler": 0,
      "source": 5
    }
  ]
}