{
  "accessors": [
    {
      "bufferView": 0,
      "componentType": 5125,
      "count": 57120,
      "type": "SCALAR"
    },
    {
      "bufferView": 1,
      "componentType": 5126,
      "count": 13236,
      "max": [
        0.590000033378601,
        0.833819985389709,
        0.198451727628708
      ],
      "min": [
        -0.590000033378601,
        -2.98023223876953e-08,
        -0.209447652101517
      ],
      "type": "VEC3"
    },
    {
      "bufferView": 2,
      "componentType": 5126,
      "count": 13236,
      "type": "VEC3"
    },
    {
      "bufferView": 3,
      "componentType": 5126,
      "count": 13236,
      "type": "VEC2"
    }
  ],
  "asset": {
    "generator": "Substance Painter 6.1.2",
    "version": "2.0"
  },
  "bufferViews": [
    {
      "buffer": 0,
      "byteLength": 228480,
      "target": 34963
    },
    {
      "buffer": 0,
      "byteLength": 158832,
      "byteOffset": 228480,
      "target": 34962
    },
    {
      "buffer": 0,
      "byteLength": 158832,
      "byteOffset": 387312,
      "target": 34962
    },
    {
      "buffer": 0,
      "byteLength": 105888,
      "byteOffset": 546144,
      "target": 34962
    }
  ],
  "buffers": [
    {
      "byteLength": 652032,
      "uri": "kid_s_dresser.bin"
    }
  ],
  "images": [
    {
      "uri": "T_kiddresser_baseColor.png"
    },
    {
      "uri": "T_kiddresser_occlusionRoughnessMetallic.png"
    },
    {
      "uri": "T_kiddresser_normal.png"
    }
  ],
  "materials": [
    {
      "alphaMode": "OPAQUE",
      "name": "T_kiddresser",
      "normalTexture": {
        "index": 2
      },
      "occlusionTexture": {
        "index": 1
      },
      "pbrMetallicRoughness": {
        "baseColorTexture": {
          "index": 0
        },
        "metallicRoughnessTexture": {
          "index": 1
        }
      }
    }
  ],
  "meshes": [
    {
      "name": "Mesh",
      "primitives": [
        {
          "attributes": {
            "NORMAL": 2,
            "POSITION": 1,
            "TEXCOORD_0": 3
          },
          "indices": 0,
          "material": 0,
          "mode": 4
        }
      ]
    }
  ],
  "nodes": [
    {
      "children": [
        1
      ],
      "name": "RootNode"
    },
    {
      "children": [
        2
      ],
      "name": "Mesh"
    },
    {
      "mesh": 0,
      "name": "Mesh"
    }
  ],
  "samplers": [
    {
      "magFilter": 9729,
      "minFilter": 9985,
      "wrapS": 10497,
      "wrapT": 10497
    }
  ],
  "scene": 0,
  "scenes": [
    {
      "name": "Scene",
      "nodes": [
        0
      ]
    }
  ],
  "textures": [
    {
      "sampler": 0,
      "source": 0
    },
    {
      "sampler": 0,
      "source": 1
    },
    {
      "sampler": 0,
      "source": 2
    }
  ]
}