{
  "accessors": [
    {
      "bufferView": 0,
      "componentType": 5125,
      "count": 28494,
      "type": "SCALAR"
    },
    {
      "bufferView": 1,
      "componentType": 5126,
      "count": 7446,
      "max": [
        1.0,
        0.803492546081543,
        0.346430212259293
      ],
      "min": [
        -1.0,
        -0.803492546081543,
        -0.346430212259293
      ],
      "type": "VEC3"
    },
    {
      "bufferView": 2,
      "componentType": 5126,
      "count": 7446,
      "type": "VEC3"
    },
    {
      "bufferView": 3,
      "componentType": 5126,
      "count": 7446,
      "type": "VEC2"
    }
  ],
  "asset": {
    "generator": "Substance Painter 2019.3.3",
    "version": "2.0"
  },
  "bufferViews": [
    {
      "buffer": 0,
      "byteLength": 113976,
      "target": 34963
    },
    {
      "buffer": 0,
      "byteLength": 89352,
      "byteOffset": 113976,
      "target": 34962
    },
    {
      "buffer": 0,
      "byteLength": 89352,
      "byteOffset": 203328,
      "target": 34962
    },
    {
      "buffer": 0,
      "byteLength": 59568,
      "byteOffset": 292680,
      "target": 34962
    }
  ],
  "buffers": [
    {
      "byteLength": 352248,
      "uri": "dot_bookcase.bin"
    }
  ],
  "images": [
    {
      "uri": "T_dotbookcase_baseColor.png"
    },
    {
      "uri": "T_dotbookcase_occlusionRoughnessMetallic.png"
    },
    {
      "uri": "T_dotbookcase_normal.png"
    }
  ],
  "materials": [
    {
      "alphaMode": "OPAQUE",
      "name": "T_dotbookcase",
      "normalTexture": {
        "index": 2
      },
      "occlusionTexture": {
        "index": 1
      },
      "pbrMetallicRoughness": {
        "baseColorTexture": {
          "index": 0
        },
        "metallicRoughnessTexture": {
          "index": 1
        }
      }
    }
  ],
  "meshes": [
    {
      "name": "Mesh",
      "primitives": [
        {
          "attributes": {
            "NORMAL": 2,
            "POSITION": 1,
            "TEXCOORD_0": 3
          },
          "indices": 0,
          "material": 0,
          "mode": 4
        }
      ]
    }
  ],
  "nodes": [
    {
      "children": [
        1
      ],
      "name": "root",
      "scale": [
        0.649999618530273,
        0.649999618530273,
        0.649999618530273
      ],
      "translation": [
        0.0,
        0.521639108657837,
        0.0
      ]
    },
    {
      "children": [
        2
      ],
      "name": "Mesh"
    },
    {
      "mesh": 0,
      "name": "Mesh"
    }
  ],
  "samplers": [
    {
      "magFilter": 9729,
      "minFilter": 9985,
      "wrapS": 10497,
      "wrapT": 10497
    }
  ],
  "scene": 0,
  "scenes": [
    {
      "name": "Scene",
      "nodes": [
        0
      ]
    }
  ],
  "textures": [
    {
      "sampler": 0,
      "source": 0
    },
    {
      "sampler": 0,
      "source": 1
    },
    {
      "sampler": 0,
      "source": 2
    }
  ]
}