{
  "accessors": [
    {
      "bufferView": 0,
      "componentType": 5125,
      "count": 21048,
      "type": "SCALAR"
    },
    {
      "bufferView": 1,
      "componentType": 5126,
      "count": 3738,
      "max": [
        0.999999940395355,
        0.74997615814209,
        0.678031206130981
      ],
      "min": [
        -0.999999940395355,
        -0.749976098537445,
        -0.678031206130981
      ],
      "type": "VEC3"
    },
    {
      "bufferView": 2,
      "componentType": 5126,
      "count": 3738,
      "type": "VEC3"
    },
    {
      "bufferView": 3,
      "componentType": 5126,
      "count": 3738,
      "type": "VEC2"
    }
  ],
  "asset": {
    "generator": "Substance Painter 2019.2.3",
    "version": "2.0"
  },
  "bufferViews": [
    {
      "buffer": 0,
      "byteLength": 84192,
      "target": 34963
    },
    {
      "buffer": 0,
      "byteLength": 44856,
      "byteOffset": 84192,
      "target": 34962
    },
    {
      "buffer": 0,
      "byteLength": 44856,
      "byteOffset": 129048,
      "target": 34962
    },
    {
      "buffer": 0,
      "byteLength": 29904,
      "byteOffset": 173904,
      "target": 34962
    }
  ],
  "buffers": [
    {
      "byteLength": 203808,
      "uri": "poly_chair.bin"
    }
  ],
  "images": [
    {
      "uri": "T_polychair_baseColor.png"
    },
    {
      "uri": "T_polychair_occlusionRoughnessMetallic.png"
    },
    {
      "uri": "T_polychair_normal.png"
    }
  ],
  "materials": [
    {
      "alphaMode": "OPAQUE",
      "name": "T_polychair",
      "normalTexture": {
        "index": 2
      },
      "occlusionTexture": {
        "index": 1
      },
      "pbrMetallicRoughness": {
        "baseColorTexture": {
          "index": 0
        },
        "metallicRoughnessTexture": {
          "index": 1
        }
      }
    }
  ],
  "meshes": [
    {
      "name": "Driade_Roly_Poly_Chair_mat1",
      "primitives": [
        {
          "attributes": {
            "NORMAL": 2,
            "POSITION": 1,
            "TEXCOORD_0": 3
          },
          "indices": 0,
          "material": 0,
          "mode": 4
        }
      ]
    }
  ],
  "nodes": [
    {
      "children": [
        1
      ],
      "name": "root",
      "scale": [
        0.419999986886978,
        0.419999986886978,
        0.419999986886978
      ],
      "translation": [
        0.0,
        0.314989864826202,
        0.00401252508163452
      ]
    },
    {
      "children": [
        2
      ],
      "name": "Driade_Roly_Poly_Chair_mat1"
    },
    {
      "mesh": 0,
      "name": "Driade_Roly_Poly_Chair_mat1"
    }
  ],
  "samplers": [
    {
      "magFilter": 9729,
      "minFilter": 9985,
      "wrapS": 10497,
      "wrapT": 10497
    }
  ],
  "scene": 0,
  "scenes": [
    {
      "name": "Scene",
      "nodes": [
        0
      ]
    }
  ],
  "textures": [
    {
      "sampler": 0,
      "source": 0
    },
    {
      "sampler": 0,
      "source": 1
    },
    {
      "sampler": 0,
      "source": 2
    }
  ]
}