{"asset":{"generator":"Modov11.2","version":"2.0"},"scene":0,"scenes":[{"nodes":[0]}],"nodes":[{"name":"peter","matrix":[1.0,-8.74227694680485e-8,8.742278367890322e-8,0.0,8.74227694680485e-8,-1.3113417196564115e-7,-1.0,0.0,8.742278367890322e-8,1.0,-1.3113415775478644e-7,0.0,6.955868059321802e-8,0.0,-1.2333406296249905e-8,1.0],"mesh":0}],"meshes":[{"primitives":[{"indices":1,"mode":4,"material":1,"attributes":{"POSITION":0,"NORMAL":2,"TEXCOORD_0":3}},{"indices":5,"mode":4,"material":2,"attributes":{"POSITION":4,"NORMAL":6,"TEXCOORD_0":7}}]}],"buffers":[{"byteLength":5861408,"uri":"peter.bin"}],"bufferViews":[{"buffer":0,"byteLength":1190496},{"buffer":0,"byteLength":2380992,"byteOffset":1190496},{"buffer":0,"byteLength":1190496,"byteOffset":3571488},{"buffer":0,"byteLength":793664,"byteOffset":4761984},{"buffer":0,"byteLength":77292,"byteOffset":5555648},{"buffer":0,"byteLength":99648,"byteOffset":5632940},{"buffer":0,"byteLength":77292,"byteOffset":5732588},{"buffer":0,"byteLength":51528,"byteOffset":5809880}],"accessors":[{"bufferView":0,"type":"VEC3","componentType":5126,"count":99208,"min":[-0.3477397561073303,-0.37321341037750246,0.2912996709346771],"max":[0.3457268178462982,0.3851601779460907,0.7185620665550232]},{"bufferView":1,"type":"SCALAR","componentType":5125,"count":595248},{"bufferView":2,"type":"VEC3","componentType":5126,"count":99208},{"bufferView":3,"type":"VEC2","componentType":5126,"count":99208},{"bufferView":4,"type":"VEC3","componentType":5126,"count":6441,"min":[-0.36047008633613589,-0.3851602077484131,1.3784938346361742e-7],"max":[0.3604704737663269,0.38267621397972109,0.7188984155654907]},{"bufferView":5,"type":"SCALAR","componentType":5125,"count":24912},{"bufferView":6,"type":"VEC3","componentType":5126,"count":6441},{"bufferView":7,"type":"VEC2","componentType":5126,"count":6441}],"materials":[{"pbrMetallicRoughness":{"metallicFactor":0.5,"roughnessFactor":0.5}},{"name":"T_peter_beige","emissiveFactor":[0.0,0.0,0.0],"alphaMode":"OPAQUE","doubleSided":false,"pbrMetallicRoughness":{"baseColorFactor":[0.41788509488105776,0.278894305229187,0.15896086394786836,1.0],"metallicFactor":0.0,"roughnessFactor":0.44999998807907107}},{"name":"T_peter_allu","emissiveFactor":[0.0,0.0,0.0],"alphaMode":"OPAQUE","doubleSided":false,"pbrMetallicRoughness":{"baseColorFactor":[0.4504014849662781,0.45449525117874148,0.45597484707832339,1.0],"metallicFactor":1.0,"roughnessFactor":0.10000000149011612}}]}