{
  "accessors": [
    {
      "bufferView": 0,
      "componentType": 5125,
      "count": 35712,
      "type": "SCALAR"
    },
    {
      "bufferView": 1,
      "componentType": 5126,
      "count": 6423,
      "max": [
        1.0,
        0.489010900259018,
        0.827488780021667
      ],
      "min": [
        -1.0,
        -0.489010900259018,
        -0.827488780021667
      ],
      "type": "VEC3"
    },
    {
      "bufferView": 2,
      "componentType": 5126,
      "count": 6423,
      "type": "VEC3"
    },
    {
      "bufferView": 3,
      "componentType": 5126,
      "count": 6423,
      "type": "VEC2"
    }
  ],
  "asset": {
    "generator": "Substance Painter 2019.3.3",
    "version": "2.0"
  },
  "bufferViews": [
    {
      "buffer": 0,
      "byteLength": 142848,
      "target": 34963
    },
    {
      "buffer": 0,
      "byteLength": 77076,
      "byteOffset": 142848,
      "target": 34962
    },
    {
      "buffer": 0,
      "byteLength": 77076,
      "byteOffset": 219924,
      "target": 34962
    },
    {
      "buffer": 0,
      "byteLength": 51384,
      "byteOffset": 297000,
      "target": 34962
    }
  ],
  "buffers": [
    {
      "byteLength": 348384,
      "uri": "eastereggs.bin"
    }
  ],
  "images": [
    {
      "uri": "T_eggs_baseColor.png"
    },
    {
      "uri": "T_eggs_occlusionRoughnessMetallic.png"
    },
    {
      "uri": "T_eggs_normal.png"
    }
  ],
  "materials": [
    {
      "alphaMode": "OPAQUE",
      "name": "T_eggs",
      "normalTexture": {
        "index": 2
      },
      "occlusionTexture": {
        "index": 1
      },
      "pbrMetallicRoughness": {
        "baseColorTexture": {
          "index": 0
        },
        "metallicRoughnessTexture": {
          "index": 1
        }
      }
    }
  ],
  "meshes": [
    {
      "name": "Mesh",
      "primitives": [
        {
          "attributes": {
            "NORMAL": 2,
            "POSITION": 1,
            "TEXCOORD_0": 3
          },
          "indices": 0,
          "material": 0,
          "mode": 4
        }
      ]
    }
  ],
  "nodes": [
    {
      "children": [
        1
      ],
      "name": "root",
      "scale": [
        0.26085239648819,
        0.26085239648819,
        0.26085239648819
      ],
      "translation": [
        0.0,
        0.127559661865234,
        0.0
      ]
    },
    {
      "children": [
        2
      ],
      "name": "Mesh"
    },
    {
      "mesh": 0,
      "name": "Mesh"
    }
  ],
  "samplers": [
    {
      "magFilter": 9729,
      "minFilter": 9985,
      "wrapS": 10497,
      "wrapT": 10497
    }
  ],
  "scene": 0,
  "scenes": [
    {
      "name": "Scene",
      "nodes": [
        0
      ]
    }
  ],
  "textures": [
    {
      "sampler": 0,
      "source": 0
    },
    {
      "sampler": 0,
      "source": 1
    },
    {
      "sampler": 0,
      "source": 2
    }
  ]
}