{
  "accessors": [
    {
      "bufferView": 0,
      "componentType": 5125,
      "count": 17568,
      "type": "SCALAR"
    },
    {
      "bufferView": 1,
      "componentType": 5126,
      "count": 3599,
      "max": [
        0.822965800762177,
        1.0,
        0.800000011920929
      ],
      "min": [
        -0.822965800762177,
        -1.0,
        -0.799999952316284
      ],
      "type": "VEC3"
    },
    {
      "bufferView": 2,
      "componentType": 5126,
      "count": 3599,
      "type": "VEC3"
    },
    {
      "bufferView": 3,
      "componentType": 5126,
      "count": 3599,
      "type": "VEC2"
    }
  ],
  "asset": {
    "generator": "Substance Painter 2019.3.3",
    "version": "2.0"
  },
  "bufferViews": [
    {
      "buffer": 0,
      "byteLength": 70272,
      "target": 34963
    },
    {
      "buffer": 0,
      "byteLength": 43188,
      "byteOffset": 70272,
      "target": 34962
    },
    {
      "buffer": 0,
      "byteLength": 43188,
      "byteOffset": 113460,
      "target": 34962
    },
    {
      "buffer": 0,
      "byteLength": 28792,
      "byteOffset": 156648,
      "target": 34962
    }
  ],
  "buffers": [
    {
      "byteLength": 185440,
      "uri": "bedside_table.bin"
    }
  ],
  "images": [
    {
      "uri": "T_bedsidetable_baseColor.png"
    },
    {
      "uri": "T_bedsidetable_occlusionRoughnessMetallic.png"
    },
    {
      "uri": "T_bedsidetable_normal.png"
    }
  ],
  "materials": [
    {
      "alphaMode": "OPAQUE",
      "name": "T_bedsidetable",
      "normalTexture": {
        "index": 2
      },
      "occlusionTexture": {
        "index": 1
      },
      "pbrMetallicRoughness": {
        "baseColorTexture": {
          "index": 0
        },
        "metallicRoughnessTexture": {
          "index": 1
        }
      }
    }
  ],
  "meshes": [
    {
      "name": "bedside_table",
      "primitives": [
        {
          "attributes": {
            "NORMAL": 2,
            "POSITION": 1,
            "TEXCOORD_0": 3
          },
          "indices": 0,
          "material": 0,
          "mode": 4
        }
      ]
    }
  ],
  "nodes": [
    {
      "children": [
        1
      ],
      "name": "root",
      "scale": [
        0.25,
        0.25,
        0.25
      ],
      "translation": [
        0.00566966831684113,
        0.250232934951782,
        0.00190624594688416
      ]
    },
    {
      "children": [
        2
      ],
      "name": "bedside_table"
    },
    {
      "mesh": 0,
      "name": "bedside_table"
    }
  ],
  "samplers": [
    {
      "magFilter": 9729,
      "minFilter": 9985,
      "wrapS": 10497,
      "wrapT": 10497
    }
  ],
  "scene": 0,
  "scenes": [
    {
      "name": "Scene",
      "nodes": [
        0
      ]
    }
  ],
  "textures": [
    {
      "sampler": 0,
      "source": 0
    },
    {
      "sampler": 0,
      "source": 1
    },
    {
      "sampler": 0,
      "source": 2
    }
  ]
}