{
  "accessors": [
    {
      "bufferView": 0,
      "componentType": 5125,
      "count": 60000,
      "type": "SCALAR"
    },
    {
      "bufferView": 1,
      "componentType": 5126,
      "count": 11838,
      "max": [
        0.95467346906662,
        1.01356601715088,
        0.997560799121857
      ],
      "min": [
        -0.95465499162674,
        -0.698630690574646,
        -1.0024391412735
      ],
      "type": "VEC3"
    },
    {
      "bufferView": 2,
      "componentType": 5126,
      "count": 11838,
      "type": "VEC3"
    },
    {
      "bufferView": 3,
      "componentType": 5126,
      "count": 11838,
      "type": "VEC2"
    }
  ],
  "asset": {
    "generator": "Substance Painter 2019.2.3",
    "version": "2.0"
  },
  "bufferViews": [
    {
      "buffer": 0,
      "byteLength": 240000,
      "target": 34963
    },
    {
      "buffer": 0,
      "byteLength": 142056,
      "byteOffset": 240000,
      "target": 34962
    },
    {
      "buffer": 0,
      "byteLength": 142056,
      "byteOffset": 382056,
      "target": 34962
    },
    {
      "buffer": 0,
      "byteLength": 94704,
      "byteOffset": 524112,
      "target": 34962
    }
  ],
  "buffers": [
    {
      "byteLength": 618816,
      "uri": "glisschair.bin"
    }
  ],
  "images": [
    {
      "uri": "T_glisschair_baseColor.png"
    },
    {
      "uri": "T_glisschair_occlusionRoughnessMetallic.png"
    },
    {
      "uri": "T_glisschair_normal.png"
    }
  ],
  "materials": [
    {
      "alphaMode": "OPAQUE",
      "name": "T_glisschair",
      "normalTexture": {
        "index": 2
      },
      "occlusionTexture": {
        "index": 1
      },
      "pbrMetallicRoughness": {
        "baseColorTexture": {
          "index": 0
        },
        "metallicRoughnessTexture": {
          "index": 1
        }
      }
    }
  ],
  "meshes": [
    {
      "name": "gliss",
      "primitives": [
        {
          "attributes": {
            "NORMAL": 2,
            "POSITION": 1,
            "TEXCOORD_0": 3
          },
          "indices": 0,
          "material": 0,
          "mode": 4
        }
      ]
    }
  ],
  "nodes": [
    {
      "children": [
        1
      ],
      "name": "root",
      "scale": [
        0.418310433626175,
        0.418310433626175,
        0.418310433626175
      ],
      "translation": [
        -3.87430191040039e-06,
        0.292244493961334,
        0.00102034211158752
      ]
    },
    {
      "children": [
        2
      ],
      "name": "gliss"
    },
    {
      "mesh": 0,
      "name": "gliss"
    }
  ],
  "samplers": [
    {
      "magFilter": 9729,
      "minFilter": 9985,
      "wrapS": 10497,
      "wrapT": 10497
    }
  ],
  "scene": 0,
  "scenes": [
    {
      "name": "Scene",
      "nodes": [
        0
      ]
    }
  ],
  "textures": [
    {
      "sampler": 0,
      "source": 0
    },
    {
      "sampler": 0,
      "source": 1
    },
    {
      "sampler": 0,
      "source": 2
    }
  ]
}