{
  "accessors": [
    {
      "bufferView": 0,
      "componentType": 5125,
      "count": 63231,
      "type": "SCALAR"
    },
    {
      "bufferView": 1,
      "componentType": 5126,
      "count": 12315,
      "max": [
        0.170356780290604,
        1.0,
        0.268371999263763
      ],
      "min": [
        -0.170356780290604,
        -1.0,
        -0.268371999263763
      ],
      "type": "VEC3"
    },
    {
      "bufferView": 2,
      "componentType": 5126,
      "count": 12315,
      "type": "VEC3"
    },
    {
      "bufferView": 3,
      "componentType": 5126,
      "count": 12315,
      "type": "VEC2"
    }
  ],
  "asset": {
    "generator": "Substance Painter 2019.3.3",
    "version": "2.0"
  },
  "bufferViews": [
    {
      "buffer": 0,
      "byteLength": 252924,
      "target": 34963
    },
    {
      "buffer": 0,
      "byteLength": 147780,
      "byteOffset": 252924,
      "target": 34962
    },
    {
      "buffer": 0,
      "byteLength": 147780,
      "byteOffset": 400704,
      "target": 34962
    },
    {
      "buffer": 0,
      "byteLength": 98520,
      "byteOffset": 548484,
      "target": 34962
    }
  ],
  "buffers": [
    {
      "byteLength": 647004,
      "uri": "cedric_floor_lamp.bin"
    }
  ],
  "images": [
    {
      "uri": "T_cedriclamp_baseColor.png"
    },
    {
      "uri": "T_cedriclamp_occlusionRoughnessMetallic.png"
    },
    {
      "uri": "T_cedriclamp_normal.png"
    }
  ],
  "materials": [
    {
      "alphaMode": "OPAQUE",
      "name": "T_cedriclamp",
      "normalTexture": {
        "index": 2
      },
      "occlusionTexture": {
        "index": 1
      },
      "pbrMetallicRoughness": {
        "baseColorTexture": {
          "index": 0
        },
        "metallicRoughnessTexture": {
          "index": 1
        }
      }
    }
  ],
  "meshes": [
    {
      "name": "Mesh",
      "primitives": [
        {
          "attributes": {
            "NORMAL": 2,
            "POSITION": 1,
            "TEXCOORD_0": 3
          },
          "indices": 0,
          "material": 0,
          "mode": 4
        }
      ]
    }
  ],
  "nodes": [
    {
      "children": [
        1
      ],
      "name": "root",
      "scale": [
        0.75,
        0.75,
        0.75
      ],
      "translation": [
        0.00014890730381012,
        0.75,
        0.0690363794565201
      ]
    },
    {
      "children": [
        2
      ],
      "name": "Mesh"
    },
    {
      "mesh": 0,
      "name": "Mesh"
    }
  ],
  "samplers": [
    {
      "magFilter": 9729,
      "minFilter": 9985,
      "wrapS": 10497,
      "wrapT": 10497
    }
  ],
  "scene": 0,
  "scenes": [
    {
      "name": "Scene",
      "nodes": [
        0
      ]
    }
  ],
  "textures": [
    {
      "sampler": 0,
      "source": 0
    },
    {
      "sampler": 0,
      "source": 1
    },
    {
      "sampler": 0,
      "source": 2
    }
  ]
}