{
  "accessors": [
    {
      "bufferView": 0,
      "componentType": 5125,
      "count": 20061,
      "type": "SCALAR"
    },
    {
      "bufferView": 1,
      "componentType": 5126,
      "count": 4008,
      "max": [
        0.526315629482269,
        1.0,
        0.526315629482269
      ],
      "min": [
        -0.526315629482269,
        -1.0,
        -0.526315629482269
      ],
      "type": "VEC3"
    },
    {
      "bufferView": 2,
      "componentType": 5126,
      "count": 4008,
      "type": "VEC3"
    },
    {
      "bufferView": 3,
      "componentType": 5126,
      "count": 4008,
      "type": "VEC2"
    }
  ],
  "asset": {
    "generator": "Substance Painter 2019.3.3",
    "version": "2.0"
  },
  "bufferViews": [
    {
      "buffer": 0,
      "byteLength": 80244,
      "target": 34963
    },
    {
      "buffer": 0,
      "byteLength": 48096,
      "byteOffset": 80244,
      "target": 34962
    },
    {
      "buffer": 0,
      "byteLength": 48096,
      "byteOffset": 128340,
      "target": 34962
    },
    {
      "buffer": 0,
      "byteLength": 32064,
      "byteOffset": 176436,
      "target": 34962
    }
  ],
  "buffers": [
    {
      "byteLength": 208500,
      "uri": "yuan_loft_side_table.bin"
    }
  ],
  "images": [
    {
      "uri": "T_yuansidetable_baseColor.png"
    },
    {
      "uri": "T_yuansidetable_occlusionRoughnessMetallic.png"
    },
    {
      "uri": "T_yuansidetable_normal.png"
    }
  ],
  "materials": [
    {
      "alphaMode": "OPAQUE",
      "name": "T_yuansidetable",
      "normalTexture": {
        "index": 2
      },
      "occlusionTexture": {
        "index": 1
      },
      "pbrMetallicRoughness": {
        "baseColorTexture": {
          "index": 0
        },
        "metallicRoughnessTexture": {
          "index": 1
        }
      }
    }
  ],
  "meshes": [
    {
      "name": "yuan",
      "primitives": [
        {
          "attributes": {
            "NORMAL": 2,
            "POSITION": 1,
            "TEXCOORD_0": 3
          },
          "indices": 0,
          "material": 0,
          "mode": 4
        }
      ]
    }
  ],
  "nodes": [
    {
      "children": [
        1
      ],
      "name": "root",
      "scale": [
        0.380000114440918,
        0.380000114440918,
        0.380000114440918
      ],
      "translation": [
        0.0,
        0.380000114440918,
        0.0
      ]
    },
    {
      "children": [
        2
      ],
      "name": "yuan"
    },
    {
      "mesh": 0,
      "name": "yuan"
    }
  ],
  "samplers": [
    {
      "magFilter": 9729,
      "minFilter": 9985,
      "wrapS": 10497,
      "wrapT": 10497
    }
  ],
  "scene": 0,
  "scenes": [
    {
      "name": "Scene",
      "nodes": [
        0
      ]
    }
  ],
  "textures": [
    {
      "sampler": 0,
      "source": 0
    },
    {
      "sampler": 0,
      "source": 1
    },
    {
      "sampler": 0,
      "source": 2
    }
  ]
}