{
  "accessors": [
    {
      "bufferView": 0,
      "componentType": 5125,
      "count": 99681,
      "type": "SCALAR"
    },
    {
      "bufferView": 1,
      "componentType": 5126,
      "count": 17331,
      "max": [
        0.999999940395355,
        0.920445263385773,
        0.594850540161133
      ],
      "min": [
        -0.999999940395355,
        -0.920445263385773,
        -0.594850540161133
      ],
      "type": "VEC3"
    },
    {
      "bufferView": 2,
      "componentType": 5126,
      "count": 17331,
      "type": "VEC3"
    },
    {
      "bufferView": 3,
      "componentType": 5126,
      "count": 17331,
      "type": "VEC2"
    }
  ],
  "asset": {
    "generator": "Substance Painter 2019.3.3",
    "version": "2.0"
  },
  "bufferViews": [
    {
      "buffer": 0,
      "byteLength": 398724,
      "target": 34963
    },
    {
      "buffer": 0,
      "byteLength": 207972,
      "byteOffset": 398724,
      "target": 34962
    },
    {
      "buffer": 0,
      "byteLength": 207972,
      "byteOffset": 606696,
      "target": 34962
    },
    {
      "buffer": 0,
      "byteLength": 138648,
      "byteOffset": 814668,
      "target": 34962
    }
  ],
  "buffers": [
    {
      "byteLength": 953316,
      "uri": "jonny.bin"
    }
  ],
  "images": [
    {
      "uri": "T_jonny_baseColor.png"
    },
    {
      "uri": "T_jonny_occlusionRoughnessMetallic.png"
    },
    {
      "uri": "T_jonny_normal.png"
    }
  ],
  "materials": [
    {
      "alphaMode": "OPAQUE",
      "name": "T_jonny",
      "normalTexture": {
        "index": 2
      },
      "occlusionTexture": {
        "index": 1
      },
      "pbrMetallicRoughness": {
        "baseColorTexture": {
          "index": 0
        },
        "metallicRoughnessTexture": {
          "index": 1
        }
      }
    }
  ],
  "meshes": [
    {
      "name": "Mesh",
      "primitives": [
        {
          "attributes": {
            "NORMAL": 2,
            "POSITION": 1,
            "TEXCOORD_0": 3
          },
          "indices": 0,
          "material": 0,
          "mode": 4
        }
      ]
    }
  ],
  "nodes": [
    {
      "children": [
        1
      ],
      "name": "root",
      "scale": [
        0.301082998514175,
        0.301082998514175,
        0.301082998514175
      ],
      "translation": [
        0.0,
        0.277130424976349,
        0.0
      ]
    },
    {
      "children": [
        2
      ],
      "name": "Mesh"
    },
    {
      "mesh": 0,
      "name": "Mesh"
    }
  ],
  "samplers": [
    {
      "magFilter": 9729,
      "minFilter": 9985,
      "wrapS": 10497,
      "wrapT": 10497
    }
  ],
  "scene": 0,
  "scenes": [
    {
      "name": "Scene",
      "nodes": [
        0
      ]
    }
  ],
  "textures": [
    {
      "sampler": 0,
      "source": 0
    },
    {
      "sampler": 0,
      "source": 1
    },
    {
      "sampler": 0,
      "source": 2
    }
  ]
}