{
  "accessors": [
    {
      "bufferView": 0,
      "componentType": 5125,
      "count": 300294,
      "type": "SCALAR"
    },
    {
      "bufferView": 1,
      "componentType": 5126,
      "count": 59451,
      "max": [
        0.799118340015411,
        0.900099396705627,
        0.46274346113205
      ],
      "min": [
        -0.799318253993988,
        0.00301942229270935,
        0.0704541951417923
      ],
      "type": "VEC3"
    },
    {
      "bufferView": 2,
      "componentType": 5126,
      "count": 59451,
      "type": "VEC3"
    },
    {
      "bufferView": 3,
      "componentType": 5126,
      "count": 59451,
      "type": "VEC2"
    }
  ],
  "asset": {
    "generator": "Substance Painter 6.1.3",
    "version": "2.0"
  },
  "bufferViews": [
    {
      "buffer": 0,
      "byteLength": 1201176,
      "target": 34963
    },
    {
      "buffer": 0,
      "byteLength": 713412,
      "byteOffset": 1201176,
      "target": 34962
    },
    {
      "buffer": 0,
      "byteLength": 713412,
      "byteOffset": 1914588,
      "target": 34962
    },
    {
      "buffer": 0,
      "byteLength": 475608,
      "byteOffset": 2628000,
      "target": 34962
    }
  ],
  "buffers": [
    {
      "byteLength": 3103608,
      "uri": "sideboard_orient_darkwood.bin"
    }
  ],
  "images": [
    {
      "uri": "T_sideboard_darkwood_baseColor.png"
    },
    {
      "uri": "T_sideboard_darkwood_occlusionRoughnessMetallic.png"
    },
    {
      "uri": "T_sideboard_darkwood_normal.png"
    }
  ],
  "materials": [
    {
      "alphaMode": "OPAQUE",
      "name": "T_sideboard_darkwood",
      "normalTexture": {
        "index": 2
      },
      "occlusionTexture": {
        "index": 1
      },
      "pbrMetallicRoughness": {
        "baseColorTexture": {
          "index": 0
        },
        "metallicRoughnessTexture": {
          "index": 1
        }
      }
    }
  ],
  "meshes": [
    {
      "name": "sb",
      "primitives": [
        {
          "attributes": {
            "NORMAL": 2,
            "POSITION": 1,
            "TEXCOORD_0": 3
          },
          "indices": 0,
          "material": 0,
          "mode": 4
        }
      ]
    }
  ],
  "nodes": [
    {
      "children": [
        1
      ],
      "name": "RootNode"
    },
    {
      "children": [
        2
      ],
      "name": "sb",
      "translation": [
        9.99999974737875e-05,
        9.99999974737875e-05,
        -0.260566025972366
      ]
    },
    {
      "mesh": 0,
      "name": "sb"
    }
  ],
  "samplers": [
    {
      "magFilter": 9729,
      "minFilter": 9985,
      "wrapS": 10497,
      "wrapT": 10497
    }
  ],
  "scene": 0,
  "scenes": [
    {
      "name": "Scene",
      "nodes": [
        0
      ]
    }
  ],
  "textures": [
    {
      "sampler": 0,
      "source": 0
    },
    {
      "sampler": 0,
      "source": 1
    },
    {
      "sampler": 0,
      "source": 2
    }
  ]
}