{
  "accessors": [
    {
      "bufferView": 0,
      "componentType": 5125,
      "count": 36,
      "type": "SCALAR"
    },
    {
      "bufferView": 1,
      "componentType": 5126,
      "count": 24,
      "max": [
        0.934579312801361,
        1.00000011920929,
        0.932197034358978
      ],
      "min": [
        -0.934579312801361,
        0.96528697013855,
        -0.936961531639099
      ],
      "type": "VEC3"
    },
    {
      "bufferView": 2,
      "componentType": 5126,
      "count": 24,
      "type": "VEC3"
    },
    {
      "bufferView": 3,
      "componentType": 5126,
      "count": 24,
      "type": "VEC2"
    },
    {
      "bufferView": 4,
      "componentType": 5125,
      "count": 15777,
      "type": "SCALAR"
    },
    {
      "bufferView": 5,
      "componentType": 5126,
      "count": 7121,
      "max": [
        0.949195086956024,
        0.999999821186066,
        0.946812927722931
      ],
      "min": [
        -0.949195086956024,
        -1.0,
        -0.951577246189117
      ],
      "type": "VEC3"
    },
    {
      "bufferView": 6,
      "componentType": 5126,
      "count": 7121,
      "type": "VEC3"
    },
    {
      "bufferView": 7,
      "componentType": 5126,
      "count": 7121,
      "type": "VEC2"
    }
  ],
  "asset": {
    "generator": "Substance Painter 2019.2.3",
    "version": "2.0"
  },
  "bufferViews": [
    {
      "buffer": 0,
      "byteLength": 144,
      "target": 34963
    },
    {
      "buffer": 0,
      "byteLength": 288,
      "byteOffset": 144,
      "target": 34962
    },
    {
      "buffer": 0,
      "byteLength": 288,
      "byteOffset": 432,
      "target": 34962
    },
    {
      "buffer": 0,
      "byteLength": 192,
      "byteOffset": 720,
      "target": 34962
    },
    {
      "buffer": 0,
      "byteLength": 63108,
      "byteOffset": 912,
      "target": 34963
    },
    {
      "buffer": 0,
      "byteLength": 85452,
      "byteOffset": 64020,
      "target": 34962
    },
    {
      "buffer": 0,
      "byteLength": 85452,
      "byteOffset": 149472,
      "target": 34962
    },
    {
      "buffer": 0,
      "byteLength": 56968,
      "byteOffset": 234924,
      "target": 34962
    }
  ],
  "buffers": [
    {
      "byteLength": 291892,
      "uri": "sui.bin"
    }
  ],
  "images": [
    {
      "uri": "T_leg_baseColor.png"
    },
    {
      "uri": "T_leg_occlusionRoughnessMetallic.png"
    },
    {
      "uri": "T_leg_normal.png"
    },
    {
      "uri": "T_tabletop_baseColor.png"
    },
    {
      "uri": "T_tabletop_occlusionRoughnessMetallic.png"
    },
    {
      "uri": "T_tabletop_normal.png"
    }
  ],
  "materials": [
    {
      "alphaMode": "OPAQUE",
      "name": "T_leg",
      "normalTexture": {
        "index": 2
      },
      "occlusionTexture": {
        "index": 1
      },
      "pbrMetallicRoughness": {
        "baseColorTexture": {
          "index": 0
        },
        "metallicRoughnessTexture": {
          "index": 1
        }
      }
    },
    {
      "alphaMode": "OPAQUE",
      "name": "T_tabletop",
      "normalTexture": {
        "index": 5
      },
      "occlusionTexture": {
        "index": 4
      },
      "pbrMetallicRoughness": {
        "baseColorTexture": {
          "index": 3
        },
        "metallicRoughnessTexture": {
          "index": 4
        }
      }
    }
  ],
  "meshes": [
    {
      "name": "Top",
      "primitives": [
        {
          "attributes": {
            "NORMAL": 2,
            "POSITION": 1,
            "TEXCOORD_0": 3
          },
          "indices": 0,
          "material": 1,
          "mode": 4
        }
      ]
    },
    {
      "name": "Leg",
      "primitives": [
        {
          "attributes": {
            "NORMAL": 6,
            "POSITION": 5,
            "TEXCOORD_0": 7
          },
          "indices": 4,
          "material": 0,
          "mode": 4
        }
      ]
    }
  ],
  "nodes": [
    {
      "children": [
        1,
        3
      ],
      "name": "root",
      "scale": [
        0.374500066041946,
        0.374500066041946,
        0.374500066041946
      ],
      "translation": [
        0.0,
        0.374500095844269,
        2.98023223876953e-08
      ]
    },
    {
      "children": [
        2
      ],
      "name": "Top"
    },
    {
      "mesh": 0,
      "name": "Top"
    },
    {
      "children": [
        4
      ],
      "name": "Leg"
    },
    {
      "mesh": 1,
      "name": "Leg"
    }
  ],
  "samplers": [
    {
      "magFilter": 9729,
      "minFilter": 9985,
      "wrapS": 10497,
      "wrapT": 10497
    }
  ],
  "scene": 0,
  "scenes": [
    {
      "name": "Scene",
      "nodes": [
        0
      ]
    }
  ],
  "textures": [
    {
      "sampler": 0,
      "source": 0
    },
    {
      "sampler": 0,
      "source": 1
    },
    {
      "sampler": 0,
      "source": 2
    },
    {
      "sampler": 0,
      "source": 3
    },
    {
      "sampler": 0,
      "source": 4
    },
    {
      "sampler": 0,
      "source": 5
    }
  ]
}