{"asset":{"generator":"Modov11.2","version":"2.0"},"scene":0,"scenes":[{"nodes":[0]}],"nodes":[{"name":"plana","matrix":[1.0,1.1399865765455465e-14,3.019916050561733e-7,0.0,3.019916050561733e-7,-7.549790126404332e-8,-1.0,0.0,1.1399865765455465e-14,1.0,-7.549790126404332e-8,0.0,0.0,0.0,0.0,1.0],"mesh":0}],"meshes":[{"primitives":[{"indices":1,"mode":4,"material":1,"attributes":{"POSITION":0,"NORMAL":2,"TEXCOORD_0":3}}]}],"buffers":[{"byteLength":908360,"uri":"plana.bin"}],"bufferViews":[{"buffer":0,"byteLength":211152},{"buffer":0,"byteLength":345288,"byteOffset":211152},{"buffer":0,"byteLength":211152,"byteOffset":556440},{"buffer":0,"byteLength":140768,"byteOffset":767592}],"accessors":[{"bufferView":0,"type":"VEC3","componentType":5126,"count":17596,"min":[-0.2405400276184082,-0.2610599994659424,-2.465592842536995e-15],"max":[0.240540012717247,0.26102399826049807,0.7896309494972229]},{"bufferView":1,"type":"SCALAR","componentType":5125,"count":86322},{"bufferView":2,"type":"VEC3","componentType":5126,"count":17596},{"bufferView":3,"type":"VEC2","componentType":5126,"count":17596}],"materials":[{"pbrMetallicRoughness":{"metallicFactor":0.5,"roughnessFactor":0.5}},{"name":"Default","emissiveFactor":[0.0,0.0,0.0],"alphaMode":"OPAQUE","doubleSided":false,"normalTexture":{"index":0,"texCoord":0,"scale":0.30000001192092898},"pbrMetallicRoughness":{"baseColorFactor":[0.74842768907547,0.74842768907547,0.74842768907547,1.0],"metallicFactor":0.0,"roughnessFactor":0.44999998807907107}}],"textures":[{"name":"T_plana_normal ","sampler":0,"source":0}],"images":[{"mimeType":"image/jpeg","uri":"T_plana_normal.jpg"}],"samplers":[{"wrapS":10497,"wrapT":10497}]}