{
  "accessors": [
    {
      "bufferView": 0,
      "componentType": 5125,
      "count": 65556,
      "type": "SCALAR"
    },
    {
      "bufferView": 1,
      "componentType": 5126,
      "count": 13987,
      "max": [
        0.662713170051575,
        0.678808152675629,
        1.0
      ],
      "min": [
        -0.662713170051575,
        -0.678808033466339,
        -1.0
      ],
      "type": "VEC3"
    },
    {
      "bufferView": 2,
      "componentType": 5126,
      "count": 13987,
      "type": "VEC3"
    },
    {
      "bufferView": 3,
      "componentType": 5126,
      "count": 13987,
      "type": "VEC2"
    }
  ],
  "asset": {
    "generator": "Substance Painter 2019.2.3",
    "version": "2.0"
  },
  "bufferViews": [
    {
      "buffer": 0,
      "byteLength": 262224,
      "target": 34963
    },
    {
      "buffer": 0,
      "byteLength": 167844,
      "byteOffset": 262224,
      "target": 34962
    },
    {
      "buffer": 0,
      "byteLength": 167844,
      "byteOffset": 430068,
      "target": 34962
    },
    {
      "buffer": 0,
      "byteLength": 111896,
      "byteOffset": 597912,
      "target": 34962
    }
  ],
  "buffers": [
    {
      "byteLength": 709808,
      "uri": "present_01.bin"
    }
  ],
  "images": [
    {
      "uri": "T_present_baseColor.png"
    },
    {
      "uri": "T_present_occlusionRoughnessMetallic.png"
    },
    {
      "uri": "T_present_normal.png"
    }
  ],
  "materials": [
    {
      "alphaMode": "OPAQUE",
      "name": "T_present",
      "normalTexture": {
        "index": 2
      },
      "occlusionTexture": {
        "index": 1
      },
      "pbrMetallicRoughness": {
        "baseColorTexture": {
          "index": 0
        },
        "metallicRoughnessTexture": {
          "index": 1
        }
      }
    }
  ],
  "meshes": [
    {
      "name": "present_01",
      "primitives": [
        {
          "attributes": {
            "NORMAL": 2,
            "POSITION": 1,
            "TEXCOORD_0": 3
          },
          "indices": 0,
          "material": 0,
          "mode": 4
        }
      ]
    }
  ],
  "nodes": [
    {
      "children": [
        1
      ],
      "name": "root",
      "scale": [
        0.203112751245499,
        0.203112751245499,
        0.203112751245499
      ],
      "translation": [
        0.0,
        0.137874573469162,
        0.0
      ]
    },
    {
      "children": [
        2
      ],
      "name": "present_01"
    },
    {
      "mesh": 0,
      "name": "present_01"
    }
  ],
  "samplers": [
    {
      "magFilter": 9729,
      "minFilter": 9985,
      "wrapS": 10497,
      "wrapT": 10497
    }
  ],
  "scene": 0,
  "scenes": [
    {
      "name": "Scene",
      "nodes": [
        0
      ]
    }
  ],
  "textures": [
    {
      "sampler": 0,
      "source": 0
    },
    {
      "sampler": 0,
      "source": 1
    },
    {
      "sampler": 0,
      "source": 2
    }
  ]
}