{
  "accessors": [
    {
      "bufferView": 0,
      "componentType": 5125,
      "count": 4200,
      "type": "SCALAR"
    },
    {
      "bufferView": 1,
      "componentType": 5126,
      "count": 1594,
      "max": [
        1.0,
        0.338889569044113,
        0.277777791023254
      ],
      "min": [
        -1.0,
        -0.338889390230179,
        -0.277777791023254
      ],
      "type": "VEC3"
    },
    {
      "bufferView": 2,
      "componentType": 5126,
      "count": 1594,
      "type": "VEC3"
    },
    {
      "bufferView": 3,
      "componentType": 5126,
      "count": 1594,
      "type": "VEC2"
    }
  ],
  "asset": {
    "generator": "Substance Painter 2019.3.3",
    "version": "2.0"
  },
  "bufferViews": [
    {
      "buffer": 0,
      "byteLength": 16800,
      "target": 34963
    },
    {
      "buffer": 0,
      "byteLength": 19128,
      "byteOffset": 16800,
      "target": 34962
    },
    {
      "buffer": 0,
      "byteLength": 19128,
      "byteOffset": 35928,
      "target": 34962
    },
    {
      "buffer": 0,
      "byteLength": 12752,
      "byteOffset": 55056,
      "target": 34962
    }
  ],
  "buffers": [
    {
      "byteLength": 67808,
      "uri": "vick_tvconsole.bin"
    }
  ],
  "images": [
    {
      "uri": "T_vicktvconsole_baseColor.png"
    },
    {
      "uri": "T_vicktvconsole_occlusionRoughnessMetallic.png"
    },
    {
      "uri": "T_vicktvconsole_normal.png"
    }
  ],
  "materials": [
    {
      "alphaMode": "OPAQUE",
      "name": "T_vicktvconsole",
      "normalTexture": {
        "index": 2
      },
      "occlusionTexture": {
        "index": 1
      },
      "pbrMetallicRoughness": {
        "baseColorTexture": {
          "index": 0
        },
        "metallicRoughnessTexture": {
          "index": 1
        }
      }
    }
  ],
  "meshes": [
    {
      "name": "Mesh",
      "primitives": [
        {
          "attributes": {
            "NORMAL": 2,
            "POSITION": 1,
            "TEXCOORD_0": 3
          },
          "indices": 0,
          "material": 0,
          "mode": 4
        }
      ]
    }
  ],
  "nodes": [
    {
      "children": [
        1
      ],
      "name": "root",
      "scale": [
        0.899999976158142,
        0.899999976158142,
        0.899999976158142
      ],
      "translation": [
        0.0,
        0.305000424385071,
        0.0
      ]
    },
    {
      "children": [
        2
      ],
      "name": "Mesh"
    },
    {
      "mesh": 0,
      "name": "Mesh"
    }
  ],
  "samplers": [
    {
      "magFilter": 9729,
      "minFilter": 9985,
      "wrapS": 10497,
      "wrapT": 10497
    }
  ],
  "scene": 0,
  "scenes": [
    {
      "name": "Scene",
      "nodes": [
        0
      ]
    }
  ],
  "textures": [
    {
      "sampler": 0,
      "source": 0
    },
    {
      "sampler": 0,
      "source": 1
    },
    {
      "sampler": 0,
      "source": 2
    }
  ]
}