{
  "accessors": [
    {
      "bufferView": 0,
      "componentType": 5125,
      "count": 894,
      "type": "SCALAR"
    },
    {
      "bufferView": 1,
      "componentType": 5126,
      "count": 220,
      "max": [
        0.601182222366333,
        0.0247472487390041,
        1.0
      ],
      "min": [
        -0.601182222366333,
        -0.0247472487390041,
        -1.0
      ],
      "type": "VEC3"
    },
    {
      "bufferView": 2,
      "componentType": 5126,
      "count": 220,
      "type": "VEC3"
    },
    {
      "bufferView": 3,
      "componentType": 5126,
      "count": 220,
      "type": "VEC2"
    },
    {
      "bufferView": 4,
      "componentType": 5125,
      "count": 30,
      "type": "SCALAR"
    },
    {
      "bufferView": 5,
      "componentType": 5126,
      "count": 12,
      "max": [
        0.52175509929657,
        -0.00494921859353781,
        0.914431631565094
      ],
      "min": [
        -0.52175509929657,
        -0.00494959717616439,
        -0.914431631565094
      ],
      "type": "VEC3"
    },
    {
      "bufferView": 6,
      "componentType": 5126,
      "count": 12,
      "type": "VEC3"
    },
    {
      "bufferView": 7,
      "componentType": 5126,
      "count": 12,
      "type": "VEC2"
    }
  ],
  "asset": {
    "generator": "Substance Painter 2019.2.3",
    "version": "2.0"
  },
  "bufferViews": [
    {
      "buffer": 0,
      "byteLength": 3576,
      "target": 34963
    },
    {
      "buffer": 0,
      "byteLength": 2640,
      "byteOffset": 3576,
      "target": 34962
    },
    {
      "buffer": 0,
      "byteLength": 2640,
      "byteOffset": 6216,
      "target": 34962
    },
    {
      "buffer": 0,
      "byteLength": 1760,
      "byteOffset": 8856,
      "target": 34962
    },
    {
      "buffer": 0,
      "byteLength": 120,
      "byteOffset": 10616,
      "target": 34963
    },
    {
      "buffer": 0,
      "byteLength": 144,
      "byteOffset": 10736,
      "target": 34962
    },
    {
      "buffer": 0,
      "byteLength": 144,
      "byteOffset": 10880,
      "target": 34962
    },
    {
      "buffer": 0,
      "byteLength": 96,
      "byteOffset": 11024,
      "target": 34962
    }
  ],
  "buffers": [
    {
      "byteLength": 11120,
      "uri": "painting_01.bin"
    }
  ],
  "images": [
    {
      "uri": "frame_baseColor.png"
    },
    {
      "uri": "frame_occlusionRoughnessMetallic.png"
    },
    {
      "uri": "frame_normal.png"
    },
    {
      "uri": "painting_baseColor.png"
    },
    {
      "uri": "painting_occlusionRoughnessMetallic.png"
    },
    {
      "uri": "painting_normal.png"
    }
  ],
  "materials": [
    {
      "alphaMode": "OPAQUE",
      "name": "frame",
      "normalTexture": {
        "index": 2
      },
      "occlusionTexture": {
        "index": 1
      },
      "pbrMetallicRoughness": {
        "baseColorTexture": {
          "index": 0
        },
        "metallicRoughnessTexture": {
          "index": 1
        }
      }
    },
    {
      "alphaMode": "OPAQUE",
      "name": "painting",
      "normalTexture": {
        "index": 5
      },
      "occlusionTexture": {
        "index": 4
      },
      "pbrMetallicRoughness": {
        "baseColorTexture": {
          "index": 3
        },
        "metallicRoughnessTexture": {
          "index": 4
        }
      }
    }
  ],
  "meshes": [
    {
      "name": "painting_1mX1-6m",
      "primitives": [
        {
          "attributes": {
            "NORMAL": 2,
            "POSITION": 1,
            "TEXCOORD_0": 3
          },
          "indices": 0,
          "material": 0,
          "mode": 4
        }
      ]
    },
    {
      "name": "painting_1mX1-6m",
      "primitives": [
        {
          "attributes": {
            "NORMAL": 6,
            "POSITION": 5,
            "TEXCOORD_0": 7
          },
          "indices": 4,
          "material": 1,
          "mode": 4
        }
      ]
    }
  ],
  "nodes": [
    {
      "children": [
        1,
        3
      ],
      "name": "root",
      "scale": [
        0.821593046188354,
        0.821593046188354,
        0.821593046188354
      ],
      "translation": [
        0.0,
        0.0203321669250727,
        0.0
      ]
    },
    {
      "children": [
        2
      ],
      "name": "painting_1mX1-6m"
    },
    {
      "mesh": 0,
      "name": "painting_1mX1-6m"
    },
    {
      "children": [
        4
      ],
      "name": "painting_1mX1-6m"
    },
    {
      "mesh": 1,
      "name": "painting_1mX1-6m"
    }
  ],
  "samplers": [
    {
      "magFilter": 9729,
      "minFilter": 9985,
      "wrapS": 10497,
      "wrapT": 10497
    }
  ],
  "scene": 0,
  "scenes": [
    {
      "name": "Scene",
      "nodes": [
        0
      ]
    }
  ],
  "textures": [
    {
      "sampler": 0,
      "source": 0
    },
    {
      "sampler": 0,
      "source": 1
    },
    {
      "sampler": 0,
      "source": 2
    },
    {
      "sampler": 0,
      "source": 3
    },
    {
      "sampler": 0,
      "source": 4
    },
    {
      "sampler": 0,
      "source": 5
    }
  ]
}