{
  "accessors": [
    {
      "bufferView": 0,
      "componentType": 5125,
      "count": 100692,
      "type": "SCALAR"
    },
    {
      "bufferView": 1,
      "componentType": 5126,
      "count": 19918,
      "max": [
        0.206911876797676,
        1.00000011920929,
        0.313096791505814
      ],
      "min": [
        -0.206911876797676,
        -1.0,
        -0.313096791505814
      ],
      "type": "VEC3"
    },
    {
      "bufferView": 2,
      "componentType": 5126,
      "count": 19918,
      "type": "VEC3"
    },
    {
      "bufferView": 3,
      "componentType": 5126,
      "count": 19918,
      "type": "VEC2"
    }
  ],
  "asset": {
    "generator": "Substance Painter 2019.2.3",
    "version": "2.0"
  },
  "bufferViews": [
    {
      "buffer": 0,
      "byteLength": 402768,
      "target": 34963
    },
    {
      "buffer": 0,
      "byteLength": 239016,
      "byteOffset": 402768,
      "target": 34962
    },
    {
      "buffer": 0,
      "byteLength": 239016,
      "byteOffset": 641784,
      "target": 34962
    },
    {
      "buffer": 0,
      "byteLength": 159344,
      "byteOffset": 880800,
      "target": 34962
    }
  ],
  "buffers": [
    {
      "byteLength": 1040144,
      "uri": "muuto_lamp.bin"
    }
  ],
  "images": [
    {
      "uri": "T_muuto_baseColor.png"
    },
    {
      "uri": "T_muuto_occlusionRoughnessMetallic.png"
    },
    {
      "uri": "T_muuto_normal.png"
    }
  ],
  "materials": [
    {
      "alphaMode": "OPAQUE",
      "name": "T_muuto",
      "normalTexture": {
        "index": 2
      },
      "occlusionTexture": {
        "index": 1
      },
      "pbrMetallicRoughness": {
        "baseColorTexture": {
          "index": 0
        },
        "metallicRoughnessTexture": {
          "index": 1
        }
      }
    }
  ],
  "meshes": [
    {
      "name": "Muuto_Pull_Floor_Lamp_high",
      "primitives": [
        {
          "attributes": {
            "NORMAL": 2,
            "POSITION": 1,
            "TEXCOORD_0": 3
          },
          "indices": 0,
          "material": 0,
          "mode": 4
        }
      ]
    }
  ],
  "nodes": [
    {
      "children": [
        1
      ],
      "name": "muuto.obj",
      "scale": [
        0.768965065479279,
        0.768965065479279,
        0.768965065479279
      ],
      "translation": [
        0.0,
        0.768964886665344,
        0.0721514970064163
      ]
    },
    {
      "children": [
        2
      ],
      "name": "g Muuto_Pull_Floor_Lamp_high"
    },
    {
      "mesh": 0,
      "name": "Muuto_Pull_Floor_Lamp_high"
    }
  ],
  "samplers": [
    {
      "magFilter": 9729,
      "minFilter": 9985,
      "wrapS": 10497,
      "wrapT": 10497
    }
  ],
  "scene": 0,
  "scenes": [
    {
      "name": "Scene",
      "nodes": [
        0
      ]
    }
  ],
  "textures": [
    {
      "sampler": 0,
      "source": 0
    },
    {
      "sampler": 0,
      "source": 1
    },
    {
      "sampler": 0,
      "source": 2
    }
  ]
}