{
  "accessors": [
    {
      "bufferView": 0,
      "componentType": 5125,
      "count": 271002,
      "type": "SCALAR"
    },
    {
      "bufferView": 1,
      "componentType": 5126,
      "count": 60661,
      "max": [
        0.501243650913239,
        0.0715368464589119,
        1.0
      ],
      "min": [
        -0.501243650913239,
        -0.0692333653569221,
        -1.00000011920929
      ],
      "type": "VEC3"
    },
    {
      "bufferView": 2,
      "componentType": 5126,
      "count": 60661,
      "type": "VEC3"
    },
    {
      "bufferView": 3,
      "componentType": 5126,
      "count": 60661,
      "type": "VEC2"
    }
  ],
  "asset": {
    "generator": "Substance Painter 2019.2.3",
    "version": "2.0"
  },
  "bufferViews": [
    {
      "buffer": 0,
      "byteLength": 1084008,
      "target": 34963
    },
    {
      "buffer": 0,
      "byteLength": 727932,
      "byteOffset": 1084008,
      "target": 34962
    },
    {
      "buffer": 0,
      "byteLength": 727932,
      "byteOffset": 1811940,
      "target": 34962
    },
    {
      "buffer": 0,
      "byteLength": 485288,
      "byteOffset": 2539872,
      "target": 34962
    }
  ],
  "buffers": [
    {
      "byteLength": 3025160,
      "uri": "walldeco_christmastree.bin"
    }
  ],
  "images": [
    {
      "uri": "T_christmas_walldeco_baseColor.png"
    },
    {
      "uri": "T_christmas_walldeco_occlusionRoughnessMetallic.png"
    },
    {
      "uri": "T_christmas_walldeco_normal.png"
    }
  ],
  "materials": [
    {
      "alphaMode": "OPAQUE",
      "name": "T_christmas_walldeco",
      "normalTexture": {
        "index": 2
      },
      "occlusionTexture": {
        "index": 1
      },
      "pbrMetallicRoughness": {
        "baseColorTexture": {
          "index": 0
        },
        "metallicRoughnessTexture": {
          "index": 1
        }
      }
    }
  ],
  "meshes": [
    {
      "name": "chrestmastree wall deco",
      "primitives": [
        {
          "attributes": {
            "NORMAL": 2,
            "POSITION": 1,
            "TEXCOORD_0": 3
          },
          "indices": 0,
          "material": 0,
          "mode": 4
        }
      ]
    }
  ],
  "nodes": [
    {
      "children": [
        1
      ],
      "name": "root",
      "scale": [
        0.500198245048523,
        0.500198245048523,
        0.500198245048523
      ],
      "translation": [
        2.98023223876953e-08,
        0.0359849445521832,
        -0.239999949932098
      ]
    },
    {
      "children": [
        2
      ],
      "name": "chrestmastree wall deco"
    },
    {
      "mesh": 0,
      "name": "chrestmastree wall deco"
    }
  ],
  "samplers": [
    {
      "magFilter": 9729,
      "minFilter": 9985,
      "wrapS": 10497,
      "wrapT": 10497
    }
  ],
  "scene": 0,
  "scenes": [
    {
      "name": "Scene",
      "nodes": [
        0
      ]
    }
  ],
  "textures": [
    {
      "sampler": 0,
      "source": 0
    },
    {
      "sampler": 0,
      "source": 1
    },
    {
      "sampler": 0,
      "source": 2
    }
  ]
}