{"asset":{"generator":"Modov11.2","version":"2.0"},"scene":0,"scenes":[{"nodes":[0,1]}],"nodes":[{"name":"pussywillow2","matrix":[-14.687602043151856,10.523064613342286,-44.13920211791992,0.0,-2.8883907794952394,68.77528381347656,17.357593536376954,0.0,67.88331604003906,8.06651496887207,-20.665498733520509,0.0,0.007999999448657036,1.0004801750183106,0.09200001507997513,1.0],"mesh":0},{"name":"Texture Group"}],"meshes":[{"primitives":[{"indices":1,"mode":4,"material":1,"attributes":{"POSITION":0,"NORMAL":2,"TEXCOORD_0":3}},{"indices":5,"mode":4,"material":2,"attributes":{"POSITION":4,"NORMAL":6,"TEXCOORD_0":7}}]}],"buffers":[{"byteLength":18539352,"uri":"pussywillow.bin"}],"bufferViews":[{"buffer":0,"byteLength":129324},{"buffer":0,"byteLength":243048,"byteOffset":129324},{"buffer":0,"byteLength":129324,"byteOffset":372372},{"buffer":0,"byteLength":86216,"byteOffset":501696},{"buffer":0,"byteLength":3182604,"byteOffset":587912},{"buffer":0,"byteLength":9464496,"byteOffset":3770516},{"buffer":0,"byteLength":3182604,"byteOffset":13235012},{"buffer":0,"byteLength":2121736,"byteOffset":16417616}],"accessors":[{"bufferView":0,"type":"VEC3","componentType":5126,"count":10777,"min":[-0.004481102805584669,-0.014172528870403767,-0.0026642922312021257],"max":[0.0003280482778791338,-0.007631785701960325,0.00042921752901747823]},{"bufferView":1,"type":"SCALAR","componentType":5125,"count":60762},{"bufferView":2,"type":"VEC3","componentType":5126,"count":10777},{"bufferView":3,"type":"VEC2","componentType":5126,"count":10777},{"bufferView":4,"type":"VEC3","componentType":5126,"count":265217,"min":[-0.0026445165276527406,-0.013075718656182289,-0.0017295177094638348],"max":[0.00513245677575469,0.008127076551318169,0.0023358105681836607]},{"bufferView":5,"type":"SCALAR","componentType":5125,"count":2366124},{"bufferView":6,"type":"VEC3","componentType":5126,"count":265217},{"bufferView":7,"type":"VEC2","componentType":5126,"count":265217}],"materials":[{"pbrMetallicRoughness":{"metallicFactor":0.5,"roughnessFactor":0.5}},{"name":"T_vase","emissiveFactor":[0.0,0.0,0.0],"alphaMode":"OPAQUE","doubleSided":false,"normalTexture":{"index":2,"texCoord":0},"occlusionTexture":{"index":3,"texCoord":0},"pbrMetallicRoughness":{"baseColorFactor":[1.0,1.0,1.0,1.0],"metallicFactor":1.0,"roughnessFactor":1.0,"baseColorTexture":{"index":0,"texCoord":0},"metallicRoughnessTexture":{"index":1,"texCoord":0}}},{"name":"T_plant","emissiveFactor":[0.0,0.0,0.0],"alphaMode":"OPAQUE","doubleSided":false,"normalTexture":{"index":6,"texCoord":0},"occlusionTexture":{"index":7,"texCoord":0},"pbrMetallicRoughness":{"baseColorFactor":[1.0,1.0,1.0,1.0],"metallicFactor":1.0,"roughnessFactor":1.0,"baseColorTexture":{"index":4,"texCoord":0},"metallicRoughnessTexture":{"index":5,"texCoord":0}}}],"textures":[{"name":"Default_baseColor2 ","sampler":0,"source":0},{"name":"Default_occlusionRoughnessMetallic 3","sampler":1,"source":1},{"name":"Default_normal ","sampler":2,"source":2},{"name":"Default_occlusionRoughnessMetallic 2","sampler":3,"source":1},{"name":"T_plant_baseColor ","sampler":4,"source":3},{"name":"T_plant_occlusionRoughnessMetallic ","sampler":5,"source":4},{"name":"T_plant_normal ","sampler":6,"source":5},{"name":"T_plant_occlusionRoughnessMetallic 3","sampler":7,"source":4}],"images":[{"mimeType":"image/png","uri":"Default_baseColor.png"},{"mimeType":"image/png","uri":"Default_occlusionRoughnessMetallic.png"},{"mimeType":"image/png","uri":"Default_normal.png"},{"mimeType":"image/png","uri":"T_plant_baseColor.png"},{"mimeType":"image/png","uri":"T_plant_occlusionRoughnessMetallic.png"},{"mimeType":"image/png","uri":"T_plant_normal.png"}],"samplers":[{"wrapS":10497,"wrapT":10497},{"wrapS":10497,"wrapT":10497},{"wrapS":10497,"wrapT":10497},{"wrapS":10497,"wrapT":10497},{"wrapS":10497,"wrapT":10497},{"wrapS":10497,"wrapT":10497},{"wrapS":10497,"wrapT":10497},{"wrapS":10497,"wrapT":10497}]}