{
  "accessors": [
    {
      "bufferView": 0,
      "componentType": 5125,
      "count": 282495,
      "type": "SCALAR"
    },
    {
      "bufferView": 1,
      "componentType": 5126,
      "count": 55497,
      "max": [
        0.449999988079071,
        1.79999995231628,
        0.218586787581444
      ],
      "min": [
        -0.449999988079071,
        0.0,
        -0.201001301407814
      ],
      "type": "VEC3"
    },
    {
      "bufferView": 2,
      "componentType": 5126,
      "count": 55497,
      "type": "VEC3"
    },
    {
      "bufferView": 3,
      "componentType": 5126,
      "count": 55497,
      "type": "VEC2"
    },
    {
      "bufferView": 4,
      "componentType": 5125,
      "count": 408,
      "type": "SCALAR"
    },
    {
      "bufferView": 5,
      "componentType": 5126,
      "count": 256,
      "max": [
        0.450392067432404,
        1.74967885017395,
        0.196115255355835
      ],
      "min": [
        -0.450392067432404,
        0.327680885791779,
        -0.137719482183456
      ],
      "type": "VEC3"
    },
    {
      "bufferView": 6,
      "componentType": 5126,
      "count": 256,
      "type": "VEC3"
    },
    {
      "bufferView": 7,
      "componentType": 5126,
      "count": 256,
      "type": "VEC2"
    }
  ],
  "asset": {
    "generator": "Substance Painter 6.1.3",
    "version": "2.0"
  },
  "bufferViews": [
    {
      "buffer": 0,
      "byteLength": 1129980,
      "target": 34963
    },
    {
      "buffer": 0,
      "byteLength": 665964,
      "byteOffset": 1129980,
      "target": 34962
    },
    {
      "buffer": 0,
      "byteLength": 665964,
      "byteOffset": 1795944,
      "target": 34962
    },
    {
      "buffer": 0,
      "byteLength": 443976,
      "byteOffset": 2461908,
      "target": 34962
    },
    {
      "buffer": 0,
      "byteLength": 1632,
      "byteOffset": 2905884,
      "target": 34963
    },
    {
      "buffer": 0,
      "byteLength": 3072,
      "byteOffset": 2907516,
      "target": 34962
    },
    {
      "buffer": 0,
      "byteLength": 3072,
      "byteOffset": 2910588,
      "target": 34962
    },
    {
      "buffer": 0,
      "byteLength": 2048,
      "byteOffset": 2913660,
      "target": 34962
    }
  ],
  "buffers": [
    {
      "byteLength": 2915708,
      "uri": "glass_cabinet_greywash.bin"
    }
  ],
  "images": [
    {
      "uri": "T_cabinet_greywash_baseColor.png"
    },
    {
      "uri": "T_cabinet_greywash_occlusionRoughnessMetallic.png"
    },
    {
      "uri": "T_cabinet_greywash_normal.png"
    },
    {
      "uri": "T_glass_baseColor.png"
    },
    {
      "uri": "T_glass_occlusionRoughnessMetallic.png"
    },
    {
      "uri": "T_glass_normal.png"
    }
  ],
  "materials": [
    {
      "alphaMode": "OPAQUE",
      "name": "T_cabinet_greywash",
      "normalTexture": {
        "index": 2
      },
      "occlusionTexture": {
        "index": 1
      },
      "pbrMetallicRoughness": {
        "baseColorTexture": {
          "index": 0
        },
        "metallicRoughnessTexture": {
          "index": 1
        }
      }
    },
    {
      "alphaMode": "BLEND",
      "name": "T_glass",
      "normalTexture": {
        "index": 5
      },
      "occlusionTexture": {
        "index": 4
      },
      "pbrMetallicRoughness": {
        "baseColorTexture": {
          "index": 3
        },
        "metallicRoughnessTexture": {
          "index": 4
        }
      }
    }
  ],
  "meshes": [
    {
      "name": "main",
      "primitives": [
        {
          "attributes": {
            "NORMAL": 2,
            "POSITION": 1,
            "TEXCOORD_0": 3
          },
          "indices": 0,
          "material": 0,
          "mode": 4
        }
      ]
    },
    {
      "name": "main",
      "primitives": [
        {
          "attributes": {
            "NORMAL": 6,
            "POSITION": 5,
            "TEXCOORD_0": 7
          },
          "indices": 4,
          "material": 1,
          "mode": 4
        }
      ]
    }
  ],
  "nodes": [
    {
      "children": [
        1
      ],
      "name": "RootNode"
    },
    {
      "children": [
        2,
        3
      ],
      "name": "main"
    },
    {
      "mesh": 0,
      "name": "main"
    },
    {
      "mesh": 1,
      "name": "main"
    }
  ],
  "samplers": [
    {
      "magFilter": 9729,
      "minFilter": 9985,
      "wrapS": 10497,
      "wrapT": 10497
    }
  ],
  "scene": 0,
  "scenes": [
    {
      "name": "Scene",
      "nodes": [
        0
      ]
    }
  ],
  "textures": [
    {
      "sampler": 0,
      "source": 0
    },
    {
      "sampler": 0,
      "source": 1
    },
    {
      "sampler": 0,
      "source": 2
    },
    {
      "sampler": 0,
      "source": 3
    },
    {
      "sampler": 0,
      "source": 4
    },
    {
      "sampler": 0,
      "source": 5
    }
  ]
}