{
  "accessors": [
    {
      "bufferView": 0,
      "componentType": 5125,
      "count": 82950,
      "type": "SCALAR"
    },
    {
      "bufferView": 1,
      "componentType": 5126,
      "count": 16678,
      "max": [
        0.970972895622253,
        0.719962477684021,
        0.479999989271164
      ],
      "min": [
        -0.970972895622253,
        0.0,
        -0.479999989271164
      ],
      "type": "VEC3"
    },
    {
      "bufferView": 2,
      "componentType": 5126,
      "count": 16678,
      "type": "VEC3"
    },
    {
      "bufferView": 3,
      "componentType": 5126,
      "count": 16678,
      "type": "VEC2"
    }
  ],
  "asset": {
    "generator": "Substance Painter 6.1.1",
    "version": "2.0"
  },
  "bufferViews": [
    {
      "buffer": 0,
      "byteLength": 331800,
      "target": 34963
    },
    {
      "buffer": 0,
      "byteLength": 200136,
      "byteOffset": 331800,
      "target": 34962
    },
    {
      "buffer": 0,
      "byteLength": 200136,
      "byteOffset": 531936,
      "target": 34962
    },
    {
      "buffer": 0,
      "byteLength": 133424,
      "byteOffset": 732072,
      "target": 34962
    }
  ],
  "buffers": [
    {
      "byteLength": 865496,
      "uri": "play_bed.bin"
    }
  ],
  "images": [
    {
      "uri": "T_playbed_baseColor.png"
    },
    {
      "uri": "T_playbed_occlusionRoughnessMetallic.png"
    },
    {
      "uri": "T_playbed_normal.png"
    }
  ],
  "materials": [
    {
      "alphaMode": "OPAQUE",
      "name": "T_playbed",
      "normalTexture": {
        "index": 2
      },
      "occlusionTexture": {
        "index": 1
      },
      "pbrMetallicRoughness": {
        "baseColorTexture": {
          "index": 0
        },
        "metallicRoughnessTexture": {
          "index": 1
        }
      }
    }
  ],
  "meshes": [
    {
      "name": "Mesh22",
      "primitives": [
        {
          "attributes": {
            "NORMAL": 2,
            "POSITION": 1,
            "TEXCOORD_0": 3
          },
          "indices": 0,
          "material": 0,
          "mode": 4
        }
      ]
    }
  ],
  "nodes": [
    {
      "children": [
        1
      ],
      "name": "RootNode"
    },
    {
      "children": [
        2
      ],
      "name": "Mesh22"
    },
    {
      "mesh": 0,
      "name": "Mesh22"
    }
  ],
  "samplers": [
    {
      "magFilter": 9729,
      "minFilter": 9985,
      "wrapS": 10497,
      "wrapT": 10497
    }
  ],
  "scene": 0,
  "scenes": [
    {
      "name": "Scene",
      "nodes": [
        0
      ]
    }
  ],
  "textures": [
    {
      "sampler": 0,
      "source": 0
    },
    {
      "sampler": 0,
      "source": 1
    },
    {
      "sampler": 0,
      "source": 2
    }
  ]
}