{
  "accessors": [
    {
      "bufferView": 0,
      "componentType": 5125,
      "count": 49098,
      "type": "SCALAR"
    },
    {
      "bufferView": 1,
      "componentType": 5126,
      "count": 9788,
      "max": [
        0.379999995231628,
        2.60999965667725,
        0.100000068545341
      ],
      "min": [
        -0.379999995231628,
        0.0,
        -0.100000001490116
      ],
      "type": "VEC3"
    },
    {
      "bufferView": 2,
      "componentType": 5126,
      "count": 9788,
      "type": "VEC3"
    },
    {
      "bufferView": 3,
      "componentType": 5126,
      "count": 9788,
      "type": "VEC2"
    }
  ],
  "asset": {
    "generator": "Substance Painter 6.1.1",
    "version": "2.0"
  },
  "bufferViews": [
    {
      "buffer": 0,
      "byteLength": 196392,
      "target": 34963
    },
    {
      "buffer": 0,
      "byteLength": 117456,
      "byteOffset": 196392,
      "target": 34962
    },
    {
      "buffer": 0,
      "byteLength": 117456,
      "byteOffset": 313848,
      "target": 34962
    },
    {
      "buffer": 0,
      "byteLength": 78304,
      "byteOffset": 431304,
      "target": 34962
    }
  ],
  "buffers": [
    {
      "byteLength": 509608,
      "uri": "laurent.bin"
    }
  ],
  "images": [
    {
      "uri": "Lambertsupport_baseColor.png"
    },
    {
      "uri": "Lambertsupport_occlusionRoughnessMetallic.png"
    },
    {
      "uri": "Lambertsupport_normal.png"
    }
  ],
  "materials": [
    {
      "alphaMode": "OPAQUE",
      "name": "Lambertsupport",
      "normalTexture": {
        "index": 2
      },
      "occlusionTexture": {
        "index": 1
      },
      "pbrMetallicRoughness": {
        "baseColorTexture": {
          "index": 0
        },
        "metallicRoughnessTexture": {
          "index": 1
        }
      }
    }
  ],
  "meshes": [
    {
      "name": "Lambert_support",
      "primitives": [
        {
          "attributes": {
            "NORMAL": 2,
            "POSITION": 1,
            "TEXCOORD_0": 3
          },
          "indices": 0,
          "material": 0,
          "mode": 4
        }
      ]
    }
  ],
  "nodes": [
    {
      "children": [
        1
      ],
      "name": "RootNode"
    },
    {
      "children": [
        2
      ],
      "name": "Lambert_support"
    },
    {
      "mesh": 0,
      "name": "Lambert_support"
    }
  ],
  "samplers": [
    {
      "magFilter": 9729,
      "minFilter": 9985,
      "wrapS": 10497,
      "wrapT": 10497
    }
  ],
  "scene": 0,
  "scenes": [
    {
      "name": "Scene",
      "nodes": [
        0
      ]
    }
  ],
  "textures": [
    {
      "sampler": 0,
      "source": 0
    },
    {
      "sampler": 0,
      "source": 1
    },
    {
      "sampler": 0,
      "source": 2
    }
  ]
}