{
  "accessors": [
    {
      "bufferView": 0,
      "componentType": 5125,
      "count": 2688,
      "type": "SCALAR"
    },
    {
      "bufferView": 1,
      "componentType": 5126,
      "count": 995,
      "max": [
        0.470072209835052,
        0.246325924992561,
        0.0553840845823288
      ],
      "min": [
        -0.0799276977777481,
        -0.185855850577354,
        -0.402615904808044
      ],
      "type": "VEC3"
    },
    {
      "bufferView": 2,
      "componentType": 5126,
      "count": 995,
      "type": "VEC3"
    },
    {
      "bufferView": 3,
      "componentType": 5126,
      "count": 995,
      "type": "VEC2"
    }
  ],
  "asset": {
    "generator": "Substance Painter 6.1.3",
    "version": "2.0"
  },
  "bufferViews": [
    {
      "buffer": 0,
      "byteLength": 10752,
      "target": 34963
    },
    {
      "buffer": 0,
      "byteLength": 11940,
      "byteOffset": 10752,
      "target": 34962
    },
    {
      "buffer": 0,
      "byteLength": 11940,
      "byteOffset": 22692,
      "target": 34962
    },
    {
      "buffer": 0,
      "byteLength": 7960,
      "byteOffset": 34632,
      "target": 34962
    }
  ],
  "buffers": [
    {
      "byteLength": 42592,
      "uri": "jigsaw_coffeetable.bin"
    }
  ],
  "images": [
    {
      "uri": "T_jjigsaw_baseColor.png"
    },
    {
      "uri": "T_jjigsaw_occlusionRoughnessMetallic.png"
    },
    {
      "uri": "T_jjigsaw_normal.png"
    }
  ],
  "materials": [
    {
      "alphaMode": "OPAQUE",
      "name": "T_jjigsaw",
      "normalTexture": {
        "index": 2
      },
      "occlusionTexture": {
        "index": 1
      },
      "pbrMetallicRoughness": {
        "baseColorTexture": {
          "index": 0
        },
        "metallicRoughnessTexture": {
          "index": 1
        }
      }
    }
  ],
  "meshes": [
    {
      "name": "Mesh2",
      "primitives": [
        {
          "attributes": {
            "NORMAL": 2,
            "POSITION": 1,
            "TEXCOORD_0": 3
          },
          "indices": 0,
          "material": 0,
          "mode": 4
        }
      ]
    }
  ],
  "nodes": [
    {
      "children": [
        1
      ],
      "name": "RootNode"
    },
    {
      "children": [
        2
      ],
      "name": "Mesh2",
      "translation": [
        -0.19507223367691,
        0.185043811798096,
        0.173615917563438
      ]
    },
    {
      "mesh": 0,
      "name": "Mesh2"
    }
  ],
  "samplers": [
    {
      "magFilter": 9729,
      "minFilter": 9985,
      "wrapS": 10497,
      "wrapT": 10497
    }
  ],
  "scene": 0,
  "scenes": [
    {
      "name": "Scene",
      "nodes": [
        0
      ]
    }
  ],
  "textures": [
    {
      "sampler": 0,
      "source": 0
    },
    {
      "sampler": 0,
      "source": 1
    },
    {
      "sampler": 0,
      "source": 2
    }
  ]
}