{
  "accessors": [
    {
      "bufferView": 0,
      "componentType": 5125,
      "count": 11160,
      "type": "SCALAR"
    },
    {
      "bufferView": 1,
      "componentType": 5126,
      "count": 3138,
      "max": [
        0.171249881386757,
        0.509999990463257,
        0.179238840937614
      ],
      "min": [
        -0.171249881386757,
        0.0,
        -0.179238840937614
      ],
      "type": "VEC3"
    },
    {
      "bufferView": 2,
      "componentType": 5126,
      "count": 3138,
      "type": "VEC3"
    },
    {
      "bufferView": 3,
      "componentType": 5126,
      "count": 3138,
      "type": "VEC2"
    }
  ],
  "asset": {
    "generator": "Substance Painter 6.1.2",
    "version": "2.0"
  },
  "bufferViews": [
    {
      "buffer": 0,
      "byteLength": 44640,
      "target": 34963
    },
    {
      "buffer": 0,
      "byteLength": 37656,
      "byteOffset": 44640,
      "target": 34962
    },
    {
      "buffer": 0,
      "byteLength": 37656,
      "byteOffset": 82296,
      "target": 34962
    },
    {
      "buffer": 0,
      "byteLength": 25104,
      "byteOffset": 119952,
      "target": 34962
    }
  ],
  "buffers": [
    {
      "byteLength": 145056,
      "uri": "marble_tray.bin"
    }
  ],
  "images": [
    {
      "uri": "T_marbletray_baseColor.png"
    },
    {
      "uri": "T_marbletray_occlusionRoughnessMetallic.png"
    },
    {
      "uri": "T_marbletray_normal.png"
    }
  ],
  "materials": [
    {
      "alphaMode": "OPAQUE",
      "name": "T_marbletray",
      "normalTexture": {
        "index": 2
      },
      "occlusionTexture": {
        "index": 1
      },
      "pbrMetallicRoughness": {
        "baseColorTexture": {
          "index": 0
        },
        "metallicRoughnessTexture": {
          "index": 1
        }
      }
    }
  ],
  "meshes": [
    {
      "name": "Mesh",
      "primitives": [
        {
          "attributes": {
            "NORMAL": 2,
            "POSITION": 1,
            "TEXCOORD_0": 3
          },
          "indices": 0,
          "material": 0,
          "mode": 4
        }
      ]
    }
  ],
  "nodes": [
    {
      "children": [
        1
      ],
      "name": "RootNode"
    },
    {
      "children": [
        2
      ],
      "name": "Mesh"
    },
    {
      "mesh": 0,
      "name": "Mesh"
    }
  ],
  "samplers": [
    {
      "magFilter": 9729,
      "minFilter": 9985,
      "wrapS": 10497,
      "wrapT": 10497
    }
  ],
  "scene": 0,
  "scenes": [
    {
      "name": "Scene",
      "nodes": [
        0
      ]
    }
  ],
  "textures": [
    {
      "sampler": 0,
      "source": 0
    },
    {
      "sampler": 0,
      "source": 1
    },
    {
      "sampler": 0,
      "source": 2
    }
  ]
}