{
  "accessors": [
    {
      "bufferView": 0,
      "componentType": 5125,
      "count": 14220,
      "type": "SCALAR"
    },
    {
      "bufferView": 1,
      "componentType": 5126,
      "count": 2886,
      "max": [
        0.450299561023712,
        0.449999988079071,
        0.450299680233002
      ],
      "min": [
        -0.450299561023712,
        1.49011611938477e-08,
        -0.450299680233002
      ],
      "type": "VEC3"
    },
    {
      "bufferView": 2,
      "componentType": 5126,
      "count": 2886,
      "type": "VEC3"
    },
    {
      "bufferView": 3,
      "componentType": 5126,
      "count": 2886,
      "type": "VEC2"
    }
  ],
  "asset": {
    "generator": "Substance Painter 6.1.3",
    "version": "2.0"
  },
  "bufferViews": [
    {
      "buffer": 0,
      "byteLength": 56880,
      "target": 34963
    },
    {
      "buffer": 0,
      "byteLength": 34632,
      "byteOffset": 56880,
      "target": 34962
    },
    {
      "buffer": 0,
      "byteLength": 34632,
      "byteOffset": 91512,
      "target": 34962
    },
    {
      "buffer": 0,
      "byteLength": 23088,
      "byteOffset": 126144,
      "target": 34962
    }
  ],
  "buffers": [
    {
      "byteLength": 149232,
      "uri": "roundoak_coffeetable.bin"
    }
  ],
  "images": [
    {
      "uri": "T_roundoak_baseColor.png"
    },
    {
      "uri": "T_roundoak_occlusionRoughnessMetallic.png"
    },
    {
      "uri": "T_roundoak_normal.png"
    }
  ],
  "materials": [
    {
      "alphaMode": "OPAQUE",
      "name": "T_roundoak",
      "normalTexture": {
        "index": 2
      },
      "occlusionTexture": {
        "index": 1
      },
      "pbrMetallicRoughness": {
        "baseColorTexture": {
          "index": 0
        },
        "metallicRoughnessTexture": {
          "index": 1
        }
      }
    }
  ],
  "meshes": [
    {
      "name": "roundoak",
      "primitives": [
        {
          "attributes": {
            "NORMAL": 2,
            "POSITION": 1,
            "TEXCOORD_0": 3
          },
          "indices": 0,
          "material": 0,
          "mode": 4
        }
      ]
    }
  ],
  "nodes": [
    {
      "children": [
        1
      ],
      "name": "RootNode"
    },
    {
      "children": [
        2
      ],
      "name": "roundoak"
    },
    {
      "mesh": 0,
      "name": "roundoak"
    }
  ],
  "samplers": [
    {
      "magFilter": 9729,
      "minFilter": 9985,
      "wrapS": 10497,
      "wrapT": 10497
    }
  ],
  "scene": 0,
  "scenes": [
    {
      "name": "Scene",
      "nodes": [
        0
      ]
    }
  ],
  "textures": [
    {
      "sampler": 0,
      "source": 0
    },
    {
      "sampler": 0,
      "source": 1
    },
    {
      "sampler": 0,
      "source": 2
    }
  ]
}