{
  "accessors": [
    {
      "bufferView": 0,
      "componentType": 5125,
      "count": 13248,
      "type": "SCALAR"
    },
    {
      "bufferView": 1,
      "componentType": 5126,
      "count": 4943,
      "max": [
        0.880503118038177,
        1.0,
        0.880503118038177
      ],
      "min": [
        -0.880503118038177,
        -1.0,
        -0.880503177642822
      ],
      "type": "VEC3"
    },
    {
      "bufferView": 2,
      "componentType": 5126,
      "count": 4943,
      "type": "VEC3"
    },
    {
      "bufferView": 3,
      "componentType": 5126,
      "count": 4943,
      "type": "VEC2"
    }
  ],
  "asset": {
    "generator": "Substance Painter 2019.2.3",
    "version": "2.0"
  },
  "bufferViews": [
    {
      "buffer": 0,
      "byteLength": 52992,
      "target": 34963
    },
    {
      "buffer": 0,
      "byteLength": 59316,
      "byteOffset": 52992,
      "target": 34962
    },
    {
      "buffer": 0,
      "byteLength": 59316,
      "byteOffset": 112308,
      "target": 34962
    },
    {
      "buffer": 0,
      "byteLength": 39544,
      "byteOffset": 171624,
      "target": 34962
    }
  ],
  "buffers": [
    {
      "byteLength": 211168,
      "uri": "androgyne.bin"
    }
  ],
  "images": [
    {
      "uri": "T_androgyne_baseColor.png"
    },
    {
      "uri": "T_androgyne_occlusionRoughnessMetallic.png"
    },
    {
      "uri": "T_androgyne_normal.png"
    }
  ],
  "materials": [
    {
      "alphaMode": "OPAQUE",
      "name": "T_androgyne",
      "normalTexture": {
        "index": 2
      },
      "occlusionTexture": {
        "index": 1
      },
      "pbrMetallicRoughness": {
        "baseColorTexture": {
          "index": 0
        },
        "metallicRoughnessTexture": {
          "index": 1
        }
      }
    }
  ],
  "meshes": [
    {
      "name": "Mesh",
      "primitives": [
        {
          "attributes": {
            "NORMAL": 2,
            "POSITION": 1,
            "TEXCOORD_0": 3
          },
          "indices": 0,
          "material": 0,
          "mode": 4
        }
      ]
    }
  ],
  "nodes": [
    {
      "children": [
        1
      ],
      "name": "root",
      "scale": [
        0.238499999046326,
        0.238499999046326,
        0.238499999046326
      ],
      "translation": [
        0.0,
        0.238499984145164,
        2.98023223876953e-08
      ]
    },
    {
      "children": [
        2
      ],
      "name": "Mesh"
    },
    {
      "mesh": 0,
      "name": "Mesh"
    }
  ],
  "samplers": [
    {
      "magFilter": 9729,
      "minFilter": 9985,
      "wrapS": 10497,
      "wrapT": 10497
    }
  ],
  "scene": 0,
  "scenes": [
    {
      "name": "Scene",
      "nodes": [
        0
      ]
    }
  ],
  "textures": [
    {
      "sampler": 0,
      "source": 0
    },
    {
      "sampler": 0,
      "source": 1
    },
    {
      "sampler": 0,
      "source": 2
    }
  ]
}