{
  "accessors": [
    {
      "bufferView": 0,
      "componentType": 5125,
      "count": 390702,
      "type": "SCALAR"
    },
    {
      "bufferView": 1,
      "componentType": 5126,
      "count": 78317,
      "max": [
        0.257717728614807,
        1.0399512052536,
        0.327044785022736
      ],
      "min": [
        -0.258209109306335,
        4.98294830322266e-05,
        -0.32989913225174
      ],
      "type": "VEC3"
    },
    {
      "bufferView": 2,
      "componentType": 5126,
      "count": 78317,
      "type": "VEC3"
    },
    {
      "bufferView": 3,
      "componentType": 5126,
      "count": 78317,
      "type": "VEC2"
    },
    {
      "bufferView": 4,
      "componentType": 5125,
      "count": 27552,
      "type": "SCALAR"
    },
    {
      "bufferView": 5,
      "componentType": 5126,
      "count": 5279,
      "max": [
        0.255318939685822,
        0.942675232887268,
        0.314679622650146
      ],
      "min": [
        -0.25527086853981,
        0.0547358691692352,
        -0.311086118221283
      ],
      "type": "VEC3"
    },
    {
      "bufferView": 6,
      "componentType": 5126,
      "count": 5279,
      "type": "VEC3"
    },
    {
      "bufferView": 7,
      "componentType": 5126,
      "count": 5279,
      "type": "VEC2"
    }
  ],
  "asset": {
    "generator": "Substance Painter 6.2.1",
    "version": "2.0"
  },
  "bufferViews": [
    {
      "buffer": 0,
      "byteLength": 1562808,
      "target": 34963
    },
    {
      "buffer": 0,
      "byteLength": 939804,
      "byteOffset": 1562808,
      "target": 34962
    },
    {
      "buffer": 0,
      "byteLength": 939804,
      "byteOffset": 2502612,
      "target": 34962
    },
    {
      "buffer": 0,
      "byteLength": 626536,
      "byteOffset": 3442416,
      "target": 34962
    },
    {
      "buffer": 0,
      "byteLength": 110208,
      "byteOffset": 4068952,
      "target": 34963
    },
    {
      "buffer": 0,
      "byteLength": 63348,
      "byteOffset": 4179160,
      "target": 34962
    },
    {
      "buffer": 0,
      "byteLength": 63348,
      "byteOffset": 4242508,
      "target": 34962
    },
    {
      "buffer": 0,
      "byteLength": 42232,
      "byteOffset": 4305856,
      "target": 34962
    }
  ],
  "buffers": [
    {
      "byteLength": 4348088,
      "uri": "ricoh_copier.bin"
    }
  ],
  "images": [
    {
      "uri": "T_frame_baseColor.png"
    },
    {
      "uri": "T_frame_occlusionRoughnessMetallic.png"
    },
    {
      "uri": "T_frame_normal.png"
    },
    {
      "uri": "T_panels_baseColor.png"
    },
    {
      "uri": "T_panels_occlusionRoughnessMetallic.png"
    },
    {
      "uri": "T_panels_normal.png"
    }
  ],
  "materials": [
    {
      "alphaMode": "OPAQUE",
      "name": "T_frame",
      "normalTexture": {
        "index": 2
      },
      "occlusionTexture": {
        "index": 1
      },
      "pbrMetallicRoughness": {
        "baseColorTexture": {
          "index": 0
        },
        "metallicRoughnessTexture": {
          "index": 1
        }
      }
    },
    {
      "alphaMode": "OPAQUE",
      "name": "T_panels",
      "normalTexture": {
        "index": 5
      },
      "occlusionTexture": {
        "index": 4
      },
      "pbrMetallicRoughness": {
        "baseColorTexture": {
          "index": 3
        },
        "metallicRoughnessTexture": {
          "index": 4
        }
      }
    }
  ],
  "meshes": [
    {
      "name": "Mesh32",
      "primitives": [
        {
          "attributes": {
            "NORMAL": 2,
            "POSITION": 1,
            "TEXCOORD_0": 3
          },
          "indices": 0,
          "material": 0,
          "mode": 4
        }
      ]
    },
    {
      "name": "Mesh32",
      "primitives": [
        {
          "attributes": {
            "NORMAL": 6,
            "POSITION": 5,
            "TEXCOORD_0": 7
          },
          "indices": 4,
          "material": 1,
          "mode": 4
        }
      ]
    }
  ],
  "nodes": [
    {
      "children": [
        1
      ],
      "name": "RootNode"
    },
    {
      "children": [
        2,
        3
      ],
      "name": "Mesh32"
    },
    {
      "mesh": 0,
      "name": "Mesh32"
    },
    {
      "mesh": 1,
      "name": "Mesh32"
    }
  ],
  "samplers": [
    {
      "magFilter": 9729,
      "minFilter": 9985,
      "wrapS": 10497,
      "wrapT": 10497
    }
  ],
  "scene": 0,
  "scenes": [
    {
      "name": "Scene",
      "nodes": [
        0
      ]
    }
  ],
  "textures": [
    {
      "sampler": 0,
      "source": 0
    },
    {
      "sampler": 0,
      "source": 1
    },
    {
      "sampler": 0,
      "source": 2
    },
    {
      "sampler": 0,
      "source": 3
    },
    {
      "sampler": 0,
      "source": 4
    },
    {
      "sampler": 0,
      "source": 5
    }
  ]
}