{
  "accessors": [
    {
      "bufferView": 0,
      "componentType": 5125,
      "count": 431700,
      "type": "SCALAR"
    },
    {
      "bufferView": 1,
      "componentType": 5126,
      "count": 83357,
      "max": [
        0.500853717327118,
        1.0,
        0.55631148815155
      ],
      "min": [
        -0.500853717327118,
        -0.000688225030899048,
        -0.500695049762726
      ],
      "type": "VEC3"
    },
    {
      "bufferView": 2,
      "componentType": 5126,
      "count": 83357,
      "type": "VEC3"
    },
    {
      "bufferView": 3,
      "componentType": 5126,
      "count": 83357,
      "type": "VEC2"
    }
  ],
  "asset": {
    "generator": "Substance Painter 6.1.3",
    "version": "2.0"
  },
  "bufferViews": [
    {
      "buffer": 0,
      "byteLength": 1726800,
      "target": 34963
    },
    {
      "buffer": 0,
      "byteLength": 1000284,
      "byteOffset": 1726800,
      "target": 34962
    },
    {
      "buffer": 0,
      "byteLength": 1000284,
      "byteOffset": 2727084,
      "target": 34962
    },
    {
      "buffer": 0,
      "byteLength": 666856,
      "byteOffset": 3727368,
      "target": 34962
    }
  ],
  "buffers": [
    {
      "byteLength": 4394224,
      "uri": "console_orient_white.bin"
    }
  ],
  "images": [
    {
      "uri": "T_consoleoriwhite_baseColor.png"
    },
    {
      "uri": "T_consoleoriwhite_occlusionRoughnessMetallic.png"
    },
    {
      "uri": "T_consoleoriwhite_normal.png"
    }
  ],
  "materials": [
    {
      "alphaMode": "OPAQUE",
      "name": "T_consoleoriwhite",
      "normalTexture": {
        "index": 2
      },
      "occlusionTexture": {
        "index": 1
      },
      "pbrMetallicRoughness": {
        "baseColorTexture": {
          "index": 0
        },
        "metallicRoughnessTexture": {
          "index": 1
        }
      }
    }
  ],
  "meshes": [
    {
      "name": "mesh2",
      "primitives": [
        {
          "attributes": {
            "NORMAL": 2,
            "POSITION": 1,
            "TEXCOORD_0": 3
          },
          "indices": 0,
          "material": 0,
          "mode": 4
        }
      ]
    }
  ],
  "nodes": [
    {
      "children": [
        1
      ],
      "name": "RootNode"
    },
    {
      "children": [
        2
      ],
      "name": "mesh2",
      "scale": [
        1.20000004768372,
        1.0,
        0.300000011920929
      ]
    },
    {
      "mesh": 0,
      "name": "mesh2"
    }
  ],
  "samplers": [
    {
      "magFilter": 9729,
      "minFilter": 9985,
      "wrapS": 10497,
      "wrapT": 10497
    }
  ],
  "scene": 0,
  "scenes": [
    {
      "name": "Scene",
      "nodes": [
        0
      ]
    }
  ],
  "textures": [
    {
      "sampler": 0,
      "source": 0
    },
    {
      "sampler": 0,
      "source": 1
    },
    {
      "sampler": 0,
      "source": 2
    }
  ]
}