{
  "accessors": [
    {
      "bufferView": 0,
      "componentType": 5125,
      "count": 67620,
      "type": "SCALAR"
    },
    {
      "bufferView": 1,
      "componentType": 5126,
      "count": 16891,
      "max": [
        0.756255567073822,
        1.0,
        0.840161919593811
      ],
      "min": [
        -0.756255567073822,
        -1.0,
        -0.840161859989166
      ],
      "type": "VEC3"
    },
    {
      "bufferView": 2,
      "componentType": 5126,
      "count": 16891,
      "type": "VEC3"
    },
    {
      "bufferView": 3,
      "componentType": 5126,
      "count": 16891,
      "type": "VEC2"
    }
  ],
  "asset": {
    "generator": "Substance Painter 2019.2.3",
    "version": "2.0"
  },
  "bufferViews": [
    {
      "buffer": 0,
      "byteLength": 270480,
      "target": 34963
    },
    {
      "buffer": 0,
      "byteLength": 202692,
      "byteOffset": 270480,
      "target": 34962
    },
    {
      "buffer": 0,
      "byteLength": 202692,
      "byteOffset": 473172,
      "target": 34962
    },
    {
      "buffer": 0,
      "byteLength": 135128,
      "byteOffset": 675864,
      "target": 34962
    }
  ],
  "buffers": [
    {
      "byteLength": 810992,
      "uri": "beyl.bin"
    }
  ],
  "images": [
    {
      "uri": "T_beyl_baseColor.png"
    },
    {
      "uri": "T_beyl_occlusionRoughnessMetallic.png"
    },
    {
      "uri": "T_beyl_normal.png"
    }
  ],
  "materials": [
    {
      "alphaMode": "OPAQUE",
      "name": "T_beyl",
      "normalTexture": {
        "index": 2
      },
      "occlusionTexture": {
        "index": 1
      },
      "pbrMetallicRoughness": {
        "baseColorTexture": {
          "index": 0
        },
        "metallicRoughnessTexture": {
          "index": 1
        }
      }
    }
  ],
  "meshes": [
    {
      "name": "beyl_gltf",
      "primitives": [
        {
          "attributes": {
            "NORMAL": 2,
            "POSITION": 1,
            "TEXCOORD_0": 3
          },
          "indices": 0,
          "material": 0,
          "mode": 4
        }
      ]
    }
  ],
  "nodes": [
    {
      "children": [
        1
      ],
      "name": "root",
      "scale": [
        0.494019150733948,
        0.494019150733948,
        0.494019150733948
      ],
      "translation": [
        5.96046447753906e-08,
        0.494019150733948,
        0.00229901075363159
      ]
    },
    {
      "children": [
        2
      ],
      "name": "beyl_gltf"
    },
    {
      "mesh": 0,
      "name": "beyl_gltf"
    }
  ],
  "samplers": [
    {
      "magFilter": 9729,
      "minFilter": 9985,
      "wrapS": 10497,
      "wrapT": 10497
    }
  ],
  "scene": 0,
  "scenes": [
    {
      "name": "Scene",
      "nodes": [
        0
      ]
    }
  ],
  "textures": [
    {
      "sampler": 0,
      "source": 0
    },
    {
      "sampler": 0,
      "source": 1
    },
    {
      "sampler": 0,
      "source": 2
    }
  ]
}