{
  "accessors": [
    {
      "bufferView": 0,
      "componentType": 5125,
      "count": 116772,
      "type": "SCALAR"
    },
    {
      "bufferView": 1,
      "componentType": 5126,
      "count": 20988,
      "max": [
        0.940826833248138,
        1.0,
        0.598733365535736
      ],
      "min": [
        -0.940826833248138,
        -1.0,
        -0.598733365535736
      ],
      "type": "VEC3"
    },
    {
      "bufferView": 2,
      "componentType": 5126,
      "count": 20988,
      "type": "VEC3"
    },
    {
      "bufferView": 3,
      "componentType": 5126,
      "count": 20988,
      "type": "VEC2"
    }
  ],
  "asset": {
    "generator": "Substance Painter 2019.3.3",
    "version": "2.0"
  },
  "bufferViews": [
    {
      "buffer": 0,
      "byteLength": 467088,
      "target": 34963
    },
    {
      "buffer": 0,
      "byteLength": 251856,
      "byteOffset": 467088,
      "target": 34962
    },
    {
      "buffer": 0,
      "byteLength": 251856,
      "byteOffset": 718944,
      "target": 34962
    },
    {
      "buffer": 0,
      "byteLength": 167904,
      "byteOffset": 970800,
      "target": 34962
    }
  ],
  "buffers": [
    {
      "byteLength": 1138704,
      "uri": "mouse_stool.bin"
    }
  ],
  "images": [
    {
      "uri": "T_mousestool_baseColor.png"
    },
    {
      "uri": "T_mousestool_occlusionRoughnessMetallic.png"
    },
    {
      "uri": "T_mousestool_normal.png"
    }
  ],
  "materials": [
    {
      "alphaMode": "OPAQUE",
      "name": "T_mousestool",
      "normalTexture": {
        "index": 2
      },
      "occlusionTexture": {
        "index": 1
      },
      "pbrMetallicRoughness": {
        "baseColorTexture": {
          "index": 0
        },
        "metallicRoughnessTexture": {
          "index": 1
        }
      }
    }
  ],
  "meshes": [
    {
      "name": "mouse_stool",
      "primitives": [
        {
          "attributes": {
            "NORMAL": 2,
            "POSITION": 1,
            "TEXCOORD_0": 3
          },
          "indices": 0,
          "material": 0,
          "mode": 4
        }
      ]
    }
  ],
  "nodes": [
    {
      "children": [
        1
      ],
      "name": "root",
      "scale": [
        0.228597819805145,
        0.228597819805145,
        0.228597819805145
      ],
      "translation": [
        0.0,
        0.22850838303566,
        0.0
      ]
    },
    {
      "children": [
        2
      ],
      "name": "mouse_stool"
    },
    {
      "mesh": 0,
      "name": "mouse_stool"
    }
  ],
  "samplers": [
    {
      "magFilter": 9729,
      "minFilter": 9985,
      "wrapS": 10497,
      "wrapT": 10497
    }
  ],
  "scene": 0,
  "scenes": [
    {
      "name": "Scene",
      "nodes": [
        0
      ]
    }
  ],
  "textures": [
    {
      "sampler": 0,
      "source": 0
    },
    {
      "sampler": 0,
      "source": 1
    },
    {
      "sampler": 0,
      "source": 2
    }
  ]
}