{
    "asset" : {
        "generator" : "Khronos glTF Blender I/O v1.1.46",
        "version" : "2.0"
    },
    "scene" : 0,
    "scenes" : [
        {
            "name" : "Scene",
            "nodes" : [
                2
            ]
        }
    ],
    "nodes" : [
        {
            "mesh" : 0,
            "name" : "Mesh.001"
        },
        {
            "children" : [
                0
            ],
            "name" : "Mesh"
        },
        {
            "children" : [
                1
            ],
            "name" : "root",
            "rotation" : [
                0.7071068286895752,
                0,
                0,
                0.7071067094802856
            ],
            "scale" : [
                0.26764702796936035,
                0.16667136549949646,
                0.1997254490852356
            ],
            "translation" : [
                0,
                0.19787117838859558,
                0
            ]
        }
    ],
    "materials" : [
        {
            "emissiveFactor" : [
                0,
                0,
                0
            ],
            "name" : "T_johanna",
            "normalTexture" : {
                "index" : 0,
                "texCoord" : 0
            },
            "occlusionTexture" : {
                "index" : 1,
                "texCoord" : 0
            },
            "pbrMetallicRoughness" : {
                "baseColorTexture" : {
                    "index" : 2,
                    "texCoord" : 0
                },
                "metallicRoughnessTexture" : {
                    "index" : 1,
                    "texCoord" : 0
                }
            }
        }
    ],
    "meshes" : [
        {
            "name" : "Mesh",
            "primitives" : [
                {
                    "attributes" : {
                        "POSITION" : 0,
                        "NORMAL" : 1,
                        "TEXCOORD_0" : 2
                    },
                    "indices" : 3,
                    "material" : 0
                }
            ]
        }
    ],
    "textures" : [
        {
            "source" : 0
        },
        {
            "source" : 1
        },
        {
            "source" : 2
        }
    ],
    "images" : [
        {
            "bufferView" : 4,
            "mimeType" : "image/png",
            "name" : "T_johanna_normal"
        },
        {
            "bufferView" : 5,
            "mimeType" : "image/png",
            "name" : "T_johanna_occlusionRoughnessMetallic"
        },
        {
            "bufferView" : 6,
            "mimeType" : "image/png",
            "name" : "T_johanna_baseColor"
        }
    ],
    "accessors" : [
        {
            "bufferView" : 0,
            "componentType" : 5126,
            "count" : 20604,
            "max" : [
                1,
                0.6835599541664124,
                0.9154297113418579
            ],
            "min" : [
                -1,
                -0.6835599541664124,
                -0.9154297113418579
            ],
            "type" : "VEC3"
        },
        {
            "bufferView" : 1,
            "componentType" : 5126,
            "count" : 20604,
            "type" : "VEC3"
        },
        {
            "bufferView" : 2,
            "componentType" : 5126,
            "count" : 20604,
            "type" : "VEC2"
        },
        {
            "bufferView" : 3,
            "componentType" : 5123,
            "count" : 88926,
            "type" : "SCALAR"
        }
    ],
    "bufferViews" : [
        {
            "buffer" : 0,
            "byteLength" : 247248,
            "byteOffset" : 0
        },
        {
            "buffer" : 0,
            "byteLength" : 247248,
            "byteOffset" : 247248
        },
        {
            "buffer" : 0,
            "byteLength" : 164832,
            "byteOffset" : 494496
        },
        {
            "buffer" : 0,
            "byteLength" : 177852,
            "byteOffset" : 659328
        },
        {
            "buffer" : 0,
            "byteLength" : 707373,
            "byteOffset" : 837180
        },
        {
            "buffer" : 0,
            "byteLength" : 226947,
            "byteOffset" : 1544556
        },
        {
            "buffer" : 0,
            "byteLength" : 334644,
            "byteOffset" : 1771504
        }
    ],
    "buffers" : [
        {
            "byteLength" : 2106148,
            "uri" : "data:application/octet-stream;base64,"
        }
    ]
}
