{
  "accessors": [
    {
      "bufferView": 0,
      "componentType": 5125,
      "count": 4224,
      "type": "SCALAR"
    },
    {
      "bufferView": 1,
      "componentType": 5126,
      "count": 896,
      "max": [
        0.999897956848145,
        0.0266811903566122,
        0.776011109352112
      ],
      "min": [
        -0.999721348285675,
        -0.00436345022171736,
        -0.7758549451828
      ],
      "type": "VEC3"
    },
    {
      "bufferView": 2,
      "componentType": 5126,
      "count": 896,
      "type": "VEC3"
    },
    {
      "bufferView": 3,
      "componentType": 5126,
      "count": 896,
      "type": "VEC2"
    }
  ],
  "asset": {
    "generator": "Substance Painter 2019.3.3",
    "version": "2.0"
  },
  "bufferViews": [
    {
      "buffer": 0,
      "byteLength": 16896,
      "target": 34963
    },
    {
      "buffer": 0,
      "byteLength": 10752,
      "byteOffset": 16896,
      "target": 34962
    },
    {
      "buffer": 0,
      "byteLength": 10752,
      "byteOffset": 27648,
      "target": 34962
    },
    {
      "buffer": 0,
      "byteLength": 7168,
      "byteOffset": 38400,
      "target": 34962
    }
  ],
  "buffers": [
    {
      "byteLength": 45568,
      "uri": "circle_print_rug.bin"
    }
  ],
  "images": [
    {
      "uri": "T_circlepatterncarpet_baseColor.png"
    },
    {
      "uri": "T_circlepatterncarpet_occlusionRoughnessMetallic.png"
    },
    {
      "uri": "T_circlepatterncarpet_normal.png"
    }
  ],
  "materials": [
    {
      "alphaMode": "OPAQUE",
      "name": "T_circlepatterncarpet",
      "normalTexture": {
        "index": 2
      },
      "occlusionTexture": {
        "index": 1
      },
      "pbrMetallicRoughness": {
        "baseColorTexture": {
          "index": 0
        },
        "metallicRoughnessTexture": {
          "index": 1
        }
      }
    }
  ],
  "meshes": [
    {
      "name": "rug",
      "primitives": [
        {
          "attributes": {
            "NORMAL": 2,
            "POSITION": 1,
            "TEXCOORD_0": 3
          },
          "indices": 0,
          "material": 0,
          "mode": 4
        }
      ]
    }
  ],
  "nodes": [
    {
      "children": [
        1
      ],
      "name": "root",
      "scale": [
        1.60769462585449,
        1.60769462585449,
        1.60769462585449
      ],
      "translation": [
        0.0,
        0.015029608272016,
        0.0
      ]
    },
    {
      "children": [
        2
      ],
      "name": "rug"
    },
    {
      "mesh": 0,
      "name": "rug"
    }
  ],
  "samplers": [
    {
      "magFilter": 9729,
      "minFilter": 9985,
      "wrapS": 10497,
      "wrapT": 10497
    }
  ],
  "scene": 0,
  "scenes": [
    {
      "name": "Scene",
      "nodes": [
        0
      ]
    }
  ],
  "textures": [
    {
      "sampler": 0,
      "source": 0
    },
    {
      "sampler": 0,
      "source": 1
    },
    {
      "sampler": 0,
      "source": 2
    }
  ]
}