{
  "accessors": [
    {
      "bufferView": 0,
      "componentType": 5125,
      "count": 210600,
      "type": "SCALAR"
    },
    {
      "bufferView": 1,
      "componentType": 5126,
      "count": 72310,
      "max": [
        0.780420005321503,
        1.0,
        0.788313865661621
      ],
      "min": [
        -0.780419886112213,
        -1.0,
        -0.788313865661621
      ],
      "type": "VEC3"
    },
    {
      "bufferView": 2,
      "componentType": 5126,
      "count": 72310,
      "type": "VEC3"
    },
    {
      "bufferView": 3,
      "componentType": 5126,
      "count": 72310,
      "type": "VEC2"
    }
  ],
  "asset": {
    "generator": "Substance Painter 2019.2.3",
    "version": "2.0"
  },
  "bufferViews": [
    {
      "buffer": 0,
      "byteLength": 842400,
      "target": 34963
    },
    {
      "buffer": 0,
      "byteLength": 867720,
      "byteOffset": 842400,
      "target": 34962
    },
    {
      "buffer": 0,
      "byteLength": 867720,
      "byteOffset": 1710120,
      "target": 34962
    },
    {
      "buffer": 0,
      "byteLength": 578480,
      "byteOffset": 2577840,
      "target": 34962
    }
  ],
  "buffers": [
    {
      "byteLength": 3156320,
      "uri": "linep1000.bin"
    }
  ],
  "images": [
    {
      "uri": "T_linep1000_baseColor.png"
    },
    {
      "uri": "T_linep1000_occlusionRoughnessMetallic.png"
    },
    {
      "uri": "T_linep1000_normal.png"
    }
  ],
  "materials": [
    {
      "alphaMode": "OPAQUE",
      "name": "T_linep1000",
      "normalTexture": {
        "index": 2
      },
      "occlusionTexture": {
        "index": 1
      },
      "pbrMetallicRoughness": {
        "baseColorTexture": {
          "index": 0
        },
        "metallicRoughnessTexture": {
          "index": 1
        }
      }
    }
  ],
  "meshes": [
    {
      "name": "linep1000",
      "primitives": [
        {
          "attributes": {
            "NORMAL": 2,
            "POSITION": 1,
            "TEXCOORD_0": 3
          },
          "indices": 0,
          "material": 0,
          "mode": 4
        }
      ]
    }
  ],
  "nodes": [
    {
      "children": [
        1
      ],
      "name": "root",
      "scale": [
        0.484697818756104,
        0.484697818756104,
        0.484697818756104
      ],
      "translation": [
        0.000209003686904907,
        0.484697818756104,
        -0.00246566534042358
      ]
    },
    {
      "children": [
        2
      ],
      "name": "linep1000"
    },
    {
      "mesh": 0,
      "name": "linep1000"
    }
  ],
  "samplers": [
    {
      "magFilter": 9729,
      "minFilter": 9985,
      "wrapS": 10497,
      "wrapT": 10497
    }
  ],
  "scene": 0,
  "scenes": [
    {
      "name": "Scene",
      "nodes": [
        0
      ]
    }
  ],
  "textures": [
    {
      "sampler": 0,
      "source": 0
    },
    {
      "sampler": 0,
      "source": 1
    },
    {
      "sampler": 0,
      "source": 2
    }
  ]
}