{"asset":{"version":"2.0","generator":"babylon.js glTF exporter for 3dsmax 2020 v20200410.2"},"extensionsUsed":["KHR_texture_transform"],"extensionsRequired":["KHR_texture_transform"],"scene":0,"scenes":[{"nodes":[0,9]}],"nodes":[{"children":[1,2,3,4,5,6,7,8],"translation":[-0.000517425535,0.4641599,0.03254545],"name":"Sofa_LR"},{"mesh":0,"translation":[0.8994438,-0.3941599,-0.0336881839],"rotation":[0.0,0.7071068,0.0,0.7071067],"name":"SofaSide_LR"},{"mesh":1,"translation":[0.799166262,-0.460551322,0.242301151],"rotation":[0.0,0.7071068,0.0,0.7071067],"name":"SofaFoot_LR"},{"mesh":2,"translation":[0.49883166,-0.284159929,0.147231683],"rotation":[0.0,0.7071068,0.0,0.7071067],"name":"SofaCushionSide_LR"},{"mesh":3,"translation":[-0.000833778351,-0.284159929,0.129116148],"rotation":[0.0,0.7071068,0.0,0.7071067],"name":"SofaCushionMid_LR"},{"mesh":4,"translation":[-0.0008337664,-0.3941599,-0.03368823],"rotation":[0.0,0.7071068,0.0,0.7071067],"name":"SofaBottom_LR"},{"mesh":5,"translation":[-0.000833778351,-0.06415992,-0.378688276],"rotation":[0.0,0.7071068,0.0,0.7071067],"name":"SofaBackRest_LR"},{"mesh":6,"translation":[-0.000833778351,-0.394159883,-0.458688259],"rotation":[0.0,0.7071068,0.0,0.7071067],"name":"SofaBack_LR"},{"mesh":7,"translation":[0.885360837,-0.06366554,0.100966506],"rotation":[0.0,0.7071068,0.0,0.7071067],"name":"SofaArmRest_LR"},{"name":"Default light"}],"meshes":[{"primitives":[{"attributes":{"POSITION":1,"NORMAL":2,"TEXCOORD_0":3},"indices":0,"material":0}],"name":"SofaSide_LR"},{"primitives":[{"attributes":{"POSITION":5,"NORMAL":6,"TEXCOORD_0":7},"indices":4,"material":0}],"name":"SofaFoot_LR"},{"primitives":[{"attributes":{"POSITION":9,"NORMAL":10,"TEXCOORD_0":11},"indices":8,"material":0}],"name":"SofaCushionSide_LR"},{"primitives":[{"attributes":{"POSITION":13,"NORMAL":14,"TEXCOORD_0":15},"indices":12,"material":0}],"name":"SofaCushionMid_LR"},{"primitives":[{"attributes":{"POSITION":17,"NORMAL":18,"TEXCOORD_0":19},"indices":16,"material":0}],"name":"SofaBottom_LR"},{"primitives":[{"attributes":{"POSITION":21,"NORMAL":22,"TEXCOORD_0":23},"indices":20,"material":0}],"name":"SofaBackRest_LR"},{"primitives":[{"attributes":{"POSITION":25,"NORMAL":26,"TEXCOORD_0":27},"indices":24,"material":0}],"name":"SofaBack_LR"},{"primitives":[{"attributes":{"POSITION":29,"NORMAL":30,"TEXCOORD_0":31},"indices":28,"material":0}],"name":"SofaArmRest_LR"}],"accessors":[{"bufferView":0,"componentType":5123,"count":5328,"type":"SCALAR","name":"accessorIndices"},{"bufferView":1,"componentType":5126,"count":5328,"max":[0.425424725,0.4537884,0.104257353],"min":[-0.4253782,0.0,-1.90481257],"type":"VEC3","name":"accessorPositions"},{"bufferView":1,"byteOffset":63936,"componentType":5126,"count":5328,"type":"VEC3","name":"accessorNormals"},{"bufferView":2,"componentType":5126,"count":5328,"type":"VEC2","name":"accessorUVs"},{"bufferView":0,"byteOffset":10656,"componentType":5123,"count":888,"type":"SCALAR","name":"accessorIndices"},{"bufferView":1,"byteOffset":127872,"componentType":5126,"count":888,"max":[0.5965511,0.0663914159,0.07014942],"min":[-0.050088428,0.0,-1.67014945],"type":"VEC3","name":"accessorPositions"},{"bufferView":1,"byteOffset":138528,"componentType":5126,"count":888,"type":"VEC3","name":"accessorNormals"},{"bufferView":2,"byteOffset":42624,"componentType":5126,"count":888,"type":"VEC2","name":"accessorUVs"},{"bufferView":0,"byteOffset":12432,"componentType":5123,"count":5184,"type":"SCALAR","name":"accessorIndices"},{"bufferView":1,"byteOffset":149184,"componentType":5126,"count":5184,"max":[0.3056505,0.2560803,0.28405863],"min":[-0.311881185,9.536743E-09,-1.28338945],"type":"VEC3","name":"accessorPositions"},{"bufferView":1,"byteOffset":211392,"componentType":5126,"count":5184,"type":"VEC3","name":"accessorNormals"},{"bufferView":2,"byteOffset":49728,"componentType":5126,"count":5184,"type":"VEC2","name":"accessorUVs"},{"bufferView":0,"byteOffset":22800,"componentType":5123,"count":2352,"type":"SCALAR","name":"accessorIndices"},{"bufferView":1,"byteOffset":273600,"componentType":5126,"count":2352,"max":[0.287535,0.24870199,0.241659909],"min":[-0.3260297,0.0,-0.241659909],"type":"VEC3","name":"accessorPositions"},{"bufferView":1,"byteOffset":301824,"componentType":5126,"count":2352,"type":"VEC3","name":"accessorNormals"},{"bufferView":2,"byteOffset":91200,"componentType":5126,"count":2352,"type":"VEC2","name":"accessorUVs"},{"bufferView":0,"byteOffset":27504,"componentType":5123,"count":3060,"type":"SCALAR","name":"accessorIndices"},{"bufferView":1,"byteOffset":330048,"componentType":5126,"count":3060,"max":[0.288000971,0.110000007,0.777510643],"min":[-0.4281816,0.0,-0.777510643],"type":"VEC3","name":"accessorPositions"},{"bufferView":1,"byteOffset":366768,"componentType":5126,"count":3060,"type":"VEC3","name":"accessorNormals"},{"bufferView":2,"byteOffset":110016,"componentType":5126,"count":3060,"type":"VEC2","name":"accessorUVs"},{"bufferView":0,"byteOffset":33624,"componentType":5123,"count":3054,"type":"SCALAR","name":"accessorIndices"},{"bufferView":1,"byteOffset":403488,"componentType":5126,"count":3054,"max":[0.00695003476,0.5247113,0.961869657],"min":[-0.299611747,-0.186466381,-0.961869657],"type":"VEC3","name":"accessorPositions"},{"bufferView":1,"byteOffset":440136,"componentType":5126,"count":3054,"type":"VEC3","name":"accessorNormals"},{"bufferView":2,"byteOffset":134496,"componentType":5126,"count":3054,"type":"VEC2","name":"accessorUVs"},{"bufferView":0,"byteOffset":39732,"componentType":5123,"count":2688,"type":"SCALAR","name":"accessorIndices"},{"bufferView":1,"byteOffset":476784,"componentType":5126,"count":2688,"max":[3.81469718E-08,0.772489,0.8728127],"min":[-0.136999086,0.0,-0.8728127],"type":"VEC3","name":"accessorPositions"},{"bufferView":1,"byteOffset":509040,"componentType":5126,"count":2688,"type":"VEC3","name":"accessorNormals"},{"bufferView":2,"byteOffset":158928,"componentType":5126,"count":2688,"type":"VEC2","name":"accessorUVs"},{"bufferView":0,"byteOffset":45108,"componentType":5123,"count":3684,"type":"SCALAR","name":"accessorIndices"},{"bufferView":1,"byteOffset":541296,"componentType":5126,"count":3684,"max":[0.293494254,0.225159749,0.1525645],"min":[-0.293494254,-0.00562126143,-1.9232862],"type":"VEC3","name":"accessorPositions"},{"bufferView":1,"byteOffset":585504,"componentType":5126,"count":3684,"type":"VEC3","name":"accessorNormals"},{"bufferView":2,"byteOffset":180432,"componentType":5126,"count":3684,"type":"VEC2","name":"accessorUVs"}],"bufferViews":[{"buffer":0,"byteLength":52476,"name":"bufferViewScalar"},{"buffer":0,"byteOffset":52476,"byteLength":629712,"byteStride":12,"name":"bufferViewFloatVec3"},{"buffer":0,"byteOffset":682188,"byteLength":209904,"byteStride":8,"name":"bufferViewFloatVec2"}],"buffers":[{"uri":"Sofa.bin","byteLength":892092}],"materials":[{"pbrMetallicRoughness":{"baseColorTexture":{"index":1,"extensions":{"KHR_texture_transform":{"offset":[0.0,0.0],"scale":[1.0,1.0],"texCoord":0}}},"metallicRoughnessTexture":{"index":2,"extensions":{"KHR_texture_transform":{"offset":[0.0,0.0],"scale":[1.0,1.0],"texCoord":0}}}},"normalTexture":{"index":0,"extensions":{"KHR_texture_transform":{"offset":[0.0,0.0],"scale":[1.0,1.0],"texCoord":0}}},"name":"Material #2"}],"textures":[{"sampler":0,"source":0,"name":"Sofa_LR_Sofa_Normal.png"},{"sampler":0,"source":1,"name":"Sofa_LR_Sofa_BaseColor.png"},{"sampler":0,"source":2,"name":"Sofa_LR_Sofa_RoughnessSofa_LR_Sofa_Metallic.jpg"}],"images":[{"uri":"Sofa_LR_Sofa_Normal.png"},{"uri":"Sofa_LR_Sofa_BaseColor.png"},{"uri":"Sofa_LR_Sofa_RoughnessSofa_LR_Sofa_Metallic.jpg"}],"samplers":[{"magFilter":9729,"minFilter":9987}]}