{
  "accessors": [
    {
      "bufferView": 0,
      "componentType": 5125,
      "count": 4146,
      "type": "SCALAR"
    },
    {
      "bufferView": 1,
      "componentType": 5126,
      "count": 1577,
      "max": [
        0.999999940395355,
        0.227149590849876,
        0.239048466086388
      ],
      "min": [
        -0.999999940395355,
        -0.227149590849876,
        -0.239048466086388
      ],
      "type": "VEC3"
    },
    {
      "bufferView": 2,
      "componentType": 5126,
      "count": 1577,
      "type": "VEC3"
    },
    {
      "bufferView": 3,
      "componentType": 5126,
      "count": 1577,
      "type": "VEC2"
    }
  ],
  "asset": {
    "generator": "Substance Painter 2019.3.3",
    "version": "2.0"
  },
  "bufferViews": [
    {
      "buffer": 0,
      "byteLength": 16584,
      "target": 34963
    },
    {
      "buffer": 0,
      "byteLength": 18924,
      "byteOffset": 16584,
      "target": 34962
    },
    {
      "buffer": 0,
      "byteLength": 18924,
      "byteOffset": 35508,
      "target": 34962
    },
    {
      "buffer": 0,
      "byteLength": 12616,
      "byteOffset": 54432,
      "target": 34962
    }
  ],
  "buffers": [
    {
      "byteLength": 67048,
      "uri": "nigel_tvconsole.bin"
    }
  ],
  "images": [
    {
      "uri": "T_nigeltvconsole_baseColor.png"
    },
    {
      "uri": "T_nigeltvconsole_occlusionRoughnessMetallic.png"
    },
    {
      "uri": "T_nigeltvconsole_normal.png"
    }
  ],
  "materials": [
    {
      "alphaMode": "OPAQUE",
      "name": "T_nigeltvconsole",
      "normalTexture": {
        "index": 2
      },
      "occlusionTexture": {
        "index": 1
      },
      "pbrMetallicRoughness": {
        "baseColorTexture": {
          "index": 0
        },
        "metallicRoughnessTexture": {
          "index": 1
        }
      }
    }
  ],
  "meshes": [
    {
      "name": "Mesh",
      "primitives": [
        {
          "attributes": {
            "NORMAL": 2,
            "POSITION": 1,
            "TEXCOORD_0": 3
          },
          "indices": 0,
          "material": 0,
          "mode": 4
        }
      ]
    }
  ],
  "nodes": [
    {
      "children": [
        1
      ],
      "name": "root",
      "scale": [
        0.925000011920929,
        0.925000011920929,
        0.925000011920929
      ],
      "translation": [
        0.0,
        0.210113376379013,
        0.0
      ]
    },
    {
      "children": [
        2
      ],
      "name": "Mesh"
    },
    {
      "mesh": 0,
      "name": "Mesh"
    }
  ],
  "samplers": [
    {
      "magFilter": 9729,
      "minFilter": 9985,
      "wrapS": 10497,
      "wrapT": 10497
    }
  ],
  "scene": 0,
  "scenes": [
    {
      "name": "Scene",
      "nodes": [
        0
      ]
    }
  ],
  "textures": [
    {
      "sampler": 0,
      "source": 0
    },
    {
      "sampler": 0,
      "source": 1
    },
    {
      "sampler": 0,
      "source": 2
    }
  ]
}