{
  "accessors": [
    {
      "bufferView": 0,
      "componentType": 5125,
      "count": 411156,
      "type": "SCALAR"
    },
    {
      "bufferView": 1,
      "componentType": 5126,
      "count": 76131,
      "max": [
        1.0,
        0.270574480295181,
        0.357913255691528
      ],
      "min": [
        -1.0,
        -0.271767407655716,
        -0.356872975826263
      ],
      "type": "VEC3"
    },
    {
      "bufferView": 2,
      "componentType": 5126,
      "count": 76131,
      "type": "VEC3"
    },
    {
      "bufferView": 3,
      "componentType": 5126,
      "count": 76131,
      "type": "VEC2"
    },
    {
      "bufferView": 4,
      "componentType": 5125,
      "count": 129180,
      "type": "SCALAR"
    },
    {
      "bufferView": 5,
      "componentType": 5126,
      "count": 30142,
      "max": [
        0.995116949081421,
        0.271767437458038,
        0.349396854639053
      ],
      "min": [
        -0.995116949081421,
        -0.248491823673248,
        -0.357913285493851
      ],
      "type": "VEC3"
    },
    {
      "bufferView": 6,
      "componentType": 5126,
      "count": 30142,
      "type": "VEC3"
    },
    {
      "bufferView": 7,
      "componentType": 5126,
      "count": 30142,
      "type": "VEC2"
    }
  ],
  "asset": {
    "generator": "Substance Painter 2019.2.3",
    "version": "2.0"
  },
  "bufferViews": [
    {
      "buffer": 0,
      "byteLength": 1644624,
      "target": 34963
    },
    {
      "buffer": 0,
      "byteLength": 913572,
      "byteOffset": 1644624,
      "target": 34962
    },
    {
      "buffer": 0,
      "byteLength": 913572,
      "byteOffset": 2558196,
      "target": 34962
    },
    {
      "buffer": 0,
      "byteLength": 609048,
      "byteOffset": 3471768,
      "target": 34962
    },
    {
      "buffer": 0,
      "byteLength": 516720,
      "byteOffset": 4080816,
      "target": 34963
    },
    {
      "buffer": 0,
      "byteLength": 361704,
      "byteOffset": 4597536,
      "target": 34962
    },
    {
      "buffer": 0,
      "byteLength": 361704,
      "byteOffset": 4959240,
      "target": 34962
    },
    {
      "buffer": 0,
      "byteLength": 241136,
      "byteOffset": 5320944,
      "target": 34962
    }
  ],
  "buffers": [
    {
      "byteLength": 5562080,
      "uri": "alfred.bin"
    }
  ],
  "images": [
    {
      "uri": "T_alfred_baseColor.png"
    },
    {
      "uri": "T_alfred_occlusionRoughnessMetallic.png"
    },
    {
      "uri": "T_alfred_normal.png"
    },
    {
      "uri": "T_stripstitch_baseColor.png"
    },
    {
      "uri": "T_stripstitch_occlusionRoughnessMetallic.png"
    },
    {
      "uri": "T_stripstitch_normal.png"
    }
  ],
  "materials": [
    {
      "alphaMode": "OPAQUE",
      "name": "T_alfred",
      "normalTexture": {
        "index": 2
      },
      "occlusionTexture": {
        "index": 1
      },
      "pbrMetallicRoughness": {
        "baseColorTexture": {
          "index": 0
        },
        "metallicRoughnessTexture": {
          "index": 1
        }
      }
    },
    {
      "alphaMode": "OPAQUE",
      "name": "T_stripstitch",
      "normalTexture": {
        "index": 5
      },
      "occlusionTexture": {
        "index": 4
      },
      "pbrMetallicRoughness": {
        "baseColorTexture": {
          "index": 3
        },
        "metallicRoughnessTexture": {
          "index": 4
        }
      }
    }
  ],
  "meshes": [
    {
      "name": "flexform_alfred",
      "primitives": [
        {
          "attributes": {
            "NORMAL": 2,
            "POSITION": 1,
            "TEXCOORD_0": 3
          },
          "indices": 0,
          "material": 0,
          "mode": 4
        }
      ]
    },
    {
      "name": "flexform_alfred",
      "primitives": [
        {
          "attributes": {
            "NORMAL": 6,
            "POSITION": 5,
            "TEXCOORD_0": 7
          },
          "indices": 4,
          "material": 1,
          "mode": 4
        }
      ]
    }
  ],
  "nodes": [
    {
      "children": [
        1,
        3
      ],
      "name": "root",
      "scale": [
        1.53150379657745,
        1.53150379657745,
        1.53150379657745
      ],
      "translation": [
        0.0,
        0.421619743108749,
        -0.00347030162811279
      ]
    },
    {
      "children": [
        2
      ],
      "name": "flexform_alfred"
    },
    {
      "mesh": 0,
      "name": "flexform_alfred"
    },
    {
      "children": [
        4
      ],
      "name": "flexform_alfred"
    },
    {
      "mesh": 1,
      "name": "flexform_alfred"
    }
  ],
  "samplers": [
    {
      "magFilter": 9729,
      "minFilter": 9985,
      "wrapS": 10497,
      "wrapT": 10497
    }
  ],
  "scene": 0,
  "scenes": [
    {
      "name": "Scene",
      "nodes": [
        0
      ]
    }
  ],
  "textures": [
    {
      "sampler": 0,
      "source": 0
    },
    {
      "sampler": 0,
      "source": 1
    },
    {
      "sampler": 0,
      "source": 2
    },
    {
      "sampler": 0,
      "source": 3
    },
    {
      "sampler": 0,
      "source": 4
    },
    {
      "sampler": 0,
      "source": 5
    }
  ]
}