{
  "accessors": [
    {
      "bufferView": 0,
      "componentType": 5125,
      "count": 123096,
      "type": "SCALAR"
    },
    {
      "bufferView": 1,
      "componentType": 5126,
      "count": 21906,
      "max": [
        0.297649890184402,
        0.795690059661865,
        0.273938864469528
      ],
      "min": [
        -0.298445850610733,
        0.0,
        -0.273750633001328
      ],
      "type": "VEC3"
    },
    {
      "bufferView": 2,
      "componentType": 5126,
      "count": 21906,
      "type": "VEC3"
    },
    {
      "bufferView": 3,
      "componentType": 5126,
      "count": 21906,
      "type": "VEC2"
    }
  ],
  "asset": {
    "generator": "Substance Painter 6.1.2",
    "version": "2.0"
  },
  "bufferViews": [
    {
      "buffer": 0,
      "byteLength": 492384,
      "target": 34963
    },
    {
      "buffer": 0,
      "byteLength": 262872,
      "byteOffset": 492384,
      "target": 34962
    },
    {
      "buffer": 0,
      "byteLength": 262872,
      "byteOffset": 755256,
      "target": 34962
    },
    {
      "buffer": 0,
      "byteLength": 175248,
      "byteOffset": 1018128,
      "target": 34962
    }
  ],
  "buffers": [
    {
      "byteLength": 1193376,
      "uri": "foxchair.bin"
    }
  ],
  "images": [
    {
      "uri": "T_foxchair_baseColor.png"
    },
    {
      "uri": "T_foxchair_occlusionRoughnessMetallic.png"
    },
    {
      "uri": "T_foxchair_normal.png"
    }
  ],
  "materials": [
    {
      "alphaMode": "OPAQUE",
      "name": "T_foxchair",
      "normalTexture": {
        "index": 2
      },
      "occlusionTexture": {
        "index": 1
      },
      "pbrMetallicRoughness": {
        "baseColorTexture": {
          "index": 0
        },
        "metallicRoughnessTexture": {
          "index": 1
        }
      }
    }
  ],
  "meshes": [
    {
      "name": "Specchia2",
      "primitives": [
        {
          "attributes": {
            "NORMAL": 2,
            "POSITION": 1,
            "TEXCOORD_0": 3
          },
          "indices": 0,
          "material": 0,
          "mode": 4
        }
      ]
    }
  ],
  "nodes": [
    {
      "children": [
        1
      ],
      "name": "RootNode"
    },
    {
      "children": [
        2
      ],
      "name": "Specchia2"
    },
    {
      "mesh": 0,
      "name": "Specchia2"
    }
  ],
  "samplers": [
    {
      "magFilter": 9729,
      "minFilter": 9985,
      "wrapS": 10497,
      "wrapT": 10497
    }
  ],
  "scene": 0,
  "scenes": [
    {
      "name": "Scene",
      "nodes": [
        0
      ]
    }
  ],
  "textures": [
    {
      "sampler": 0,
      "source": 0
    },
    {
      "sampler": 0,
      "source": 1
    },
    {
      "sampler": 0,
      "source": 2
    }
  ]
}