{
  "accessors": [
    {
      "bufferView": 0,
      "componentType": 5125,
      "count": 140688,
      "type": "SCALAR"
    },
    {
      "bufferView": 1,
      "componentType": 5126,
      "count": 26189,
      "max": [
        23.0619869232178,
        8.18198394775391,
        8.54874610900879
      ],
      "min": [
        -23.0619869232178,
        -4.76837158203125e-07,
        -8.58170127868652
      ],
      "type": "VEC3"
    },
    {
      "bufferView": 2,
      "componentType": 5126,
      "count": 26189,
      "type": "VEC3"
    },
    {
      "bufferView": 3,
      "componentType": 5126,
      "count": 26189,
      "type": "VEC2"
    }
  ],
  "asset": {
    "generator": "Substance Painter 6.1.2",
    "version": "2.0"
  },
  "bufferViews": [
    {
      "buffer": 0,
      "byteLength": 562752,
      "target": 34963
    },
    {
      "buffer": 0,
      "byteLength": 314268,
      "byteOffset": 562752,
      "target": 34962
    },
    {
      "buffer": 0,
      "byteLength": 314268,
      "byteOffset": 877020,
      "target": 34962
    },
    {
      "buffer": 0,
      "byteLength": 209512,
      "byteOffset": 1191288,
      "target": 34962
    }
  ],
  "buffers": [
    {
      "byteLength": 1400800,
      "uri": "abby_sofa.bin"
    }
  ],
  "images": [
    {
      "uri": "T_abby_baseColor.png"
    },
    {
      "uri": "T_abby_occlusionRoughnessMetallic.png"
    },
    {
      "uri": "T_abby_normal.png"
    }
  ],
  "materials": [
    {
      "alphaMode": "OPAQUE",
      "name": "T_abby",
      "normalTexture": {
        "index": 2
      },
      "occlusionTexture": {
        "index": 1
      },
      "pbrMetallicRoughness": {
        "baseColorTexture": {
          "index": 0
        },
        "metallicRoughnessTexture": {
          "index": 1
        }
      }
    }
  ],
  "meshes": [
    {
      "name": "Cylinder",
      "primitives": [
        {
          "attributes": {
            "NORMAL": 2,
            "POSITION": 1,
            "TEXCOORD_0": 3
          },
          "indices": 0,
          "material": 0,
          "mode": 4
        }
      ]
    }
  ],
  "nodes": [
    {
      "children": [
        1
      ],
      "name": "RootNode"
    },
    {
      "children": [
        2
      ],
      "name": "Cylinder",
      "rotation": [
        -6.12323426292584e-17,
        1.0,
        6.12323426292584e-17,
        4.37113882867379e-08
      ],
      "scale": [
        0.0404277592897415,
        0.0877282321453094,
        0.0522500015795231
      ]
    },
    {
      "mesh": 0,
      "name": "Cylinder"
    }
  ],
  "samplers": [
    {
      "magFilter": 9729,
      "minFilter": 9985,
      "wrapS": 10497,
      "wrapT": 10497
    }
  ],
  "scene": 0,
  "scenes": [
    {
      "name": "Scene",
      "nodes": [
        0
      ]
    }
  ],
  "textures": [
    {
      "sampler": 0,
      "source": 0
    },
    {
      "sampler": 0,
      "source": 1
    },
    {
      "sampler": 0,
      "source": 2
    }
  ]
}