{
  "accessors": [
    {
      "bufferView": 0,
      "componentType": 5125,
      "count": 111633,
      "type": "SCALAR"
    },
    {
      "bufferView": 1,
      "componentType": 5126,
      "count": 22783,
      "max": [
        0.303393363952637,
        0.526537477970123,
        0.181260585784912
      ],
      "min": [
        -0.30334609746933,
        -0.00197240710258484,
        -0.181260585784912
      ],
      "type": "VEC3"
    },
    {
      "bufferView": 2,
      "componentType": 5126,
      "count": 22783,
      "type": "VEC3"
    },
    {
      "bufferView": 3,
      "componentType": 5126,
      "count": 22783,
      "type": "VEC2"
    }
  ],
  "asset": {
    "generator": "Substance Painter 6.1.2",
    "version": "2.0"
  },
  "bufferViews": [
    {
      "buffer": 0,
      "byteLength": 446532,
      "target": 34963
    },
    {
      "buffer": 0,
      "byteLength": 273396,
      "byteOffset": 446532,
      "target": 34962
    },
    {
      "buffer": 0,
      "byteLength": 273396,
      "byteOffset": 719928,
      "target": 34962
    },
    {
      "buffer": 0,
      "byteLength": 182264,
      "byteOffset": 993324,
      "target": 34962
    }
  ],
  "buffers": [
    {
      "byteLength": 1175588,
      "uri": "andie.bin"
    }
  ],
  "images": [
    {
      "uri": "T_andie_baseColor.png"
    },
    {
      "uri": "T_andie_occlusionRoughnessMetallic.png"
    },
    {
      "uri": "T_andie_normal.png"
    }
  ],
  "materials": [
    {
      "alphaMode": "OPAQUE",
      "name": "T_andie",
      "normalTexture": {
        "index": 2
      },
      "occlusionTexture": {
        "index": 1
      },
      "pbrMetallicRoughness": {
        "baseColorTexture": {
          "index": 0
        },
        "metallicRoughnessTexture": {
          "index": 1
        }
      }
    }
  ],
  "meshes": [
    {
      "name": "Mesh",
      "primitives": [
        {
          "attributes": {
            "NORMAL": 2,
            "POSITION": 1,
            "TEXCOORD_0": 3
          },
          "indices": 0,
          "material": 0,
          "mode": 4
        }
      ]
    }
  ],
  "nodes": [
    {
      "children": [
        1
      ],
      "name": "root"
    },
    {
      "children": [
        2
      ],
      "name": "Mesh"
    },
    {
      "mesh": 0,
      "name": "Mesh"
    }
  ],
  "samplers": [
    {
      "magFilter": 9729,
      "minFilter": 9985,
      "wrapS": 10497,
      "wrapT": 10497
    }
  ],
  "scene": 0,
  "scenes": [
    {
      "name": "Scene",
      "nodes": [
        0
      ]
    }
  ],
  "textures": [
    {
      "sampler": 0,
      "source": 0
    },
    {
      "sampler": 0,
      "source": 1
    },
    {
      "sampler": 0,
      "source": 2
    }
  ]
}