{
  "accessors": [
    {
      "bufferView": 0,
      "componentType": 5125,
      "count": 16476,
      "type": "SCALAR"
    },
    {
      "bufferView": 1,
      "componentType": 5126,
      "count": 6662,
      "max": [
        0.967986106872559,
        1.0,
        0.882822573184967
      ],
      "min": [
        -0.967986106872559,
        -1.0,
        -0.882822632789612
      ],
      "type": "VEC3"
    },
    {
      "bufferView": 2,
      "componentType": 5126,
      "count": 6662,
      "type": "VEC3"
    },
    {
      "bufferView": 3,
      "componentType": 5126,
      "count": 6662,
      "type": "VEC2"
    }
  ],
  "asset": {
    "generator": "Substance Painter 2019.2.3",
    "version": "2.0"
  },
  "bufferViews": [
    {
      "buffer": 0,
      "byteLength": 65904,
      "target": 34963
    },
    {
      "buffer": 0,
      "byteLength": 79944,
      "byteOffset": 65904,
      "target": 34962
    },
    {
      "buffer": 0,
      "byteLength": 79944,
      "byteOffset": 145848,
      "target": 34962
    },
    {
      "buffer": 0,
      "byteLength": 53296,
      "byteOffset": 225792,
      "target": 34962
    }
  ],
  "buffers": [
    {
      "byteLength": 279088,
      "uri": "plant01spp.bin"
    }
  ],
  "images": [
    {
      "uri": "T_plant01_baseColor.png"
    },
    {
      "uri": "T_plant01_occlusionRoughnessMetallic.png"
    },
    {
      "uri": "T_plant01_normal.png"
    }
  ],
  "materials": [
    {
      "alphaMode": "OPAQUE",
      "name": "T_plant01",
      "doubleSided": true,
      "normalTexture": {
        "index": 2
      },
      "occlusionTexture": {
        "index": 1
      },
      "pbrMetallicRoughness": {
        "baseColorTexture": {
          "index": 0
        },
        "metallicRoughnessTexture": {
          "index": 1
        }
      }
    }
  ],
  "meshes": [
    {
      "name": "1",
      "primitives": [
        {
          "attributes": {
            "NORMAL": 2,
            "POSITION": 1,
            "TEXCOORD_0": 3
          },
          "indices": 0,
          "material": 0,
          "mode": 4
        }
      ]
    }
  ],
  "nodes": [
    {
      "children": [
        1
      ],
      "name": "root",
      "scale": [
        0.435368657112122,
        0.435368657112122,
        0.435368657112122
      ],
      "translation": [
        0.00146684050559998,
        0.435368746519089,
        0.002459317445755
      ]
    },
    {
      "children": [
        2
      ],
      "name": "1"
    },
    {
      "mesh": 0,
      "name": "1"
    }
  ],
  "samplers": [
    {
      "magFilter": 9729,
      "minFilter": 9985,
      "wrapS": 10497,
      "wrapT": 10497
    }
  ],
  "scene": 0,
  "scenes": [
    {
      "name": "Scene",
      "nodes": [
        0
      ]
    }
  ],
  "textures": [
    {
      "sampler": 0,
      "source": 0
    },
    {
      "sampler": 0,
      "source": 1
    },
    {
      "sampler": 0,
      "source": 2
    }
  ]
}