{
  "accessors": [
    {
      "bufferView": 0,
      "componentType": 5125,
      "count": 684,
      "type": "SCALAR"
    },
    {
      "bufferView": 1,
      "componentType": 5126,
      "count": 436,
      "max": [
        0.538461804389954,
        1.0,
        0.692308068275452
      ],
      "min": [
        -0.538461804389954,
        -1.0,
        -0.692308068275452
      ],
      "type": "VEC3"
    },
    {
      "bufferView": 2,
      "componentType": 5126,
      "count": 436,
      "type": "VEC3"
    },
    {
      "bufferView": 3,
      "componentType": 5126,
      "count": 436,
      "type": "VEC2"
    }
  ],
  "asset": {
    "generator": "Substance Painter 2019.3.3",
    "version": "2.0"
  },
  "bufferViews": [
    {
      "buffer": 0,
      "byteLength": 2736,
      "target": 34963
    },
    {
      "buffer": 0,
      "byteLength": 5232,
      "byteOffset": 2736,
      "target": 34962
    },
    {
      "buffer": 0,
      "byteLength": 5232,
      "byteOffset": 7968,
      "target": 34962
    },
    {
      "buffer": 0,
      "byteLength": 3488,
      "byteOffset": 13200,
      "target": 34962
    }
  ],
  "buffers": [
    {
      "byteLength": 16688,
      "uri": "jing_c_side_table.bin"
    }
  ],
  "images": [
    {
      "uri": "T_jinsidetable_baseColor.png"
    },
    {
      "uri": "T_jinsidetable_occlusionRoughnessMetallic.png"
    },
    {
      "uri": "T_jinsidetable_normal.png"
    }
  ],
  "materials": [
    {
      "alphaMode": "OPAQUE",
      "name": "T_jinsidetable",
      "normalTexture": {
        "index": 2
      },
      "occlusionTexture": {
        "index": 1
      },
      "pbrMetallicRoughness": {
        "baseColorTexture": {
          "index": 0
        },
        "metallicRoughnessTexture": {
          "index": 1
        }
      }
    }
  ],
  "meshes": [
    {
      "name": "Mesh",
      "primitives": [
        {
          "attributes": {
            "NORMAL": 2,
            "POSITION": 1,
            "TEXCOORD_0": 3
          },
          "indices": 0,
          "material": 0,
          "mode": 4
        }
      ]
    }
  ],
  "nodes": [
    {
      "children": [
        1
      ],
      "name": "root",
      "scale": [
        0.324999809265137,
        0.324999809265137,
        0.324999809265137
      ],
      "translation": [
        0.0,
        0.324999809265137,
        0.0
      ]
    },
    {
      "children": [
        2
      ],
      "name": "Mesh"
    },
    {
      "mesh": 0,
      "name": "Mesh"
    }
  ],
  "samplers": [
    {
      "magFilter": 9729,
      "minFilter": 9985,
      "wrapS": 10497,
      "wrapT": 10497
    }
  ],
  "scene": 0,
  "scenes": [
    {
      "name": "Scene",
      "nodes": [
        0
      ]
    }
  ],
  "textures": [
    {
      "sampler": 0,
      "source": 0
    },
    {
      "sampler": 0,
      "source": 1
    },
    {
      "sampler": 0,
      "source": 2
    }
  ]
}