{
	"asset":{
		"version":"2.0",
		"generator":"Houdini GLTF 2.0 Exporter"
	},
	"accessors":[
		{
			"bufferView":0,
			"componentType":5123,
			"count":2844,
			"type":"SCALAR",
			"min":[0
			],
			"max":[2843
			]
		},
		{
			"bufferView":1,
			"componentType":5126,
			"count":2844,
			"type":"VEC3",
			"min":[-1,-0.326500744,-0.50395906
			],
			"max":[1,0.326500714,0.50395906
			]
		},
		{
			"bufferView":2,
			"componentType":5126,
			"count":2844,
			"type":"VEC2",
			"min":[0.00534758996,0.0645620227
			],
			"max":[0.996324003,0.994485319
			]
		},
		{
			"bufferView":3,
			"componentType":5126,
			"count":2844,
			"type":"VEC3",
			"min":[-1,-1,-1
			],
			"max":[1,1,1
			]
		},
		{
			"bufferView":4,
			"componentType":5121,
			"count":6,
			"type":"SCALAR",
			"min":[0
			],
			"max":[5
			]
		},
		{
			"bufferView":5,
			"componentType":5126,
			"count":6,
			"type":"VEC3",
			"min":[-0.999433279,0.326500714,-0.4961344
			],
			"max":[0.999433279,0.326500714,0.50360626
			]
		},
		{
			"bufferView":6,
			"componentType":5126,
			"count":6,
			"type":"VEC2",
			"min":[0.00567066018,0.456861019
			],
			"max":[0.286348999,0.994119704
			]
		},
		{
			"bufferView":7,
			"componentType":5126,
			"count":6,
			"type":"VEC3",
			"min":[-0.216710001,0.899974644,-0.0115187978
			],
			"max":[0.216714382,0.976168096,0.435824692
			]
		}
	],
	"buffers":[
		{
			"uri":"cph_table_data.bin",
			"byteLength":96896,
			"name":"main_buffer"
		}
	],
	"bufferViews":[
		{
			"buffer":0,
			"byteLength":5688,
			"target":34963
		},
		{
			"buffer":0,
			"byteOffset":5688,
			"byteLength":34128,
			"target":34962
		},
		{
			"buffer":0,
			"byteOffset":39816,
			"byteLength":22752,
			"target":34962
		},
		{
			"buffer":0,
			"byteOffset":62568,
			"byteLength":34128,
			"target":34962
		},
		{
			"buffer":0,
			"byteOffset":96696,
			"byteLength":6,
			"target":34963
		},
		{
			"buffer":0,
			"byteOffset":96704,
			"byteLength":72,
			"target":34962
		},
		{
			"buffer":0,
			"byteOffset":96776,
			"byteLength":48,
			"target":34962
		},
		{
			"buffer":0,
			"byteOffset":96824,
			"byteLength":72,
			"target":34962
		}
	],
	"nodes":[
		{
			"children":[1
			],
			"name":"Root"
		},
		{
			"children":[2
			],
			"name":"cph_table"
		},
		{
			"children":[3,5
			],
			"matrix":[0.600000024,0,0,0,0,0.600000024,0,0,0,0,0.600000024,0,0,0.197859466,0,1
			],
			"name":"root"
		},
		{
			"children":[4
			],
			"name":"Mesh2"
		},
		{
			"name":"Mesh3",
			"mesh":0
		},
		{
			"children":[6
			],
			"name":"Mesh4"
		},
		{
			"matrix":[1,0,0,0,0,1,0,0,0,0,1,0,0,-0.000189642102,0,1
			],
			"name":"Mesh5",
			"mesh":1
		}
	],
	"meshes":[
		{
			"primitives":[
				{
					"attributes":{
						"NORMAL":3,
						"TEXCOORD_0":2,
						"POSITION":1
					},
					"indices":0,
					"material":0
				}
			]
		},
		{
			"primitives":[
				{
					"attributes":{
						"NORMAL":7,
						"TEXCOORD_0":6,
						"POSITION":5
					},
					"indices":4,
					"material":0
				}
			]
		}
	],
	"materials":[
		{
			"name":"T_deuxtable",
			"pbrMetallicRoughness":{
				"baseColorTexture":{
					"index":0
				},
				"metallicRoughnessTexture":{
					"index":1
				}
			},
			"normalTexture":{
				"index":2
			}
		}
	],
	"scenes":[
		{
			"nodes":[0
			]
		}
	],
	"textures":[
		{
			"source":0
		},
		{
			"source":1
		},
		{
			"source":2
		}
	],
	"images":[
		{
			"uri":"T_deuxtable_baseColor.png",
			"mimeType":"image/png"
		},
		{
			"uri":"T_deuxtable_occlusionRoughnessMetallic.png",
			"mimeType":"image/png"
		},
		{
			"uri":"T_deuxtable_normal.png",
			"mimeType":"image/png"
		}
	],
	"scene":0
}
