{
  "accessors": [
    {
      "bufferView": 0,
      "componentType": 5125,
      "count": 67230,
      "type": "SCALAR"
    },
    {
      "bufferView": 1,
      "componentType": 5126,
      "count": 13142,
      "max": [
        0.749803304672241,
        1.00000011920929,
        0.76889556646347
      ],
      "min": [
        -0.751378655433655,
        -0.99999988079071,
        -0.767012000083923
      ],
      "type": "VEC3"
    },
    {
      "bufferView": 2,
      "componentType": 5126,
      "count": 13142,
      "type": "VEC3"
    },
    {
      "bufferView": 3,
      "componentType": 5126,
      "count": 13142,
      "type": "VEC2"
    }
  ],
  "asset": {
    "generator": "Substance Painter 2019.2.3",
    "version": "2.0"
  },
  "bufferViews": [
    {
      "buffer": 0,
      "byteLength": 268920,
      "target": 34963
    },
    {
      "buffer": 0,
      "byteLength": 157704,
      "byteOffset": 268920,
      "target": 34962
    },
    {
      "buffer": 0,
      "byteLength": 157704,
      "byteOffset": 426624,
      "target": 34962
    },
    {
      "buffer": 0,
      "byteLength": 105136,
      "byteOffset": 584328,
      "target": 34962
    }
  ],
  "buffers": [
    {
      "byteLength": 689464,
      "uri": "linep1n001.bin"
    }
  ],
  "images": [
    {
      "uri": "T_linep1n001_baseColor.png"
    },
    {
      "uri": "T_linep1n001_occlusionRoughnessMetallic.png"
    },
    {
      "uri": "T_linep1n001_normal.png"
    }
  ],
  "materials": [
    {
      "alphaMode": "OPAQUE",
      "name": "T_linep1n001",
      "normalTexture": {
        "index": 2
      },
      "occlusionTexture": {
        "index": 1
      },
      "pbrMetallicRoughness": {
        "baseColorTexture": {
          "index": 0
        },
        "metallicRoughnessTexture": {
          "index": 1
        }
      }
    }
  ],
  "meshes": [
    {
      "name": "linep1n",
      "primitives": [
        {
          "attributes": {
            "NORMAL": 2,
            "POSITION": 1,
            "TEXCOORD_0": 3
          },
          "indices": 0,
          "material": 0,
          "mode": 4
        }
      ]
    }
  ],
  "nodes": [
    {
      "children": [
        1
      ],
      "name": "root",
      "scale": [
        0.503960013389587,
        0.503960013389587,
        0.503960013389587
      ],
      "translation": [
        0.000605970621109009,
        0.503960013389587,
        -0.0500161945819855
      ]
    },
    {
      "children": [
        2
      ],
      "name": "linep1n"
    },
    {
      "mesh": 0,
      "name": "linep1n"
    }
  ],
  "samplers": [
    {
      "magFilter": 9729,
      "minFilter": 9985,
      "wrapS": 10497,
      "wrapT": 10497
    }
  ],
  "scene": 0,
  "scenes": [
    {
      "name": "Scene",
      "nodes": [
        0
      ]
    }
  ],
  "textures": [
    {
      "sampler": 0,
      "source": 0
    },
    {
      "sampler": 0,
      "source": 1
    },
    {
      "sampler": 0,
      "source": 2
    }
  ]
}