{
  "accessors": [
    {
      "bufferView": 0,
      "componentType": 5125,
      "count": 530022,
      "type": "SCALAR"
    },
    {
      "bufferView": 1,
      "componentType": 5126,
      "count": 95762,
      "max": [
        0.300450295209885,
        0.21732097864151,
        0.660122632980347
      ],
      "min": [
        -0.300450325012207,
        -0.485670924186707,
        -0.0888787508010864
      ],
      "type": "VEC3"
    },
    {
      "bufferView": 2,
      "componentType": 5126,
      "count": 95762,
      "type": "VEC3"
    },
    {
      "bufferView": 3,
      "componentType": 5126,
      "count": 95762,
      "type": "VEC2"
    },
    {
      "bufferView": 4,
      "componentType": 5125,
      "count": 6156,
      "type": "SCALAR"
    },
    {
      "bufferView": 5,
      "componentType": 5126,
      "count": 1434,
      "max": [
        0.242806375026703,
        0.173927366733551,
        0.621428906917572
      ],
      "min": [
        -0.242806389927864,
        -0.262616991996765,
        -0.0692771971225739
      ],
      "type": "VEC3"
    },
    {
      "bufferView": 6,
      "componentType": 5126,
      "count": 1434,
      "type": "VEC3"
    },
    {
      "bufferView": 7,
      "componentType": 5126,
      "count": 1434,
      "type": "VEC2"
    }
  ],
  "asset": {
    "generator": "Substance Painter 6.1.3",
    "version": "2.0"
  },
  "bufferViews": [
    {
      "buffer": 0,
      "byteLength": 2120088,
      "target": 34963
    },
    {
      "buffer": 0,
      "byteLength": 1149144,
      "byteOffset": 2120088,
      "target": 34962
    },
    {
      "buffer": 0,
      "byteLength": 1149144,
      "byteOffset": 3269232,
      "target": 34962
    },
    {
      "buffer": 0,
      "byteLength": 766096,
      "byteOffset": 4418376,
      "target": 34962
    },
    {
      "buffer": 0,
      "byteLength": 24624,
      "byteOffset": 5184472,
      "target": 34963
    },
    {
      "buffer": 0,
      "byteLength": 17208,
      "byteOffset": 5209096,
      "target": 34962
    },
    {
      "buffer": 0,
      "byteLength": 17208,
      "byteOffset": 5226304,
      "target": 34962
    },
    {
      "buffer": 0,
      "byteLength": 11472,
      "byteOffset": 5243512,
      "target": 34962
    }
  ],
  "buffers": [
    {
      "byteLength": 5254984,
      "uri": "rattan_armchair.bin"
    }
  ],
  "images": [
    {
      "uri": "T_frame_baseColor.png"
    },
    {
      "uri": "T_frame_occlusionRoughnessMetallic.png"
    },
    {
      "uri": "T_frame_normal.png"
    },
    {
      "uri": "T_seat_baseColor.png"
    },
    {
      "uri": "T_seat_occlusionRoughnessMetallic.png"
    },
    {
      "uri": "T_seat_normal.png"
    }
  ],
  "materials": [
    {
      "alphaMode": "OPAQUE",
      "name": "T_frame",
      "normalTexture": {
        "index": 2
      },
      "occlusionTexture": {
        "index": 1
      },
      "pbrMetallicRoughness": {
        "baseColorTexture": {
          "index": 0
        },
        "metallicRoughnessTexture": {
          "index": 1
        }
      }
    },
    {
      "alphaMode": "MASK",
      "name": "T_seat",
      "normalTexture": {
        "index": 5
      },
      "occlusionTexture": {
        "index": 4
      },
      "pbrMetallicRoughness": {
        "baseColorTexture": {
          "index": 3
        },
        "metallicRoughnessTexture": {
          "index": 4
        }
      }
    }
  ],
  "meshes": [
    {
      "name": "Mesh6",
      "primitives": [
        {
          "attributes": {
            "NORMAL": 2,
            "POSITION": 1,
            "TEXCOORD_0": 3
          },
          "indices": 0,
          "material": 0,
          "mode": 4
        }
      ]
    },
    {
      "name": "Mesh6",
      "primitives": [
        {
          "attributes": {
            "NORMAL": 6,
            "POSITION": 5,
            "TEXCOORD_0": 7
          },
          "indices": 4,
          "material": 1,
          "mode": 4
        }
      ]
    }
  ],
  "nodes": [
    {
      "children": [
        1
      ],
      "name": "RootNode"
    },
    {
      "children": [
        2,
        3
      ],
      "name": "Mesh6",
      "translation": [
        0.0,
        0.485797524452209,
        -0.288902372121811
      ]
    },
    {
      "mesh": 0,
      "name": "Mesh6"
    },
    {
      "mesh": 1,
      "name": "Mesh6"
    }
  ],
  "samplers": [
    {
      "magFilter": 9729,
      "minFilter": 9985,
      "wrapS": 10497,
      "wrapT": 10497
    }
  ],
  "scene": 0,
  "scenes": [
    {
      "name": "Scene",
      "nodes": [
        0
      ]
    }
  ],
  "textures": [
    {
      "sampler": 0,
      "source": 0
    },
    {
      "sampler": 0,
      "source": 1
    },
    {
      "sampler": 0,
      "source": 2
    },
    {
      "sampler": 0,
      "source": 3
    },
    {
      "sampler": 0,
      "source": 4
    },
    {
      "sampler": 0,
      "source": 5
    }
  ]
}