{"asset":{"generator":"Modov11.2","version":"2.0"},"scene":0,"scenes":[{"nodes":[0]}],"nodes":[{"name":"frencLlamp","matrix":[10.0,0.0,0.0,0.0,0.0,2.832769343193999e-15,-10.0,0.0,0.0,10.0,2.832769343193999e-15,0.0,0.0,4.85722573273506e-17,1.232595164407831e-32,1.0],"mesh":0}],"meshes":[{"primitives":[{"indices":1,"mode":4,"material":1,"attributes":{"POSITION":0,"NORMAL":2,"TEXCOORD_0":3}},{"indices":5,"mode":4,"material":2,"attributes":{"POSITION":4,"NORMAL":6,"TEXCOORD_0":7}},{"indices":9,"mode":4,"material":3,"attributes":{"POSITION":8,"NORMAL":10,"TEXCOORD_0":11}}]}],"buffers":[{"byteLength":85204,"uri":"french_lamp.bin"}],"bufferViews":[{"buffer":0,"byteLength":4956},{"buffer":0,"byteLength":6912,"byteOffset":4956},{"buffer":0,"byteLength":4956,"byteOffset":11868},{"buffer":0,"byteLength":3304,"byteOffset":16824},{"buffer":0,"byteLength":15456,"byteOffset":20128},{"buffer":0,"byteLength":11496,"byteOffset":35584},{"buffer":0,"byteLength":15456,"byteOffset":47080},{"buffer":0,"byteLength":10304,"byteOffset":62536},{"buffer":0,"byteLength":3120,"byteOffset":72840},{"buffer":0,"byteLength":4044,"byteOffset":75960},{"buffer":0,"byteLength":3120,"byteOffset":80004},{"buffer":0,"byteLength":2080,"byteOffset":83124}],"accessors":[{"bufferView":0,"type":"VEC3","componentType":5126,"count":413,"min":[-0.006696420721709728,-0.025935035198926927,0.09361855685710907],"max":[0.006696419324725866,-0.009355823509395123,0.11268987506628037]},{"bufferView":1,"type":"SCALAR","componentType":5125,"count":1728},{"bufferView":2,"type":"VEC3","componentType":5126,"count":413},{"bufferView":3,"type":"VEC2","componentType":5126,"count":413},{"bufferView":4,"type":"VEC3","componentType":5126,"count":1288,"min":[-0.0091957813128829,-0.011152542196214199,-0.000489312456920743],"max":[0.0091957813128829,0.025935035198926927,0.1142611876130104]},{"bufferView":5,"type":"SCALAR","componentType":5125,"count":2874},{"bufferView":6,"type":"VEC3","componentType":5126,"count":1288},{"bufferView":7,"type":"VEC2","componentType":5126,"count":1288},{"bufferView":8,"type":"VEC3","componentType":5126,"count":260,"min":[-0.008756018243730069,-0.008484805934131146,0.0006393057410605252],"max":[0.00875600054860115,0.024779614061117173,0.11258850246667862]},{"bufferView":9,"type":"SCALAR","componentType":5125,"count":1011},{"bufferView":10,"type":"VEC3","componentType":5126,"count":260},{"bufferView":11,"type":"VEC2","componentType":5126,"count":260}],"materials":[{"pbrMetallicRoughness":{"metallicFactor":0.5,"roughnessFactor":0.5}},{"name":"unknown_french_floor_lamp_mtl_1","emissiveFactor":[0.0,0.0,0.0],"alphaMode":"OPAQUE","doubleSided":false,"pbrMetallicRoughness":{"baseColorFactor":[0.028301887214183809,0.028301887214183809,0.028301887214183809,1.0],"metallicFactor":1.0,"roughnessFactor":1.0}},{"name":"unknown_french_floor_lamp_mtl_2","emissiveFactor":[0.0,0.0,0.0],"alphaMode":"OPAQUE","doubleSided":false,"pbrMetallicRoughness":{"baseColorFactor":[0.13084112107753755,0.12147229164838791,0.10062345862388611,1.0],"metallicFactor":1.0,"roughnessFactor":0.3499999940395355}},{"name":"unknown_french_floor_lamp_mtl_3","emissiveFactor":[0.0,0.0,0.0],"alphaMode":"OPAQUE","doubleSided":false,"pbrMetallicRoughness":{"baseColorFactor":[0.021806852892041208,0.021806852892041208,0.021806852892041208,1.0],"metallicFactor":1.0,"roughnessFactor":1.0}}]}