{
  "accessors": [
    {
      "bufferView": 0,
      "componentType": 5125,
      "count": 8688,
      "type": "SCALAR"
    },
    {
      "bufferView": 1,
      "componentType": 5126,
      "count": 3015,
      "max": [
        0.299999982118607,
        0.200000017881393,
        0.600002288818359
      ],
      "min": [
        -0.299999982118607,
        -7.45058059692383e-09,
        -0.600002288818359
      ],
      "type": "VEC3"
    },
    {
      "bufferView": 2,
      "componentType": 5126,
      "count": 3015,
      "type": "VEC3"
    },
    {
      "bufferView": 3,
      "componentType": 5126,
      "count": 3015,
      "type": "VEC2"
    }
  ],
  "asset": {
    "generator": "Substance Painter 6.2.0",
    "version": "2.0"
  },
  "bufferViews": [
    {
      "buffer": 0,
      "byteLength": 34752,
      "target": 34963
    },
    {
      "buffer": 0,
      "byteLength": 36180,
      "byteOffset": 34752,
      "target": 34962
    },
    {
      "buffer": 0,
      "byteLength": 36180,
      "byteOffset": 70932,
      "target": 34962
    },
    {
      "buffer": 0,
      "byteLength": 24120,
      "byteOffset": 107112,
      "target": 34962
    }
  ],
  "buffers": [
    {
      "byteLength": 131232,
      "uri": "dantemirror.bin"
    }
  ],
  "images": [
    {
      "uri": "T_dante_baseColor.png"
    },
    {
      "uri": "T_dante_occlusionRoughnessMetallic.png"
    },
    {
      "uri": "T_dante_normal.png"
    }
  ],
  "materials": [
    {
      "alphaMode": "OPAQUE",
      "name": "T_dante",
      "normalTexture": {
        "index": 2
      },
      "occlusionTexture": {
        "index": 1
      },
      "pbrMetallicRoughness": {
        "baseColorTexture": {
          "index": 0
        },
        "metallicRoughnessTexture": {
          "index": 1
        }
      }
    }
  ],
  "meshes": [
    {
      "name": "Mesh",
      "primitives": [
        {
          "attributes": {
            "NORMAL": 2,
            "POSITION": 1,
            "TEXCOORD_0": 3
          },
          "indices": 0,
          "material": 0,
          "mode": 4
        }
      ]
    }
  ],
  "nodes": [
    {
      "children": [
        1
      ],
      "name": "RootNode"
    },
    {
      "children": [
        2
      ],
      "name": "Mesh"
    },
    {
      "mesh": 0,
      "name": "Mesh"
    }
  ],
  "samplers": [
    {
      "magFilter": 9729,
      "minFilter": 9985,
      "wrapS": 10497,
      "wrapT": 10497
    }
  ],
  "scene": 0,
  "scenes": [
    {
      "name": "Scene",
      "nodes": [
        0
      ]
    }
  ],
  "textures": [
    {
      "sampler": 0,
      "source": 0
    },
    {
      "sampler": 0,
      "source": 1
    },
    {
      "sampler": 0,
      "source": 2
    }
  ]
}