{
  "accessors": [
    {
      "bufferView": 0,
      "componentType": 5125,
      "count": 71826,
      "type": "SCALAR"
    },
    {
      "bufferView": 1,
      "componentType": 5126,
      "count": 13595,
      "max": [
        0.232500016689301,
        1.24000000953674,
        0.165000006556511
      ],
      "min": [
        -0.232499986886978,
        0.0,
        -0.16499999165535
      ],
      "type": "VEC3"
    },
    {
      "bufferView": 2,
      "componentType": 5126,
      "count": 13595,
      "type": "VEC3"
    },
    {
      "bufferView": 3,
      "componentType": 5126,
      "count": 13595,
      "type": "VEC2"
    }
  ],
  "asset": {
    "generator": "Substance Painter 6.2.0",
    "version": "2.0"
  },
  "bufferViews": [
    {
      "buffer": 0,
      "byteLength": 287304,
      "target": 34963
    },
    {
      "buffer": 0,
      "byteLength": 163140,
      "byteOffset": 287304,
      "target": 34962
    },
    {
      "buffer": 0,
      "byteLength": 163140,
      "byteOffset": 450444,
      "target": 34962
    },
    {
      "buffer": 0,
      "byteLength": 108760,
      "byteOffset": 613584,
      "target": 34962
    }
  ],
  "buffers": [
    {
      "byteLength": 722344,
      "uri": "ligneroset_ladder.bin"
    }
  ],
  "images": [
    {
      "uri": "roset_ladder_baseColor.png"
    },
    {
      "uri": "roset_ladder_occlusionRoughnessMetallic.png"
    },
    {
      "uri": "roset_ladder_normal.png"
    }
  ],
  "materials": [
    {
      "alphaMode": "OPAQUE",
      "name": "roset_ladder",
      "normalTexture": {
        "index": 2
      },
      "occlusionTexture": {
        "index": 1
      },
      "pbrMetallicRoughness": {
        "baseColorTexture": {
          "index": 0
        },
        "metallicRoughnessTexture": {
          "index": 1
        }
      }
    }
  ],
  "meshes": [
    {
      "name": "Mesh",
      "primitives": [
        {
          "attributes": {
            "NORMAL": 2,
            "POSITION": 1,
            "TEXCOORD_0": 3
          },
          "indices": 0,
          "material": 0,
          "mode": 4
        }
      ]
    }
  ],
  "nodes": [
    {
      "children": [
        1
      ],
      "name": "RootNode"
    },
    {
      "children": [
        2
      ],
      "name": "Mesh"
    },
    {
      "mesh": 0,
      "name": "Mesh"
    }
  ],
  "samplers": [
    {
      "magFilter": 9729,
      "minFilter": 9985,
      "wrapS": 10497,
      "wrapT": 10497
    }
  ],
  "scene": 0,
  "scenes": [
    {
      "name": "Scene",
      "nodes": [
        0
      ]
    }
  ],
  "textures": [
    {
      "sampler": 0,
      "source": 0
    },
    {
      "sampler": 0,
      "source": 1
    },
    {
      "sampler": 0,
      "source": 2
    }
  ]
}