{
  "accessors": [
    {
      "bufferView": 0,
      "componentType": 5125,
      "count": 89772,
      "type": "SCALAR"
    },
    {
      "bufferView": 1,
      "componentType": 5126,
      "count": 19170,
      "max": [
        0.402774542570114,
        0.201482206583023,
        -0.240498125553131
      ],
      "min": [
        -0.063536249101162,
        -0.0189798846840858,
        -0.932785987854004
      ],
      "type": "VEC3"
    },
    {
      "bufferView": 2,
      "componentType": 5126,
      "count": 19170,
      "type": "VEC3"
    },
    {
      "bufferView": 3,
      "componentType": 5126,
      "count": 19170,
      "type": "VEC2"
    },
    {
      "bufferView": 4,
      "componentType": 5125,
      "count": 15456,
      "type": "SCALAR"
    },
    {
      "bufferView": 5,
      "componentType": 5126,
      "count": 3436,
      "max": [
        0.37690457701683,
        0.19978491961956,
        1.0
      ],
      "min": [
        -0.402774542570114,
        -0.074416920542717,
        -1.0
      ],
      "type": "VEC3"
    },
    {
      "bufferView": 6,
      "componentType": 5126,
      "count": 3436,
      "type": "VEC3"
    },
    {
      "bufferView": 7,
      "componentType": 5126,
      "count": 3436,
      "type": "VEC2"
    }
  ],
  "asset": {
    "generator": "Substance Painter 2019.2.3",
    "version": "2.0"
  },
  "bufferViews": [
    {
      "buffer": 0,
      "byteLength": 359088,
      "target": 34963
    },
    {
      "buffer": 0,
      "byteLength": 230040,
      "byteOffset": 359088,
      "target": 34962
    },
    {
      "buffer": 0,
      "byteLength": 230040,
      "byteOffset": 589128,
      "target": 34962
    },
    {
      "buffer": 0,
      "byteLength": 153360,
      "byteOffset": 819168,
      "target": 34962
    },
    {
      "buffer": 0,
      "byteLength": 61824,
      "byteOffset": 972528,
      "target": 34963
    },
    {
      "buffer": 0,
      "byteLength": 41232,
      "byteOffset": 1034352,
      "target": 34962
    },
    {
      "buffer": 0,
      "byteLength": 41232,
      "byteOffset": 1075584,
      "target": 34962
    },
    {
      "buffer": 0,
      "byteLength": 27488,
      "byteOffset": 1116816,
      "target": 34962
    }
  ],
  "buffers": [
    {
      "byteLength": 1144304,
      "uri": "stocking_christmastreeknitting.bin"
    }
  ],
  "images": [
    {
      "uri": "T_presents_baseColor.png"
    },
    {
      "uri": "T_presents_occlusionRoughnessMetallic.png"
    },
    {
      "uri": "T_presents_normal.png"
    },
    {
      "uri": "T_wool_baseColor.png"
    },
    {
      "uri": "T_wool_occlusionRoughnessMetallic.png"
    },
    {
      "uri": "T_wool_normal.png"
    }
  ],
  "materials": [
    {
      "alphaMode": "OPAQUE",
      "name": "T_presents",
      "normalTexture": {
        "index": 2
      },
      "occlusionTexture": {
        "index": 1
      },
      "pbrMetallicRoughness": {
        "baseColorTexture": {
          "index": 0
        },
        "metallicRoughnessTexture": {
          "index": 1
        }
      }
    },
    {
      "alphaMode": "OPAQUE",
      "name": "T_wool",
      "normalTexture": {
        "index": 5
      },
      "occlusionTexture": {
        "index": 4
      },
      "pbrMetallicRoughness": {
        "baseColorTexture": {
          "index": 3
        },
        "metallicRoughnessTexture": {
          "index": 4
        }
      }
    }
  ],
  "meshes": [
    {
      "name": "sock01",
      "primitives": [
        {
          "attributes": {
            "NORMAL": 2,
            "POSITION": 1,
            "TEXCOORD_0": 3
          },
          "indices": 0,
          "material": 0,
          "mode": 4
        }
      ]
    },
    {
      "name": "sock01",
      "primitives": [
        {
          "attributes": {
            "NORMAL": 6,
            "POSITION": 5,
            "TEXCOORD_0": 7
          },
          "indices": 4,
          "material": 1,
          "mode": 4
        }
      ]
    }
  ],
  "nodes": [
    {
      "children": [
        1,
        3
      ],
      "name": "root",
      "scale": [
        0.251839011907578,
        0.251839011907578,
        0.251839011907578
      ],
      "translation": [
        0.0199999883770943,
        0.0100000016391277,
        0.234999999403954
      ]
    },
    {
      "children": [
        2
      ],
      "name": "sock01"
    },
    {
      "mesh": 0,
      "name": "sock01"
    },
    {
      "children": [
        4
      ],
      "name": "sock01"
    },
    {
      "mesh": 1,
      "name": "sock01"
    }
  ],
  "samplers": [
    {
      "magFilter": 9729,
      "minFilter": 9985,
      "wrapS": 10497,
      "wrapT": 10497
    }
  ],
  "scene": 0,
  "scenes": [
    {
      "name": "Scene",
      "nodes": [
        0
      ]
    }
  ],
  "textures": [
    {
      "sampler": 0,
      "source": 0
    },
    {
      "sampler": 0,
      "source": 1
    },
    {
      "sampler": 0,
      "source": 2
    },
    {
      "sampler": 0,
      "source": 3
    },
    {
      "sampler": 0,
      "source": 4
    },
    {
      "sampler": 0,
      "source": 5
    }
  ]
}