{
  "accessors": [
    {
      "bufferView": 0,
      "componentType": 5125,
      "count": 5454,
      "type": "SCALAR"
    },
    {
      "bufferView": 1,
      "componentType": 5126,
      "count": 1451,
      "max": [
        0.819301068782806,
        1.0,
        0.819358706474304
      ],
      "min": [
        -0.819301068782806,
        -1.0,
        -0.819358706474304
      ],
      "type": "VEC3"
    },
    {
      "bufferView": 2,
      "componentType": 5126,
      "count": 1451,
      "type": "VEC3"
    },
    {
      "bufferView": 3,
      "componentType": 5126,
      "count": 1451,
      "type": "VEC2"
    }
  ],
  "asset": {
    "generator": "Substance Painter 2019.3.3",
    "version": "2.0"
  },
  "bufferViews": [
    {
      "buffer": 0,
      "byteLength": 21816,
      "target": 34963
    },
    {
      "buffer": 0,
      "byteLength": 17412,
      "byteOffset": 21816,
      "target": 34962
    },
    {
      "buffer": 0,
      "byteLength": 17412,
      "byteOffset": 39228,
      "target": 34962
    },
    {
      "buffer": 0,
      "byteLength": 11608,
      "byteOffset": 56640,
      "target": 34962
    }
  ],
  "buffers": [
    {
      "byteLength": 68248,
      "uri": "marble_sidetable.bin"
    }
  ],
  "images": [
    {
      "uri": "T_marblesidetable_baseColor.png"
    },
    {
      "uri": "T_marblesidetable_occlusionRoughnessMetallic.png"
    },
    {
      "uri": "T_marblesidetable_normal.png"
    }
  ],
  "materials": [
    {
      "alphaMode": "OPAQUE",
      "name": "T_marblesidetable",
      "normalTexture": {
        "index": 2
      },
      "occlusionTexture": {
        "index": 1
      },
      "pbrMetallicRoughness": {
        "baseColorTexture": {
          "index": 0
        },
        "metallicRoughnessTexture": {
          "index": 1
        }
      }
    }
  ],
  "meshes": [
    {
      "name": "Mesh",
      "primitives": [
        {
          "attributes": {
            "NORMAL": 2,
            "POSITION": 1,
            "TEXCOORD_0": 3
          },
          "indices": 0,
          "material": 0,
          "mode": 4
        }
      ]
    }
  ],
  "nodes": [
    {
      "children": [
        1
      ],
      "name": "root",
      "scale": [
        0.247763857245445,
        0.247763857245445,
        0.247763857245445
      ],
      "translation": [
        0.0,
        0.247273862361908,
        0.0
      ]
    },
    {
      "children": [
        2
      ],
      "name": "Mesh"
    },
    {
      "mesh": 0,
      "name": "Mesh"
    }
  ],
  "samplers": [
    {
      "magFilter": 9729,
      "minFilter": 9985,
      "wrapS": 10497,
      "wrapT": 10497
    }
  ],
  "scene": 0,
  "scenes": [
    {
      "name": "Scene",
      "nodes": [
        0
      ]
    }
  ],
  "textures": [
    {
      "sampler": 0,
      "source": 0
    },
    {
      "sampler": 0,
      "source": 1
    },
    {
      "sampler": 0,
      "source": 2
    }
  ]
}