{
  "accessors": [
    {
      "bufferView": 0,
      "componentType": 5125,
      "count": 661152,
      "type": "SCALAR"
    },
    {
      "bufferView": 1,
      "componentType": 5126,
      "count": 150600,
      "max": [
        0.999999940395355,
        0.56585282087326,
        0.427243083715439
      ],
      "min": [
        -0.999999940395355,
        -0.566026866436005,
        -0.427243024110794
      ],
      "type": "VEC3"
    },
    {
      "bufferView": 2,
      "componentType": 5126,
      "count": 150600,
      "type": "VEC3"
    },
    {
      "bufferView": 3,
      "componentType": 5126,
      "count": 150600,
      "type": "VEC2"
    }
  ],
  "asset": {
    "generator": "Substance Painter 2019.2.3",
    "version": "2.0"
  },
  "bufferViews": [
    {
      "buffer": 0,
      "byteLength": 2644608,
      "target": 34963
    },
    {
      "buffer": 0,
      "byteLength": 1807200,
      "byteOffset": 2644608,
      "target": 34962
    },
    {
      "buffer": 0,
      "byteLength": 1807200,
      "byteOffset": 4451808,
      "target": 34962
    },
    {
      "buffer": 0,
      "byteLength": 1204800,
      "byteOffset": 6259008,
      "target": 34962
    }
  ],
  "buffers": [
    {
      "byteLength": 7463808,
      "uri": "restlounger.bin"
    }
  ],
  "images": [
    {
      "uri": "T_restlounge_baseColor.png"
    },
    {
      "uri": "T_restlounge_occlusionRoughnessMetallic.png"
    },
    {
      "uri": "T_restlounge_normal.png"
    }
  ],
  "materials": [
    {
      "alphaMode": "OPAQUE",
      "name": "T_restlounge",
      "normalTexture": {
        "index": 2
      },
      "occlusionTexture": {
        "index": 1
      },
      "pbrMetallicRoughness": {
        "baseColorTexture": {
          "index": 0
        },
        "metallicRoughnessTexture": {
          "index": 1
        }
      }
    }
  ],
  "meshes": [
    {
      "name": "kristalia_restlounger",
      "primitives": [
        {
          "attributes": {
            "NORMAL": 2,
            "POSITION": 1,
            "TEXCOORD_0": 3
          },
          "indices": 0,
          "material": 0,
          "mode": 4
        }
      ]
    }
  ],
  "nodes": [
    {
      "children": [
        1
      ],
      "name": "root",
      "scale": [
        0.801004111766815,
        0.801004111766815,
        0.801004111766815
      ],
      "translation": [
        0.0,
        0.453389883041382,
        -5.36441802978516e-07
      ]
    },
    {
      "children": [
        2
      ],
      "name": "kristalia_restlounger"
    },
    {
      "mesh": 0,
      "name": "kristalia_restlounger"
    }
  ],
  "samplers": [
    {
      "magFilter": 9729,
      "minFilter": 9985,
      "wrapS": 10497,
      "wrapT": 10497
    }
  ],
  "scene": 0,
  "scenes": [
    {
      "name": "Scene",
      "nodes": [
        0
      ]
    }
  ],
  "textures": [
    {
      "sampler": 0,
      "source": 0
    },
    {
      "sampler": 0,
      "source": 1
    },
    {
      "sampler": 0,
      "source": 2
    }
  ]
}