{
  "accessors": [
    {
      "bufferView": 0,
      "componentType": 5125,
      "count": 53160,
      "type": "SCALAR"
    },
    {
      "bufferView": 1,
      "componentType": 5126,
      "count": 49848,
      "max": [
        0.998333275318146,
        0.749999940395355,
        1.0
      ],
      "min": [
        -0.998333275318146,
        -0.749999940395355,
        -1.0
      ],
      "type": "VEC3"
    },
    {
      "bufferView": 2,
      "componentType": 5126,
      "count": 49848,
      "type": "VEC3"
    },
    {
      "bufferView": 3,
      "componentType": 5126,
      "count": 49848,
      "type": "VEC2"
    }
  ],
  "asset": {
    "generator": "Substance Painter 2019.2.3",
    "version": "2.0"
  },
  "bufferViews": [
    {
      "buffer": 0,
      "byteLength": 212640,
      "target": 34963
    },
    {
      "buffer": 0,
      "byteLength": 598176,
      "byteOffset": 212640,
      "target": 34962
    },
    {
      "buffer": 0,
      "byteLength": 598176,
      "byteOffset": 810816,
      "target": 34962
    },
    {
      "buffer": 0,
      "byteLength": 398784,
      "byteOffset": 1408992,
      "target": 34962
    }
  ],
  "buffers": [
    {
      "byteLength": 1807776,
      "uri": "pollersmall.bin"
    }
  ],
  "images": [
    {
      "uri": "T_poller_baseColor.png"
    },
    {
      "uri": "T_poller_occlusionRoughnessMetallic.png"
    },
    {
      "uri": "T_poller_normal.png"
    }
  ],
  "materials": [
    {
      "alphaMode": "OPAQUE",
      "name": "T_poller",
      "normalTexture": {
        "index": 2
      },
      "occlusionTexture": {
        "index": 1
      },
      "pbrMetallicRoughness": {
        "baseColorTexture": {
          "index": 0
        },
        "metallicRoughnessTexture": {
          "index": 1
        }
      }
    }
  ],
  "meshes": [
    {
      "name": "Mesh",
      "primitives": [
        {
          "attributes": {
            "NORMAL": 2,
            "POSITION": 1,
            "TEXCOORD_0": 3
          },
          "indices": 0,
          "material": 0,
          "mode": 4
        }
      ]
    }
  ],
  "nodes": [
    {
      "children": [
        1
      ],
      "name": "root",
      "scale": [
        0.300000011920929,
        0.300000011920929,
        0.300000011920929
      ],
      "translation": [
        0.0,
        0.224999994039536,
        0.0
      ]
    },
    {
      "children": [
        2
      ],
      "name": "Mesh"
    },
    {
      "mesh": 0,
      "name": "Mesh"
    }
  ],
  "samplers": [
    {
      "magFilter": 9729,
      "minFilter": 9985,
      "wrapS": 10497,
      "wrapT": 10497
    }
  ],
  "scene": 0,
  "scenes": [
    {
      "name": "Scene",
      "nodes": [
        0
      ]
    }
  ],
  "textures": [
    {
      "sampler": 0,
      "source": 0
    },
    {
      "sampler": 0,
      "source": 1
    },
    {
      "sampler": 0,
      "source": 2
    }
  ]
}