{
  "accessors": [
    {
      "bufferView": 0,
      "componentType": 5125,
      "count": 60480,
      "type": "SCALAR"
    },
    {
      "bufferView": 1,
      "componentType": 5126,
      "count": 10878,
      "max": [
        1.0,
        0.5,
        0.533333361148834
      ],
      "min": [
        -1.0,
        0.489376068115234,
        -0.533333361148834
      ],
      "type": "VEC3"
    },
    {
      "bufferView": 2,
      "componentType": 5126,
      "count": 10878,
      "type": "VEC3"
    },
    {
      "bufferView": 3,
      "componentType": 5126,
      "count": 10878,
      "type": "VEC2"
    },
    {
      "bufferView": 4,
      "componentType": 5125,
      "count": 30834,
      "type": "SCALAR"
    },
    {
      "bufferView": 5,
      "componentType": 5126,
      "count": 8615,
      "max": [
        0.816205203533173,
        0.489376068115234,
        0.413308829069138
      ],
      "min": [
        -0.816205203533173,
        -0.5,
        -0.413427352905273
      ],
      "type": "VEC3"
    },
    {
      "bufferView": 6,
      "componentType": 5126,
      "count": 8615,
      "type": "VEC3"
    },
    {
      "bufferView": 7,
      "componentType": 5126,
      "count": 8615,
      "type": "VEC2"
    }
  ],
  "asset": {
    "generator": "Substance Painter 2019.3.3",
    "version": "2.0"
  },
  "bufferViews": [
    {
      "buffer": 0,
      "byteLength": 241920,
      "target": 34963
    },
    {
      "buffer": 0,
      "byteLength": 130536,
      "byteOffset": 241920,
      "target": 34962
    },
    {
      "buffer": 0,
      "byteLength": 130536,
      "byteOffset": 372456,
      "target": 34962
    },
    {
      "buffer": 0,
      "byteLength": 87024,
      "byteOffset": 502992,
      "target": 34962
    },
    {
      "buffer": 0,
      "byteLength": 123336,
      "byteOffset": 590016,
      "target": 34963
    },
    {
      "buffer": 0,
      "byteLength": 103380,
      "byteOffset": 713352,
      "target": 34962
    },
    {
      "buffer": 0,
      "byteLength": 103380,
      "byteOffset": 816732,
      "target": 34962
    },
    {
      "buffer": 0,
      "byteLength": 68920,
      "byteOffset": 920112,
      "target": 34962
    }
  ],
  "buffers": [
    {
      "byteLength": 989032,
      "uri": "bess_table.bin"
    }
  ],
  "images": [
    {
      "uri": "T_bessglass_baseColor.png"
    },
    {
      "uri": "T_bessglass_occlusionRoughnessMetallic.png"
    },
    {
      "uri": "T_bessglass_normal.png"
    },
    {
      "uri": "T_besstable_baseColor.png"
    },
    {
      "uri": "T_besstable_occlusionRoughnessMetallic.png"
    },
    {
      "uri": "T_besstable_normal.png"
    }
  ],
  "materials": [
    {
      "alphaMode": "BLEND",
      "name": "T_bessglass",
      "normalTexture": {
        "index": 2
      },
      "occlusionTexture": {
        "index": 1
      },
      "pbrMetallicRoughness": {
        "baseColorTexture": {
          "index": 0
        },
        "metallicRoughnessTexture": {
          "index": 1
        }
      }
    },
    {
      "alphaMode": "OPAQUE",
      "name": "T_besstable",
      "normalTexture": {
        "index": 5
      },
      "occlusionTexture": {
        "index": 4
      },
      "pbrMetallicRoughness": {
        "baseColorTexture": {
          "index": 3
        },
        "metallicRoughnessTexture": {
          "index": 4
        }
      }
    }
  ],
  "meshes": [
    {
      "name": "Mesh",
      "primitives": [
        {
          "attributes": {
            "NORMAL": 2,
            "POSITION": 1,
            "TEXCOORD_0": 3
          },
          "indices": 0,
          "material": 0,
          "mode": 4
        }
      ]
    },
    {
      "name": "Mesh",
      "primitives": [
        {
          "attributes": {
            "NORMAL": 6,
            "POSITION": 5,
            "TEXCOORD_0": 7
          },
          "indices": 4,
          "material": 1,
          "mode": 4
        }
      ]
    }
  ],
  "nodes": [
    {
      "children": [
        1,
        3
      ],
      "name": "root",
      "scale": [
        0.75,
        0.75,
        0.75
      ],
      "translation": [
        0.0,
        0.375,
        0.0
      ]
    },
    {
      "children": [
        2
      ],
      "name": "Mesh"
    },
    {
      "mesh": 0,
      "name": "Mesh"
    },
    {
      "children": [
        4
      ],
      "name": "Mesh"
    },
    {
      "mesh": 1,
      "name": "Mesh"
    }
  ],
  "samplers": [
    {
      "magFilter": 9729,
      "minFilter": 9985,
      "wrapS": 10497,
      "wrapT": 10497
    }
  ],
  "scene": 0,
  "scenes": [
    {
      "name": "Scene",
      "nodes": [
        0
      ]
    }
  ],
  "textures": [
    {
      "sampler": 0,
      "source": 0
    },
    {
      "sampler": 0,
      "source": 1
    },
    {
      "sampler": 0,
      "source": 2
    },
    {
      "sampler": 0,
      "source": 3
    },
    {
      "sampler": 0,
      "source": 4
    },
    {
      "sampler": 0,
      "source": 5
    }
  ]
}