{
  "accessors": [
    {
      "bufferView": 0,
      "componentType": 5125,
      "count": 91377,
      "type": "SCALAR"
    },
    {
      "bufferView": 1,
      "componentType": 5126,
      "count": 21376,
      "max": [
        0.610000014305115,
        1.09049999713898,
        0.23475843667984
      ],
      "min": [
        -0.610000014305115,
        0.0,
        -0.235758453607559
      ],
      "type": "VEC3"
    },
    {
      "bufferView": 2,
      "componentType": 5126,
      "count": 21376,
      "type": "VEC3"
    },
    {
      "bufferView": 3,
      "componentType": 5126,
      "count": 21376,
      "type": "VEC2"
    }
  ],
  "asset": {
    "generator": "Substance Painter 6.1.3",
    "version": "2.0"
  },
  "bufferViews": [
    {
      "buffer": 0,
      "byteLength": 365508,
      "target": 34963
    },
    {
      "buffer": 0,
      "byteLength": 256512,
      "byteOffset": 365508,
      "target": 34962
    },
    {
      "buffer": 0,
      "byteLength": 256512,
      "byteOffset": 622020,
      "target": 34962
    },
    {
      "buffer": 0,
      "byteLength": 171008,
      "byteOffset": 878532,
      "target": 34962
    }
  ],
  "buffers": [
    {
      "byteLength": 1049540,
      "uri": "wine_bar_orient_darkwood.bin"
    }
  ],
  "images": [
    {
      "uri": "T_winebar_darkwood_baseColor.png"
    },
    {
      "uri": "T_winebar_darkwood_occlusionRoughnessMetallic.png"
    },
    {
      "uri": "T_winebar_darkwood_normal.png"
    }
  ],
  "materials": [
    {
      "alphaMode": "OPAQUE",
      "name": "T_winebar_darkwood",
      "normalTexture": {
        "index": 2
      },
      "occlusionTexture": {
        "index": 1
      },
      "pbrMetallicRoughness": {
        "baseColorTexture": {
          "index": 0
        },
        "metallicRoughnessTexture": {
          "index": 1
        }
      }
    }
  ],
  "meshes": [
    {
      "name": "Mesh",
      "primitives": [
        {
          "attributes": {
            "NORMAL": 2,
            "POSITION": 1,
            "TEXCOORD_0": 3
          },
          "indices": 0,
          "material": 0,
          "mode": 4
        }
      ]
    }
  ],
  "nodes": [
    {
      "children": [
        1
      ],
      "name": "RootNode"
    },
    {
      "children": [
        2
      ],
      "name": "Mesh"
    },
    {
      "mesh": 0,
      "name": "Mesh"
    }
  ],
  "samplers": [
    {
      "magFilter": 9729,
      "minFilter": 9985,
      "wrapS": 10497,
      "wrapT": 10497
    }
  ],
  "scene": 0,
  "scenes": [
    {
      "name": "Scene",
      "nodes": [
        0
      ]
    }
  ],
  "textures": [
    {
      "sampler": 0,
      "source": 0
    },
    {
      "sampler": 0,
      "source": 1
    },
    {
      "sampler": 0,
      "source": 2
    }
  ]
}