{
  "accessors": [
    {
      "bufferView": 0,
      "componentType": 5125,
      "count": 155136,
      "type": "SCALAR"
    },
    {
      "bufferView": 1,
      "componentType": 5126,
      "count": 30163,
      "max": [
        1.0,
        0.345463395118713,
        0.919167459011078
      ],
      "min": [
        -1.0,
        -0.345463395118713,
        -0.919167459011078
      ],
      "type": "VEC3"
    },
    {
      "bufferView": 2,
      "componentType": 5126,
      "count": 30163,
      "type": "VEC3"
    },
    {
      "bufferView": 3,
      "componentType": 5126,
      "count": 30163,
      "type": "VEC2"
    }
  ],
  "asset": {
    "generator": "Substance Painter 2019.2.3",
    "version": "2.0"
  },
  "bufferViews": [
    {
      "buffer": 0,
      "byteLength": 620544,
      "target": 34963
    },
    {
      "buffer": 0,
      "byteLength": 361956,
      "byteOffset": 620544,
      "target": 34962
    },
    {
      "buffer": 0,
      "byteLength": 361956,
      "byteOffset": 982500,
      "target": 34962
    },
    {
      "buffer": 0,
      "byteLength": 241304,
      "byteOffset": 1344456,
      "target": 34962
    }
  ],
  "buffers": [
    {
      "byteLength": 1585760,
      "uri": "present_04.bin"
    }
  ],
  "images": [
    {
      "uri": "T_present_baseColor.png"
    },
    {
      "uri": "T_present_occlusionRoughnessMetallic.png"
    },
    {
      "uri": "T_present_normal.png"
    }
  ],
  "materials": [
    {
      "alphaMode": "OPAQUE",
      "name": "T_present",
      "normalTexture": {
        "index": 2
      },
      "occlusionTexture": {
        "index": 1
      },
      "pbrMetallicRoughness": {
        "baseColorTexture": {
          "index": 0
        },
        "metallicRoughnessTexture": {
          "index": 1
        }
      }
    }
  ],
  "meshes": [
    {
      "name": "present_04",
      "primitives": [
        {
          "attributes": {
            "NORMAL": 2,
            "POSITION": 1,
            "TEXCOORD_0": 3
          },
          "indices": 0,
          "material": 0,
          "mode": 4
        }
      ]
    }
  ],
  "nodes": [
    {
      "children": [
        1
      ],
      "name": "root",
      "scale": [
        0.177925929427147,
        0.177925929427147,
        0.177925929427147
      ],
      "translation": [
        0.0,
        0.0614668913185596,
        0.0
      ]
    },
    {
      "children": [
        2
      ],
      "name": "present_04"
    },
    {
      "mesh": 0,
      "name": "present_04"
    }
  ],
  "samplers": [
    {
      "magFilter": 9729,
      "minFilter": 9985,
      "wrapS": 10497,
      "wrapT": 10497
    }
  ],
  "scene": 0,
  "scenes": [
    {
      "name": "Scene",
      "nodes": [
        0
      ]
    }
  ],
  "textures": [
    {
      "sampler": 0,
      "source": 0
    },
    {
      "sampler": 0,
      "source": 1
    },
    {
      "sampler": 0,
      "source": 2
    }
  ]
}