{"asset":{"generator":"Modov11.2","version":"2.0"},"scene":0,"scenes":[{"nodes":[0,5]}],"nodes":[{"name":"foil_balloon2020","matrix":[1.0,0.0,0.0,0.0,0.0,1.0,0.0,0.0,0.0,0.0,1.0,0.0,0.009773867204785347,0.0005483593558892608,0.001381844049319625,1.0],"children":[1,2,3,4]},{"name":"00","rotation":[0.0,0.0,0.0,1.0],"translation":[-0.009773867204785347,-0.0005483593558892608,-0.001381844049319625],"scale":[1.0,1.0,1.0],"mesh":0},{"name":"2","rotation":[0.0,0.0,0.0,1.0],"translation":[0.0,4.163336342344337e-17,0.0],"scale":[1.0,1.0,1.0],"mesh":1},{"name":"22","mesh":2},{"name":"0","mesh":3},{"name":"Texture Group"}],"meshes":[{"primitives":[{"indices":1,"mode":4,"material":1,"attributes":{"POSITION":0,"NORMAL":2,"TEXCOORD_0":3}}]},{"primitives":[{"indices":5,"mode":4,"material":1,"attributes":{"POSITION":4,"NORMAL":6,"TEXCOORD_0":7}}]},{"primitives":[{"indices":9,"mode":4,"material":1,"attributes":{"POSITION":8,"NORMAL":10,"TEXCOORD_0":11}}]},{"primitives":[{"indices":13,"mode":4,"material":1,"attributes":{"POSITION":12,"NORMAL":14,"TEXCOORD_0":15}}]}],"buffers":[{"byteLength":4163312,"uri":"newyear2020_foilballoon.bin"}],"bufferViews":[{"buffer":0,"byteLength":264564},{"buffer":0,"byteLength":497592,"byteOffset":264564},{"buffer":0,"byteLength":264564,"byteOffset":762156},{"buffer":0,"byteLength":176376,"byteOffset":1026720},{"buffer":0,"byteLength":196824,"byteOffset":1203096},{"buffer":0,"byteLength":346200,"byteOffset":1399920},{"buffer":0,"byteLength":196824,"byteOffset":1746120},{"buffer":0,"byteLength":131216,"byteOffset":1942944},{"buffer":0,"byteLength":197292,"byteOffset":2074160},{"buffer":0,"byteLength":346560,"byteOffset":2271452},{"buffer":0,"byteLength":197292,"byteOffset":2618012},{"buffer":0,"byteLength":131528,"byteOffset":2815304},{"buffer":0,"byteLength":264084,"byteOffset":2946832},{"buffer":0,"byteLength":497568,"byteOffset":3210916},{"buffer":0,"byteLength":264084,"byteOffset":3708484},{"buffer":0,"byteLength":176056,"byteOffset":3972568},{"buffer":0,"byteLength":408,"byteOffset":4148624},{"buffer":0,"byteLength":1224,"byteOffset":4149032},{"buffer":0,"byteLength":408,"byteOffset":4150256},{"buffer":0,"byteLength":1632,"byteOffset":4150664},{"buffer":0,"byteLength":408,"byteOffset":4152296},{"buffer":0,"byteLength":1224,"byteOffset":4152704},{"buffer":0,"byteLength":408,"byteOffset":4153928},{"buffer":0,"byteLength":1632,"byteOffset":4154336},{"buffer":0,"byteLength":408,"byteOffset":4155968},{"buffer":0,"byteLength":1224,"byteOffset":4156376},{"buffer":0,"byteLength":408,"byteOffset":4157600},{"buffer":0,"byteLength":1632,"byteOffset":4158008},{"buffer":0,"byteLength":408,"byteOffset":4159640},{"buffer":0,"byteLength":1224,"byteOffset":4160048},{"buffer":0,"byteLength":408,"byteOffset":4161272},{"buffer":0,"byteLength":1632,"byteOffset":4161680}],"accessors":[{"bufferView":0,"type":"VEC3","componentType":5126,"count":22047,"min":[-0.022726131603121759,-0.03945164009928703,-0.058467619121074679],"max":[0.8122373223304749,2.5736844539642336,0.06084930896759033]},{"bufferView":1,"type":"SCALAR","componentType":5125,"count":124398},{"bufferView":2,"type":"VEC3","componentType":5126,"count":22047},{"bufferView":3,"type":"VEC2","componentType":5126,"count":22047},{"bufferView":4,"type":"VEC3","componentType":5126,"count":16402,"min":[-0.8193889856338501,0.0,-0.07260259240865708],"max":[0.032499998807907107,2.5713741779327394,0.0723961740732193]},{"bufferView":5,"type":"SCALAR","componentType":5125,"count":86550},{"bufferView":6,"type":"VEC3","componentType":5126,"count":16402},{"bufferView":7,"type":"VEC2","componentType":5126,"count":16402},{"bufferView":8,"type":"VEC3","componentType":5126,"count":16441,"min":[-0.009388968348503113,2.0337157249450685,-0.07263229787349701],"max":[0.40936630964279177,2.576373815536499,0.07239797711372376]},{"bufferView":9,"type":"SCALAR","componentType":5125,"count":86640},{"bufferView":10,"type":"VEC3","componentType":5126,"count":16441},{"bufferView":11,"type":"VEC2","componentType":5126,"count":16441},{"bufferView":12,"type":"VEC3","componentType":5126,"count":22007,"min":[-0.39277786016464236,2.0368449687957765,-0.060149528086185458],"max":[-0.007536560297012329,2.5831360816955568,0.059766985476017]},{"bufferView":13,"type":"SCALAR","componentType":5125,"count":124392},{"bufferView":14,"type":"VEC3","componentType":5126,"count":22007},{"bufferView":15,"type":"VEC2","componentType":5126,"count":22007},{"bufferView":16,"type":"SCALAR","componentType":5126,"count":102,"min":[0.0],"max":[4.208333492279053]},{"bufferView":17,"type":"VEC3","componentType":5126,"count":102},{"bufferView":18,"type":"SCALAR","componentType":5126,"count":102,"min":[0.0],"max":[4.208333492279053]},{"bufferView":19,"type":"VEC4","componentType":5126,"count":102},{"bufferView":20,"type":"SCALAR","componentType":5126,"count":102,"min":[0.0],"max":[4.208333492279053]},{"bufferView":21,"type":"VEC3","componentType":5126,"count":102},{"bufferView":22,"type":"SCALAR","componentType":5126,"count":102,"min":[0.0],"max":[4.208333492279053]},{"bufferView":23,"type":"VEC4","componentType":5126,"count":102},{"bufferView":24,"type":"SCALAR","componentType":5126,"count":102,"min":[0.0],"max":[4.208333492279053]},{"bufferView":25,"type":"VEC3","componentType":5126,"count":102},{"bufferView":26,"type":"SCALAR","componentType":5126,"count":102,"min":[0.0],"max":[4.208333492279053]},{"bufferView":27,"type":"VEC4","componentType":5126,"count":102},{"bufferView":28,"type":"SCALAR","componentType":5126,"count":102,"min":[0.0],"max":[4.208333492279053]},{"bufferView":29,"type":"VEC3","componentType":5126,"count":102},{"bufferView":30,"type":"SCALAR","componentType":5126,"count":102,"min":[0.0],"max":[4.208333492279053]},{"bufferView":31,"type":"VEC4","componentType":5126,"count":102}],"materials":[{"pbrMetallicRoughness":{"metallicFactor":0.5,"roughnessFactor":0.5}},{"name":"T_goldtexture","emissiveFactor":[0.0,0.0,0.0],"alphaMode":"OPAQUE","doubleSided":false,"normalTexture":{"index":2,"texCoord":0},"occlusionTexture":{"index":3,"texCoord":0},"pbrMetallicRoughness":{"baseColorFactor":[0.8879232406616211,0.8848031163215637,0.8663054704666138,1.0],"metallicFactor":1.0,"roughnessFactor":1.0,"baseColorTexture":{"index":0,"texCoord":0},"metallicRoughnessTexture":{"index":1,"texCoord":0}}}],"textures":[{"name":"T_gold_baseColor ","sampler":0,"source":0},{"name":"T_gold_occlusionRoughnessMetallic ","sampler":1,"source":1},{"name":"T_gold_normal2 ","sampler":2,"source":2},{"name":"T_gold_occlusionRoughnessMetallic 2","sampler":3,"source":1}],"images":[{"mimeType":"image/png","uri":"T_gold_baseColor.png"},{"mimeType":"image/png","uri":"T_gold_occlusionRoughnessMetallic.png"},{"mimeType":"image/png","uri":"T_gold_normal.png"}],"samplers":[{"wrapS":10497,"wrapT":10497},{"wrapS":10497,"wrapT":10497},{"wrapS":10497,"wrapT":10497},{"wrapS":10497,"wrapT":10497}],"animations":[{"channels":[{"sampler":0,"target":{"node":3,"path":"translation"}},{"sampler":1,"target":{"node":3,"path":"rotation"}},{"sampler":2,"target":{"node":2,"path":"translation"}},{"sampler":3,"target":{"node":2,"path":"rotation"}},{"sampler":4,"target":{"node":1,"path":"translation"}},{"sampler":5,"target":{"node":1,"path":"rotation"}},{"sampler":6,"target":{"node":4,"path":"translation"}},{"sampler":7,"target":{"node":4,"path":"rotation"}}],"samplers":[{"input":16,"output":17,"interpolation":"LINEAR"},{"input":18,"output":19,"interpolation":"LINEAR"},{"input":20,"output":21,"interpolation":"LINEAR"},{"input":22,"output":23,"interpolation":"LINEAR"},{"input":24,"output":25,"interpolation":"LINEAR"},{"input":26,"output":27,"interpolation":"LINEAR"},{"input":28,"output":29,"interpolation":"LINEAR"},{"input":30,"output":31,"interpolation":"LINEAR"}]}]}