{
  "accessors": [
    {
      "bufferView": 0,
      "componentType": 5125,
      "count": 504984,
      "type": "SCALAR"
    },
    {
      "bufferView": 1,
      "componentType": 5126,
      "count": 96439,
      "max": [
        1.0,
        0.350543797016144,
        0.377861231565475
      ],
      "min": [
        -1.0,
        -0.350543797016144,
        -0.377861231565475
      ],
      "type": "VEC3"
    },
    {
      "bufferView": 2,
      "componentType": 5126,
      "count": 96439,
      "type": "VEC3"
    },
    {
      "bufferView": 3,
      "componentType": 5126,
      "count": 96439,
      "type": "VEC2"
    }
  ],
  "asset": {
    "generator": "Substance Painter 2019.3.3",
    "version": "2.0"
  },
  "bufferViews": [
    {
      "buffer": 0,
      "byteLength": 2019936,
      "target": 34963
    },
    {
      "buffer": 0,
      "byteLength": 1157268,
      "byteOffset": 2019936,
      "target": 34962
    },
    {
      "buffer": 0,
      "byteLength": 1157268,
      "byteOffset": 3177204,
      "target": 34962
    },
    {
      "buffer": 0,
      "byteLength": 771512,
      "byteOffset": 4334472,
      "target": 34962
    }
  ],
  "buffers": [
    {
      "byteLength": 5105984,
      "uri": "chastersofa.bin"
    }
  ],
  "images": [
    {
      "uri": "T_chastersofa_baseColor.png"
    },
    {
      "uri": "T_chastersofa_occlusionRoughnessMetallic.png"
    },
    {
      "uri": "T_chastersofa_normal.png"
    }
  ],
  "materials": [
    {
      "alphaMode": "OPAQUE",
      "name": "T_chastersofa",
      "normalTexture": {
        "index": 2
      },
      "occlusionTexture": {
        "index": 1
      },
      "pbrMetallicRoughness": {
        "baseColorTexture": {
          "index": 0
        },
        "metallicRoughnessTexture": {
          "index": 1
        }
      }
    }
  ],
  "meshes": [
    {
      "name": "O2",
      "primitives": [
        {
          "attributes": {
            "NORMAL": 2,
            "POSITION": 1,
            "TEXCOORD_0": 3
          },
          "indices": 0,
          "material": 0,
          "mode": 4
        }
      ]
    }
  ],
  "nodes": [
    {
      "children": [
        1
      ],
      "name": "root",
      "scale": [
        1.10000002384186,
        1.10000002384186,
        1.10000002384186
      ],
      "translation": [
        0.0,
        0.385598182678223,
        0.00153461098670959
      ]
    },
    {
      "children": [
        2
      ],
      "name": "O2"
    },
    {
      "mesh": 0,
      "name": "O2"
    }
  ],
  "samplers": [
    {
      "magFilter": 9729,
      "minFilter": 9985,
      "wrapS": 10497,
      "wrapT": 10497
    }
  ],
  "scene": 0,
  "scenes": [
    {
      "name": "Scene",
      "nodes": [
        0
      ]
    }
  ],
  "textures": [
    {
      "sampler": 0,
      "source": 0
    },
    {
      "sampler": 0,
      "source": 1
    },
    {
      "sampler": 0,
      "source": 2
    }
  ]
}