{
  "accessors": [
    {
      "bufferView": 0,
      "componentType": 5125,
      "count": 22506,
      "type": "SCALAR"
    },
    {
      "bufferView": 1,
      "componentType": 5126,
      "count": 4067,
      "max": [
        1.0,
        0.00783045124262571,
        0.800000011920929
      ],
      "min": [
        -1.0,
        -0.00783045124262571,
        -0.800000011920929
      ],
      "type": "VEC3"
    },
    {
      "bufferView": 2,
      "componentType": 5126,
      "count": 4067,
      "type": "VEC3"
    },
    {
      "bufferView": 3,
      "componentType": 5126,
      "count": 4067,
      "type": "VEC2"
    }
  ],
  "asset": {
    "generator": "Substance Painter 2019.2.3",
    "version": "2.0"
  },
  "bufferViews": [
    {
      "buffer": 0,
      "byteLength": 90024,
      "target": 34963
    },
    {
      "buffer": 0,
      "byteLength": 48804,
      "byteOffset": 90024,
      "target": 34962
    },
    {
      "buffer": 0,
      "byteLength": 48804,
      "byteOffset": 138828,
      "target": 34962
    },
    {
      "buffer": 0,
      "byteLength": 32536,
      "byteOffset": 187632,
      "target": 34962
    }
  ],
  "buffers": [
    {
      "byteLength": 220168,
      "uri": "chali_rug.bin"
    }
  ],
  "images": [
    {
      "uri": "T_chali_baseColor.png"
    },
    {
      "uri": "T_chali_occlusionRoughnessMetallic.png"
    },
    {
      "uri": "T_chali_normal.png"
    }
  ],
  "materials": [
    {
      "alphaMode": "OPAQUE",
      "name": "T_chali",
      "normalTexture": {
        "index": 2
      },
      "occlusionTexture": {
        "index": 1
      },
      "pbrMetallicRoughness": {
        "baseColorTexture": {
          "index": 0
        },
        "metallicRoughnessTexture": {
          "index": 1
        }
      }
    }
  ],
  "meshes": [
    {
      "name": "Mesh",
      "primitives": [
        {
          "attributes": {
            "NORMAL": 2,
            "POSITION": 1,
            "TEXCOORD_0": 3
          },
          "indices": 0,
          "material": 0,
          "mode": 4
        }
      ]
    }
  ],
  "nodes": [
    {
      "children": [
        1
      ],
      "name": "root",
      "scale": [
        0.125,
        0.125,
        0.125
      ],
      "translation": [
        0.000305399298667908,
        0.000802114373072982,
        4.99933958053589e-06
      ]
    },
    {
      "children": [
        2
      ],
      "name": "Mesh"
    },
    {
      "mesh": 0,
      "name": "Mesh"
    }
  ],
  "samplers": [
    {
      "magFilter": 9729,
      "minFilter": 9985,
      "wrapS": 10497,
      "wrapT": 10497
    }
  ],
  "scene": 0,
  "scenes": [
    {
      "name": "Scene",
      "nodes": [
        0
      ]
    }
  ],
  "textures": [
    {
      "sampler": 0,
      "source": 0
    },
    {
      "sampler": 0,
      "source": 1
    },
    {
      "sampler": 0,
      "source": 2
    }
  ]
}