{
  "accessors": [
    {
      "bufferView": 0,
      "componentType": 5125,
      "count": 100485,
      "type": "SCALAR"
    },
    {
      "bufferView": 1,
      "componentType": 5126,
      "count": 21210,
      "max": [
        0.570469558238983,
        1.0,
        0.677619338035583
      ],
      "min": [
        -0.570469558238983,
        -1.0,
        -0.677619338035583
      ],
      "type": "VEC3"
    },
    {
      "bufferView": 2,
      "componentType": 5126,
      "count": 21210,
      "type": "VEC3"
    },
    {
      "bufferView": 3,
      "componentType": 5126,
      "count": 21210,
      "type": "VEC2"
    }
  ],
  "asset": {
    "generator": "Substance Painter 2019.2.3",
    "version": "2.0"
  },
  "bufferViews": [
    {
      "buffer": 0,
      "byteLength": 401940,
      "target": 34963
    },
    {
      "buffer": 0,
      "byteLength": 254520,
      "byteOffset": 401940,
      "target": 34962
    },
    {
      "buffer": 0,
      "byteLength": 254520,
      "byteOffset": 656460,
      "target": 34962
    },
    {
      "buffer": 0,
      "byteLength": 169680,
      "byteOffset": 910980,
      "target": 34962
    }
  ],
  "buffers": [
    {
      "byteLength": 1080660,
      "uri": "feelgood.bin"
    }
  ],
  "images": [
    {
      "uri": "T_feelgood_baseColor.png"
    },
    {
      "uri": "T_feelgood_occlusionRoughnessMetallic.png"
    },
    {
      "uri": "T_feelgood_normal.png"
    }
  ],
  "materials": [
    {
      "alphaMode": "OPAQUE",
      "name": "T_feelgood",
      "normalTexture": {
        "index": 2
      },
      "occlusionTexture": {
        "index": 1
      },
      "pbrMetallicRoughness": {
        "baseColorTexture": {
          "index": 0
        },
        "metallicRoughnessTexture": {
          "index": 1
        }
      }
    }
  ],
  "meshes": [
    {
      "name": "feelgood",
      "primitives": [
        {
          "attributes": {
            "NORMAL": 2,
            "POSITION": 1,
            "TEXCOORD_0": 3
          },
          "indices": 0,
          "material": 0,
          "mode": 4
        }
      ]
    }
  ],
  "nodes": [
    {
      "children": [
        1
      ],
      "name": "root",
      "scale": [
        0.426450490951538,
        0.426450490951538,
        0.426450490951538
      ],
      "translation": [
        0.0,
        0.426450490951538,
        7.51018524169922e-06
      ]
    },
    {
      "children": [
        2
      ],
      "name": "feelgood"
    },
    {
      "mesh": 0,
      "name": "feelgood"
    }
  ],
  "samplers": [
    {
      "magFilter": 9729,
      "minFilter": 9985,
      "wrapS": 10497,
      "wrapT": 10497
    }
  ],
  "scene": 0,
  "scenes": [
    {
      "name": "Scene",
      "nodes": [
        0
      ]
    }
  ],
  "textures": [
    {
      "sampler": 0,
      "source": 0
    },
    {
      "sampler": 0,
      "source": 1
    },
    {
      "sampler": 0,
      "source": 2
    }
  ]
}