{
  "accessors": [
    {
      "bufferView": 0,
      "componentType": 5125,
      "count": 48360,
      "type": "SCALAR"
    },
    {
      "bufferView": 1,
      "componentType": 5126,
      "count": 11950,
      "max": [
        1.0,
        0.663286983966827,
        0.457882821559906
      ],
      "min": [
        -1.0,
        -0.663286983966827,
        -0.457882821559906
      ],
      "type": "VEC3"
    },
    {
      "bufferView": 2,
      "componentType": 5126,
      "count": 11950,
      "type": "VEC3"
    },
    {
      "bufferView": 3,
      "componentType": 5126,
      "count": 11950,
      "type": "VEC2"
    }
  ],
  "asset": {
    "generator": "Substance Painter 2019.2.3",
    "version": "2.0"
  },
  "bufferViews": [
    {
      "buffer": 0,
      "byteLength": 193440,
      "target": 34963
    },
    {
      "buffer": 0,
      "byteLength": 143400,
      "byteOffset": 193440,
      "target": 34962
    },
    {
      "buffer": 0,
      "byteLength": 143400,
      "byteOffset": 336840,
      "target": 34962
    },
    {
      "buffer": 0,
      "byteLength": 95600,
      "byteOffset": 480240,
      "target": 34962
    }
  ],
  "buffers": [
    {
      "byteLength": 575840,
      "uri": "wolfgang_sibismax.bin"
    }
  ],
  "images": [
    {
      "uri": "T_sibis_baseColor.png"
    },
    {
      "uri": "T_sibis_occlusionRoughnessMetallic.png"
    },
    {
      "uri": "T_sibis_normal.png"
    }
  ],
  "materials": [
    {
      "alphaMode": "OPAQUE",
      "name": "T_sibis",
      "normalTexture": {
        "index": 2
      },
      "occlusionTexture": {
        "index": 1
      },
      "pbrMetallicRoughness": {
        "baseColorTexture": {
          "index": 0
        },
        "metallicRoughnessTexture": {
          "index": 1
        }
      }
    }
  ],
  "meshes": [
    {
      "name": "wolfgang_sirch_sibis_max",
      "primitives": [
        {
          "attributes": {
            "NORMAL": 2,
            "POSITION": 1,
            "TEXCOORD_0": 3
          },
          "indices": 0,
          "material": 0,
          "mode": 4
        }
      ]
    }
  ],
  "nodes": [
    {
      "children": [
        1
      ],
      "name": "wolfgang.obj",
      "scale": [
        0.283210009336472,
        0.283210009336472,
        0.283210009336472
      ],
      "translation": [
        0.0,
        0.187849506735802,
        0.0
      ]
    },
    {
      "children": [
        2
      ],
      "name": "g wolfgang_sirch_sibis_max"
    },
    {
      "mesh": 0,
      "name": "wolfgang_sirch_sibis_max"
    }
  ],
  "samplers": [
    {
      "magFilter": 9729,
      "minFilter": 9985,
      "wrapS": 10497,
      "wrapT": 10497
    }
  ],
  "scene": 0,
  "scenes": [
    {
      "name": "Scene",
      "nodes": [
        0
      ]
    }
  ],
  "textures": [
    {
      "sampler": 0,
      "source": 0
    },
    {
      "sampler": 0,
      "source": 1
    },
    {
      "sampler": 0,
      "source": 2
    }
  ]
}