{
  "accessors": [
    {
      "bufferView": 0,
      "componentType": 5125,
      "count": 28014,
      "type": "SCALAR"
    },
    {
      "bufferView": 1,
      "componentType": 5126,
      "count": 6749,
      "max": [
        0.500790476799011,
        0.0311153531074524,
        1.0
      ],
      "min": [
        -0.500790476799011,
        -0.0311153531074524,
        -1.0
      ],
      "type": "VEC3"
    },
    {
      "bufferView": 2,
      "componentType": 5126,
      "count": 6749,
      "type": "VEC3"
    },
    {
      "bufferView": 3,
      "componentType": 5126,
      "count": 6749,
      "type": "VEC2"
    }
  ],
  "asset": {
    "generator": "Substance Painter 2019.2.3",
    "version": "2.0"
  },
  "bufferViews": [
    {
      "buffer": 0,
      "byteLength": 112056,
      "target": 34963
    },
    {
      "buffer": 0,
      "byteLength": 80988,
      "byteOffset": 112056,
      "target": 34962
    },
    {
      "buffer": 0,
      "byteLength": 80988,
      "byteOffset": 193044,
      "target": 34962
    },
    {
      "buffer": 0,
      "byteLength": 53992,
      "byteOffset": 274032,
      "target": 34962
    }
  ],
  "buffers": [
    {
      "byteLength": 328024,
      "uri": "snowflakesmall.bin"
    }
  ],
  "images": [
    {
      "uri": "Default_baseColor.png"
    },
    {
      "uri": "Default_occlusionRoughnessMetallic.png"
    },
    {
      "uri": "Default_normal.png"
    }
  ],
  "materials": [
    {
      "alphaMode": "OPAQUE",
      "name": "Default",
      "normalTexture": {
        "index": 2
      },
      "occlusionTexture": {
        "index": 1
      },
      "pbrMetallicRoughness": {
        "baseColorTexture": {
          "index": 0
        },
        "metallicRoughnessTexture": {
          "index": 1
        }
      }
    }
  ],
  "meshes": [
    {
      "name": "small flake",
      "primitives": [
        {
          "attributes": {
            "NORMAL": 2,
            "POSITION": 1,
            "TEXCOORD_0": 3
          },
          "indices": 0,
          "material": 0,
          "mode": 4
        }
      ]
    }
  ],
  "nodes": [
    {
      "children": [
        1
      ],
      "name": "root",
      "scale": [
        0.196033298969269,
        0.196033298969269,
        0.196033298969269
      ],
      "translation": [
        7.45058059692383e-09,
        0.0046641668304801,
        0.195592671632767
      ]
    },
    {
      "children": [
        2
      ],
      "name": "small flake"
    },
    {
      "mesh": 0,
      "name": "small flake"
    }
  ],
  "samplers": [
    {
      "magFilter": 9729,
      "minFilter": 9985,
      "wrapS": 10497,
      "wrapT": 10497
    }
  ],
  "scene": 0,
  "scenes": [
    {
      "name": "Scene",
      "nodes": [
        0
      ]
    }
  ],
  "textures": [
    {
      "sampler": 0,
      "source": 0
    },
    {
      "sampler": 0,
      "source": 1
    },
    {
      "sampler": 0,
      "source": 2
    }
  ]
}