{
  "accessors": [
    {
      "bufferView": 0,
      "componentType": 5125,
      "count": 3867,
      "type": "SCALAR"
    },
    {
      "bufferView": 1,
      "componentType": 5126,
      "count": 1353,
      "max": [
        1.0,
        0.300000071525574,
        0.207230642437935
      ],
      "min": [
        -1.0,
        -0.100000068545341,
        -0.22500005364418
      ],
      "type": "VEC3"
    },
    {
      "bufferView": 2,
      "componentType": 5126,
      "count": 1353,
      "type": "VEC3"
    },
    {
      "bufferView": 3,
      "componentType": 5126,
      "count": 1353,
      "type": "VEC2"
    },
    {
      "bufferView": 4,
      "componentType": 5125,
      "count": 10794,
      "type": "SCALAR"
    },
    {
      "bufferView": 5,
      "componentType": 5126,
      "count": 3573,
      "max": [
        0.960000157356262,
        0.28000009059906,
        0.22500005364418
      ],
      "min": [
        -0.980500102043152,
        -0.300000071525574,
        -0.220349162817001
      ],
      "type": "VEC3"
    },
    {
      "bufferView": 6,
      "componentType": 5126,
      "count": 3573,
      "type": "VEC3"
    },
    {
      "bufferView": 7,
      "componentType": 5126,
      "count": 3573,
      "type": "VEC2"
    }
  ],
  "asset": {
    "generator": "Substance Painter 2019.3.3",
    "version": "2.0"
  },
  "bufferViews": [
    {
      "buffer": 0,
      "byteLength": 15468,
      "target": 34963
    },
    {
      "buffer": 0,
      "byteLength": 16236,
      "byteOffset": 15468,
      "target": 34962
    },
    {
      "buffer": 0,
      "byteLength": 16236,
      "byteOffset": 31704,
      "target": 34962
    },
    {
      "buffer": 0,
      "byteLength": 10824,
      "byteOffset": 47940,
      "target": 34962
    },
    {
      "buffer": 0,
      "byteLength": 43176,
      "byteOffset": 58764,
      "target": 34963
    },
    {
      "buffer": 0,
      "byteLength": 42876,
      "byteOffset": 101940,
      "target": 34962
    },
    {
      "buffer": 0,
      "byteLength": 42876,
      "byteOffset": 144816,
      "target": 34962
    },
    {
      "buffer": 0,
      "byteLength": 28584,
      "byteOffset": 187692,
      "target": 34962
    }
  ],
  "buffers": [
    {
      "byteLength": 216276,
      "uri": "chelsea_tvconsole.bin"
    }
  ],
  "images": [
    {
      "uri": "T_chelseaframe_baseColor.png"
    },
    {
      "uri": "T_chelseaframe_occlusionRoughnessMetallic.png"
    },
    {
      "uri": "T_chelseaframe_normal.png"
    },
    {
      "uri": "T_chelseainner_baseColor.png"
    },
    {
      "uri": "T_chelseainner_occlusionRoughnessMetallic.png"
    },
    {
      "uri": "T_chelseainner_normal.png"
    }
  ],
  "materials": [
    {
      "alphaMode": "OPAQUE",
      "name": "T_chelseaframe",
      "normalTexture": {
        "index": 2
      },
      "occlusionTexture": {
        "index": 1
      },
      "pbrMetallicRoughness": {
        "baseColorTexture": {
          "index": 0
        },
        "metallicRoughnessTexture": {
          "index": 1
        }
      }
    },
    {
      "alphaMode": "OPAQUE",
      "name": "T_chelseainner",
      "normalTexture": {
        "index": 5
      },
      "occlusionTexture": {
        "index": 4
      },
      "pbrMetallicRoughness": {
        "baseColorTexture": {
          "index": 3
        },
        "metallicRoughnessTexture": {
          "index": 4
        }
      }
    }
  ],
  "meshes": [
    {
      "name": "Mesh",
      "primitives": [
        {
          "attributes": {
            "NORMAL": 2,
            "POSITION": 1,
            "TEXCOORD_0": 3
          },
          "indices": 0,
          "material": 0,
          "mode": 4
        }
      ]
    },
    {
      "name": "Mesh",
      "primitives": [
        {
          "attributes": {
            "NORMAL": 6,
            "POSITION": 5,
            "TEXCOORD_0": 7
          },
          "indices": 4,
          "material": 1,
          "mode": 4
        }
      ]
    }
  ],
  "nodes": [
    {
      "children": [
        1,
        3
      ],
      "name": "root",
      "scale": [
        0.999999821186066,
        0.999999821186066,
        0.999999821186066
      ],
      "translation": [
        0.0,
        0.300000011920929,
        0.0
      ]
    },
    {
      "children": [
        2
      ],
      "name": "Mesh"
    },
    {
      "mesh": 0,
      "name": "Mesh"
    },
    {
      "children": [
        4
      ],
      "name": "Mesh"
    },
    {
      "mesh": 1,
      "name": "Mesh"
    }
  ],
  "samplers": [
    {
      "magFilter": 9729,
      "minFilter": 9985,
      "wrapS": 10497,
      "wrapT": 10497
    }
  ],
  "scene": 0,
  "scenes": [
    {
      "name": "Scene",
      "nodes": [
        0
      ]
    }
  ],
  "textures": [
    {
      "sampler": 0,
      "source": 0
    },
    {
      "sampler": 0,
      "source": 1
    },
    {
      "sampler": 0,
      "source": 2
    },
    {
      "sampler": 0,
      "source": 3
    },
    {
      "sampler": 0,
      "source": 4
    },
    {
      "sampler": 0,
      "source": 5
    }
  ]
}