{
  "accessors": [
    {
      "bufferView": 0,
      "componentType": 5125,
      "count": 138984,
      "type": "SCALAR"
    },
    {
      "bufferView": 1,
      "componentType": 5126,
      "count": 27018,
      "max": [
        1.00000011920929,
        0.566076278686523,
        0.999986708164215
      ],
      "min": [
        -1.0,
        -0.566076278686523,
        -0.999986827373505
      ],
      "type": "VEC3"
    },
    {
      "bufferView": 2,
      "componentType": 5126,
      "count": 27018,
      "type": "VEC3"
    },
    {
      "bufferView": 3,
      "componentType": 5126,
      "count": 27018,
      "type": "VEC2"
    }
  ],
  "asset": {
    "generator": "Substance Painter 2019.3.3",
    "version": "2.0"
  },
  "bufferViews": [
    {
      "buffer": 0,
      "byteLength": 555936,
      "target": 34963
    },
    {
      "buffer": 0,
      "byteLength": 324216,
      "byteOffset": 555936,
      "target": 34962
    },
    {
      "buffer": 0,
      "byteLength": 324216,
      "byteOffset": 880152,
      "target": 34962
    },
    {
      "buffer": 0,
      "byteLength": 216144,
      "byteOffset": 1204368,
      "target": 34962
    }
  ],
  "buffers": [
    {
      "byteLength": 1420512,
      "uri": "wire_coffee_table.bin"
    }
  ],
  "images": [
    {
      "uri": "T_wirecoffeetable_baseColor.png"
    },
    {
      "uri": "T_wirecoffeetable_occlusionRoughnessMetallic.png"
    },
    {
      "uri": "T_wirecoffeetable_normal.png"
    }
  ],
  "materials": [
    {
      "alphaMode": "OPAQUE",
      "name": "T_wirecoffeetable",
      "normalTexture": {
        "index": 2
      },
      "occlusionTexture": {
        "index": 1
      },
      "pbrMetallicRoughness": {
        "baseColorTexture": {
          "index": 0
        },
        "metallicRoughnessTexture": {
          "index": 1
        }
      }
    }
  ],
  "meshes": [
    {
      "name": "WireCoffeeTable",
      "primitives": [
        {
          "attributes": {
            "NORMAL": 2,
            "POSITION": 1,
            "TEXCOORD_0": 3
          },
          "indices": 0,
          "material": 0,
          "mode": 4
        }
      ]
    }
  ],
  "nodes": [
    {
      "children": [
        1
      ],
      "name": "root",
      "scale": [
        0.276031792163849,
        0.276031792163849,
        0.276031792163849
      ],
      "translation": [
        -1.19209289550781e-07,
        0.156334415078163,
        0.00499576330184937
      ]
    },
    {
      "children": [
        2
      ],
      "name": "WireCoffeeTable"
    },
    {
      "mesh": 0,
      "name": "WireCoffeeTable"
    }
  ],
  "samplers": [
    {
      "magFilter": 9729,
      "minFilter": 9985,
      "wrapS": 10497,
      "wrapT": 10497
    }
  ],
  "scene": 0,
  "scenes": [
    {
      "name": "Scene",
      "nodes": [
        0
      ]
    }
  ],
  "textures": [
    {
      "sampler": 0,
      "source": 0
    },
    {
      "sampler": 0,
      "source": 1
    },
    {
      "sampler": 0,
      "source": 2
    }
  ]
}