{
  "accessors": [
    {
      "bufferView": 0,
      "componentType": 5125,
      "count": 11046,
      "type": "SCALAR"
    },
    {
      "bufferView": 1,
      "componentType": 5126,
      "count": 6974,
      "max": [
        0.324999958276749,
        1.98999977111816,
        0.170001521706581
      ],
      "min": [
        -0.324999958276749,
        -5.96046447753906e-08,
        -0.170001521706581
      ],
      "type": "VEC3"
    },
    {
      "bufferView": 2,
      "componentType": 5126,
      "count": 6974,
      "type": "VEC3"
    },
    {
      "bufferView": 3,
      "componentType": 5126,
      "count": 6974,
      "type": "VEC2"
    }
  ],
  "asset": {
    "generator": "Substance Painter 6.1.2",
    "version": "2.0"
  },
  "bufferViews": [
    {
      "buffer": 0,
      "byteLength": 44184,
      "target": 34963
    },
    {
      "buffer": 0,
      "byteLength": 83688,
      "byteOffset": 44184,
      "target": 34962
    },
    {
      "buffer": 0,
      "byteLength": 83688,
      "byteOffset": 127872,
      "target": 34962
    },
    {
      "buffer": 0,
      "byteLength": 55792,
      "byteOffset": 211560,
      "target": 34962
    }
  ],
  "buffers": [
    {
      "byteLength": 267352,
      "uri": "ikea_bookcase.bin"
    }
  ],
  "images": [
    {
      "uri": "T_bookscase_baseColor.png"
    },
    {
      "uri": "T_bookscase_occlusionRoughnessMetallic.png"
    },
    {
      "uri": "T_bookscase_normal.png"
    }
  ],
  "materials": [
    {
      "alphaMode": "OPAQUE",
      "name": "T_bookscase",
      "normalTexture": {
        "index": 2
      },
      "occlusionTexture": {
        "index": 1
      },
      "pbrMetallicRoughness": {
        "baseColorTexture": {
          "index": 0
        },
        "metallicRoughnessTexture": {
          "index": 1
        }
      }
    }
  ],
  "meshes": [
    {
      "name": "Group#2 [9607]",
      "primitives": [
        {
          "attributes": {
            "NORMAL": 2,
            "POSITION": 1,
            "TEXCOORD_0": 3
          },
          "indices": 0,
          "material": 0,
          "mode": 4
        }
      ]
    }
  ],
  "nodes": [
    {
      "children": [
        1
      ],
      "name": "RootNode"
    },
    {
      "children": [
        2
      ],
      "name": "Group#2 [9607]"
    },
    {
      "mesh": 0,
      "name": "Group#2 [9607]"
    }
  ],
  "samplers": [
    {
      "magFilter": 9729,
      "minFilter": 9985,
      "wrapS": 10497,
      "wrapT": 10497
    }
  ],
  "scene": 0,
  "scenes": [
    {
      "name": "Scene",
      "nodes": [
        0
      ]
    }
  ],
  "textures": [
    {
      "sampler": 0,
      "source": 0
    },
    {
      "sampler": 0,
      "source": 1
    },
    {
      "sampler": 0,
      "source": 2
    }
  ]
}