{
  "accessors": [
    {
      "bufferView": 0,
      "componentType": 5125,
      "count": 46350,
      "type": "SCALAR"
    },
    {
      "bufferView": 1,
      "componentType": 5126,
      "count": 13343,
      "max": [
        1.00305247306824,
        0.876306533813477,
        0.503155112266541
      ],
      "min": [
        -1.00219428539276,
        -0.87771600484848,
        -0.503607511520386
      ],
      "type": "VEC3"
    },
    {
      "bufferView": 2,
      "componentType": 5126,
      "count": 13343,
      "type": "VEC3"
    },
    {
      "bufferView": 3,
      "componentType": 5126,
      "count": 13343,
      "type": "VEC2"
    }
  ],
  "asset": {
    "generator": "Substance Painter 2019.3.3",
    "version": "2.0"
  },
  "bufferViews": [
    {
      "buffer": 0,
      "byteLength": 185400,
      "target": 34963
    },
    {
      "buffer": 0,
      "byteLength": 160116,
      "byteOffset": 185400,
      "target": 34962
    },
    {
      "buffer": 0,
      "byteLength": 160116,
      "byteOffset": 345516,
      "target": 34962
    },
    {
      "buffer": 0,
      "byteLength": 106744,
      "byteOffset": 505632,
      "target": 34962
    }
  ],
  "buffers": [
    {
      "byteLength": 612376,
      "uri": "william.bin"
    }
  ],
  "images": [
    {
      "uri": "T_william_baseColor.png"
    },
    {
      "uri": "T_william_occlusionRoughnessMetallic.png"
    },
    {
      "uri": "T_william_normal.png"
    }
  ],
  "materials": [
    {
      "alphaMode": "OPAQUE",
      "name": "T_william",
      "normalTexture": {
        "index": 2
      },
      "occlusionTexture": {
        "index": 1
      },
      "pbrMetallicRoughness": {
        "baseColorTexture": {
          "index": 0
        },
        "metallicRoughnessTexture": {
          "index": 1
        }
      }
    }
  ],
  "meshes": [
    {
      "name": "willian_low",
      "primitives": [
        {
          "attributes": {
            "NORMAL": 2,
            "POSITION": 1,
            "TEXCOORD_0": 3
          },
          "indices": 0,
          "material": 0,
          "mode": 4
        }
      ]
    }
  ],
  "nodes": [
    {
      "children": [
        1
      ],
      "name": "root",
      "scale": [
        0.301991313695908,
        0.301991313695908,
        0.301991313695908
      ],
      "translation": [
        0.0,
        0.264197438955307,
        0.0
      ]
    },
    {
      "children": [
        2
      ],
      "name": "willian_low"
    },
    {
      "mesh": 0,
      "name": "willian_low"
    }
  ],
  "samplers": [
    {
      "magFilter": 9729,
      "minFilter": 9985,
      "wrapS": 10497,
      "wrapT": 10497
    }
  ],
  "scene": 0,
  "scenes": [
    {
      "name": "Scene",
      "nodes": [
        0
      ]
    }
  ],
  "textures": [
    {
      "sampler": 0,
      "source": 0
    },
    {
      "sampler": 0,
      "source": 1
    },
    {
      "sampler": 0,
      "source": 2
    }
  ]
}