{
  "accessors": [
    {
      "bufferView": 0,
      "componentType": 5125,
      "count": 20214,
      "type": "SCALAR"
    },
    {
      "bufferView": 1,
      "componentType": 5126,
      "count": 3842,
      "max": [
        0.549000024795532,
        1.19900012016296,
        0.190000012516975
      ],
      "min": [
        -0.549000024795532,
        0.000450015068054199,
        0.167418003082275
      ],
      "type": "VEC3"
    },
    {
      "bufferView": 2,
      "componentType": 5126,
      "count": 3842,
      "type": "VEC3"
    },
    {
      "bufferView": 3,
      "componentType": 5126,
      "count": 3842,
      "type": "VEC2"
    },
    {
      "bufferView": 4,
      "componentType": 5125,
      "count": 28014,
      "type": "SCALAR"
    },
    {
      "bufferView": 5,
      "componentType": 5126,
      "count": 7242,
      "max": [
        0.550000011920929,
        1.20000004768372,
        0.197274014353752
      ],
      "min": [
        -0.550000011920929,
        0.0,
        -0.190449997782707
      ],
      "type": "VEC3"
    },
    {
      "bufferView": 6,
      "componentType": 5126,
      "count": 7242,
      "type": "VEC3"
    },
    {
      "bufferView": 7,
      "componentType": 5126,
      "count": 7242,
      "type": "VEC2"
    }
  ],
  "asset": {
    "generator": "Substance Painter 6.1.3",
    "version": "2.0"
  },
  "bufferViews": [
    {
      "buffer": 0,
      "byteLength": 80856,
      "target": 34963
    },
    {
      "buffer": 0,
      "byteLength": 46104,
      "byteOffset": 80856,
      "target": 34962
    },
    {
      "buffer": 0,
      "byteLength": 46104,
      "byteOffset": 126960,
      "target": 34962
    },
    {
      "buffer": 0,
      "byteLength": 30736,
      "byteOffset": 173064,
      "target": 34962
    },
    {
      "buffer": 0,
      "byteLength": 112056,
      "byteOffset": 203800,
      "target": 34963
    },
    {
      "buffer": 0,
      "byteLength": 86904,
      "byteOffset": 315856,
      "target": 34962
    },
    {
      "buffer": 0,
      "byteLength": 86904,
      "byteOffset": 402760,
      "target": 34962
    },
    {
      "buffer": 0,
      "byteLength": 57936,
      "byteOffset": 489664,
      "target": 34962
    }
  ],
  "buffers": [
    {
      "byteLength": 547600,
      "uri": "shoecabinetrob_red.bin"
    }
  ],
  "images": [
    {
      "uri": "T_robered_baseColor.png"
    },
    {
      "uri": "T_robered_occlusionRoughnessMetallic.png"
    },
    {
      "uri": "T_robered_normal.png"
    },
    {
      "uri": "T_shoecabred_baseColor.png"
    },
    {
      "uri": "T_shoecabred_occlusionRoughnessMetallic.png"
    },
    {
      "uri": "T_shoecabred_normal.png"
    }
  ],
  "materials": [
    {
      "alphaMode": "OPAQUE",
      "name": "T_robered",
      "normalTexture": {
        "index": 2
      },
      "occlusionTexture": {
        "index": 1
      },
      "pbrMetallicRoughness": {
        "baseColorTexture": {
          "index": 0
        },
        "metallicRoughnessTexture": {
          "index": 1
        }
      }
    },
    {
      "alphaMode": "OPAQUE",
      "name": "T_shoecabred",
      "normalTexture": {
        "index": 5
      },
      "occlusionTexture": {
        "index": 4
      },
      "pbrMetallicRoughness": {
        "baseColorTexture": {
          "index": 3
        },
        "metallicRoughnessTexture": {
          "index": 4
        }
      }
    }
  ],
  "meshes": [
    {
      "name": "shoecab2",
      "primitives": [
        {
          "attributes": {
            "NORMAL": 2,
            "POSITION": 1,
            "TEXCOORD_0": 3
          },
          "indices": 0,
          "material": 0,
          "mode": 4
        }
      ]
    },
    {
      "name": "shoecab2",
      "primitives": [
        {
          "attributes": {
            "NORMAL": 6,
            "POSITION": 5,
            "TEXCOORD_0": 7
          },
          "indices": 4,
          "material": 1,
          "mode": 4
        }
      ]
    }
  ],
  "nodes": [
    {
      "children": [
        1
      ],
      "name": "RootNode"
    },
    {
      "children": [
        2,
        3
      ],
      "name": "shoecab2"
    },
    {
      "mesh": 0,
      "name": "shoecab2"
    },
    {
      "mesh": 1,
      "name": "shoecab2"
    }
  ],
  "samplers": [
    {
      "magFilter": 9729,
      "minFilter": 9985,
      "wrapS": 10497,
      "wrapT": 10497
    }
  ],
  "scene": 0,
  "scenes": [
    {
      "name": "Scene",
      "nodes": [
        0
      ]
    }
  ],
  "textures": [
    {
      "sampler": 0,
      "source": 0
    },
    {
      "sampler": 0,
      "source": 1
    },
    {
      "sampler": 0,
      "source": 2
    },
    {
      "sampler": 0,
      "source": 3
    },
    {
      "sampler": 0,
      "source": 4
    },
    {
      "sampler": 0,
      "source": 5
    }
  ]
}