{
  "accessors": [
    {
      "bufferView": 0,
      "componentType": 5125,
      "count": 410658,
      "type": "SCALAR"
    },
    {
      "bufferView": 1,
      "componentType": 5126,
      "count": 76232,
      "max": [
        0.224999994039536,
        0.600000023841858,
        0.169016927480698
      ],
      "min": [
        -0.224999994039536,
        0.000473827123641968,
        -0.150000005960464
      ],
      "type": "VEC3"
    },
    {
      "bufferView": 2,
      "componentType": 5126,
      "count": 76232,
      "type": "VEC3"
    },
    {
      "bufferView": 3,
      "componentType": 5126,
      "count": 76232,
      "type": "VEC2"
    }
  ],
  "asset": {
    "generator": "Substance Painter 6.1.3",
    "version": "2.0"
  },
  "bufferViews": [
    {
      "buffer": 0,
      "byteLength": 1642632,
      "target": 34963
    },
    {
      "buffer": 0,
      "byteLength": 914784,
      "byteOffset": 1642632,
      "target": 34962
    },
    {
      "buffer": 0,
      "byteLength": 914784,
      "byteOffset": 2557416,
      "target": 34962
    },
    {
      "buffer": 0,
      "byteLength": 609856,
      "byteOffset": 3472200,
      "target": 34962
    }
  ],
  "buffers": [
    {
      "byteLength": 4082056,
      "uri": "cabinet_orient.bin"
    }
  ],
  "images": [
    {
      "uri": "T_caborient_baseColor.png"
    },
    {
      "uri": "T_caborient_occlusionRoughnessMetallic.png"
    },
    {
      "uri": "T_caborient_normal.png"
    }
  ],
  "materials": [
    {
      "alphaMode": "OPAQUE",
      "name": "T_caborient",
      "normalTexture": {
        "index": 2
      },
      "occlusionTexture": {
        "index": 1
      },
      "pbrMetallicRoughness": {
        "baseColorTexture": {
          "index": 0
        },
        "metallicRoughnessTexture": {
          "index": 1
        }
      }
    }
  ],
  "meshes": [
    {
      "name": "Mesh4",
      "primitives": [
        {
          "attributes": {
            "NORMAL": 2,
            "POSITION": 1,
            "TEXCOORD_0": 3
          },
          "indices": 0,
          "material": 0,
          "mode": 4
        }
      ]
    }
  ],
  "nodes": [
    {
      "children": [
        1
      ],
      "name": "RootNode"
    },
    {
      "children": [
        2
      ],
      "name": "Mesh4"
    },
    {
      "mesh": 0,
      "name": "Mesh4"
    }
  ],
  "samplers": [
    {
      "magFilter": 9729,
      "minFilter": 9985,
      "wrapS": 10497,
      "wrapT": 10497
    }
  ],
  "scene": 0,
  "scenes": [
    {
      "name": "Scene",
      "nodes": [
        0
      ]
    }
  ],
  "textures": [
    {
      "sampler": 0,
      "source": 0
    },
    {
      "sampler": 0,
      "source": 1
    },
    {
      "sampler": 0,
      "source": 2
    }
  ]
}