{
  "accessors": [
    {
      "bufferView": 0,
      "componentType": 5125,
      "count": 1218,
      "type": "SCALAR"
    },
    {
      "bufferView": 1,
      "componentType": 5126,
      "count": 667,
      "max": [
        1.0,
        0.506666660308838,
        0.266666680574417
      ],
      "min": [
        -1.0,
        -0.506666660308838,
        -0.266666680574417
      ],
      "type": "VEC3"
    },
    {
      "bufferView": 2,
      "componentType": 5126,
      "count": 667,
      "type": "VEC3"
    },
    {
      "bufferView": 3,
      "componentType": 5126,
      "count": 667,
      "type": "VEC2"
    }
  ],
  "asset": {
    "generator": "Substance Painter 2019.3.3",
    "version": "2.0"
  },
  "bufferViews": [
    {
      "buffer": 0,
      "byteLength": 4872,
      "target": 34963
    },
    {
      "buffer": 0,
      "byteLength": 8004,
      "byteOffset": 4872,
      "target": 34962
    },
    {
      "buffer": 0,
      "byteLength": 8004,
      "byteOffset": 12876,
      "target": 34962
    },
    {
      "buffer": 0,
      "byteLength": 5336,
      "byteOffset": 20880,
      "target": 34962
    }
  ],
  "buffers": [
    {
      "byteLength": 26216,
      "uri": "ming_console_table.bin"
    }
  ],
  "images": [
    {
      "uri": "T_mingconsoletable_baseColor.png"
    },
    {
      "uri": "T_mingconsoletable_occlusionRoughnessMetallic.png"
    },
    {
      "uri": "T_mingconsoletable_normal.png"
    }
  ],
  "materials": [
    {
      "alphaMode": "OPAQUE",
      "name": "T_mingconsoletable",
      "normalTexture": {
        "index": 2
      },
      "occlusionTexture": {
        "index": 1
      },
      "pbrMetallicRoughness": {
        "baseColorTexture": {
          "index": 0
        },
        "metallicRoughnessTexture": {
          "index": 1
        }
      }
    }
  ],
  "meshes": [
    {
      "name": "mingconsoletable",
      "primitives": [
        {
          "attributes": {
            "NORMAL": 2,
            "POSITION": 1,
            "TEXCOORD_0": 3
          },
          "indices": 0,
          "material": 0,
          "mode": 4
        }
      ]
    }
  ],
  "nodes": [
    {
      "children": [
        1
      ],
      "name": "root",
      "scale": [
        0.75,
        0.75,
        0.75
      ],
      "translation": [
        0.0,
        0.379999995231628,
        0.0
      ]
    },
    {
      "children": [
        2
      ],
      "name": "mingconsoletable"
    },
    {
      "mesh": 0,
      "name": "mingconsoletable"
    }
  ],
  "samplers": [
    {
      "magFilter": 9729,
      "minFilter": 9985,
      "wrapS": 10497,
      "wrapT": 10497
    }
  ],
  "scene": 0,
  "scenes": [
    {
      "name": "Scene",
      "nodes": [
        0
      ]
    }
  ],
  "textures": [
    {
      "sampler": 0,
      "source": 0
    },
    {
      "sampler": 0,
      "source": 1
    },
    {
      "sampler": 0,
      "source": 2
    }
  ]
}