{"asset":{"generator":"Modov11.2","version":"2.0"},"scene":0,"scenes":[{"nodes":[0,1]}],"nodes":[{"name":"Tempo Clock by Alban","matrix":[1.0,8.965039734098587e-24,2.4492937051703359e-16,0.0,2.4492937051703359e-16,-7.320510064801056e-8,-1.0,0.0,8.965039734098587e-24,1.0,-7.320510064801056e-8,0.0,0.0,0.0,0.0,1.0],"mesh":0},{"name":"Camera","matrix":[1.0,0.0,0.0,0.0,0.0,0.9961947202682495,-0.08715574443340302,0.0,0.0,0.08715574443340302,0.9961947202682495,0.0,0.0,0.75,4.0,1.0],"camera":0}],"meshes":[{"primitives":[{"indices":1,"mode":4,"material":1,"attributes":{"POSITION":0,"NORMAL":2,"TEXCOORD_0":3}},{"indices":5,"mode":4,"material":2,"attributes":{"POSITION":4,"NORMAL":6,"TEXCOORD_0":7}}]}],"buffers":[{"byteLength":1271184,"uri":"tempo_clock.bin"}],"bufferViews":[{"buffer":0,"byteLength":183924},{"buffer":0,"byteLength":341472,"byteOffset":183924},{"buffer":0,"byteLength":183924,"byteOffset":525396},{"buffer":0,"byteLength":122616,"byteOffset":709320},{"buffer":0,"byteLength":96408,"byteOffset":831936},{"buffer":0,"byteLength":182160,"byteOffset":928344},{"buffer":0,"byteLength":96408,"byteOffset":1110504},{"buffer":0,"byteLength":64272,"byteOffset":1206912}],"accessors":[{"bufferView":0,"type":"VEC3","componentType":5126,"count":15327,"min":[-0.14981943368911744,-0.14981943368911744,0.0],"max":[0.14981943368911744,0.14981943368911744,0.03647948056459427]},{"bufferView":1,"type":"SCALAR","componentType":5125,"count":85368},{"bufferView":2,"type":"VEC3","componentType":5126,"count":15327},{"bufferView":3,"type":"VEC2","componentType":5126,"count":15327},{"bufferView":4,"type":"VEC3","componentType":5126,"count":8034,"min":[-0.14981943368911744,-0.14981943368911744,0.023096393793821336],"max":[0.14981943368911744,0.14981943368911744,0.03867166489362717]},{"bufferView":5,"type":"SCALAR","componentType":5125,"count":45540},{"bufferView":6,"type":"VEC3","componentType":5126,"count":8034},{"bufferView":7,"type":"VEC2","componentType":5126,"count":8034}],"materials":[{"pbrMetallicRoughness":{"metallicFactor":0.5,"roughnessFactor":0.5}},{"name":"white","emissiveFactor":[0.0,0.0,0.0],"alphaMode":"OPAQUE","doubleSided":false,"pbrMetallicRoughness":{"baseColorFactor":[1.0,0.9911022186279297,0.8713669776916504,1.0],"metallicFactor":1.0,"roughnessFactor":1.0}},{"name":"glack","emissiveFactor":[0.0,0.0,0.0],"alphaMode":"OPAQUE","doubleSided":false,"pbrMetallicRoughness":{"baseColorFactor":[0.005605403333902359,0.005605403333902359,0.005605403333902359,1.0],"metallicFactor":1.0,"roughnessFactor":1.0}}],"cameras":[{"name":"Camera","type":"perspective","perspective":{"znear":0.01,"yfov":0.8726}}]}