{
  "accessors": [
    {
      "bufferView": 0,
      "componentType": 5125,
      "count": 85710,
      "type": "SCALAR"
    },
    {
      "bufferView": 1,
      "componentType": 5126,
      "count": 18136,
      "max": [
        0.125,
        0.349999994039536,
        0.125
      ],
      "min": [
        -0.125,
        0.0,
        -0.125
      ],
      "type": "VEC3"
    },
    {
      "bufferView": 2,
      "componentType": 5126,
      "count": 18136,
      "type": "VEC3"
    },
    {
      "bufferView": 3,
      "componentType": 5126,
      "count": 18136,
      "type": "VEC2"
    }
  ],
  "asset": {
    "generator": "Substance Painter 6.2.0",
    "version": "2.0"
  },
  "bufferViews": [
    {
      "buffer": 0,
      "byteLength": 342840,
      "target": 34963
    },
    {
      "buffer": 0,
      "byteLength": 217632,
      "byteOffset": 342840,
      "target": 34962
    },
    {
      "buffer": 0,
      "byteLength": 217632,
      "byteOffset": 560472,
      "target": 34962
    },
    {
      "buffer": 0,
      "byteLength": 145088,
      "byteOffset": 778104,
      "target": 34962
    }
  ],
  "buffers": [
    {
      "byteLength": 923192,
      "uri": "kizu_lamp.bin"
    }
  ],
  "images": [
    {
      "uri": "T_kizulamp_baseColor.png"
    },
    {
      "uri": "T_kizulamp_occlusionRoughnessMetallic.png"
    },
    {
      "uri": "T_kizulamp_normal.png"
    }
  ],
  "materials": [
    {
      "alphaMode": "OPAQUE",
      "name": "T_kizulamp",
      "normalTexture": {
        "index": 2
      },
      "occlusionTexture": {
        "index": 1
      },
      "pbrMetallicRoughness": {
        "baseColorTexture": {
          "index": 0
        },
        "metallicRoughnessTexture": {
          "index": 1
        }
      }
    }
  ],
  "meshes": [
    {
      "name": "Mesh",
      "primitives": [
        {
          "attributes": {
            "NORMAL": 2,
            "POSITION": 1,
            "TEXCOORD_0": 3
          },
          "indices": 0,
          "material": 0,
          "mode": 4
        }
      ]
    }
  ],
  "nodes": [
    {
      "children": [
        1
      ],
      "name": "RootNode"
    },
    {
      "children": [
        2
      ],
      "name": "Mesh"
    },
    {
      "mesh": 0,
      "name": "Mesh"
    }
  ],
  "samplers": [
    {
      "magFilter": 9729,
      "minFilter": 9985,
      "wrapS": 10497,
      "wrapT": 10497
    }
  ],
  "scene": 0,
  "scenes": [
    {
      "name": "Scene",
      "nodes": [
        0
      ]
    }
  ],
  "textures": [
    {
      "sampler": 0,
      "source": 0
    },
    {
      "sampler": 0,
      "source": 1
    },
    {
      "sampler": 0,
      "source": 2
    }
  ]
}