{
  "accessors": [
    {
      "bufferView": 0,
      "componentType": 5125,
      "count": 76932,
      "type": "SCALAR"
    },
    {
      "bufferView": 1,
      "componentType": 5126,
      "count": 14750,
      "max": [
        0.733385682106018,
        0.266486585140228,
        0.424431979656219
      ],
      "min": [
        -0.090633936226368,
        -0.266486614942551,
        -1.0
      ],
      "type": "VEC3"
    },
    {
      "bufferView": 2,
      "componentType": 5126,
      "count": 14750,
      "type": "VEC3"
    },
    {
      "bufferView": 3,
      "componentType": 5126,
      "count": 14750,
      "type": "VEC2"
    },
    {
      "bufferView": 4,
      "componentType": 5125,
      "count": 76932,
      "type": "SCALAR"
    },
    {
      "bufferView": 5,
      "componentType": 5126,
      "count": 14752,
      "max": [
        0.0456947982311249,
        0.266486585140228,
        1.0
      ],
      "min": [
        -0.733385741710663,
        -0.266486614942551,
        -0.707071602344513
      ],
      "type": "VEC3"
    },
    {
      "bufferView": 6,
      "componentType": 5126,
      "count": 14752,
      "type": "VEC3"
    },
    {
      "bufferView": 7,
      "componentType": 5126,
      "count": 14752,
      "type": "VEC2"
    }
  ],
  "asset": {
    "generator": "Substance Painter 2019.2.3",
    "version": "2.0"
  },
  "bufferViews": [
    {
      "buffer": 0,
      "byteLength": 307728,
      "target": 34963
    },
    {
      "buffer": 0,
      "byteLength": 177000,
      "byteOffset": 307728,
      "target": 34962
    },
    {
      "buffer": 0,
      "byteLength": 177000,
      "byteOffset": 484728,
      "target": 34962
    },
    {
      "buffer": 0,
      "byteLength": 118000,
      "byteOffset": 661728,
      "target": 34962
    },
    {
      "buffer": 0,
      "byteLength": 307728,
      "byteOffset": 779728,
      "target": 34963
    },
    {
      "buffer": 0,
      "byteLength": 177024,
      "byteOffset": 1087456,
      "target": 34962
    },
    {
      "buffer": 0,
      "byteLength": 177024,
      "byteOffset": 1264480,
      "target": 34962
    },
    {
      "buffer": 0,
      "byteLength": 118016,
      "byteOffset": 1441504,
      "target": 34962
    }
  ],
  "buffers": [
    {
      "byteLength": 1559520,
      "uri": "hulsta_birdy.bin"
    }
  ],
  "images": [
    {
      "uri": "T_gbird1_baseColor.png"
    },
    {
      "uri": "T_gbird1_occlusionRoughnessMetallic.png"
    },
    {
      "uri": "T_gbird1_normal.png"
    },
    {
      "uri": "T_gbird2_baseColor.png"
    },
    {
      "uri": "T_gbird2_occlusionRoughnessMetallic.png"
    },
    {
      "uri": "T_gbird2_normal.png"
    }
  ],
  "materials": [
    {
      "alphaMode": "OPAQUE",
      "name": "T_gbird1",
      "normalTexture": {
        "index": 2
      },
      "occlusionTexture": {
        "index": 1
      },
      "pbrMetallicRoughness": {
        "baseColorTexture": {
          "index": 0
        },
        "metallicRoughnessTexture": {
          "index": 1
        }
      }
    },
    {
      "alphaMode": "OPAQUE",
      "name": "T_gbird2",
      "normalTexture": {
        "index": 5
      },
      "occlusionTexture": {
        "index": 4
      },
      "pbrMetallicRoughness": {
        "baseColorTexture": {
          "index": 3
        },
        "metallicRoughnessTexture": {
          "index": 4
        }
      }
    }
  ],
  "meshes": [
    {
      "name": "Mesh",
      "primitives": [
        {
          "attributes": {
            "NORMAL": 2,
            "POSITION": 1,
            "TEXCOORD_0": 3
          },
          "indices": 0,
          "material": 1,
          "mode": 4
        }
      ]
    },
    {
      "name": "Mesh",
      "primitives": [
        {
          "attributes": {
            "NORMAL": 6,
            "POSITION": 5,
            "TEXCOORD_0": 7
          },
          "indices": 4,
          "material": 0,
          "mode": 4
        }
      ]
    }
  ],
  "nodes": [
    {
      "children": [
        1
      ],
      "name": "hulsta_birdy.obj",
      "scale": [
        0.0900602489709854,
        0.0900602489709854,
        0.0900602489709854
      ],
      "translation": [
        4.18052077293396e-05,
        0.0239963512867689,
        0.00242304801940918
      ]
    },
    {
      "children": [
        2,
        3
      ],
      "name": "g Mesh"
    },
    {
      "mesh": 0,
      "name": "Mesh"
    },
    {
      "mesh": 1,
      "name": "Mesh"
    }
  ],
  "samplers": [
    {
      "magFilter": 9729,
      "minFilter": 9985,
      "wrapS": 10497,
      "wrapT": 10497
    }
  ],
  "scene": 0,
  "scenes": [
    {
      "name": "Scene",
      "nodes": [
        0
      ]
    }
  ],
  "textures": [
    {
      "sampler": 0,
      "source": 0
    },
    {
      "sampler": 0,
      "source": 1
    },
    {
      "sampler": 0,
      "source": 2
    },
    {
      "sampler": 0,
      "source": 3
    },
    {
      "sampler": 0,
      "source": 4
    },
    {
      "sampler": 0,
      "source": 5
    }
  ]
}