{
  "accessors": [
    {
      "bufferView": 0,
      "componentType": 5125,
      "count": 32832,
      "type": "SCALAR"
    },
    {
      "bufferView": 1,
      "componentType": 5126,
      "count": 5847,
      "max": [
        0.266397893428802,
        0.454591631889343,
        0.0492958053946495
      ],
      "min": [
        -0.266397893428802,
        0.359394431114197,
        -0.0492957457900047
      ],
      "type": "VEC3"
    },
    {
      "bufferView": 2,
      "componentType": 5126,
      "count": 5847,
      "type": "VEC3"
    },
    {
      "bufferView": 3,
      "componentType": 5126,
      "count": 5847,
      "type": "VEC2"
    },
    {
      "bufferView": 4,
      "componentType": 5125,
      "count": 44178,
      "type": "SCALAR"
    },
    {
      "bufferView": 5,
      "componentType": 5126,
      "count": 9215,
      "max": [
        0.285211265087128,
        1.0,
        0.070422500371933
      ],
      "min": [
        -0.285211265087128,
        -1.0,
        -0.070422500371933
      ],
      "type": "VEC3"
    },
    {
      "bufferView": 6,
      "componentType": 5126,
      "count": 9215,
      "type": "VEC3"
    },
    {
      "bufferView": 7,
      "componentType": 5126,
      "count": 9215,
      "type": "VEC2"
    }
  ],
  "asset": {
    "generator": "Substance Painter 2019.2.3",
    "version": "2.0"
  },
  "bufferViews": [
    {
      "buffer": 0,
      "byteLength": 131328,
      "target": 34963
    },
    {
      "buffer": 0,
      "byteLength": 70164,
      "byteOffset": 131328,
      "target": 34962
    },
    {
      "buffer": 0,
      "byteLength": 70164,
      "byteOffset": 201492,
      "target": 34962
    },
    {
      "buffer": 0,
      "byteLength": 46776,
      "byteOffset": 271656,
      "target": 34962
    },
    {
      "buffer": 0,
      "byteLength": 176712,
      "byteOffset": 318432,
      "target": 34963
    },
    {
      "buffer": 0,
      "byteLength": 110580,
      "byteOffset": 495144,
      "target": 34962
    },
    {
      "buffer": 0,
      "byteLength": 110580,
      "byteOffset": 605724,
      "target": 34962
    },
    {
      "buffer": 0,
      "byteLength": 73720,
      "byteOffset": 716304,
      "target": 34962
    }
  ],
  "buffers": [
    {
      "byteLength": 790024,
      "uri": "laurent.bin"
    }
  ],
  "images": [
    {
      "uri": "T_frame_baseColor.png"
    },
    {
      "uri": "T_frame_occlusionRoughnessMetallic.png"
    },
    {
      "uri": "T_frame_normal.png"
    },
    {
      "uri": "T_glass_baseColor.png"
    },
    {
      "uri": "T_glass_occlusionRoughnessMetallic.png"
    },
    {
      "uri": "T_glass_normal.png"
    }
  ],
  "materials": [
    {
      "alphaMode": "OPAQUE",
      "name": "T_frame",
      "normalTexture": {
        "index": 2
      },
      "occlusionTexture": {
        "index": 1
      },
      "pbrMetallicRoughness": {
        "baseColorTexture": {
          "index": 0
        },
        "metallicRoughnessTexture": {
          "index": 1
        }
      }
    },
    {
      "alphaMode": "OPAQUE",
      "name": "T_glass",
      "normalTexture": {
        "index": 5
      },
      "occlusionTexture": {
        "index": 4
      },
      "pbrMetallicRoughness": {
        "baseColorTexture": {
          "index": 3
        },
        "metallicRoughnessTexture": {
          "index": 4
        }
      }
    }
  ],
  "meshes": [
    {
      "name": "Lambert_et_Fils_Laurent_07_mat3",
      "primitives": [
        {
          "attributes": {
            "NORMAL": 2,
            "POSITION": 1,
            "TEXCOORD_0": 3
          },
          "indices": 0,
          "material": 1,
          "mode": 4
        }
      ]
    },
    {
      "name": "Lambert_et_Fils_Laurent_07_mat3",
      "primitives": [
        {
          "attributes": {
            "NORMAL": 6,
            "POSITION": 5,
            "TEXCOORD_0": 7
          },
          "indices": 4,
          "material": 0,
          "mode": 4
        }
      ]
    }
  ],
  "nodes": [
    {
      "children": [
        1
      ],
      "name": "laurent.obj",
      "scale": [
        1.41999995708466,
        1.41999995708466,
        1.41999995708466
      ],
      "translation": [
        0.0,
        1.41999995708466,
        5.21540641784668e-08
      ]
    },
    {
      "children": [
        2,
        3
      ],
      "name": "g Lambert_et_Fils_Laurent_07_mat3"
    },
    {
      "mesh": 0,
      "name": "Lambert_et_Fils_Laurent_07_mat3"
    },
    {
      "mesh": 1,
      "name": "Lambert_et_Fils_Laurent_07_mat3"
    }
  ],
  "samplers": [
    {
      "magFilter": 9729,
      "minFilter": 9985,
      "wrapS": 10497,
      "wrapT": 10497
    }
  ],
  "scene": 0,
  "scenes": [
    {
      "name": "Scene",
      "nodes": [
        0
      ]
    }
  ],
  "textures": [
    {
      "sampler": 0,
      "source": 0
    },
    {
      "sampler": 0,
      "source": 1
    },
    {
      "sampler": 0,
      "source": 2
    },
    {
      "sampler": 0,
      "source": 3
    },
    {
      "sampler": 0,
      "source": 4
    },
    {
      "sampler": 0,
      "source": 5
    }
  ]
}