{
  "accessors": [
    {
      "bufferView": 0,
      "componentType": 5125,
      "count": 9465,
      "type": "SCALAR"
    },
    {
      "bufferView": 1,
      "componentType": 5126,
      "count": 3874,
      "max": [
        0.916393220424652,
        0.999999940395355,
        0.704131364822388
      ],
      "min": [
        -0.916393220424652,
        -0.999999940395355,
        -0.704131364822388
      ],
      "type": "VEC3"
    },
    {
      "bufferView": 2,
      "componentType": 5126,
      "count": 3874,
      "type": "VEC3"
    },
    {
      "bufferView": 3,
      "componentType": 5126,
      "count": 3874,
      "type": "VEC2"
    },
    {
      "bufferView": 4,
      "componentType": 5125,
      "count": 30,
      "type": "SCALAR"
    },
    {
      "bufferView": 5,
      "componentType": 5126,
      "count": 20,
      "max": [
        0.911658823490143,
        0.918032944202423,
        0.654829621315002
      ],
      "min": [
        -0.908327698707581,
        -0.531148016452789,
        -0.629540860652924
      ],
      "type": "VEC3"
    },
    {
      "bufferView": 6,
      "componentType": 5126,
      "count": 20,
      "type": "VEC3"
    },
    {
      "bufferView": 7,
      "componentType": 5126,
      "count": 20,
      "type": "VEC2"
    }
  ],
  "asset": {
    "generator": "Substance Painter 2019.3.3",
    "version": "2.0"
  },
  "bufferViews": [
    {
      "buffer": 0,
      "byteLength": 37860,
      "target": 34963
    },
    {
      "buffer": 0,
      "byteLength": 46488,
      "byteOffset": 37860,
      "target": 34962
    },
    {
      "buffer": 0,
      "byteLength": 46488,
      "byteOffset": 84348,
      "target": 34962
    },
    {
      "buffer": 0,
      "byteLength": 30992,
      "byteOffset": 130836,
      "target": 34962
    },
    {
      "buffer": 0,
      "byteLength": 120,
      "byteOffset": 161828,
      "target": 34963
    },
    {
      "buffer": 0,
      "byteLength": 240,
      "byteOffset": 161948,
      "target": 34962
    },
    {
      "buffer": 0,
      "byteLength": 240,
      "byteOffset": 162188,
      "target": 34962
    },
    {
      "buffer": 0,
      "byteLength": 160,
      "byteOffset": 162428,
      "target": 34962
    }
  ],
  "buffers": [
    {
      "byteLength": 162588,
      "uri": "cane_side_table.bin"
    }
  ],
  "images": [
    {
      "uri": "T_cane_baseColor.png"
    },
    {
      "uri": "T_cane_occlusionRoughnessMetallic.png"
    },
    {
      "uri": "T_cane_normal.png"
    },
    {
      "uri": "T_frame_baseColor.png"
    },
    {
      "uri": "T_frame_occlusionRoughnessMetallic.png"
    },
    {
      "uri": "T_frame_normal.png"
    }
  ],
  "materials": [
    {
      "alphaMode": "BLEND",
      "name": "T_cane",
      "normalTexture": {
        "index": 2
      },
      "occlusionTexture": {
        "index": 1
      },
      "pbrMetallicRoughness": {
        "baseColorTexture": {
          "index": 0
        },
        "metallicRoughnessTexture": {
          "index": 1
        }
      }
    },
    {
      "alphaMode": "OPAQUE",
      "name": "T_frame",
      "normalTexture": {
        "index": 5
      },
      "occlusionTexture": {
        "index": 4
      },
      "pbrMetallicRoughness": {
        "baseColorTexture": {
          "index": 3
        },
        "metallicRoughnessTexture": {
          "index": 4
        }
      }
    }
  ],
  "meshes": [
    {
      "name": "Mesh",
      "primitives": [
        {
          "attributes": {
            "NORMAL": 2,
            "POSITION": 1,
            "TEXCOORD_0": 3
          },
          "indices": 0,
          "material": 1,
          "mode": 4
        }
      ]
    },
    {
      "name": "Mesh",
      "primitives": [
        {
          "attributes": {
            "NORMAL": 6,
            "POSITION": 5,
            "TEXCOORD_0": 7
          },
          "indices": 4,
          "material": 0,
          "mode": 4
        }
      ]
    }
  ],
  "nodes": [
    {
      "children": [
        1,
        3
      ],
      "name": "root",
      "scale": [
        0.305545687675476,
        0.305545687675476,
        0.305545687675476
      ],
      "translation": [
        0.0,
        0.305545687675476,
        0.0
      ]
    },
    {
      "children": [
        2
      ],
      "name": "Mesh"
    },
    {
      "mesh": 0,
      "name": "Mesh"
    },
    {
      "children": [
        4
      ],
      "name": "Mesh"
    },
    {
      "mesh": 1,
      "name": "Mesh"
    }
  ],
  "samplers": [
    {
      "magFilter": 9729,
      "minFilter": 9985,
      "wrapS": 10497,
      "wrapT": 10497
    }
  ],
  "scene": 0,
  "scenes": [
    {
      "name": "Scene",
      "nodes": [
        0
      ]
    }
  ],
  "textures": [
    {
      "sampler": 0,
      "source": 0
    },
    {
      "sampler": 0,
      "source": 1
    },
    {
      "sampler": 0,
      "source": 2
    },
    {
      "sampler": 0,
      "source": 3
    },
    {
      "sampler": 0,
      "source": 4
    },
    {
      "sampler": 0,
      "source": 5
    }
  ]
}