{
  "accessors": [
    {
      "bufferView": 0,
      "componentType": 5125,
      "count": 852,
      "type": "SCALAR"
    },
    {
      "bufferView": 1,
      "componentType": 5126,
      "count": 296,
      "max": [
        0.666666746139526,
        0.0222235564142466,
        1.0
      ],
      "min": [
        -0.666666746139526,
        -0.0222235564142466,
        -1.0
      ],
      "type": "VEC3"
    },
    {
      "bufferView": 2,
      "componentType": 5126,
      "count": 296,
      "type": "VEC3"
    },
    {
      "bufferView": 3,
      "componentType": 5126,
      "count": 296,
      "type": "VEC2"
    }
  ],
  "asset": {
    "generator": "Substance Painter 2019.3.2",
    "version": "2.0"
  },
  "bufferViews": [
    {
      "buffer": 0,
      "byteLength": 3408,
      "target": 34963
    },
    {
      "buffer": 0,
      "byteLength": 3552,
      "byteOffset": 3408,
      "target": 34962
    },
    {
      "buffer": 0,
      "byteLength": 3552,
      "byteOffset": 6960,
      "target": 34962
    },
    {
      "buffer": 0,
      "byteLength": 2368,
      "byteOffset": 10512,
      "target": 34962
    }
  ],
  "buffers": [
    {
      "byteLength": 12880,
      "uri": "posterframe.bin"
    }
  ],
  "images": [
    {
      "uri": "T_poserframe_baseColor.png"
    },
    {
      "uri": "T_poserframe_occlusionRoughnessMetallic.png"
    },
    {
      "uri": "T_poserframe_normal.png"
    }
  ],
  "materials": [
    {
      "alphaMode": "OPAQUE",
      "name": "T_poserframe",
      "normalTexture": {
        "index": 2
      },
      "occlusionTexture": {
        "index": 1
      },
      "pbrMetallicRoughness": {
        "baseColorTexture": {
          "index": 0
        },
        "metallicRoughnessTexture": {
          "index": 1
        }
      }
    }
  ],
  "meshes": [
    {
      "name": "posterframe",
      "primitives": [
        {
          "attributes": {
            "NORMAL": 2,
            "POSITION": 1,
            "TEXCOORD_0": 3
          },
          "indices": 0,
          "material": 0,
          "mode": 4
        }
      ]
    }
  ],
  "nodes": [
    {
      "children": [
        1
      ],
      "name": "root",
      "scale": [
        0.449999988079071,
        0.449999988079071,
        0.449999988079071
      ],
      "translation": [
        0.0,
        0.0100005995482206,
        0.0
      ]
    },
    {
      "children": [
        2
      ],
      "name": "posterframe"
    },
    {
      "mesh": 0,
      "name": "posterframe"
    }
  ],
  "samplers": [
    {
      "magFilter": 9729,
      "minFilter": 9985,
      "wrapS": 10497,
      "wrapT": 10497
    }
  ],
  "scene": 0,
  "scenes": [
    {
      "name": "Scene",
      "nodes": [
        0
      ]
    }
  ],
  "textures": [
    {
      "sampler": 0,
      "source": 0
    },
    {
      "sampler": 0,
      "source": 1
    },
    {
      "sampler": 0,
      "source": 2
    }
  ]
}