{
  "accessors": [
    {
      "bufferView": 0,
      "componentType": 5125,
      "count": 65094,
      "type": "SCALAR"
    },
    {
      "bufferView": 1,
      "componentType": 5126,
      "count": 13883,
      "max": [
        1.0,
        0.707757830619812,
        0.860226213932037
      ],
      "min": [
        -1.0,
        -0.707757830619812,
        -0.860226154327393
      ],
      "type": "VEC3"
    },
    {
      "bufferView": 2,
      "componentType": 5126,
      "count": 13883,
      "type": "VEC3"
    },
    {
      "bufferView": 3,
      "componentType": 5126,
      "count": 13883,
      "type": "VEC2"
    }
  ],
  "asset": {
    "generator": "Substance Painter 2019.2.3",
    "version": "2.0"
  },
  "bufferViews": [
    {
      "buffer": 0,
      "byteLength": 260376,
      "target": 34963
    },
    {
      "buffer": 0,
      "byteLength": 166596,
      "byteOffset": 260376,
      "target": 34962
    },
    {
      "buffer": 0,
      "byteLength": 166596,
      "byteOffset": 426972,
      "target": 34962
    },
    {
      "buffer": 0,
      "byteLength": 111064,
      "byteOffset": 593568,
      "target": 34962
    }
  ],
  "buffers": [
    {
      "byteLength": 704632,
      "uri": "present_02.bin"
    }
  ],
  "images": [
    {
      "uri": "T_present_baseColor.png"
    },
    {
      "uri": "T_present_occlusionRoughnessMetallic.png"
    },
    {
      "uri": "T_present_normal.png"
    }
  ],
  "materials": [
    {
      "alphaMode": "OPAQUE",
      "name": "T_present",
      "normalTexture": {
        "index": 2
      },
      "occlusionTexture": {
        "index": 1
      },
      "pbrMetallicRoughness": {
        "baseColorTexture": {
          "index": 0
        },
        "metallicRoughnessTexture": {
          "index": 1
        }
      }
    }
  ],
  "meshes": [
    {
      "name": "present_02",
      "primitives": [
        {
          "attributes": {
            "NORMAL": 2,
            "POSITION": 1,
            "TEXCOORD_0": 3
          },
          "indices": 0,
          "material": 0,
          "mode": 4
        }
      ]
    }
  ],
  "nodes": [
    {
      "children": [
        1
      ],
      "name": "root",
      "scale": [
        0.175838857889175,
        0.175838857889175,
        0.175838857889175
      ],
      "translation": [
        1.69873237609863e-06,
        0.124451324343681,
        -0.0014624148607254
      ]
    },
    {
      "children": [
        2
      ],
      "name": "present_02"
    },
    {
      "mesh": 0,
      "name": "present_02"
    }
  ],
  "samplers": [
    {
      "magFilter": 9729,
      "minFilter": 9985,
      "wrapS": 10497,
      "wrapT": 10497
    }
  ],
  "scene": 0,
  "scenes": [
    {
      "name": "Scene",
      "nodes": [
        0
      ]
    }
  ],
  "textures": [
    {
      "sampler": 0,
      "source": 0
    },
    {
      "sampler": 0,
      "source": 1
    },
    {
      "sampler": 0,
      "source": 2
    }
  ]
}