{
  "accessors": [
    {
      "bufferView": 0,
      "componentType": 5125,
      "count": 538656,
      "type": "SCALAR"
    },
    {
      "bufferView": 1,
      "componentType": 5126,
      "count": 97530,
      "max": [
        3.47748351097107,
        0.744790732860565,
        0.514254450798035
      ],
      "min": [
        -3.45208287239075,
        0.0,
        -0.514254450798035
      ],
      "type": "VEC3"
    },
    {
      "bufferView": 2,
      "componentType": 5126,
      "count": 97530,
      "type": "VEC3"
    },
    {
      "bufferView": 3,
      "componentType": 5126,
      "count": 97530,
      "type": "VEC2"
    }
  ],
  "asset": {
    "generator": "Substance Painter 6.1.2",
    "version": "2.0"
  },
  "bufferViews": [
    {
      "buffer": 0,
      "byteLength": 2154624,
      "target": 34963
    },
    {
      "buffer": 0,
      "byteLength": 1170360,
      "byteOffset": 2154624,
      "target": 34962
    },
    {
      "buffer": 0,
      "byteLength": 1170360,
      "byteOffset": 3324984,
      "target": 34962
    },
    {
      "buffer": 0,
      "byteLength": 780240,
      "byteOffset": 4495344,
      "target": 34962
    }
  ],
  "buffers": [
    {
      "byteLength": 5275584,
      "uri": "hannah_sofa.bin"
    }
  ],
  "images": [
    {
      "uri": "T_hannah_baseColor.png"
    },
    {
      "uri": "T_hannah_occlusionRoughnessMetallic.png"
    },
    {
      "uri": "T_hannah_normal.png"
    }
  ],
  "materials": [
    {
      "alphaMode": "OPAQUE",
      "name": "T_hannah",
      "normalTexture": {
        "index": 2
      },
      "occlusionTexture": {
        "index": 1
      },
      "pbrMetallicRoughness": {
        "baseColorTexture": {
          "index": 0
        },
        "metallicRoughnessTexture": {
          "index": 1
        }
      }
    }
  ],
  "meshes": [
    {
      "name": "Cube42",
      "primitives": [
        {
          "attributes": {
            "NORMAL": 2,
            "POSITION": 1,
            "TEXCOORD_0": 3
          },
          "indices": 0,
          "material": 0,
          "mode": 4
        }
      ]
    }
  ],
  "nodes": [
    {
      "children": [
        1
      ],
      "name": "RootNode"
    },
    {
      "children": [
        2
      ],
      "name": "Cube42",
      "scale": [
        0.310000002384186,
        1.0,
        0.954999983310699
      ]
    },
    {
      "mesh": 0,
      "name": "Cube42"
    }
  ],
  "samplers": [
    {
      "magFilter": 9729,
      "minFilter": 9985,
      "wrapS": 10497,
      "wrapT": 10497
    }
  ],
  "scene": 0,
  "scenes": [
    {
      "name": "Scene",
      "nodes": [
        0
      ]
    }
  ],
  "textures": [
    {
      "sampler": 0,
      "source": 0
    },
    {
      "sampler": 0,
      "source": 1
    },
    {
      "sampler": 0,
      "source": 2
    }
  ]
}