{
  "accessors": [
    {
      "bufferView": 0,
      "componentType": 5125,
      "count": 9672,
      "type": "SCALAR"
    },
    {
      "bufferView": 1,
      "componentType": 5126,
      "count": 2324,
      "max": [
        1.81086909770966,
        0.749832093715668,
        0.824484288692474
      ],
      "min": [
        -1.80725157260895,
        0.0,
        -0.741703867912292
      ],
      "type": "VEC3"
    },
    {
      "bufferView": 2,
      "componentType": 5126,
      "count": 2324,
      "type": "VEC3"
    },
    {
      "bufferView": 3,
      "componentType": 5126,
      "count": 2324,
      "type": "VEC2"
    }
  ],
  "asset": {
    "generator": "Substance Painter 6.1.3",
    "version": "2.0"
  },
  "bufferViews": [
    {
      "buffer": 0,
      "byteLength": 38688,
      "target": 34963
    },
    {
      "buffer": 0,
      "byteLength": 27888,
      "byteOffset": 38688,
      "target": 34962
    },
    {
      "buffer": 0,
      "byteLength": 27888,
      "byteOffset": 66576,
      "target": 34962
    },
    {
      "buffer": 0,
      "byteLength": 18592,
      "byteOffset": 94464,
      "target": 34962
    }
  ],
  "buffers": [
    {
      "byteLength": 113056,
      "uri": "barsaddle_stool_white.bin"
    }
  ],
  "images": [
    {
      "uri": "T_barsaddlestool_white_baseColor.png"
    },
    {
      "uri": "T_barsaddlestool_white_occlusionRoughnessMetallic.png"
    },
    {
      "uri": "T_barsaddlestool_white_normal.png"
    }
  ],
  "materials": [
    {
      "alphaMode": "OPAQUE",
      "name": "T_barsaddlestool_white",
      "normalTexture": {
        "index": 2
      },
      "occlusionTexture": {
        "index": 1
      },
      "pbrMetallicRoughness": {
        "baseColorTexture": {
          "index": 0
        },
        "metallicRoughnessTexture": {
          "index": 1
        }
      }
    }
  ],
  "meshes": [
    {
      "name": "main",
      "primitives": [
        {
          "attributes": {
            "NORMAL": 2,
            "POSITION": 1,
            "TEXCOORD_0": 3
          },
          "indices": 0,
          "material": 0,
          "mode": 4
        }
      ]
    }
  ],
  "nodes": [
    {
      "children": [
        1
      ],
      "name": "RootNode"
    },
    {
      "children": [
        2
      ],
      "name": "main",
      "scale": [
        0.119999997317791,
        1.01499998569489,
        0.232539996504784
      ]
    },
    {
      "mesh": 0,
      "name": "main"
    }
  ],
  "samplers": [
    {
      "magFilter": 9729,
      "minFilter": 9985,
      "wrapS": 10497,
      "wrapT": 10497
    }
  ],
  "scene": 0,
  "scenes": [
    {
      "name": "Scene",
      "nodes": [
        0
      ]
    }
  ],
  "textures": [
    {
      "sampler": 0,
      "source": 0
    },
    {
      "sampler": 0,
      "source": 1
    },
    {
      "sampler": 0,
      "source": 2
    }
  ]
}