{
  "accessors": [
    {
      "bufferView": 0,
      "componentType": 5125,
      "count": 54888,
      "type": "SCALAR"
    },
    {
      "bufferView": 1,
      "componentType": 5126,
      "count": 14808,
      "max": [
        0.235000014305115,
        0.699999988079071,
        0.360000014305115
      ],
      "min": [
        -0.235000014305115,
        0.0,
        -0.360000044107437
      ],
      "type": "VEC3"
    },
    {
      "bufferView": 2,
      "componentType": 5126,
      "count": 14808,
      "type": "VEC3"
    },
    {
      "bufferView": 3,
      "componentType": 5126,
      "count": 14808,
      "type": "VEC2"
    }
  ],
  "asset": {
    "generator": "Substance Painter 6.2.0",
    "version": "2.0"
  },
  "bufferViews": [
    {
      "buffer": 0,
      "byteLength": 219552,
      "target": 34963
    },
    {
      "buffer": 0,
      "byteLength": 177696,
      "byteOffset": 219552,
      "target": 34962
    },
    {
      "buffer": 0,
      "byteLength": 177696,
      "byteOffset": 397248,
      "target": 34962
    },
    {
      "buffer": 0,
      "byteLength": 118464,
      "byteOffset": 574944,
      "target": 34962
    }
  ],
  "buffers": [
    {
      "byteLength": 693408,
      "uri": "gracetrolley.bin"
    }
  ],
  "images": [
    {
      "uri": "T_gracetrolley_baseColor.png"
    },
    {
      "uri": "T_gracetrolley_occlusionRoughnessMetallic.png"
    },
    {
      "uri": "T_gracetrolley_normal.png"
    }
  ],
  "materials": [
    {
      "alphaMode": "OPAQUE",
      "name": "T_gracetrolley",
      "normalTexture": {
        "index": 2
      },
      "occlusionTexture": {
        "index": 1
      },
      "pbrMetallicRoughness": {
        "baseColorTexture": {
          "index": 0
        },
        "metallicRoughnessTexture": {
          "index": 1
        }
      }
    }
  ],
  "meshes": [
    {
      "name": "Mesh",
      "primitives": [
        {
          "attributes": {
            "NORMAL": 2,
            "POSITION": 1,
            "TEXCOORD_0": 3
          },
          "indices": 0,
          "material": 0,
          "mode": 4
        }
      ]
    }
  ],
  "nodes": [
    {
      "children": [
        1
      ],
      "name": "RootNode"
    },
    {
      "children": [
        2
      ],
      "name": "Mesh"
    },
    {
      "mesh": 0,
      "name": "Mesh"
    }
  ],
  "samplers": [
    {
      "magFilter": 9729,
      "minFilter": 9985,
      "wrapS": 10497,
      "wrapT": 10497
    }
  ],
  "scene": 0,
  "scenes": [
    {
      "name": "Scene",
      "nodes": [
        0
      ]
    }
  ],
  "textures": [
    {
      "sampler": 0,
      "source": 0
    },
    {
      "sampler": 0,
      "source": 1
    },
    {
      "sampler": 0,
      "source": 2
    }
  ]
}