{
  "accessors": [
    {
      "bufferView": 0,
      "componentType": 5125,
      "count": 65478,
      "type": "SCALAR"
    },
    {
      "bufferView": 1,
      "componentType": 5126,
      "count": 22275,
      "max": [
        1.0,
        0.0043280846439302,
        0.475708544254303
      ],
      "min": [
        -1.0,
        -0.0043280846439302,
        -0.475708544254303
      ],
      "type": "VEC3"
    },
    {
      "bufferView": 2,
      "componentType": 5126,
      "count": 22275,
      "type": "VEC3"
    },
    {
      "bufferView": 3,
      "componentType": 5126,
      "count": 22275,
      "type": "VEC2"
    }
  ],
  "asset": {
    "generator": "Substance Painter 2019.2.3",
    "version": "2.0"
  },
  "bufferViews": [
    {
      "buffer": 0,
      "byteLength": 261912,
      "target": 34963
    },
    {
      "buffer": 0,
      "byteLength": 267300,
      "byteOffset": 261912,
      "target": 34962
    },
    {
      "buffer": 0,
      "byteLength": 267300,
      "byteOffset": 529212,
      "target": 34962
    },
    {
      "buffer": 0,
      "byteLength": 178200,
      "byteOffset": 796512,
      "target": 34962
    }
  ],
  "buffers": [
    {
      "byteLength": 974712,
      "uri": "stylist_text.bin"
    }
  ],
  "images": [
    {
      "uri": "T_mcw_baseColor.png"
    },
    {
      "uri": "T_mcw_occlusionRoughnessMetallic.png"
    },
    {
      "uri": "T_mcw_normal.png"
    }
  ],
  "materials": [
    {
      "alphaMode": "OPAQUE",
      "name": "T_mcw",
      "normalTexture": {
        "index": 2
      },
      "occlusionTexture": {
        "index": 1
      },
      "pbrMetallicRoughness": {
        "baseColorTexture": {
          "index": 0
        },
        "metallicRoughnessTexture": {
          "index": 1
        }
      }
    }
  ],
  "meshes": [
    {
      "name": "MC Wording",
      "primitives": [
        {
          "attributes": {
            "NORMAL": 2,
            "POSITION": 1,
            "TEXCOORD_0": 3
          },
          "indices": 0,
          "material": 0,
          "mode": 4
        }
      ]
    }
  ],
  "nodes": [
    {
      "children": [
        1
      ],
      "name": "root",
      "scale": [
        0.515330195426941,
        0.515330195426941,
        0.515330195426941
      ],
      "translation": [
        0.0,
        0.00223040347918868,
        0.0
      ]
    },
    {
      "children": [
        2
      ],
      "name": "MC Wording"
    },
    {
      "mesh": 0,
      "name": "MC Wording"
    }
  ],
  "samplers": [
    {
      "magFilter": 9729,
      "minFilter": 9985,
      "wrapS": 10497,
      "wrapT": 10497
    }
  ],
  "scene": 0,
  "scenes": [
    {
      "name": "Scene",
      "nodes": [
        0
      ]
    }
  ],
  "textures": [
    {
      "sampler": 0,
      "source": 0
    },
    {
      "sampler": 0,
      "source": 1
    },
    {
      "sampler": 0,
      "source": 2
    }
  ]
}