{
  "accessors": [
    {
      "bufferView": 0,
      "componentType": 5125,
      "count": 9324,
      "type": "SCALAR"
    },
    {
      "bufferView": 1,
      "componentType": 5126,
      "count": 1766,
      "max": [
        0.999999940395355,
        0.448589116334915,
        0.999999940395355
      ],
      "min": [
        -0.999999940395355,
        -0.448589146137238,
        -0.999999940395355
      ],
      "type": "VEC3"
    },
    {
      "bufferView": 2,
      "componentType": 5126,
      "count": 1766,
      "type": "VEC3"
    },
    {
      "bufferView": 3,
      "componentType": 5126,
      "count": 1766,
      "type": "VEC2"
    }
  ],
  "asset": {
    "generator": "Substance Painter 2019.2.3",
    "version": "2.0"
  },
  "bufferViews": [
    {
      "buffer": 0,
      "byteLength": 37296,
      "target": 34963
    },
    {
      "buffer": 0,
      "byteLength": 21192,
      "byteOffset": 37296,
      "target": 34962
    },
    {
      "buffer": 0,
      "byteLength": 21192,
      "byteOffset": 58488,
      "target": 34962
    },
    {
      "buffer": 0,
      "byteLength": 14128,
      "byteOffset": 79680,
      "target": 34962
    }
  ],
  "buffers": [
    {
      "byteLength": 93808,
      "uri": "gongtable.bin"
    }
  ],
  "images": [
    {
      "uri": "T_gong_baseColor.png"
    },
    {
      "uri": "T_gong_occlusionRoughnessMetallic.png"
    },
    {
      "uri": "T_gong_normal.png"
    }
  ],
  "materials": [
    {
      "alphaMode": "OPAQUE",
      "name": "T_gong",
      "normalTexture": {
        "index": 2
      },
      "occlusionTexture": {
        "index": 1
      },
      "pbrMetallicRoughness": {
        "baseColorTexture": {
          "index": 0
        },
        "metallicRoughnessTexture": {
          "index": 1
        }
      }
    }
  ],
  "meshes": [
    {
      "name": "Cube",
      "primitives": [
        {
          "attributes": {
            "NORMAL": 2,
            "POSITION": 1,
            "TEXCOORD_0": 3
          },
          "indices": 0,
          "material": 0,
          "mode": 4
        }
      ]
    }
  ],
  "nodes": [
    {
      "children": [
        1
      ],
      "name": "root",
      "scale": [
        0.345527738332748,
        0.345527738332748,
        0.345527738332748
      ],
      "translation": [
        0.0,
        0.155000016093254,
        0.0
      ]
    },
    {
      "children": [
        2
      ],
      "name": "Cube"
    },
    {
      "mesh": 0,
      "name": "Cube"
    }
  ],
  "samplers": [
    {
      "magFilter": 9729,
      "minFilter": 9985,
      "wrapS": 10497,
      "wrapT": 10497
    }
  ],
  "scene": 0,
  "scenes": [
    {
      "name": "Scene",
      "nodes": [
        0
      ]
    }
  ],
  "textures": [
    {
      "sampler": 0,
      "source": 0
    },
    {
      "sampler": 0,
      "source": 1
    },
    {
      "sampler": 0,
      "source": 2
    }
  ]
}