{"asset":{"generator":"Modov11.2","version":"2.0"},"scene":0,"scenes":[{"nodes":[0,1]}],"nodes":[{"name":"jiff_medium","matrix":[1.0,0.0,0.0,0.0,0.0,1.7484555314695172e-7,-1.0,0.0,0.0,1.0,1.7484555314695172e-7,0.0,0.0,0.0,0.0,1.0],"mesh":0},{"name":"Camera","matrix":[1.0,0.0,0.0,0.0,0.0,0.9961947202682495,-0.08715574443340302,0.0,0.0,0.08715574443340302,0.9961947202682495,0.0,0.0,0.75,4.0,1.0],"camera":0}],"meshes":[{"primitives":[{"indices":1,"mode":4,"material":1,"attributes":{"POSITION":0,"NORMAL":2,"TEXCOORD_0":3}}]}],"buffers":[{"byteLength":45424,"uri":"jiffmedium.bin"}],"bufferViews":[{"buffer":0,"byteLength":13812},{"buffer":0,"byteLength":8592,"byteOffset":13812},{"buffer":0,"byteLength":13812,"byteOffset":22404},{"buffer":0,"byteLength":9208,"byteOffset":36216}],"accessors":[{"bufferView":0,"type":"VEC3","componentType":5126,"count":1151,"min":[-0.20000000298023225,-0.20000003278255464,-0.00038768493686802685],"max":[0.20000000298023225,0.19999995827674867,0.4498232901096344]},{"bufferView":1,"type":"SCALAR","componentType":5125,"count":2148},{"bufferView":2,"type":"VEC3","componentType":5126,"count":1151},{"bufferView":3,"type":"VEC2","componentType":5126,"count":1151}],"materials":[{"pbrMetallicRoughness":{"metallicFactor":0.5,"roughnessFactor":0.5}},{"name":"flexform_jiff_medium_mtl_1","emissiveFactor":[0.0,0.0,0.0],"alphaMode":"OPAQUE","doubleSided":false,"pbrMetallicRoughness":{"baseColorFactor":[0.025157231837511064,0.025157231837511064,0.025157231837511064,1.0],"metallicFactor":0.0,"roughnessFactor":0.44999998807907107}}],"cameras":[{"name":"Camera","type":"perspective","perspective":{"znear":0.01,"yfov":0.8726}}]}