{
  "accessors": [
    {
      "bufferView": 0,
      "componentType": 5125,
      "count": 71592,
      "type": "SCALAR"
    },
    {
      "bufferView": 1,
      "componentType": 5126,
      "count": 12449,
      "max": [
        1.39335322380066,
        2.26753115653992,
        1.39335322380066
      ],
      "min": [
        -1.39335322380066,
        0.0,
        -1.39335322380066
      ],
      "type": "VEC3"
    },
    {
      "bufferView": 2,
      "componentType": 5126,
      "count": 12449,
      "type": "VEC3"
    },
    {
      "bufferView": 3,
      "componentType": 5126,
      "count": 12449,
      "type": "VEC2"
    }
  ],
  "asset": {
    "generator": "Substance Painter 6.1.2",
    "version": "2.0"
  },
  "bufferViews": [
    {
      "buffer": 0,
      "byteLength": 286368,
      "target": 34963
    },
    {
      "buffer": 0,
      "byteLength": 149388,
      "byteOffset": 286368,
      "target": 34962
    },
    {
      "buffer": 0,
      "byteLength": 149388,
      "byteOffset": 435756,
      "target": 34962
    },
    {
      "buffer": 0,
      "byteLength": 99592,
      "byteOffset": 585144,
      "target": 34962
    }
  ],
  "buffers": [
    {
      "byteLength": 684736,
      "uri": "jewel_table.bin"
    }
  ],
  "images": [
    {
      "uri": "Default_baseColor.png"
    },
    {
      "uri": "Default_occlusionRoughnessMetallic.png"
    },
    {
      "uri": "Default_normal.png"
    }
  ],
  "materials": [
    {
      "alphaMode": "OPAQUE",
      "name": "Default",
      "normalTexture": {
        "index": 2
      },
      "occlusionTexture": {
        "index": 1
      },
      "pbrMetallicRoughness": {
        "baseColorTexture": {
          "index": 0
        },
        "metallicRoughnessTexture": {
          "index": 1
        }
      }
    }
  ],
  "meshes": [
    {
      "name": "Mesh",
      "primitives": [
        {
          "attributes": {
            "NORMAL": 2,
            "POSITION": 1,
            "TEXCOORD_0": 3
          },
          "indices": 0,
          "material": 0,
          "mode": 4
        }
      ]
    }
  ],
  "nodes": [
    {
      "children": [
        1
      ],
      "name": "RootNode"
    },
    {
      "children": [
        2
      ],
      "name": "Mesh",
      "scale": [
        0.572849988937378,
        0.335231810808182,
        0.572849988937378
      ],
      "translation": [
        0.0,
        5.83154218247728e-08,
        0.0
      ]
    },
    {
      "mesh": 0,
      "name": "Mesh"
    }
  ],
  "samplers": [
    {
      "magFilter": 9729,
      "minFilter": 9985,
      "wrapS": 10497,
      "wrapT": 10497
    }
  ],
  "scene": 0,
  "scenes": [
    {
      "name": "Scene",
      "nodes": [
        0
      ]
    }
  ],
  "textures": [
    {
      "sampler": 0,
      "source": 0
    },
    {
      "sampler": 0,
      "source": 1
    },
    {
      "sampler": 0,
      "source": 2
    }
  ]
}