{
  "accessors": [
    {
      "bufferView": 0,
      "componentType": 5125,
      "count": 13518,
      "type": "SCALAR"
    },
    {
      "bufferView": 1,
      "componentType": 5126,
      "count": 3723,
      "max": [
        0.935452282428741,
        0.999999940395355,
        0.909779667854309
      ],
      "min": [
        -0.935452222824097,
        -0.999999940395355,
        -0.909779667854309
      ],
      "type": "VEC3"
    },
    {
      "bufferView": 2,
      "componentType": 5126,
      "count": 3723,
      "type": "VEC3"
    },
    {
      "bufferView": 3,
      "componentType": 5126,
      "count": 3723,
      "type": "VEC2"
    }
  ],
  "asset": {
    "generator": "Substance Painter 2019.2.3",
    "version": "2.0"
  },
  "bufferViews": [
    {
      "buffer": 0,
      "byteLength": 54072,
      "target": 34963
    },
    {
      "buffer": 0,
      "byteLength": 44676,
      "byteOffset": 54072,
      "target": 34962
    },
    {
      "buffer": 0,
      "byteLength": 44676,
      "byteOffset": 98748,
      "target": 34962
    },
    {
      "buffer": 0,
      "byteLength": 29784,
      "byteOffset": 143424,
      "target": 34962
    }
  ],
  "buffers": [
    {
      "byteLength": 173208,
      "uri": "plant19.bin"
    }
  ],
  "images": [
    {
      "uri": "T_plant19_baseColor.png"
    },
    {
      "uri": "T_plant19_occlusionRoughnessMetallic.png"
    },
    {
      "uri": "T_plant19_normal.png"
    }
  ],
  "materials": [
    {
      "alphaMode": "OPAQUE",
      "doubleSided": true,
      "name": "T_plant19",
      "normalTexture": {
        "index": 2
      },
      "occlusionTexture": {
        "index": 1
      },
      "pbrMetallicRoughness": {
        "baseColorTexture": {
          "index": 0
        },
        "metallicRoughnessTexture": {
          "index": 1
        }
      }
    }
  ],
  "meshes": [
    {
      "name": "19",
      "primitives": [
        {
          "attributes": {
            "NORMAL": 2,
            "POSITION": 1,
            "TEXCOORD_0": 3
          },
          "indices": 0,
          "material": 0,
          "mode": 4
        }
      ]
    }
  ],
  "nodes": [
    {
      "children": [
        1
      ],
      "name": "root",
      "scale": [
        0.169080853462219,
        0.169080853462219,
        0.169080853462219
      ],
      "translation": [
        -0.0400000065565109,
        0.169080853462219,
        2.98023223876953e-08
      ]
    },
    {
      "children": [
        2
      ],
      "name": "19"
    },
    {
      "mesh": 0,
      "name": "19"
    }
  ],
  "samplers": [
    {
      "magFilter": 9729,
      "minFilter": 9985,
      "wrapS": 10497,
      "wrapT": 10497
    }
  ],
  "scene": 0,
  "scenes": [
    {
      "name": "Scene",
      "nodes": [
        0
      ]
    }
  ],
  "textures": [
    {
      "sampler": 0,
      "source": 0
    },
    {
      "sampler": 0,
      "source": 1
    },
    {
      "sampler": 0,
      "source": 2
    }
  ]
}