{"asset":{"generator":"Modov11.2","version":"2.0"},"scene":0,"scenes":[{"nodes":[0,1,3,4]}],"nodes":[{"name":"Camera","matrix":[1.0,0.0,0.0,0.0,0.0,0.9961947202682495,-0.08715573698282242,0.0,0.0,0.08715573698282242,0.9961947202682495,0.0,0.0,0.75,4.0,1.0],"camera":0},{"name":"2020 text vector","children":[2]},{"name":"2020_text_vector","mesh":0},{"name":"Texture Group"},{"name":"Soft Box 01.lxe","children":[5]},{"name":"Texture Group2"}],"meshes":[{"primitives":[{"indices":1,"mode":4,"material":1,"attributes":{"POSITION":0,"NORMAL":2,"TEXCOORD_0":3}}]}],"buffers":[{"byteLength":623616,"uri":"HappyNewYear2020_Text.bin"}],"bufferViews":[{"buffer":0,"byteLength":194328},{"buffer":0,"byteLength":105408,"byteOffset":194328},{"buffer":0,"byteLength":194328,"byteOffset":299736},{"buffer":0,"byteLength":129552,"byteOffset":494064}],"accessors":[{"bufferView":0,"type":"VEC3","componentType":5126,"count":16194,"min":[-0.7957407832145691,1.389655590600114e-8,-0.03500000014901161],"max":[0.7957290410995483,2.7187576293945314,0.03500000014901161]},{"bufferView":1,"type":"SCALAR","componentType":5125,"count":26352},{"bufferView":2,"type":"VEC3","componentType":5126,"count":16194},{"bufferView":3,"type":"VEC2","componentType":5126,"count":16194}],"materials":[{"pbrMetallicRoughness":{"metallicFactor":0.5,"roughnessFactor":0.5}},{"name":"T_NYT","emissiveFactor":[0.0,0.0,0.0],"alphaMode":"OPAQUE","doubleSided":false,"normalTexture":{"index":2,"texCoord":0},"occlusionTexture":{"index":3,"texCoord":0},"pbrMetallicRoughness":{"baseColorFactor":[1.0,1.0,1.0,1.0],"metallicFactor":1.0,"roughnessFactor":1.0,"baseColorTexture":{"index":0,"texCoord":0},"metallicRoughnessTexture":{"index":1,"texCoord":0}}}],"textures":[{"name":"T_NYT_baseColor ","sampler":0,"source":0},{"name":"T_NYT_occlusionRoughnessMetallic ","sampler":1,"source":1},{"name":"T_NYT_normal ","sampler":2,"source":2},{"name":"T_NYT_occlusionRoughnessMetallic 3","sampler":3,"source":1}],"images":[{"mimeType":"image/png","uri":"T_NYT_baseColor.png"},{"mimeType":"image/png","uri":"T_NYT_occlusionRoughnessMetallic.png"},{"mimeType":"image/png","uri":"T_NYT_normal.png"}],"samplers":[{"wrapS":10497,"wrapT":10497},{"wrapS":10497,"wrapT":10497},{"wrapS":10497,"wrapT":10497},{"wrapS":10497,"wrapT":10497}],"cameras":[{"name":"Camera","type":"perspective","perspective":{"znear":0.01,"yfov":0.8726}}]}