{
  "accessors": [
    {
      "bufferView": 0,
      "componentType": 5125,
      "count": 35976,
      "type": "SCALAR"
    },
    {
      "bufferView": 1,
      "componentType": 5126,
      "count": 16969,
      "max": [
        0.531191766262054,
        1.20832622051239,
        0.194232627749443
      ],
      "min": [
        -0.531191766262054,
        0.0,
        -0.192499980330467
      ],
      "type": "VEC3"
    },
    {
      "bufferView": 2,
      "componentType": 5126,
      "count": 16969,
      "type": "VEC3"
    },
    {
      "bufferView": 3,
      "componentType": 5126,
      "count": 16969,
      "type": "VEC2"
    },
    {
      "bufferView": 4,
      "componentType": 5125,
      "count": 263235,
      "type": "SCALAR"
    },
    {
      "bufferView": 5,
      "componentType": 5126,
      "count": 50655,
      "max": [
        0.493699938058853,
        1.20540773868561,
        0.217874243855476
      ],
      "min": [
        -0.52848869562149,
        0.0926604866981506,
        -0.193592265248299
      ],
      "type": "VEC3"
    },
    {
      "bufferView": 6,
      "componentType": 5126,
      "count": 50655,
      "type": "VEC3"
    },
    {
      "bufferView": 7,
      "componentType": 5126,
      "count": 50655,
      "type": "VEC2"
    }
  ],
  "asset": {
    "generator": "Substance Painter 6.1.3",
    "version": "2.0"
  },
  "bufferViews": [
    {
      "buffer": 0,
      "byteLength": 143904,
      "target": 34963
    },
    {
      "buffer": 0,
      "byteLength": 203628,
      "byteOffset": 143904,
      "target": 34962
    },
    {
      "buffer": 0,
      "byteLength": 203628,
      "byteOffset": 347532,
      "target": 34962
    },
    {
      "buffer": 0,
      "byteLength": 135752,
      "byteOffset": 551160,
      "target": 34962
    },
    {
      "buffer": 0,
      "byteLength": 1052940,
      "byteOffset": 686912,
      "target": 34963
    },
    {
      "buffer": 0,
      "byteLength": 607860,
      "byteOffset": 1739852,
      "target": 34962
    },
    {
      "buffer": 0,
      "byteLength": 607860,
      "byteOffset": 2347712,
      "target": 34962
    },
    {
      "buffer": 0,
      "byteLength": 405240,
      "byteOffset": 2955572,
      "target": 34962
    }
  ],
  "buffers": [
    {
      "byteLength": 3360812,
      "uri": "shoecabinet_lattice_lightwood.bin"
    }
  ],
  "images": [
    {
      "uri": "T_shoecabT1_lightwood_baseColor.png"
    },
    {
      "uri": "T_shoecabT1_lightwood_occlusionRoughnessMetallic.png"
    },
    {
      "uri": "T_shoecabT1_lightwood_normal.png"
    },
    {
      "uri": "T_shoecabT2_lightwood_baseColor.png"
    },
    {
      "uri": "T_shoecabT2_lightwood_occlusionRoughnessMetallic.png"
    },
    {
      "uri": "T_shoecabT2_lightwood_normal.png"
    }
  ],
  "materials": [
    {
      "alphaMode": "OPAQUE",
      "name": "T_shoecabT1_lightwood",
      "normalTexture": {
        "index": 2
      },
      "occlusionTexture": {
        "index": 1
      },
      "pbrMetallicRoughness": {
        "baseColorTexture": {
          "index": 0
        },
        "metallicRoughnessTexture": {
          "index": 1
        }
      }
    },
    {
      "alphaMode": "OPAQUE",
      "name": "T_shoecabT2_lightwood",
      "normalTexture": {
        "index": 5
      },
      "occlusionTexture": {
        "index": 4
      },
      "pbrMetallicRoughness": {
        "baseColorTexture": {
          "index": 3
        },
        "metallicRoughnessTexture": {
          "index": 4
        }
      }
    }
  ],
  "meshes": [
    {
      "name": "cube2",
      "primitives": [
        {
          "attributes": {
            "NORMAL": 2,
            "POSITION": 1,
            "TEXCOORD_0": 3
          },
          "indices": 0,
          "material": 0,
          "mode": 4
        }
      ]
    },
    {
      "name": "cube2",
      "primitives": [
        {
          "attributes": {
            "NORMAL": 6,
            "POSITION": 5,
            "TEXCOORD_0": 7
          },
          "indices": 4,
          "material": 1,
          "mode": 4
        }
      ]
    }
  ],
  "nodes": [
    {
      "children": [
        1
      ],
      "name": "RootNode"
    },
    {
      "children": [
        2,
        3
      ],
      "name": "cube2"
    },
    {
      "mesh": 0,
      "name": "cube2"
    },
    {
      "mesh": 1,
      "name": "cube2"
    }
  ],
  "samplers": [
    {
      "magFilter": 9729,
      "minFilter": 9985,
      "wrapS": 10497,
      "wrapT": 10497
    }
  ],
  "scene": 0,
  "scenes": [
    {
      "name": "Scene",
      "nodes": [
        0
      ]
    }
  ],
  "textures": [
    {
      "sampler": 0,
      "source": 0
    },
    {
      "sampler": 0,
      "source": 1
    },
    {
      "sampler": 0,
      "source": 2
    },
    {
      "sampler": 0,
      "source": 3
    },
    {
      "sampler": 0,
      "source": 4
    },
    {
      "sampler": 0,
      "source": 5
    }
  ]
}