{
  "accessors": [
    {
      "bufferView": 0,
      "componentType": 5125,
      "count": 44226,
      "type": "SCALAR"
    },
    {
      "bufferView": 1,
      "componentType": 5126,
      "count": 9500,
      "max": [
        1.0,
        0.775496602058411,
        0.603159785270691
      ],
      "min": [
        -1.0,
        -0.775496602058411,
        -0.603159785270691
      ],
      "type": "VEC3"
    },
    {
      "bufferView": 2,
      "componentType": 5126,
      "count": 9500,
      "type": "VEC3"
    },
    {
      "bufferView": 3,
      "componentType": 5126,
      "count": 9500,
      "type": "VEC2"
    }
  ],
  "asset": {
    "generator": "Substance Painter 2019.3.3",
    "version": "2.0"
  },
  "bufferViews": [
    {
      "buffer": 0,
      "byteLength": 176904,
      "target": 34963
    },
    {
      "buffer": 0,
      "byteLength": 114000,
      "byteOffset": 176904,
      "target": 34962
    },
    {
      "buffer": 0,
      "byteLength": 114000,
      "byteOffset": 290904,
      "target": 34962
    },
    {
      "buffer": 0,
      "byteLength": 76000,
      "byteOffset": 404904,
      "target": 34962
    }
  ],
  "buffers": [
    {
      "byteLength": 480904,
      "uri": "brook_study_desk.bin"
    }
  ],
  "images": [
    {
      "uri": "T_brookdesk_baseColor.png"
    },
    {
      "uri": "T_brookdesk_occlusionRoughnessMetallic.png"
    },
    {
      "uri": "T_brookdesk_normal.png"
    }
  ],
  "materials": [
    {
      "alphaMode": "OPAQUE",
      "name": "T_brookdesk",
      "normalTexture": {
        "index": 2
      },
      "occlusionTexture": {
        "index": 1
      },
      "pbrMetallicRoughness": {
        "baseColorTexture": {
          "index": 0
        },
        "metallicRoughnessTexture": {
          "index": 1
        }
      }
    }
  ],
  "meshes": [
    {
      "name": "brook",
      "primitives": [
        {
          "attributes": {
            "NORMAL": 2,
            "POSITION": 1,
            "TEXCOORD_0": 3
          },
          "indices": 0,
          "material": 0,
          "mode": 4
        }
      ]
    }
  ],
  "nodes": [
    {
      "children": [
        1
      ],
      "name": "root",
      "scale": [
        0.53726989030838,
        0.53726989030838,
        0.53726989030838
      ],
      "translation": [
        0.000483214855194092,
        0.416650980710983,
        0.0
      ]
    },
    {
      "children": [
        2
      ],
      "name": "brook"
    },
    {
      "mesh": 0,
      "name": "brook"
    }
  ],
  "samplers": [
    {
      "magFilter": 9729,
      "minFilter": 9985,
      "wrapS": 10497,
      "wrapT": 10497
    }
  ],
  "scene": 0,
  "scenes": [
    {
      "name": "Scene",
      "nodes": [
        0
      ]
    }
  ],
  "textures": [
    {
      "sampler": 0,
      "source": 0
    },
    {
      "sampler": 0,
      "source": 1
    },
    {
      "sampler": 0,
      "source": 2
    }
  ]
}