{
  "accessors": [
    {
      "bufferView": 0,
      "componentType": 5125,
      "count": 59967,
      "type": "SCALAR"
    },
    {
      "bufferView": 1,
      "componentType": 5126,
      "count": 15060,
      "max": [
        0.627721011638641,
        0.99999988079071,
        0.663859724998474
      ],
      "min": [
        -0.627721011638641,
        -1.00000011920929,
        -0.663859724998474
      ],
      "type": "VEC3"
    },
    {
      "bufferView": 2,
      "componentType": 5126,
      "count": 15060,
      "type": "VEC3"
    },
    {
      "bufferView": 3,
      "componentType": 5126,
      "count": 15060,
      "type": "VEC2"
    }
  ],
  "asset": {
    "generator": "Substance Painter 2019.2.3",
    "version": "2.0"
  },
  "bufferViews": [
    {
      "buffer": 0,
      "byteLength": 239868,
      "target": 34963
    },
    {
      "buffer": 0,
      "byteLength": 180720,
      "byteOffset": 239868,
      "target": 34962
    },
    {
      "buffer": 0,
      "byteLength": 180720,
      "byteOffset": 420588,
      "target": 34962
    },
    {
      "buffer": 0,
      "byteLength": 120480,
      "byteOffset": 601308,
      "target": 34962
    }
  ],
  "buffers": [
    {
      "byteLength": 721788,
      "uri": "lajachair.bin"
    }
  ],
  "images": [
    {
      "uri": "T_laja_baseColor.png"
    },
    {
      "uri": "T_laja_occlusionRoughnessMetallic.png"
    },
    {
      "uri": "T_laja_normal.png"
    }
  ],
  "materials": [
    {
      "alphaMode": "OPAQUE",
      "name": "T_laja",
      "normalTexture": {
        "index": 2
      },
      "occlusionTexture": {
        "index": 1
      },
      "pbrMetallicRoughness": {
        "baseColorTexture": {
          "index": 0
        },
        "metallicRoughnessTexture": {
          "index": 1
        }
      }
    }
  ],
  "meshes": [
    {
      "name": "laja",
      "primitives": [
        {
          "attributes": {
            "NORMAL": 2,
            "POSITION": 1,
            "TEXCOORD_0": 3
          },
          "indices": 0,
          "material": 0,
          "mode": 4
        }
      ]
    }
  ],
  "nodes": [
    {
      "children": [
        1
      ],
      "name": "root",
      "scale": [
        0.399323612451553,
        0.399323612451553,
        0.399323612451553
      ],
      "translation": [
        0.0,
        0.399323642253876,
        0.0
      ]
    },
    {
      "children": [
        2
      ],
      "name": "laja"
    },
    {
      "mesh": 0,
      "name": "laja"
    }
  ],
  "samplers": [
    {
      "magFilter": 9729,
      "minFilter": 9985,
      "wrapS": 10497,
      "wrapT": 10497
    }
  ],
  "scene": 0,
  "scenes": [
    {
      "name": "Scene",
      "nodes": [
        0
      ]
    }
  ],
  "textures": [
    {
      "sampler": 0,
      "source": 0
    },
    {
      "sampler": 0,
      "source": 1
    },
    {
      "sampler": 0,
      "source": 2
    }
  ]
}