{"asset":{"generator":"Modov11.2","version":"2.0"},"scene":0,"scenes":[{"nodes":[0,1,2,5]}],"nodes":[{"name":"Mesh","matrix":[1.0,0.0,0.0,0.0,0.0,3.005829095840454,0.0,0.0,0.0,0.0,1.0,0.0,0.0,0.0,0.0,1.0]},{"name":"Camera","matrix":[1.0,0.0,0.0,0.0,0.0,0.9961947202682495,-0.08715573698282242,0.0,0.0,0.08715573698282242,0.9961947202682495,0.0,0.0,0.75,4.0,1.0],"camera":0},{"name":"happynewyear_stars","children":[3,4]},{"name":"Cube"},{"name":"happynewyear_stars2","rotation":[0.6755901575088501,0.0,0.0,0.7372773289680481],"translation":[0.0,-4.440892098500626e-16,-4.440892098500626e-16],"scale":[1.0,1.0,1.0],"mesh":0},{"name":"Texture Group"}],"meshes":[{"primitives":[{"indices":1,"mode":4,"material":1,"attributes":{"POSITION":0,"NORMAL":2,"TEXCOORD_0":3}}]}],"buffers":[{"byteLength":745600,"uri":"StarText_HappyNewYear.bin"}],"bufferViews":[{"buffer":0,"byteLength":209688},{"buffer":0,"byteLength":184800,"byteOffset":209688},{"buffer":0,"byteLength":209688,"byteOffset":394488},{"buffer":0,"byteLength":139792,"byteOffset":604176},{"buffer":0,"byteLength":408,"byteOffset":743968},{"buffer":0,"byteLength":1224,"byteOffset":744376}],"accessors":[{"bufferView":0,"type":"VEC3","componentType":5126,"count":17474,"min":[-0.8072818517684937,-0.05479063093662262,-3.208265781402588],"max":[0.8075727820396423,0.3209054172039032,0.0047935000620782379]},{"bufferView":1,"type":"SCALAR","componentType":5125,"count":46200},{"bufferView":2,"type":"VEC3","componentType":5126,"count":17474},{"bufferView":3,"type":"VEC2","componentType":5126,"count":17474},{"bufferView":4,"type":"SCALAR","componentType":5126,"count":102,"min":[0.0],"max":[4.208333492279053]},{"bufferView":5,"type":"VEC3","componentType":5126,"count":102}],"materials":[{"pbrMetallicRoughness":{"metallicFactor":0.5,"roughnessFactor":0.5}},{"name":"T_color","emissiveFactor":[0.0,0.0,0.0],"alphaMode":"OPAQUE","doubleSided":false,"normalTexture":{"index":2,"texCoord":0},"occlusionTexture":{"index":3,"texCoord":0},"pbrMetallicRoughness":{"baseColorFactor":[1.0,1.0,1.0,1.0],"metallicFactor":1.0,"roughnessFactor":1.0,"baseColorTexture":{"index":0,"texCoord":0},"metallicRoughnessTexture":{"index":1,"texCoord":0}}}],"textures":[{"name":"T_color_baseColor ","sampler":0,"source":0},{"name":"T_color_occlusionRoughnessMetallic ","sampler":1,"source":1},{"name":"T_color_normal ","sampler":2,"source":2},{"name":"T_color_occlusionRoughnessMetallic 2","sampler":3,"source":1}],"images":[{"mimeType":"image/png","uri":"T_color_baseColor.png"},{"mimeType":"image/png","uri":"T_color_occlusionRoughnessMetallic.png"},{"mimeType":"image/png","uri":"T_color_normal.png"}],"samplers":[{"wrapS":10497,"wrapT":10497},{"wrapS":10497,"wrapT":10497},{"wrapS":10497,"wrapT":10497},{"wrapS":10497,"wrapT":10497}],"animations":[{"channels":[{"sampler":0,"target":{"node":4,"path":"scale"}}],"samplers":[{"input":4,"output":5,"interpolation":"LINEAR"}]}],"cameras":[{"name":"Camera","type":"perspective","perspective":{"znear":0.01,"yfov":0.8726}}]}