{
  "accessors": [
    {
      "bufferView": 0,
      "componentType": 5125,
      "count": 334956,
      "type": "SCALAR"
    },
    {
      "bufferView": 1,
      "componentType": 5126,
      "count": 65804,
      "max": [
        1.00000047683716,
        0.34457403421402,
        0.439626336097717
      ],
      "min": [
        -1.00000035762787,
        -0.344573855400085,
        -0.439626127481461
      ],
      "type": "VEC3"
    },
    {
      "bufferView": 2,
      "componentType": 5126,
      "count": 65804,
      "type": "VEC3"
    },
    {
      "bufferView": 3,
      "componentType": 5126,
      "count": 65804,
      "type": "VEC2"
    }
  ],
  "asset": {
    "generator": "Substance Painter 2019.2.3",
    "version": "2.0"
  },
  "bufferViews": [
    {
      "buffer": 0,
      "byteLength": 1339824,
      "target": 34963
    },
    {
      "buffer": 0,
      "byteLength": 789648,
      "byteOffset": 1339824,
      "target": 34962
    },
    {
      "buffer": 0,
      "byteLength": 789648,
      "byteOffset": 2129472,
      "target": 34962
    },
    {
      "buffer": 0,
      "byteLength": 526432,
      "byteOffset": 2919120,
      "target": 34962
    }
  ],
  "buffers": [
    {
      "byteLength": 3445552,
      "uri": "lennox.bin"
    }
  ],
  "images": [
    {
      "uri": "T_lennox_baseColor.png"
    },
    {
      "uri": "T_lennox_occlusionRoughnessMetallic.png"
    },
    {
      "uri": "T_lennox_normal.png"
    }
  ],
  "materials": [
    {
      "alphaMode": "OPAQUE",
      "name": "T_lennox",
      "normalTexture": {
        "index": 2
      },
      "occlusionTexture": {
        "index": 1
      },
      "pbrMetallicRoughness": {
        "baseColorTexture": {
          "index": 0
        },
        "metallicRoughnessTexture": {
          "index": 1
        }
      }
    }
  ],
  "meshes": [
    {
      "name": "lennox",
      "primitives": [
        {
          "attributes": {
            "NORMAL": 2,
            "POSITION": 1,
            "TEXCOORD_0": 3
          },
          "indices": 0,
          "material": 0,
          "mode": 4
        }
      ]
    }
  ],
  "nodes": [
    {
      "children": [
        1
      ],
      "name": "lennox.obj",
      "scale": [
        1.27201461791992,
        1.27201461791992,
        1.27201461791992
      ],
      "translation": [
        -1.50203704833984e-05,
        0.43814080953598,
        -0.000236153602600098
      ]
    },
    {
      "children": [
        2
      ],
      "name": "g lennox"
    },
    {
      "mesh": 0,
      "name": "lennox"
    }
  ],
  "samplers": [
    {
      "magFilter": 9729,
      "minFilter": 9985,
      "wrapS": 10497,
      "wrapT": 10497
    }
  ],
  "scene": 0,
  "scenes": [
    {
      "name": "Scene",
      "nodes": [
        0
      ]
    }
  ],
  "textures": [
    {
      "sampler": 0,
      "source": 0
    },
    {
      "sampler": 0,
      "source": 1
    },
    {
      "sampler": 0,
      "source": 2
    }
  ]
}